<?xml version="1.0" encoding="UTF-8" standalone="no"?>
<svg width="214px" height="397px" viewBox="0 0 214 397" version="1.1" xmlns="http://www.w3.org/2000/svg" xmlns:xlink="http://www.w3.org/1999/xlink">
    <!-- Generator: sketchtool 39.1 (31720) - http://www.bohemiancoding.com/sketch -->
    <title>83ECFA54-8B3F-4256-8304-710408235D74</title>
    <desc>Created with sketchtool.</desc>
    <defs></defs>
    <g id="Grid" stroke="none" stroke-width="1" fill="none" fill-rule="evenodd">
        <g id="Home-–-Grid" transform="translate(-933.000000, -1674.000000)">
            <g id="DOG_Logo_L_RGB" transform="translate(933.000000, 1674.000000)">
                <path d="M130.291577,358.556352 C130.291577,354.792792 129.833005,351.6229 128.407154,347.067172 C126.367428,340.538049 121.576274,335.334906 117.915651,333.496491 C110.224491,329.632765 108.054531,328.135769 97.4676451,327.39796 C97.3948851,327.393685 97.3270166,327.39002 97.2554794,327.384523 L97.3025594,327.306955 C90.3010909,326.662594 82.0113423,327.812062 78.3898509,329.423882 L74.4290166,330.712605 L73.5919709,331.7332 L71.0631023,332.634695 L71.241028,333.324254 L67.294868,337.157442 L66.5550394,337.465269 C65.6947594,338.644665 64.8473194,339.845437 64.0096623,341.060257 L64.1068794,341.515891 L61.9613766,344.088451 C61.8727194,344.221598 61.7852851,344.354746 61.696628,344.489115 L59.9901309,348.198317 L58.4334337,354.13194 C58.2891366,354.368308 58.1454509,356.127934 58.0011537,356.364912 L58.5159766,361.450177 L57.660588,360.044186 C57.2001823,367.038715 60.6804337,379.582083 62.9842966,382.34276 L63.9375137,383.48612 C67.6874051,389.398977 72.6638223,391.627063 76.1465194,393.394629 C87.7826166,399.301989 105.112948,395.911609 111.246188,393.585189 C113.082308,392.889523 119.697965,388.055895 121.672879,385.491275 C122.824199,383.995502 127.307194,377.805355 127.988937,376.106806 C128.648668,374.45834 129.488771,371.457631 129.414788,368.975465 C129.298005,365.145331 130.291577,362.417635 130.291577,358.556352" id="Fill-1" fill="#FFDE00"></path>
                <path d="M213.499607,25.6733792 C212.79463,19.6548592 207.452578,12.2865392 204.326955,10.0859377 C202.303738,8.66162385 199.409235,7.16829308 194.644984,4.92738077 C192.463407,3.69973462 189.64411,2.73899462 183.608087,1.78314077 L183.047407,1.91751 L178.709933,2.49285462 L178.701984,2.49285462 L175.904087,1.33727923 L175.431453,1.87048077 L170.04171,0.758880769 L169.371584,0.320348462 C167.910881,0.271486923 166.440395,0.244613077 164.963795,0.233008462 L164.640961,0.568931538 L161.305618,0.239116154 C161.144813,0.240337692 160.98523,0.243391538 160.825647,0.245223846 L156.94919,1.15588077 L148.977995,2.00362846 C148.70163,2.01706538 148.425264,2.02989154 148.148287,2.04393923 L141.47699,3.21356231 L142.842921,2.33344385 C133.309527,2.88680077 124.281173,3.04254692 115.16355,3.10545615 L115.164161,3.10545615 C107.581224,3.18852077 100.939887,1.99263462 96.363344,2.40795769 C77.1473669,4.15597923 51.7688011,-3.37724846 32.7166869,4.28301923 C22.9882469,8.19438538 14.658144,17.7492592 10.4441783,25.2721038 C10.0204583,26.0276254 6.67716686,29.3245577 6.57872686,29.8809685 C6.49496114,29.9542608 6.38796114,30.0293854 6.28768686,30.1075638 C3.04772686,32.5347608 1.37546971,37.25845 1.26908114,38.3608885 C1.176144,39.3002515 0.752424,41.9222838 0.979264,41.3292269 C0.949915429,41.7903577 0.926069714,42.25271 0.924235429,42.7113977 C0.490121143,46.8725685 -0.273553143,53.0895885 0.134881143,56.8696392 C0.480338286,60.04625 0.199081143,65.7319008 2.13608686,69.7165592 C5.89148114,77.4537838 16.4453497,126.656132 18.2472297,133.629284 C19.3581954,137.927267 19.5807554,137.659139 20.6978354,146.172652 C21.2310011,150.272745 26.2000811,172.463824 27.1208926,178.577013 C28.6464069,188.844044 32.5534354,199.580756 34.8707497,210.139735 C36.3228926,216.752533 39.8386069,236.75889 39.8386069,236.75889 L43.3732754,260.512316 C43.3732754,260.512316 44.5190926,268.65387 44.528264,268.925052 L45.5193897,275.469444 C45.5193897,275.469444 49.0192069,291.006192 49.5052926,294.592628 C49.8348526,297.068076 52.4474869,306.398187 52.4474869,306.398187 L52.3936811,307.047435 L54.3997783,310.189232 C54.3997783,310.189232 55.2826811,311.500553 55.754704,311.976342 C56.2273383,312.451521 57.1744411,312.767899 57.1744411,312.767899 C57.1744411,312.767899 58.2291554,313.182001 58.7983954,313.207653 C58.9592011,313.214982 59.3333954,313.438524 59.3333954,313.438524 L60.1404811,313.295604 C60.1404811,313.295604 64.1636811,313.812925 67.5540526,313.977833 C71.089944,314.149459 73.0092183,313.192384 79.0910983,313.899044 C91.0781554,315.290987 98.7460811,311.878619 110.772881,312.793552 C117.807978,313.329807 119.068133,313.95157 128.62843,314.052958 C129.470978,314.058455 130.583167,314.325972 131.379247,314.310702 C131.637881,314.304595 132.937778,314.153124 133.906893,314.012036 C133.993715,313.998599 134.098881,313.977833 134.211995,313.952181 C135.17683,313.958288 135.907487,313.943019 136.186298,313.884996 C136.49079,313.820865 136.699898,313.502044 136.95731,313.365842 L137.778458,313.021979 C137.811475,313.009153 137.983287,313.031752 137.996127,312.99877 L138.219298,311.804716 L138.631401,311.911601 L138.942618,311.451081 C138.96463,311.416267 139.002538,311.396112 139.043504,311.396722 L139.407304,311.110882 C139.49107,311.113325 139.824298,311.08523 139.79495,311.003998 L139.732584,310.552028 C139.72219,310.523322 139.722801,310.491562 139.734418,310.462856 L139.939247,309.927212 L140.469355,309.759861 L140.319555,308.983573 C140.306104,308.943262 140.315275,308.897455 140.34279,308.863252 L140.761007,308.344098 C140.764064,308.338601 140.76651,308.334936 140.768955,308.331272 C140.768955,308.331272 141.22875,306.746325 141.214075,306.397576 C141.204293,306.166705 141.576653,305.261545 141.38711,304.754607 C141.670201,302.856947 142.107984,299.790275 142.899173,297.222601 C143.586418,294.989628 149.986853,267.996072 154.294367,250.47921 C158.402555,233.774672 159.757481,221.254513 165.485955,203.983792 C169.277424,192.55691 176.870144,164.48107 180.560727,151.270742 C182.774098,143.359448 184.450024,136.371638 186.596138,129.541405 C188.45855,123.623052 191.598235,115.417978 193.342641,109.965641 C195.609207,102.889268 198.188213,97.7111669 200.124607,90.7893192 C201.640338,80.23767 209.823087,60.4316454 212.836818,42.6368838 C213.227521,40.2750392 214.248607,32.0614146 213.499607,25.6733792" id="Fill-3" fill="#FFDE00"></path>
                <path d="M120.486035,357.733219 C120.47075,354.874208 118.778927,349.729699 117.64167,346.87252 C116.890224,344.987686 110.723967,338.659506 107.534755,337.419034 C90.7021269,330.872809 82.3567383,335.821262 76.666784,337.72564 C68.688864,342.087143 62.2205611,349.264903 61.143224,358.563254 C60.4254069,364.743628 63.103464,374.004111 65.7735726,378.697262 C65.9374354,378.984323 66.1190297,379.245732 66.2938983,379.516303 C67.7319783,383.264594 72.3543783,387.800777 74.1776583,388.944137 L76.041904,388.773122 L78.9834869,390.32814 L81.511744,390.325086 C81.5423154,390.333637 81.571664,390.34402 81.601624,390.352571 L81.6407554,390.742852 L82.714424,390.885162 L83.159544,391.702982 L84.2778469,391.210091 L85.894464,391.229636 L85.9666126,391.646791 L86.8709154,391.259563 L88.1194526,391.490434 L91.6840811,391.902703 L94.2435211,392.564166 C94.6825269,392.561112 96.6121954,391.682216 96.8885611,391.705425 C99.2443954,391.903314 100.678195,390.833246 102.192093,390.035582 C102.755218,389.863956 103.395384,389.620869 104.105253,389.307545 C104.263001,389.277617 104.423807,389.253797 104.590115,389.239139 L104.418915,389.166457 C106.512447,388.213046 109.32135,387.037316 111.814755,384.982077 C114.070315,383.123506 116.538041,379.967051 117.965727,377.379832 C118.883481,375.714876 119.68323,373.601614 120.152807,369.543663 C120.503155,366.510583 120.503155,360.843256 120.486035,357.733219" id="Fill-5" fill="#D20911"></path>
                <path d="M205.766625,25.6951837 C204.305311,18.7757791 194.175774,13.874356 190.472351,11.5900791 C184.902848,8.15816677 177.862859,5.77066985 168.108128,6.10353908 C140.713682,7.03129754 118.841659,5.63630062 106.130671,6.96594523 C97.9797166,7.81735754 62.5510994,5.59598985 50.7749851,10.888916 C40.6014251,15.462356 38.3880537,22.4428375 35.304008,28.2194929 C34.9120823,28.9530268 34.846048,31.1609575 34.7512766,31.723476 C34.6809623,31.7992114 36.8050651,32.4185314 34.2431794,36.0422252 C31.6990251,40.6156652 31.4446709,47.2217452 31.7791223,51.1056268 C31.8610537,52.0565945 30.9182309,56.3521345 30.9047794,56.8108222 C30.4400937,61.0037529 32.3025051,69.994276 32.6669166,73.6332391 C33.0631223,77.584916 35.0380366,86.3635022 35.3798251,89.9487175 C35.4929394,91.1342206 38.2425337,133.913719 38.7946537,138.873165 C39.1211566,141.807301 41.407288,145.694236 41.0789509,151.915531 C40.7536709,158.110564 42.7114651,175.066128 44.0168651,181.914073 C45.9538709,192.068722 51.7850651,213.813328 54.4631223,223.976528 C56.1653394,230.443353 58.8599051,240.872238 58.8599051,240.872238 L61.5324594,258.088601 L63.0695909,270.862839 L63.8852366,286.00503 L64.5009451,292.435208 C66.6238251,302.183696 67.1203051,303.275751 67.130088,306.878068 C67.1404823,310.838907 67.6284023,315.550381 67.6284023,315.550381 L68.2795737,317.013173 L68.8751051,317.446208 L70.0252023,317.614781 C70.0252023,317.614781 70.3932823,317.446208 70.6647566,317.500567 C70.7748137,317.521944 72.5259451,318.030714 72.5259451,318.030714 L72.9441623,318.070414 C72.9441623,318.070414 77.3929166,318.187682 82.0306023,318.748368 C91.6453166,319.904554 98.7427794,319.11483 108.405797,319.792173 C110.724945,319.955859 112.580631,319.946087 114.495625,319.872184 C114.905894,319.966242 115.287425,320.051139 115.616374,320.107941 L123.001208,319.733539 L124.093831,319.903944 L125.146099,319.603445 L125.810111,319.955859 L125.953185,319.585733 L127.287322,319.595505 L127.973957,319.524045 L128.608008,319.169799 L129.506197,318.990844 L129.585071,318.393511 L130.653237,317.389407 L131.389397,315.635278 C131.425471,315.439831 131.440145,315.24011 131.467659,315.039778 C131.490894,314.869984 131.525745,314.702633 131.565488,314.534061 C131.773985,314.092474 131.940905,313.757773 132.127391,313.204416 C132.531545,311.985321 133.975739,308.457518 134.652591,305.126993 C138.181757,287.793362 144.504539,274.945221 148.827339,257.29399 C152.936139,240.519213 154.697665,227.388896 159.791477,209.908681 C163.161059,198.344376 172.828357,169.820231 176.167368,156.462098 C178.166739,148.464074 179.475808,140.572325 181.399974,133.663914 C183.059391,127.678376 184.189311,122.562573 185.744785,117.046716 C187.760054,109.883614 190.483968,99.7833237 192.234488,92.7845191 L192.511465,92.5078406 C194.029642,81.8700729 204.104151,59.1024283 207.465174,41.2313206 C208.409831,36.2083545 206.853745,30.8433575 205.766625,25.6951837" id="Fill-7" fill="#D20911"></path>
                <path d="M57.963612,209.062826 C68.8886177,216.971677 68.958932,194.384209 55.6701434,178.846851 C46.2694291,167.856059 43.4177263,172.617005 46.9542291,184.437832 C49.0080177,191.300436 52.9596806,203.970843 57.5025949,208.678042 C57.2464063,208.385483 58.1831149,209.205136 57.963612,209.062826" id="Fill-9" fill="#000000"></path>
                <path d="M42.6328354,84.6681289 C39.405104,79.3330597 36.5093783,73.6901628 31.410064,70.1128874 C30.1334011,69.2181105 25.4663669,66.6424966 25.3936069,67.9751951 C25.3832126,68.1565935 26.6519269,71.6642412 27.0805383,72.617652 C27.6662869,73.9167582 27.7928526,75.1450151 28.1823326,76.3543382 C28.2997269,76.7201889 28.4250697,77.1006982 28.5675326,77.5080812 C28.6500754,77.7462812 28.9172697,77.8018612 29.0040926,78.0382289 C29.8338011,80.2962428 30.8139211,82.4858505 31.499944,84.7945582 C31.6087783,85.1579658 31.7170011,85.5232058 31.8276697,85.8914997 C33.4100469,91.2009166 35.1611783,96.9586382 37.0804526,102.437849 C37.316464,103.110917 37.397784,104.049669 37.6386869,104.712964 C37.770144,105.073318 38.0581269,105.16188 38.1908069,105.51918 C38.7368126,106.991744 39.0657611,108.522332 39.6374469,109.916718 C44.220104,102.984487 47.7431554,93.1132351 42.6328354,84.6681289" id="Fill-11" fill="#000000"></path>
                <path d="M160.465943,16.4638343 C160.469612,16.2115866 160.448823,15.9135312 160.446989,15.6325774 C160.442709,15.8603943 160.443321,16.1486774 160.465943,16.4638343" id="Fill-13" fill="#000000"></path>
                <path d="M161.304885,14.3052537 C161.300605,14.3046429 161.292656,14.3052537 161.288987,14.3046429 C161.272479,14.3651091 161.283485,14.3742706 161.304885,14.3052537" id="Fill-15" fill="#000000"></path>
                <path d="M153.574838,68.9399051 C153.071632,69.1793266 154.940158,69.8194128 155.203683,69.9354589 C155.729512,70.1675512 156.251672,70.4259066 156.789118,70.6305143 C157.690363,70.9737666 158.635021,71.2302897 159.552775,71.525902 C161.043438,72.0065774 161.592501,72.2111851 162.283415,70.612802 C162.649049,69.7674974 163.147363,68.9863235 163.521558,68.1440728 C159.172466,67.7776112 154.806255,67.6853851 150.485289,67.1479082 C151.513101,67.7806651 152.421683,68.5190851 153.574838,68.9399051" id="Fill-17" fill="#000000"></path>
                <path d="M196.800575,34.6303711 C196.786513,34.7842849 196.634878,35.0365326 196.634878,35.0365326 C196.634878,35.0365326 196.574347,35.7780065 196.664227,35.9410818 C196.459398,35.9410818 196.343227,36.1328634 196.460621,36.1615695 C196.547444,36.3997695 196.428827,36.843188 196.334667,36.8175357 C196.263741,36.7979911 196.07053,37.0844418 196.047907,37.232248 C196.432495,37.5028188 196.337113,37.6823849 196.383581,37.8137003 C196.201987,37.7776649 195.799055,38.4092003 195.797221,38.4244695 C195.744027,38.7781049 195.765427,38.5020372 195.506181,38.7420695 C194.902701,38.7701649 193.889564,38.6046465 193.306873,38.5118095 C191.49093,38.2241372 188.930878,37.4356342 187.132055,37.057568 C186.131758,36.8462418 185.136353,36.6929388 184.144004,36.5518511 L184.273627,35.9661234 L184.269347,35.9649018 C182.447901,35.7041034 180.505393,36.0681218 178.682724,35.6082126 C174.230913,34.4837865 170.375244,33.2402603 165.88797,32.2801311 C165.540067,32.206228 165.125518,32.1494265 164.869941,32.3973988 C164.698741,32.563528 164.654718,32.817608 164.621701,33.0539757 C164.60397,33.1767403 164.706078,32.7027834 164.68529,32.8212726 C164.688958,32.8224942 164.56117,33.4070003 164.566673,33.4076111 C164.444998,34.5228757 164.131335,35.4823942 163.978478,35.9013818 C163.936901,36.1078218 163.890433,36.3099865 163.859861,36.5261988 C163.795661,36.9714495 163.61529,37.4954895 163.330975,37.8759988 C163.276558,38.2094788 163.228867,38.3982065 163.18729,38.4256911 C163.039324,38.5912095 162.361861,39.4493403 162.072044,39.7431203 C161.981553,39.8054188 161.250284,39.8854295 161.050347,39.8555018 C160.81189,39.8194665 160.634575,39.6429542 160.519015,39.3253542 C160.530633,39.2520618 159.382981,39.153728 159.382981,39.153728 C159.354855,39.0749388 159.260695,39.0230234 159.100501,38.9985926 C159.100501,38.9985926 158.940918,38.5808265 158.739758,38.5508988 C158.68473,38.3963742 158.007267,37.6799418 157.592718,37.6463495 C157.35365,37.6103142 157.222804,37.6658942 157.200181,37.8124788 L156.901804,37.7672818 C156.822318,37.7556772 156.775238,37.7300249 156.760564,37.6897142 C156.74589,37.6506249 156.719598,37.6268049 156.679244,37.6206972 C156.615044,37.065508 156.608318,36.5371926 156.635833,36.0278111 C156.591198,35.8232034 156.569187,35.6210388 156.59181,35.4475803 C156.785021,33.9243218 157.24665,31.999788 157.32369,31.6308834 C158.015215,28.3284542 158.555107,25.0272465 159.296158,21.7364218 C159.508935,20.7921726 160.085513,17.0499895 160.209633,15.4485526 C160.209021,15.4632111 160.209021,15.4839772 160.20841,15.4998572 C160.215747,15.317848 160.235924,15.1504972 160.286673,15.0216249 C160.338033,14.8921418 160.426078,14.7999157 160.531244,14.7290665 C160.531855,14.6734865 160.534301,14.6252357 160.53797,14.5922542 C160.570375,14.3784849 160.882815,14.3448926 161.045455,14.365048 C161.121273,14.0773757 161.622644,14.5348418 161.624478,14.5214049 L162.259753,14.579428 C162.248135,14.5995834 162.230404,14.6313434 162.216953,14.6551634 C162.649844,14.7522757 163.55109,14.9855895 164.079364,15.1834788 C164.203484,15.103468 164.337998,15.0277326 164.492078,14.9599372 C164.533044,14.9666557 164.56973,14.9910865 164.60397,15.0338403 C164.63821,15.0759834 164.675507,15.1004142 164.714638,15.1065218 C165.035027,15.3685418 165.337073,15.5707065 165.588981,15.7288957 C165.766907,15.7856972 165.935661,15.8321157 166.095244,15.8705942 C166.234038,15.8235649 166.509181,15.6708726 166.545255,15.7478295 C166.589278,15.8467742 167.140787,15.7203449 167.277135,15.9157911 C167.368238,15.9634311 167.780341,16.0196218 167.84821,16.0990218 C168.159427,16.461208 168.084833,16.8789742 167.945427,17.334608 C167.758941,17.9484311 167.489301,18.7094495 167.290587,19.2579203 C167.244118,19.6854588 167.188478,20.1789603 167.123667,20.7445326 C167.079644,21.0389234 166.806947,21.6454172 166.828958,22.3038265 C166.836907,22.5572957 166.312913,23.2389142 166.360604,23.7904388 C166.382004,24.0475726 166.402181,24.5209188 166.586221,24.7041495 C166.751918,24.8690572 166.997101,24.9166972 167.228221,24.9588403 C170.101324,25.481048 172.441261,26.2322942 175.35105,26.7190772 C177.427461,27.0672157 179.396873,27.870988 181.445158,28.3431126 C185.96973,29.3869172 190.855655,30.4288895 195.512907,31.2033449 C195.884655,31.2650326 196.377467,31.4897957 196.757164,31.4983465 C196.891678,31.9032865 197.07205,32.1872942 197.023747,32.4065603 C197.010907,32.4670265 196.99929,32.5207742 196.987061,32.579408 L197.061655,32.5745218 C197.028027,32.7950095 196.829924,34.2999449 196.710695,34.2816218 C196.705193,34.2810111 196.563953,34.4752357 196.800575,34.6303711 L196.800575,34.6303711 Z M190.66917,51.3929326 C191.048867,51.4063695 190.666113,51.4869911 190.66917,51.3929326 L190.66917,51.3929326 Z M191.246358,57.2795265 C191.246358,57.2721972 190.732758,59.2590295 190.033895,59.567468 C189.32525,59.8807926 188.375701,59.5772403 187.665833,59.4105003 C185.413941,58.8815742 183.281278,58.344708 180.98353,58.0894065 C176.930981,57.6386588 173.264855,57.0242249 169.278341,56.6119557 C164.429101,56.1105142 159.662404,55.5089065 154.863913,54.6422249 C153.676518,54.4272342 152.489735,54.207968 151.309067,53.9581634 C150.790575,53.8488357 150.187095,53.5953665 149.66677,53.5904803 C149.329261,53.3168557 149.124433,53.3138018 149.052284,53.5825403 C149.021101,53.7126342 148.937335,53.7956988 148.798541,53.8329557 C147.926033,53.6924788 146.689113,52.3829895 145.672307,53.0798772 C145.527398,53.1794326 145.26693,53.1153018 145.04437,53.1146911 C145.114073,52.7659418 144.555227,52.4672757 144.415821,52.8007557 C143.75609,52.0727188 143.326867,51.3147542 142.961844,50.4004326 C142.765575,49.9081526 142.612107,49.3835018 142.551575,48.8557972 C142.543627,48.784948 142.602935,47.8614649 142.535067,47.7539695 C142.585204,47.8345911 143.06273,46.2209388 143.103084,45.7213295 C143.148941,45.1313265 143.482781,43.9165065 143.558598,43.2483249 C143.742027,41.6438342 144.10705,40.3557218 144.405427,38.7683326 C144.700747,37.1876618 145.054153,35.6143203 145.492547,34.0666311 C145.666804,33.4503649 145.815993,32.7650818 146.14433,32.2056172 C146.302078,31.936268 146.824238,31.5270526 146.86337,31.261368 C146.856033,31.4983465 147.638661,30.0593742 147.835541,29.9616511 C148.123524,29.8193418 148.541741,30.4710326 148.546633,30.4667572 C148.321627,30.6444911 149.471113,30.459428 149.569553,30.1754203 C149.460718,30.4887449 150.287981,30.3152865 150.393147,30.3739203 C150.783238,30.5931865 150.683575,30.7648126 151.043707,31.158148 C151.552415,31.7151695 151.991421,31.4000126 152.371118,32.1237742 C153.429501,34.1466418 152.23477,37.9670034 151.765804,39.9831526 C151.50289,41.1124649 151.563421,43.4486572 151.419735,44.5950711 C151.308455,45.4892372 152.596124,45.4202203 153.293153,45.6535342 C155.035113,46.2368188 156.176038,46.522048 158.013381,46.6338188 C158.84737,46.6851234 160.049438,46.9178265 161.116381,47.0888418 C161.699073,47.1822895 162.630278,47.4082742 163.201353,47.1242665 C163.98765,46.7327634 163.617124,45.8447049 163.84213,45.1111711 C164.165575,44.0575942 164.621701,43.1029618 165.18177,42.178868 C165.287547,42.004188 165.573084,41.5332849 165.585313,41.5235126 C165.988244,41.2114095 165.899587,41.2511095 166.267667,41.2309542 C166.382004,41.4697649 167.009941,41.3995265 166.972644,41.2132418 C167.154238,41.1765957 167.01789,40.6336218 167.513758,41.0287895 C167.858604,41.3042465 170.956101,41.7604911 172.295741,42.2717049 C173.13829,42.5923588 172.78733,42.6699265 172.643033,43.3668142 C172.469998,44.1999034 172.388678,45.0641418 172.262724,45.9063926 C172.134324,46.7639126 171.371261,48.8258695 172.643644,48.8692342 C173.063695,48.8826711 174.37949,49.3633465 175.006204,49.4812249 C176.370301,49.7395803 181.634701,49.6705634 182.888741,49.7921065 C183.347313,49.8360818 184.719358,49.5319188 185.04097,49.7414126 C185.029353,49.8031003 184.988387,49.8348603 184.91685,49.8360818 C186.471101,50.6093157 187.950758,50.7137572 189.648695,50.9983757 C190.936975,51.214588 190.971215,52.0366834 192.142713,52.3640557 C192.12009,53.0242972 192.153107,54.5390049 192.18857,54.5438911 C191.821713,55.0703742 191.678027,56.3969649 191.246358,57.2795265 L191.246358,57.2795265 Z M187.482404,68.1481649 C187.212153,69.1773111 187.055627,70.2107326 186.589107,71.1684188 C186.055941,71.0303849 186.087124,71.4450972 186.32069,71.4200557 C186.281558,72.5957865 174.609998,70.342048 173.187204,70.2137865 C172.741473,70.1734757 172.339764,70.334108 171.980244,70.2828034 C171.361478,70.1948526 170.857661,69.7550988 170.193038,69.7722003 C168.675473,69.810068 167.03073,73.0874557 167.897735,74.3419757 C168.440684,75.1274249 170.292701,75.7180388 171.112015,76.1626788 C172.784884,77.0708926 174.462644,77.9687234 176.150798,78.8488418 C178.01321,79.8205757 179.954495,80.6072465 181.782055,81.6577695 C182.563461,82.1066849 183.808941,82.6380542 183.871918,83.5322203 C183.91105,84.070308 183.538078,85.5532557 183.294118,86.0998942 C182.786021,87.2426434 182.74261,86.1707434 181.91229,86.1957849 C180.819055,86.2281557 181.380958,87.1998895 181.830358,87.7220972 C181.977101,87.8931126 182.650284,88.1050495 182.551233,88.4501342 C182.474193,88.7170403 181.802233,88.2027726 181.611467,88.421428 C181.42009,88.6431372 181.862153,88.8098772 181.817518,89.056628 C181.802844,89.1390818 181.705627,89.6625111 181.708073,89.572728 C181.659158,91.0404065 179.13457,89.0499095 178.746924,88.8269788 C177.483101,88.1013849 176.230895,87.3507495 174.954233,86.6495865 C170.613701,84.2639218 166.123981,82.307628 161.677673,80.0770988 C158.227993,78.3467895 154.676815,76.8058188 151.179444,75.1726218 C148.781421,74.0530818 146.419473,72.859028 144.101547,71.5825203 C143.364775,71.1769695 137.866198,68.2709295 137.97809,67.5844249 C137.989707,67.5093003 138.77845,67.8018588 138.837147,67.8189603 C138.414038,67.2026942 138.05941,66.8899803 137.763478,66.348228 C137.702335,66.2346249 137.415575,65.6659988 137.35321,65.4980372 C137.20769,65.101648 137.17345,64.4652265 137.240707,64.0114249 C137.510958,63.9863834 137.598393,63.8972111 137.501787,63.743908 C137.448593,63.6339695 137.429638,63.5167018 137.446147,63.3908834 C137.65281,62.4215926 139.07805,62.5822249 139.08661,62.3153188 C138.759495,62.044748 138.763775,61.949468 138.669615,61.8376972 C138.988781,61.5426957 139.187495,61.6782865 139.576975,61.7063818 C139.675415,61.4132126 140.249547,61.3093818 140.418913,61.3258726 C140.482501,61.2440295 140.729518,60.7578572 140.763758,60.7548034 C141.045627,60.734648 141.438164,60.4023895 141.69313,60.5306511 C141.910187,60.6399788 142.31801,60.6662418 143.185015,60.5049988 C143.986598,60.3559711 145.461364,60.6925049 145.606273,60.6729603 C145.906484,60.631428 146.186518,60.7328157 146.489787,60.6405895 C146.891495,60.5196572 146.71785,60.8647418 147.164804,60.7676295 C147.290147,60.7407557 147.579353,60.8268742 147.699193,60.8390895 C148.884753,60.9545249 150.055638,61.2024972 151.244867,61.2568557 C163.554147,61.8163203 175.727078,63.4452418 187.958095,64.1005972 C188.046753,64.3418511 187.418204,64.8353526 187.323433,64.9477342 C188.857507,64.6026495 187.624255,67.6076342 187.482404,68.1481649 L187.482404,68.1481649 Z M177.595604,95.6816418 C177.159044,96.0456603 176.804415,96.0432172 176.577575,96.5006834 C176.170975,97.3185034 176.094547,98.3568111 175.47517,99.0262142 C174.375821,100.21355 171.958233,99.6595818 170.564787,99.2234926 C169.23493,98.8075588 167.94237,98.1925142 166.79533,97.5573142 C164.379575,96.2197295 161.585958,95.2944142 159.000838,94.3342849 C158.254284,94.0576065 156.283038,92.8922588 155.47473,93.3417849 C154.718393,93.7632157 154.55453,96.0609295 154.446918,96.790188 C154.406564,97.0686988 154.142427,98.2236634 154.26777,98.4826295 C154.423684,98.8051157 155.857484,99.2186065 156.213947,99.3853465 C157.416627,99.9509188 158.612581,100.528706 159.803033,101.116877 C162.184547,102.29444 164.495135,103.614313 166.87665,104.785157 C167.220884,104.95373 169.944187,106.175879 168.599655,106.272991 C169.469718,106.834899 169.045998,107.255719 168.251753,107.393142 C168.28049,107.475596 168.510998,107.771819 168.474313,107.878703 C168.325735,107.949553 168.174713,107.934283 168.020021,107.831674 C167.923415,108.276314 168.110513,108.609794 168.02369,109.091691 C167.934421,109.245605 167.795627,109.314622 167.609141,109.299353 C167.636044,109.465482 167.661113,109.632222 167.683735,109.798962 C167.477684,110.188022 167.269187,110.363923 166.901718,110.737103 C165.671524,111.985516 162.80209,110.843988 161.057073,110.36881 C156.481753,109.124062 152.216427,106.842839 148.149815,104.484659 C143.682107,101.893165 139.156924,99.6400372 134.278335,97.9030095 C132.922187,97.4205018 131.555644,96.9654788 130.186044,96.5214495 C129.457833,96.2856926 128.514398,96.1268926 127.88585,95.6755342 C127.220615,95.1991342 126.564553,95.2064634 126.214204,94.6518849 C125.832673,94.0460018 126.214204,93.4132449 126.431873,92.8940911 C126.817073,92.7517818 126.379901,92.042068 126.489958,92.1752157 C126.643427,91.6010926 126.583507,90.8553434 126.780998,90.5133126 C127.034741,90.0723372 127.300713,90.2445742 127.385701,89.7052649 C127.44929,89.3021572 127.798415,88.7701772 128.004467,88.5295342 C128.025867,88.5222049 128.395781,88.1972757 128.55353,88.0519126 C129.160067,87.4942803 129.741535,87.9951111 130.49237,88.2748434 C132.543713,89.0376942 134.603615,89.7773357 136.665964,90.5102588 C138.827364,91.2786065 140.990598,92.0384034 143.150164,92.8104157 C143.877764,93.0706034 145.12141,93.7003065 145.78053,93.2788757 C146.419473,92.8714926 146.750867,91.6175834 147.02173,90.9671142 C147.336615,90.2122034 148.086838,89.3400249 147.703473,88.7982726 C147.408153,88.3805065 144.953267,87.7037742 144.428661,87.492448 C142.550964,86.7344834 140.693444,85.9288788 138.852433,85.0902926 C137.060335,84.2730834 135.282913,83.4247249 133.527501,82.5330018 C132.705741,82.1146249 132.097981,81.6809788 131.392393,81.1239572 C131.231587,80.9963065 131.721953,80.4478357 131.56237,80.3391188 C131.203461,80.0948111 130.705147,80.1424511 130.51805,79.6220757 C130.631775,79.5438972 131.353873,77.5900465 131.225473,77.3628403 C131.381387,76.9114818 131.294564,76.4375249 131.688935,76.2854434 C131.757415,75.8731742 131.998318,75.1848372 132.445884,75.0132111 C132.862267,74.8531895 132.717358,75.0205403 132.967433,74.4940572 C132.998615,74.4268726 133.341627,74.319988 133.362415,74.2381449 C133.386873,74.1385895 133.520775,74.0164357 133.560518,73.8997788 C135.295753,75.3265357 137.984815,76.0790034 140.006198,77.0073726 C143.424695,78.575828 145.599547,79.6245188 148.491604,80.8796495 C148.687261,80.9596603 150.742884,81.8031326 150.74105,81.8159588 C150.703141,82.1152357 156.366193,84.2058988 157.019198,84.4868526 C159.650175,85.6216618 162.281764,86.7558603 164.913353,87.8918911 C167.590187,89.0468557 170.267021,90.2030418 172.943244,91.3616711 C173.999793,91.8185265 176.049913,92.2808788 176.839267,93.0748788 C177.200621,93.439508 177.000684,93.7406172 177.232415,94.019128 C177.364484,94.1785388 177.818775,94.3410034 177.992421,94.5315634 C177.682427,94.6127957 177.437855,94.8674865 177.266655,94.8302295 C177.327798,94.956048 177.464758,95.6602649 177.595604,95.6816418 L177.595604,95.6816418 Z M174.983581,123.530886 C174.682758,123.6848 174.344638,123.929108 173.969833,124.260756 C173.897073,124.483686 173.652501,125.025439 172.817901,126.228654 C171.983301,127.431259 170.644273,128.258851 169.432421,128.847022 C167.86533,129.608651 166.860753,129.903042 165.00629,130.317754 L162.871793,130.418531 C161.351781,130.40937 157.941233,130.515033 157.941233,130.515033 C157.750467,130.357454 157.587215,130.284162 157.453924,130.294545 C156.863895,130.168726 155.099924,130.38555 151.598884,129.667896 C151.376935,129.685608 150.75817,129.50421 150.443895,129.485886 C149.667993,129.287386 148.229913,129.007654 147.306655,128.826866 C146.382175,128.646079 142.849341,127.494168 140.217141,126.448531 C137.584941,125.402894 134.971084,123.935216 133.59965,123.005625 C130.966227,121.153162 129.810015,120.189368 127.651061,117.874553 C127.613153,117.738962 125.873638,115.527366 125.836341,115.209766 C125.826558,115.12487 125.558141,114.769402 125.629678,114.874454 C125.766638,115.080894 125.36065,114.686337 125.353313,114.599608 C125.350255,114.557465 125.451753,114.595943 125.215741,114.255745 C125.175387,114.302163 125.007855,113.691394 125.020695,113.842254 C125.032313,113.992503 124.595753,112.504059 124.589027,112.41733 C124.582301,112.331822 124.279644,111.281299 124.272918,111.193959 C124.200158,110.291242 124.223393,108.199357 124.775513,106.056779 C125.075113,104.892653 125.702438,104.087659 126.672164,103.360843 C127.263415,102.924754 127.736661,102.959568 128.264935,102.310931 C128.394558,102.258405 130.661735,101.496165 131.238313,101.449746 L132.570615,101.860183 C132.570615,101.860183 133.095833,102.335362 133.272535,102.321314 C133.583753,102.296883 134.871421,101.869956 134.88793,102.084946 C134.905661,102.300548 135.14473,102.475228 134.765644,102.765343 C134.549198,103.951457 135.757381,105.096039 135.507918,105.394705 C135.258455,105.694593 134.945404,106.166106 134.740575,106.417743 C134.740575,106.417743 134.692273,106.497754 134.367604,106.998585 C134.142598,107.345502 133.929821,107.997193 133.976901,108.775313 C134.107747,110.08297 134.705113,111.305119 135.30309,112.212722 C136.145638,113.228431 137.148993,114.481119 137.416798,114.762683 C137.685215,115.044248 138.200038,115.540193 138.90257,116.047742 C139.54457,116.511926 139.971958,116.838077 141.225998,117.429913 C141.326273,117.552066 141.496861,117.732854 141.738987,117.974108 C142.057541,118.035796 144.039793,118.504866 144.691575,118.842011 C144.691575,118.842011 144.994844,118.99165 145.18989,119.191982 C145.740175,119.36483 147.071255,120.147836 149.306027,120.705468 C150.166918,120.853274 151.463147,121.117737 153.192267,121.499468 C154.061107,121.734003 154.599775,121.677202 155.276627,121.753548 C155.32493,121.793248 158.011547,122.131614 158.232884,122.114513 C158.455444,122.09619 159.042415,122.179254 159.186101,122.298354 C159.319393,122.28736 159.439844,122.411346 159.517495,122.275756 C159.471027,122.236666 159.550513,122.121231 159.645895,122.200631 C159.886187,122.39791 160.01581,122.31851 160.06289,122.357599 L161.584735,122.106573 C161.533987,122.024119 161.505861,121.96182 161.502804,121.919066 C162.817987,121.690028 163.527244,121.599634 164.400364,121.236837 C164.438273,121.220957 165.645233,120.853274 166.301907,120.025071 C166.95797,119.196868 166.997713,118.390653 166.978758,117.702316 C167.016667,117.613143 167.07353,116.646906 167.426935,115.56218 C167.623204,114.959962 168.315341,113.966851 168.46025,113.808662 C168.99953,113.216826 169.629913,112.64759 169.97537,112.535819 C170.819141,112.261583 171.562027,111.818165 173.100993,113.729262 C173.329667,113.79889 173.573015,113.757357 173.829204,113.606497 C174.32813,114.26002 175.163341,114.214213 175.484341,116.185165 C175.739918,117.757896 175.559547,118.408976 175.55221,118.321636 L175.267284,119.54806 C175.27401,119.6354 175.241604,119.788703 175.170067,120.011023 C175.097918,120.232733 175.030661,120.35733 174.96585,120.383593 C174.901038,120.411077 174.806878,120.493531 174.68337,120.633397 C174.718833,121.06399 174.613055,121.417625 174.367261,121.696746 C174.120855,121.976479 174.010798,122.267205 174.035255,122.567703 L173.996735,122.686193 C174.095175,122.577476 174.303673,122.559763 174.64485,122.648936 C174.968907,122.233613 175.33821,121.555048 175.755204,120.612631 L176.032793,121.56421 C175.752758,122.539608 175.403633,123.194963 174.983581,123.530886 L174.983581,123.530886 Z M165.843947,153.303443 C164.928638,156.957676 161.547438,161.427285 157.124364,160.397528 L156.176038,159.909523 C154.070278,158.85106 153.52733,157.007759 153.52733,157.007759 C153.52733,157.007759 152.697621,155.538859 153.583581,153.883063 C154.469541,152.225436 156.980067,152.668243 156.980067,152.668243 L157.57621,152.45142 L157.917998,151.901117 C158.826581,150.001014 157.929004,146.955108 157.351204,145.653559 C156.415718,143.54213 154.223135,142.408542 151.997535,142.048188 C147.750553,141.360462 144.25257,143.070616 140.834684,145.000646 C139.947501,145.501477 138.370627,146.64667 136.999193,147.319126 C133.872347,148.653046 132.625644,149.170979 129.182078,149.249157 C127.431558,149.288857 124.601255,149.252211 122.639181,148.324453 C121.70553,147.883477 121.073313,147.539003 120.231375,146.820128 C119.940947,146.573377 119.101455,145.792814 118.70953,145.362222 C117.420027,143.942183 116.494324,142.47817 116.00457,141.483837 C115.515427,140.491948 115.206044,138.697508 115.099044,137.538879 C115.09293,137.481466 115.078867,136.49202 115.058078,136.437051 C115.119833,134.464877 115.528878,131.956448 116.361033,130.235911 C116.768244,129.390606 117.36561,128.364514 117.867593,127.568682 C118.39281,126.738646 118.789627,126.152919 119.407781,125.357086 C119.594878,125.114611 120.058341,124.77258 120.22465,124.515446 C121.94521,122.888357 124.47469,123.687854 126.110873,123.85154 C126.074187,124.004233 126.198918,124.928326 126.669107,124.679743 C127.032907,124.48674 127.605815,125.045594 128.017307,125.016888 L127.687135,125.726602 C127.533055,125.940371 127.413827,126.179793 127.353907,126.433262 C127.429113,126.465022 128.084564,126.32821 128.158547,126.295839 C128.145707,126.39173 128.131033,126.48762 128.118193,126.5829 C128.093124,126.63848 128.068667,126.69345 128.043598,126.750251 C128.064387,126.708719 128.088844,126.672683 128.109021,126.632983 C128.109021,126.642756 128.109021,126.650085 128.106575,126.658636 C128.066221,126.731928 128.026478,126.805831 127.985513,126.879123 C127.970838,126.910883 127.954941,126.944476 127.940878,126.976236 C127.987347,126.926153 128.035038,126.877902 128.082118,126.82843 C128.024033,127.237645 127.994684,127.295668 127.935987,127.703051 C128.230695,127.315213 128.496667,127.279788 128.793821,126.890728 C128.873918,126.891339 128.96013,126.895614 129.045118,126.905386 C129.083027,127.050139 129.152118,127.186951 129.276238,127.302386 C129.374067,127.48745 129.514084,127.766571 129.625364,128.047525 C129.600295,128.366346 129.496964,128.125703 129.55505,128.442693 C128.73329,129.326476 129.326375,129.350296 129.71341,129.174394 C129.724415,129.212873 129.728695,129.251351 129.737255,129.289219 C129.666941,129.379002 129.592958,129.468174 129.526313,129.5604 C129.092198,130.14796 128.791987,130.312868 128.486273,130.974942 C128.223358,131.5454 127.611318,132.055393 127.341067,132.621576 C126.722913,133.322739 126.399467,133.96649 126.239884,134.155828 C125.43341,135.119011 125.148484,135.989968 125.024364,137.273805 C124.927147,138.277299 125.018861,139.330876 125.632735,140.121822 C126.548655,141.301217 127.65901,141.742803 129.404638,141.524759 C131.055495,141.31893 133.009621,140.31055 133.87785,139.879346 C140.222033,136.727777 144.478187,131.411642 153.718095,133.912742 C159.633667,135.513568 162.491484,137.490017 164.911518,141.966956 C165.727775,143.47922 166.413798,146.468325 166.471884,148.529671 C166.506735,149.771976 166.147827,152.088623 165.843947,153.303443 L165.843947,153.303443 Z M162.012735,167.721262 C161.650158,170.016533 160.172947,173.200473 159.995021,173.772153 C159.076655,176.725833 157.324913,179.806553 156.231678,182.71015 C154.238421,188.004908 154.424907,189.34799 147.245513,187.710517 C145.662524,187.419791 145.098175,186.707023 144.808358,186.493865 C144.517318,186.280706 142.130301,185.541065 141.583073,185.381043 C141.037067,185.221022 139.885135,185.098257 139.885135,185.098257 C139.885135,185.098257 139.038918,185.00481 138.54733,184.892428 C138.05513,184.780657 137.994598,184.52902 137.594724,184.249899 C137.195461,183.970777 136.316227,184.011088 136.316227,184.011088 C136.316227,184.011088 135.96649,184.168666 135.545215,184.119194 C135.124553,184.070333 135.053015,183.923748 134.818838,183.842516 C134.58405,183.761283 134.223307,183.221974 134.223307,183.221974 C134.223307,183.221974 133.828935,183.006373 133.344684,182.86895 C132.859821,182.732748 133.081158,182.836579 132.473398,182.450573 C131.866861,182.063956 130.74489,181.864234 130.335844,181.784834 C129.926187,181.704823 126.424535,180.69339 126.424535,180.69339 L125.94273,180.639031 C125.761747,180.576733 125.153987,180.104608 124.97117,180.047196 C117.410855,177.697566 113.75329,176.290354 105.330861,173.35744 L104.604484,172.670936 L103.636593,172.215913 L102.78793,171.99909 C102.200958,171.763333 101.673907,171.484211 101.211055,171.167222 L100.761044,170.772054 L100.318981,170.425748 C99.2789411,169.374614 99.7417926,168.953794 99.793764,167.193557 C99.8096611,166.683565 99.7913183,165.664191 100.037724,165.211 L100.434541,164.635045 C100.434541,164.635045 101.329673,163.746376 101.448901,163.422668 C101.567518,163.09896 101.280147,162.570034 101.280147,162.570034 C101.670238,162.22495 102.339753,162.508346 102.781815,162.719673 L104.038301,163.124613 L104.563518,163.032997 C105.63413,163.534439 110.962118,165.83032 111.41213,165.967133 C122.478375,169.328806 126.52481,171.118971 140.511238,175.451157 C141.580627,175.782805 147.30421,177.27125 148.239695,176.71606 C149.952307,175.698519 151.23325,170.627913 151.817164,168.908597 C152.185855,167.823871 152.582061,166.788006 152.959924,166.0844 C153.234455,165.574408 153.52733,164.991123 154.103295,164.822551 C154.799101,164.618554 155.73581,165.239096 156.75017,165.363082 C157.507118,165.455919 158.785615,165.341705 159.761455,165.604946 C160.614398,165.251311 160.535524,166.527208 160.900547,166.745253 C161.455113,167.07629 162.180878,166.65547 162.012735,167.721262 L162.012735,167.721262 Z M151.803101,196.957563 C151.280941,198.748339 151.198398,199.298642 151.00641,200.341225 C150.873118,201.063765 150.66829,202.015954 150.168753,203.762143 C148.637124,209.122254 148.404781,211.384543 147.155021,214.456102 C145.75057,217.905726 144.840153,215.46265 143.822735,215.901182 C143.60201,215.99524 144.835261,216.643877 144.343061,216.829551 C143.010147,217.325496 141.358067,216.55043 140.016593,216.136328 C135.03345,214.596579 130.35541,212.902916 125.525124,210.917916 C116.140307,207.06274 112.134227,206.624208 104.195438,203.332162 C102.954238,202.818505 101.094273,202.32195 99.8701926,201.783251 L101.475804,201.839442 L98.8215926,201.079034 L96.0817811,200.054163 C95.252684,199.659606 95.0356269,199.545393 94.2205926,199.133123 C92.9836726,198.507696 91.2343754,197.672774 90.4016097,196.722417 C90.1515354,196.43841 89.9387583,196.153791 89.7675583,195.865508 L89.9736097,195.80382 L89.5535583,194.895606 L89.9558783,194.28667 L90.6822554,193.911657 L90.6156097,193.02421 L92.1827011,189.571531 C92.1827011,189.571531 95.6800726,180.70194 96.1025697,179.713105 C96.5250669,178.723659 97.1633983,177.816056 97.6825011,177.376913 C98.2009926,176.93838 98.3483469,176.880357 99.121804,176.595128 C99.8940383,176.309899 102.314073,176.714228 104.435118,177.475246 C105.066113,177.9944 104.767735,178.596008 104.844164,178.861082 C103.995501,180.944416 102.938953,182.612426 102.424741,184.19493 C102.27861,184.64751 102.735958,184.400148 103.039838,184.427633 C103.34433,184.454506 101.390815,188.716454 101.294821,189.074976 C101.20005,189.432276 101.66229,189.496406 101.812701,189.131777 C101.963724,188.767148 103.196364,186.147559 103.196364,186.147559 L103.802901,184.701257 L104.312221,183.74296 L104.644838,183.039354 C104.644838,183.039354 105.173113,181.240639 105.401787,181.222926 C105.974084,181.179562 105.77965,181.983334 105.77965,181.983334 L105.701387,182.335137 C105.550975,182.696102 105.645135,182.922697 105.544861,183.2348 C105.102798,184.606588 105.216524,185.128185 104.518273,186.957439 C104.20461,187.77587 102.860078,191.101508 103.307644,191.913831 C103.798621,192.809219 106.790953,194.22315 108.312187,194.634197 C110.151364,195.130142 109.705021,194.987833 110.888747,195.39033 C113.929993,196.424973 113.987467,195.670062 114.351267,194.742914 C115.030564,193.012605 115.155907,191.536986 115.904295,189.939825 C116.322513,189.049934 116.529787,188.167983 116.807375,187.536448 C117.227427,186.575097 118.732153,187.23595 120.235655,187.536448 C121.327667,187.754493 122.977301,187.725176 124.446564,188.378088 C125.122804,188.677976 125.586267,189.780414 126.070518,189.87997 C127.031684,190.076637 126.21665,191.789234 126.13105,192.464134 C125.989198,193.587339 125.93845,194.058853 125.701215,194.871176 C125.407118,195.876502 124.301655,198.910803 124.672793,199.903914 C125.045153,200.892139 133.688307,203.87025 135.449833,204.355811 C137.931621,205.041705 138.167021,204.501785 138.806575,202.858205 C139.760404,200.40902 139.996415,198.514414 140.566267,197.0901 C140.910501,196.230748 141.410038,195.51737 141.797684,194.618928 C142.49349,193.004665 143.207027,193.845694 144.21405,193.428539 C145.380655,192.94481 146.231153,193.997165 147.546335,194.386225 C148.634067,194.708711 150.001833,194.756351 150.675015,195.288331 C151.357981,195.828251 152.238438,195.468508 151.803101,196.957563 L151.803101,196.957563 Z M143.064564,236.022974 C142.68181,237.089988 142.063655,238.70364 141.552501,239.62468 C141.019947,240.591528 140.927621,241.53028 140.23365,242.324891 C136.917873,246.120211 130.095553,249.074502 124.288815,246.7945 L125.476821,245.943699 L122.316958,245.441036 C120.834855,244.452811 121.97517,245.073353 121.12345,243.930603 L121.257353,243.688739 L120.67833,242.755483 L121.36313,241.398965 L120.331038,240.761322 L120.76821,240.311796 L121.346621,239.881814 L121.582021,239.202639 L121.763615,239.115299 C124.103553,239.327236 124.740661,239.631399 126.659935,238.826405 C126.488124,238.76716 124.899021,238.48865 123.229821,238.233348 L124.454513,238.009196 L124.261301,237.64762 L124.713758,237.005091 C127.598478,236.9489 129.147838,236.998983 130.178095,235.968005 C132.055793,234.105159 129.529981,229.02417 127.88585,228.149548 C120.822015,224.390263 115.548444,227.66704 113.152867,229.53233 C103.431153,237.1077 98.8747869,237.763056 88.6296897,231.742093 C85.6605926,229.997125 82.5618726,224.445843 81.6838611,221.809763 C79.5591469,215.416231 83.1879754,207.790777 86.1209983,206.666351 C91.8665926,204.45781 91.6635983,202.158874 96.4932726,205.650031 C96.8686897,205.921213 98.7989697,207.527536 98.7127583,207.780394 C98.2853697,209.012926 98.5060954,213.047057 97.4299811,213.173486 C94.769044,213.4862 94.0964726,214.16904 92.5727926,216.141214 C91.0136497,218.159196 97.4758383,225.031571 101.842661,223.4112 C110.02541,220.374456 115.207267,211.372328 128.710055,216.970028 C137.200353,220.491723 140.380393,223.36295 142.222015,229.077917 C142.895198,231.164916 143.912615,233.682506 143.064564,236.022974 L143.064564,236.022974 Z M134.372495,264.057893 C132.744873,267.832446 131.114804,272.387563 129.337381,274.951573 C128.96441,275.48966 128.427575,276.119974 127.616821,276.69654 C127.461518,276.80709 126.566998,277.26028 126.090695,277.400757 C124.873953,277.757446 123.75137,276.725857 122.91677,276.49804 C119.838838,275.659454 109.752713,271.758471 106.696793,270.425162 C103.894615,269.203623 98.5984211,267.083033 95.719204,265.975708 C92.2725811,264.65095 83.0424554,260.494054 79.7413526,258.819936 C77.8905583,257.882405 76.0691126,256.869139 74.3051411,255.75876 C73.3769926,255.174254 69.6105926,253.02679 68.7264669,252.370823 C67.5604726,251.507806 67.4357411,250.310699 67.8056554,248.83508 C68.768044,245.013497 68.8200154,244.836985 70.5754269,240.895691 C72.140684,237.380103 75.598924,231.439151 78.4787526,231.003062 C79.403844,230.863806 80.8694383,232.340036 81.7486726,232.571517 C82.7544726,232.839645 83.3561183,233.250082 84.3613069,233.516988 C84.7544554,234.422148 83.6373754,236.880494 83.9614326,238.659665 C84.1283526,239.571543 84.4481297,239.469545 84.7831926,238.97299 L83.7981811,241.794743 L83.0442897,244.052146 C82.943404,244.292179 82.5661526,245.148477 82.5160154,245.344534 C82.3692726,245.93637 81.9455526,246.805494 82.2439297,247.287391 C82.575324,247.821203 84.6052669,248.962731 85.1983526,249.139243 C86.1093811,249.408593 95.1560783,253.955159 95.8726726,253.369431 C96.1068497,253.17826 96.5305697,252.735453 96.6546897,252.497863 C97.0710726,251.704474 97.559604,250.873828 97.889164,250.269777 C98.565404,249.029305 99.1425926,247.725923 99.7277297,246.62715 C99.7968211,246.496445 100.259061,246.496445 100.358724,246.331537 C100.482233,246.124486 100.499353,245.488676 100.688895,245.408665 C101.316833,245.144813 102.23581,245.469742 103.272181,245.884454 C103.961873,246.160522 104.55129,246.809159 105.19757,247.086448 C106.221101,247.525591 107.582141,247.600105 108.562873,248.275005 C109.637764,249.016479 110.44913,249.307205 110.430175,250.150677 C110.421615,250.59715 109.825473,251.368551 109.689735,252.068493 C109.402364,253.548386 107.93677,256.36953 108.144655,257.781628 C108.280393,258.716105 108.773815,258.312386 109.277021,258.786343 C109.652438,259.143033 118.744381,262.916976 119.203564,263.090434 C120.938798,263.749454 121.473798,264.017582 122.239307,262.096102 C123.831467,258.098006 124.244181,256.755536 125.954347,252.254777 C126.208701,251.585985 127.507987,250.521414 127.914587,250.745566 L128.795655,251.214026 L130.242907,251.118746 L130.379867,251.47055 L131.648581,251.596368 L132.670278,251.39176 C132.828027,251.540177 132.887335,251.594536 133.045695,251.742953 L133.288433,252.178431 L133.849724,252.797751 L134.615844,253.086645 C134.701444,253.301636 134.776038,253.522123 134.843295,253.747497 L134.670261,254.30513 L135.060353,254.64716 C135.118438,254.950713 135.245004,255.25854 135.201593,255.562703 C134.985147,257.041376 135.533598,258.111443 135.664444,257.368137 C135.76961,256.768973 135.76961,255.819837 135.90229,255.245103 C135.879055,255.571254 136.735667,256.039714 136.764404,256.045822 C136.609713,258.98179 135.639375,261.120093 134.372495,264.057893 L134.372495,264.057893 Z M125.512895,296.84765 C124.928981,298.60239 124.288204,300.336363 123.591175,302.045906 C122.932055,303.661391 122.200175,305.289091 121.023787,306.557659 C119.594878,308.096797 117.663375,308.950653 115.62365,309.44904 L115.623038,309.44904 C113.99725,310.21861 104.962781,311.772406 102.986033,311.747976 C100.760433,311.877459 99.0337583,311.415106 97.3254269,311.17935 C95.5700154,310.936874 93.0093526,310.748146 91.2068611,310.320608 C90.2181811,310.085462 89.230724,309.831993 88.2457126,309.56753 C82.262884,308.530443 76.4879411,306.679813 71.2736783,303.746899 C67.5017754,301.625697 63.7506611,299.311493 60.8317011,296.067697 C59.2444326,294.304406 57.9359754,292.300473 56.6507526,290.294096 C55.3997697,288.341466 54.6513811,284.41361 54.0118269,282.171476 C53.2695526,279.567156 53.3967297,276.780216 53.8210611,274.101382 C54.4459411,270.152759 55.7592897,266.209022 58.3181183,263.193654 C58.932604,262.469282 59.6296326,261.80904 60.3847469,261.22942 C60.4324383,261.183002 60.477684,261.137194 60.5278211,261.088333 C61.9695697,259.681731 63.4113183,258.795505 65.2205354,258.046091 C66.2073811,257.637486 69.3232211,258.050366 70.107684,258.360637 C70.8022669,258.635483 71.5060211,258.933539 72.1902097,259.237702 C72.6976954,259.464297 73.073724,259.558966 73.1269183,259.999331 C73.1330326,260.042085 73.1629926,260.079953 73.2033469,260.11782 C73.3635411,260.19722 73.8875354,260.468402 73.9621297,260.516653 C74.4427126,260.821426 74.6175811,260.840971 75.2711983,261.45113 C76.2592669,262.374613 77.6117469,262.641519 78.539284,263.69082 C79.2778897,264.526963 78.3527983,265.425405 78.6493411,266.502191 C78.7936383,267.023177 78.2378497,268.094466 78.2378497,268.094466 C78.2378497,268.094466 78.1485811,269.858979 77.8477583,270.489293 C77.7028497,270.791623 77.9137926,271.49584 77.6569926,271.735873 C77.1158783,272.240368 76.1608269,271.437817 75.8526669,271.301005 C75.6869697,271.228323 75.1403526,271.274742 74.8963926,271.17824 C74.6029069,271.062194 74.5081354,270.70917 74.3137011,270.563196 C73.2296383,269.750873 71.1318269,270.171082 70.7979869,270.33599 C70.159044,270.651757 68.7075126,271.539816 68.7075126,271.539816 L67.3360783,272.905496 C67.3360783,272.905496 67.197284,273.109493 67.1385869,273.182785 C66.9942897,273.442973 66.6427183,274.477616 66.5314383,274.666343 C66.3957011,275.166563 66.3174383,275.683274 66.3107126,276.204871 C66.272804,279.00647 67.4828211,283.402786 69.119004,285.643699 C71.057844,288.29627 72.9233126,290.20981 75.461964,292.260773 C77.336604,293.776091 80.4885183,295.217506 82.6486954,296.255814 C87.659964,298.667131 92.2242783,298.83326 97.8127354,299.278511 C100.429038,299.487394 104.019347,299.422653 106.633204,299.189339 C109.248284,298.955414 111.899438,297.746091 113.330181,295.486245 C114.513295,293.617902 114.799444,292.40125 113.952004,290.351508 C113.104564,288.301156 111.22381,286.738197 109.094815,286.314934 C108.008307,286.099943 106.19053,285.534982 105.205518,286.04925 C104.458353,286.43892 104.506655,287.696494 103.84081,288.21748 C101.028238,290.421136 96.823444,290.814471 93.8097126,288.90765 C93.3811011,288.636468 92.8161411,288.216259 92.560564,287.769786 C92.5575069,287.76429 92.5568954,287.758182 92.5532269,287.753296 C92.4719069,287.672063 92.4046497,287.59022 92.363684,287.508988 C91.7210726,286.512213 91.9607526,286.100554 92.0653069,285.769517 C92.1521297,285.494671 91.499124,283.58785 91.6996726,283.336823 C92.2927583,282.597182 90.9818554,282.297294 91.5523183,281.913731 C91.6709354,281.83372 92.624764,280.84916 92.6810154,280.760599 C92.7776211,280.611571 93.0490954,280.256714 93.3113983,279.820014 C93.3205697,279.79253 93.7100497,280.146165 93.7186097,280.117459 C93.5737011,280.036837 93.771804,279.968431 93.7987069,279.770542 C93.7950383,279.799248 93.8011526,279.821846 93.8084897,279.844445 C93.9552326,279.41202 94.1129811,278.98326 94.281124,278.559997 C94.2829583,278.257666 94.1985811,277.976713 93.9699069,277.750728 C94.011484,277.709196 94.8852154,276.811976 94.8191811,276.66478 C94.739084,276.666002 94.6846669,276.666002 94.6956726,276.661726 C94.7721011,276.634853 94.807564,276.639739 94.8191811,276.66478 C94.8980554,276.66417 95.0038326,276.661726 95.1236726,276.659283 C95.1939869,276.514531 95.2600211,276.365503 95.3327811,276.221362 C95.7002497,275.498822 96.1294726,274.762845 96.8124383,274.347522 C97.5779469,273.880894 98.5262726,273.899828 99.4140669,273.974342 C106.968878,274.611374 113.952004,278.26072 120.456993,282.256373 C122.568867,283.553646 124.187318,285.290674 125.242644,287.57373 C126.385404,290.045513 126.691118,293.303966 125.512895,296.84765 L125.512895,296.84765 Z M45.6334211,210.986322 C38.1733811,198.179102 32.7873069,168.269733 35.6530726,160.490976 L36.7787126,160.099473 L36.650924,159.544283 L37.3222726,159.127128 C37.3724097,159.094757 37.4054269,159.042842 37.4060383,158.990316 L37.4188783,158.130353 C37.4225469,158.01736 37.5503354,157.933685 37.6646726,157.974606 L38.3934954,158.220136 C38.4332383,158.234183 38.4790954,158.232351 38.5194497,158.216471 L39.6646554,157.788322 L39.5601011,157.223971 L40.2956497,157.462782 C40.3525126,157.481716 40.4179354,157.4695 40.4674611,157.433465 L41.2317469,156.869114 C41.2360269,156.864839 41.2427526,156.860563 41.2494783,156.85812 L41.804044,156.539299 C44.0883411,156.879497 46.7639526,158.502922 49.9825126,161.291083 C53.7684783,164.56725 63.5342154,174.089753 66.6017526,178.95514 C69.2052154,183.084551 73.8704154,189.143993 74.6554897,192.545366 C74.7912269,193.131094 76.168164,198.032517 76.3577069,198.357446 C76.6242897,198.814913 76.7820383,198.937677 76.8774211,198.864385 C76.912884,198.962719 76.4102897,201.156602 77.1751869,200.644777 C77.0963126,201.68736 76.4512554,201.560931 77.3818497,202.486246 C77.8177983,203.629606 77.0663526,208.281836 77.340884,208.098605 C77.546324,211.39737 74.3779011,217.864194 72.1131697,220.13137 C72.072204,219.979899 72.033684,220.467903 72.0128954,220.464239 L69.7078097,221.407877 C69.5922497,221.795716 68.588284,222.79127 68.1077011,223.456397 C67.822164,223.596263 67.5329583,223.726968 67.2388611,223.845457 L64.3229583,223.933408 C64.3156211,223.933408 64.3088954,223.934019 64.3015583,223.932797 L63.358124,223.890654 C63.2969811,223.8876 63.2333926,223.915696 63.1973183,223.962725 L62.716124,224.574105 L62.4917297,224.045179 L61.3067811,224.330408 C61.260924,224.341402 61.2242383,224.366443 61.1979469,224.400036 L60.9845583,224.269942 C60.695964,224.240625 60.4128726,224.202146 60.126724,224.153285 L59.9561354,223.901648 C59.9243411,223.856451 59.8711469,223.830799 59.8112269,223.833853 L59.0243183,223.86317 L58.8237697,223.328136 L57.9604326,223.555953 C57.1619069,223.245682 55.2297926,222.25929 54.4930211,221.748076 C50.1653297,218.739426 48.8935583,216.58219 45.6334211,210.986322 L45.6334211,210.986322 Z M32.1043411,119.542563 C31.3944726,117.685214 30.6552554,115.773506 29.7050954,113.461745 C28.8961754,111.493846 28.9505926,111.55981 28.2651811,109.596186 C28.2125983,109.445326 27.2074097,107.368711 27.1542154,107.217851 C27.0203126,106.841006 26.8913011,106.460497 26.7677926,106.074491 C26.699924,105.860111 26.9402154,105.591983 26.8637869,105.359891 C26.087884,103.009651 24.9310611,99.8348726 24.4107354,97.6183911 C24.354484,97.3783588 24.0059697,97.0821357 23.9491069,96.8463788 C23.862284,96.488468 24.0646669,96.1928557 23.9760097,95.8434957 C22.6394269,90.6018742 21.3444211,86.2788495 19.8299126,80.8717095 C19.5828954,79.9903695 19.0478954,79.1120834 18.7709183,78.2643357 C17.4545126,74.2387557 16.1980269,71.8738572 14.7856269,67.8018588 C14.660284,67.4421157 13.8880497,65.7521172 13.7675983,65.3880988 C13.6398097,65.0008711 13.765764,64.5611172 13.6526497,64.2032065 C13.1904097,62.7446895 12.8449526,61.5194865 12.6077183,60.4970588 C12.0158554,57.9385465 13.110924,56.8177849 15.3652611,56.3933003 C21.101684,55.3140711 26.2327926,55.5650972 30.0120326,57.6056772 C34.3464497,59.9449234 37.1541297,62.5883326 40.4454497,66.2272957 C41.0116326,66.8539449 41.5704783,67.4885342 42.1195411,68.1328957 C47.5374097,74.4812311 52.0644269,81.6699849 54.3976383,89.6509065 C54.798124,91.0202511 54.8219697,92.5099172 55.1478611,93.8981957 C55.5367297,95.5613203 55.4156669,97.3001803 55.1979983,98.9938434 C53.745244,110.293685 48.4997983,119.868714 39.9312383,127.155191 C39.2452154,127.737865 38.538404,128.30588 37.8114154,128.859237 C37.4989754,129.096216 37.0697526,129.335026 36.7456954,129.11576 C36.5928383,129.01193 35.247084,127.560131 35.1773811,127.389726 C33.9251754,124.34321 33.0398269,121.989916 32.1043411,119.542563 L32.1043411,119.542563 Z M25.3394954,35.3370311 C27.384724,34.7610757 29.2556954,35.5111003 31.1731354,36.6269757 C31.7723354,36.9763357 34.2168269,39.4560588 34.8093011,39.2380142 C39.7429183,43.3075695 44.9614611,47.6092172 49.7544497,51.5621157 C49.4377297,49.6510188 41.4347411,44.5736942 39.826684,42.4042418 C40.3023754,42.7322249 41.5839297,43.6263911 41.4084497,43.6111218 C47.3350269,46.3876788 54.0222211,53.3229634 58.5639126,58.1486511 C60.4293811,60.1287649 61.9701811,62.2426372 63.9304211,64.1708357 C64.9252154,65.1486772 70.3669297,71.5623649 70.6677526,72.2232172 C70.6500211,72.2604742 70.8303926,72.6464803 70.8144954,72.6861803 L69.8625011,73.5644665 L70.1669926,73.9663526 L69.8019697,74.5148234 C69.7750669,74.5551342 69.7689526,74.605828 69.7891297,74.6498034 L69.9230326,74.9557988 C69.8484383,75.1561311 69.7732326,75.3564634 69.6949697,75.5567957 L69.3061011,75.5787834 C69.2700269,75.5812265 69.2357869,75.5971065 69.208884,75.6227588 L68.4806726,76.3306403 L68.7698783,76.7453526 L68.1101469,76.7917711 C68.0581754,76.7942142 68.0135411,76.8253634 67.9884726,76.8705603 L67.6063297,77.5650049 C67.6026611,77.5686695 67.5983811,77.5747772 67.5965469,77.5796634 L65.802004,80.0349557 C65.7971126,80.0422849 64.0166326,80.0819849 63.4418897,80.0984757 C63.2162726,80.0007526 62.9845411,79.8889818 62.7424154,79.750948 C61.0958383,78.8121957 59.0316554,75.6587942 57.3973069,74.2760126 C52.3695297,70.0275018 47.8064383,64.9697218 42.8905526,60.5605788 C36.6588726,54.9708188 30.3538211,49.7365265 25.7320326,42.8543788 C23.6385011,39.733348 21.1805583,36.5084865 25.3394954,35.3370311 L25.3394954,35.3370311 Z M40.0033869,26.8448957 C40.0376269,26.759388 40.0761469,26.6744911 40.1146669,26.5883726 C39.8419697,26.4625542 40.943764,25.2465126 40.622764,25.3527865 C40.7309869,25.2752188 40.8441011,25.2062018 40.960884,25.1432926 C41.059324,25.0052588 41.1595983,24.8684465 41.264764,24.7328557 C41.2311354,24.5697803 41.4322954,24.3108142 41.5759811,24.3492926 C41.7630783,24.1251403 41.958124,23.9046526 42.1580611,23.6878295 C42.1213754,23.6615665 42.2295983,23.5192572 42.4185297,23.4117618 C42.5885069,23.2334172 43.8431583,21.6154895 44.1146326,21.7681818 C44.654524,21.2710157 45.1754611,20.8013342 45.6297526,20.3634126 C46.0186211,19.9896218 46.4148269,19.6158311 46.8299869,19.2683034 C46.8299869,19.2683034 46.8299869,19.2676926 46.8305983,19.2670818 C47.4677069,18.3081742 50.2601011,16.2236188 51.8553183,16.413568 C51.9482554,16.8667588 53.3319183,16.4703695 53.3967297,16.4099034 C53.3637126,16.4654834 53.4450326,16.8624834 53.4089583,16.9076803 C53.3423126,17.1165634 54.2741297,16.8215618 54.7394269,16.6181757 C54.3854097,17.231388 55.0879411,17.6607588 55.448684,18.0217234 C55.7152669,17.890408 55.9775697,18.5872957 56.1102497,18.3222218 C56.0105869,18.4596449 56.386004,18.700288 56.3395354,19.0545342 C56.7620326,19.2579203 57.1784154,19.4692465 57.5837926,19.6799618 C57.8473183,19.8173849 58.1334669,19.9798495 58.2276269,20.2595818 C58.3297354,20.5613018 58.1719869,20.8843988 58.0148497,21.1622988 C56.9815354,22.9915526 53.8332897,26.0081418 52.4918154,27.6291234 C52.2246211,27.9516095 51.9409183,28.2936403 51.8828326,28.7077418 C51.8223011,29.1328372 52.0112326,29.5493818 52.195884,29.9378311 C52.9204269,31.4653649 55.238964,33.6726849 56.5504783,34.7488603 C57.8399811,35.8079342 59.459044,33.2634695 60.4966383,32.3882372 C60.948484,32.0071172 61.4926554,31.356648 62.0594497,30.6383834 C62.5418669,29.8052942 62.9796497,29.0870295 63.3030954,28.7492742 C63.2975926,28.744388 63.3220497,28.7169034 63.3972554,28.6515511 C63.3685183,28.6765926 63.3342783,28.7162926 63.3030954,28.7492742 C63.3177697,28.7614895 63.5372726,28.6216234 63.7720611,28.4695418 C64.0453697,28.1421695 64.3070611,27.8490003 64.5485754,27.6144649 C64.6714726,27.2644942 64.7784726,26.8760449 64.6971526,26.9029188 C65.4430954,26.5474511 65.9206211,26.3214665 66.5565069,26.3214665 C66.7845697,27.4074142 66.9508783,27.0226295 67.1789411,27.1551665 C67.2474211,27.021408 67.7518497,27.3726003 67.8001526,27.2345665 C68.0196554,27.4727665 68.5558783,27.0348449 68.8157354,27.553388 C68.8609811,27.6431711 69.2363983,27.8520542 69.1037183,28.1769834 C69.568404,28.4463326 69.5702383,28.7755372 70.034924,29.0448865 C70.0593811,29.0369465 70.0783354,29.0308388 70.1046269,29.022288 C70.0917869,29.0393895 70.0801697,29.0491618 70.0679411,29.0644311 C70.2635983,29.1786449 70.4604783,29.292248 70.6567469,29.4064618 C71.1361069,29.6843618 71.0853583,29.9793634 71.3091411,30.5840249 C70.9233297,31.5636988 70.959404,31.6455418 70.4335754,32.3784649 C69.7212611,33.3703542 69.059084,34.3982788 68.4519354,35.4573526 C68.108924,36.0540742 65.5274726,39.3265757 65.4443183,40.0100265 C65.1502211,42.4243972 69.551284,45.3829634 71.8202954,46.2911772 C74.1498383,43.0553218 77.6857297,36.3606803 80.3961926,33.4332634 C81.8581183,31.8550357 83.0607983,29.9799742 84.7141011,28.7596572 L84.7079869,28.7566034 C84.7141011,28.7547711 84.7226611,28.7504957 84.7287754,28.7486634 C85.0736211,28.4958049 85.438644,28.2722634 85.8293469,28.085368 C86.641324,27.5118557 87.6550726,26.7850403 87.6917583,26.7349572 C87.7535126,26.6506711 89.0656383,27.2925895 88.9623069,27.0201865 C89.0833697,27.1631065 89.1824211,27.3267926 89.2661869,27.5045265 C89.3193811,27.5081911 89.3725754,27.5118557 89.4257697,27.5161311 C89.5890211,27.4312342 89.752884,27.346948 89.915524,27.2632726 C89.9008497,27.3585526 89.8837297,27.4593295 89.8653869,27.5637711 C90.1692669,27.6126326 90.5263411,27.4526111 91.4813926,28.5971926 C91.7822154,28.9575465 92.1435697,29.2586557 91.9882669,29.9439388 C91.9595297,30.0691465 92.1172783,30.6139526 92.0830383,30.7000711 C92.2658554,31.4305511 92.1258383,31.7078403 91.901444,32.1555342 C90.1564269,35.6308111 88.0904097,38.6571726 86.3453926,42.1318388 C84.7520097,45.3053957 82.8015526,48.2596865 80.9220211,51.2585634 C81.1965526,51.1883249 81.5456783,51.0057049 81.984684,50.634968 C81.5774726,51.6628926 80.8003469,52.5417895 80.3509469,53.5257388 C80.1760783,53.9074695 79.8880954,54.0980295 79.7052783,54.3637142 C79.4130154,54.7881988 77.9749354,56.9814711 76.8168897,58.4436526 C76.382164,59.1698572 75.8569469,59.8270449 75.1073354,60.1977818 C73.458924,61.0119372 71.4882897,60.1116634 69.9866211,59.051368 C65.9750383,56.2192311 63.2786383,53.4243511 59.3012954,50.1402449 L53.4878326,44.9957357 C53.4878326,44.9957357 51.3943011,42.7560449 50.3493697,41.6340618 C48.5169183,39.6679957 46.4484554,37.9395188 44.2882783,36.3435788 C42.4509354,34.985228 41.3448611,33.1156634 40.2155526,31.0353834 C39.4641069,29.6513803 39.4708326,28.3302865 39.9128954,27.0867603 C39.8065069,26.9939234 39.8670383,26.8613865 40.0033869,26.8448957 L40.0033869,26.8448957 Z M43.1430726,141.254188 C42.8477526,140.436979 44.1519297,141.67684 43.4726326,140.275125 C44.2882783,140.503553 44.4912726,139.148256 44.787204,138.522828 C45.591844,136.826722 46.6227126,136.113954 47.4811583,134.428842 C48.7144097,132.006531 50.5719297,128.878171 52.2704783,126.702 C53.0897926,125.652699 53.9482383,124.821442 55.5061583,124.299845 C56.3181354,124.027442 56.5419183,125.303339 56.6776554,125.437708 C57.216324,125.966023 60.764444,128.324203 61.5158897,129.799822 C61.0316383,130.280497 60.9105754,131.032965 60.9405354,131.804977 C61.1557583,131.591819 61.6834211,131.245513 61.9750726,131.53746 C61.0481469,132.8555 60.3132097,134.504577 59.4089069,135.6345 C58.6806954,136.545768 56.0833469,140.385674 55.4376783,141.849077 C55.003564,142.833637 62.9484669,150.168976 63.3636269,150.571473 C64.0294726,151.215223 68.7802726,143.911645 69.7530554,142.719423 C69.9639983,142.459846 70.497164,141.459406 70.796764,142.523366 C70.9447297,143.045574 71.1128726,143.884771 70.903764,144.18588 C70.5479126,144.799093 71.627084,144.363614 71.9786554,144.017308 C72.6634554,144.70198 74.340604,147.311797 74.9550897,148.064876 C75.727324,149.0134 74.6157469,150.271585 74.1742954,151.372802 C74.409084,151.140099 75.2449069,150.143323 75.4809183,149.911842 C75.1012211,150.875025 75.0199011,151.541985 74.2751811,152.256585 C73.557364,152.944311 71.5280326,156.109317 70.6585811,157.171445 C69.7249297,158.31114 72.6555069,160.313242 74.203644,162.056377 C74.5784497,162.477808 75.9780097,164.140322 76.7722554,164.86103 C77.9761583,166.065466 80.7312554,168.755294 82.0030269,169.907816 C82.9537983,170.769611 85.6581469,173.803913 87.0197983,175.184862 C88.186404,176.364868 89.4123183,176.815005 90.1845526,178.33521 C90.8766897,179.703333 90.399164,180.056968 89.217884,181.707266 C88.357604,182.909871 87.8715183,183.507814 86.8962897,184.94984 C86.6095297,185.374325 86.1154954,186.866434 85.8519697,187.151053 C85.4080726,187.627453 85.2221983,187.645165 84.9439983,187.68914 C84.3509126,187.560268 83.9076269,187.13334 83.9076269,187.13334 C82.8694211,186.0932 82.4622097,185.328517 81.8202097,184.579714 C81.6416726,184.372663 80.7171926,183.314811 80.4512211,183.034468 C80.1766897,182.62342 78.2941011,180.674456 78.0409697,180.429537 C77.0577926,179.477959 75.8441069,178.071357 74.8266897,177.158868 C74.2727354,176.664145 73.621564,176.289743 73.095124,175.76326 C72.5381126,175.204406 72.2910954,174.436059 71.7304154,173.8656 C69.534164,171.62652 65.8759869,167.66385 63.4516726,165.25864 C58.8836897,160.723679 55.0922211,156.801319 50.9980954,151.803394 C49.2133354,149.626002 47.6493011,148.27498 45.7795526,146.180042 C44.624564,144.887654 43.7844611,143.773 43.1583583,142.115373 C42.9180669,141.482616 43.2366211,141.511322 43.1430726,141.254188 L43.1430726,141.254188 Z M99.6763697,154.71371 C99.6763697,154.71371 99.2489811,155.828974 99.2795526,155.867453 C99.2795526,155.867453 97.8145697,157.591043 97.8518669,157.843291 C97.8873297,158.095539 96.917604,159.78004 95.7736211,159.256611 C95.3003754,159.040399 94.7060669,157.959337 94.251164,158.003313 L92.6920211,155.848519 C92.6577811,155.874782 92.5844097,155.884554 92.4731297,155.879668 C92.3581811,155.874782 92.2725811,155.83386 92.2102154,155.755682 C92.1502954,155.679336 91.640364,154.826702 91.4875069,154.633088 C91.366444,154.479785 83.4349926,144.843068 74.9190154,135.282086 C66.2789183,125.580628 58.568804,117.870277 58.568804,117.870277 L57.635764,117.314477 C57.7366497,117.236299 57.7580497,117.15812 57.6950726,117.081163 C57.7024097,116.95168 57.6645011,116.730582 57.5831811,116.4197 C57.5000269,116.108208 57.4462211,115.901157 57.4193183,115.797326 L57.6210897,115.639137 C57.7886211,115.507211 57.2242726,114.750468 57.3459469,114.560519 C57.468844,114.37057 57.4150383,113.888673 57.6161983,113.730483 L61.3159526,107.300305 L64.0747183,102.073342 C64.7430097,100.708883 65.053004,100.112773 65.4583811,99.5881218 C65.4583811,99.5881218 66.187204,98.3653618 66.8200326,98.1418203 C67.4528611,97.917668 68.263004,98.2218311 68.8346897,98.1503711 C69.4045411,98.0801326 70.3186269,98.6493695 70.6053869,98.7373203 C70.5369069,98.7904572 70.4812669,98.9272695 70.4390783,99.1477572 C70.3956669,99.3694665 70.420124,99.5386495 70.5112269,99.6534742 C70.6946554,99.8861772 71.6558211,100.267297 72.2721411,100.25325 C72.8878497,100.241034 72.8799011,100.594059 73.1091869,100.5397 L73.0498783,100.774236 C73.1776669,100.798666 73.4234611,100.887228 73.7897069,101.038699 C74.1553411,101.191391 74.4268154,101.96035 74.610244,102.192442 C74.2384954,102.481946 75.0174554,102.878336 75.0223469,103.169673 C75.0333526,103.787771 74.9764897,104.222028 74.871324,104.704536 C74.7337526,104.875551 74.6096326,105.365388 74.3644497,105.710473 C74.1211011,106.058611 73.9823069,106.245506 73.9486783,106.269937 C73.6979926,106.78054 73.4283526,106.426294 73.0975697,106.903305 C72.7667869,107.382148 73.2039583,107.759603 72.5050954,108.494359 C71.8043983,109.229725 71.0951411,110.589908 70.4403011,111.515223 C69.6417754,112.643314 69.5133754,113.85447 69.8667811,114.439586 C70.2201869,115.024703 70.8120497,116.05446 71.0395011,116.375725 C71.2669526,116.699433 71.4876783,116.995045 71.7010669,117.264394 C71.9450269,117.574665 72.1889869,117.867834 72.4353926,118.143902 C72.6817983,118.42058 73.9988154,119.829014 74.4793983,120.43734 C75.2057754,121.358991 75.7597297,121.912348 76.630404,122.669091 C76.630404,122.669091 76.775924,122.662983 77.0333354,122.399742 C77.2907469,122.138333 77.486404,122.04061 77.743204,121.777979 C77.9987811,121.515959 78.4432897,121.169042 78.8205411,120.748833 L81.1513069,117.756063 C81.1513069,117.756063 81.672244,117.447625 81.9840726,117.518474 C83.0742497,117.764003 85.6746554,119.92918 85.6746554,119.92918 C85.8085583,120.513076 85.9131126,119.81008 85.977924,120.133177 C86.0427354,120.458106 86.110604,120.765323 86.1760269,121.05666 C86.243284,121.348608 86.2915869,121.513516 86.3221583,121.551994 C86.5367697,121.823176 86.7257011,121.925785 86.8901754,121.857379 C86.8174154,122.041831 87.3395754,121.71568 87.2924954,122.033891 C87.2435811,122.352713 88.2267583,122.88286 88.1796783,123.201682 C88.130764,123.519893 88.3050211,123.805733 88.2597754,124.058591 C88.2151411,124.313282 88.0414954,125.421217 88.0041983,125.511611 C88.0041983,125.511611 83.5432154,130.795376 84.1069526,131.633962 C84.6700783,132.472548 85.8165069,133.939005 86.9042383,135.191082 C87.9919697,136.443159 97.670884,146.895863 97.670884,146.895863 C97.914844,147.204913 98.1704211,147.474873 98.4333354,147.705743 C98.698084,147.936614 98.475524,148.328728 98.475524,148.328728 C98.5073183,148.367817 98.5348326,148.439277 98.5629583,148.541886 C98.5898611,148.646328 99.9074897,150.099348 99.9686326,150.175694 L100.957924,152.226657 L100.604518,152.502725 C100.965873,153.097003 99.952124,155.061237 99.6763697,154.71371 L99.6763697,154.71371 Z M113.989301,116.302433 C111.919615,120.376263 111.290455,123.125336 109.838924,125.729045 C109.330215,126.643366 109.19509,127.616322 108.344593,127.968736 C108.158107,128.04325 107.613324,128.388945 106.803793,128.328479 C105.656141,128.243582 105.547918,127.75008 104.804421,127.210771 C102.040764,125.215388 97.559604,118.56289 95.1530211,116.408096 C90.608884,112.339151 84.574084,104.487102 80.1161583,100.385786 C78.3142783,98.7281588 73.3079011,94.2225142 71.7671011,92.296148 C71.1752383,91.5558957 70.248924,91.0281911 70.052044,89.9959911 C69.8539411,88.9637911 71.0737411,85.8720772 71.7903354,84.7641418 C73.7597469,81.7212895 75.3641354,77.7280803 77.3867411,74.1355357 C78.6921411,71.8176665 80.9580954,68.5830326 82.4891126,68.6660972 C84.1980554,68.7589342 86.6553869,70.945488 88.0702326,71.8445403 C88.4028497,72.0870157 87.9577297,72.9958403 87.9974726,73.7312065 C86.949484,74.5856726 86.8791697,76.4100403 86.9690497,76.4747818 C87.8109869,76.2744495 89.1897583,72.930488 89.7840669,73.2187711 C90.2224611,74.1092726 88.8131183,76.3422449 88.045164,77.5961542 C87.4514669,78.5691095 87.1481983,79.7026972 85.9773126,81.4843111 C85.4545411,82.2819757 83.3402211,87.6842295 83.3310497,88.5429711 C83.3188211,89.485388 85.9797583,92.6106942 86.8516554,93.1726018 C86.786844,93.0577772 86.821084,92.939288 87.1469754,92.8849295 C87.6636326,92.8000326 88.3245869,94.9352818 88.7097869,94.5926403 C90.0946726,93.3668265 92.3649069,89.4346942 93.9014269,88.2840049 C94.6461469,87.7257618 97.1737926,89.4756157 98.2474611,90.4430742 C99.6727011,91.7330188 98.8857926,92.8867618 99.913604,93.4187418 C101.289318,94.1327311 98.9958497,97.1193926 98.0524154,98.7189972 C97.4703354,99.7060003 95.7130897,102.015319 95.5828554,103.049351 C95.453844,104.079108 102.096404,111.180522 103.095478,111.827937 C104.502987,112.738594 105.781484,109.707346 106.565335,107.920846 C107.618215,105.521134 108.99393,103.250294 109.67017,102.136251 C110.139747,101.363017 110.600153,100.878677 111.166947,100.652082 C111.462878,100.534814 111.785713,100.486563 112.154404,100.504886 C112.61481,100.527485 112.463175,101.210936 113.096004,101.430813 C113.26965,101.490668 113.453078,101.54747 113.641398,101.60366 C114.906444,101.978673 116.427678,102.30971 117.158947,103.359011 C117.304467,103.568505 117.659095,103.633857 117.734301,103.906871 C117.86637,104.393654 117.633415,105.163223 117.467107,105.904086 C116.842227,108.681254 115.327107,113.668185 113.989301,116.302433 L113.989301,116.302433 Z M116.395273,151.185906 C117.085575,151.49068 117.973981,152.135653 118.550558,152.442259 C119.126524,152.749476 119.703713,152.937593 119.703713,152.937593 L120.282124,152.92782 C120.409913,152.969963 120.538313,153.013328 120.667324,153.056693 L120.851975,153.112273 L122.110907,153.858633 C123.295244,154.258686 124.514433,154.659962 125.800878,155.064291 L126.179964,155.320814 L127.416273,155.56329 C129.107484,156.073282 129.180855,156.577777 131.20713,157.086548 L131.621067,157.223971 C133.145358,157.798705 138.118107,159.336622 139.18505,159.5339 C139.928547,157.431022 140.417078,156.038468 141.170358,153.945973 C141.960324,151.750257 142.673861,150.700956 143.214975,150.64049 C143.89733,150.565365 145.204564,150.14088 145.962124,150.50551 C146.492844,150.7602 147.043741,151.13277 147.610535,151.603673 C148.234193,151.964637 149.120153,151.786293 149.291353,152.323159 C149.712015,153.645474 148.739844,157.103039 148.022638,159.376933 C146.99177,162.64577 146.143107,165.842536 144.486135,169.30743 C142.283158,169.178557 128.290615,164.3773 122.224021,162.258542 C113.806484,159.320131 112.513313,158.75578 108.000358,156.993711 C107.788804,156.911257 107.58153,156.591214 107.349187,156.528305 L107.135798,156.256513 L106.655215,155.744688 C105.801661,153.291228 108.612398,148.775811 110.609324,149.142273 C111.564375,149.317563 112.298701,149.492854 114.66921,150.620334 L112.873444,150.952593 C112.873444,150.952593 114.84041,151.138877 116.395273,151.185906 L116.395273,151.185906 Z M94.1588383,38.8630018 L94.1686211,38.7683326 C94.1722897,38.6553403 94.1808497,38.550288 94.1881869,38.4519542 L95.0350154,38.4556188 L95.5198783,38.1203065 L96.1361983,38.3975957 L96.4357983,38.1911557 C102.59105,41.2853126 112.549998,48.5962203 114.631913,50.0718388 C119.705547,53.6668265 118.550558,52.8386234 123.518415,56.5594295 C124.823204,57.5366603 132.518033,63.1337495 131.951238,63.9283603 C131.380775,63.5252526 131.203461,63.4806665 130.708204,63.2186465 C130.91609,63.481888 131.417461,64.7993172 131.414404,64.9104772 C131.35693,66.2676065 129.79901,68.2581034 130.306495,68.8517711 C130.48809,69.0643188 129.373455,69.2451065 128.349924,69.6042388 C128.241701,69.6414957 127.983678,69.5749218 127.60337,69.4216188 C126.09253,69.8913003 124.140238,69.4784203 122.508335,69.0209542 C117.114313,67.5105218 108.134873,67.4494449 102.531741,67.1745988 C104.726158,70.2046249 109.509975,73.5662988 112.508421,75.844468 C114.223478,77.1478495 115.91897,79.1090295 117.520301,80.5455588 C122.554804,85.0615865 123.259781,85.5618065 122.685038,88.1313126 C122.399501,89.4072095 121.50009,93.5231834 120.24177,94.3202372 C118.52977,95.4049634 117.229873,93.2513911 116.07733,92.153228 C109.766775,86.1469234 103.146838,79.2305726 96.6815926,73.3867326 C93.0203583,70.0757526 89.406204,66.7116357 85.9326783,63.2107065 C85.2240326,62.4961065 84.5037697,61.750968 84.1216269,60.8274849 C83.7388726,59.9040018 84.398604,58.7520911 85.0840154,58.0155034 C86.0714726,56.9539865 87.951004,56.7970188 89.380524,57.1213372 C97.3511069,58.9279926 107.154141,59.6303772 115.379078,60.9416988 C108.533524,56.4067372 97.9674269,50.3906603 96.7390669,48.6047711 L97.7503697,48.5937772 C101.370638,50.8377434 106.40025,52.9638311 101.848775,49.8360818 C99.2122954,48.0233188 97.1566726,47.1945049 95.8292611,46.1720772 L95.5412783,44.8039542 L94.311084,44.0826357 C94.2016383,43.7149526 94.1319354,43.2996295 94.1087011,42.8250618 L94.5654383,42.4414988 L94.0383869,41.7959157 C93.9931411,41.0666572 93.934444,40.0533911 93.925884,39.1946495 L94.1588383,38.8630018 Z M98.749444,29.7808634 C98.792244,29.4260065 98.9726154,28.9520495 99.0300897,28.7871418 C99.3535354,27.8563295 99.7625811,27.3799295 100.083581,26.4491172 C101.15725,23.3341942 101.459295,23.4221449 101.823095,22.3056588 C102.446753,20.3896757 102.77509,17.7987926 104.858227,16.8215618 C105.117473,16.699408 105.382221,16.5778649 105.650638,16.4703695 L106.103707,16.5955772 L106.465673,16.1863618 C106.676615,16.1252849 106.887558,16.0727588 107.09789,16.0287834 L107.163313,16.3665388 L108.61729,16.3433295 L109.148621,16.0019095 C109.277633,16.0281726 109.405421,16.0666511 109.531987,16.1112372 L109.861547,17.032888 L110.83433,17.215508 L110.896084,17.8617018 L111.338147,19.5822388 L111.50201,19.7074465 C111.344873,20.2180495 111.256827,21.2820095 110.942553,21.8714018 C110.556741,22.5957742 110.280987,23.6041542 109.98689,24.5422957 C109.406033,26.3886511 108.23209,26.9933126 110.139747,28.6008572 C110.475421,28.8842542 112.444833,30.8515418 112.865495,31.062868 C113.735558,31.5001788 114.760924,32.762028 115.405981,31.6516495 C115.845598,30.896128 116.508387,29.5866388 117.098415,28.3351726 C117.407798,27.680428 117.684775,26.9310142 118.043684,26.6018095 C118.398924,26.275048 118.507147,25.5378495 118.82509,25.4315757 C119.778918,25.1127542 120.863593,26.1779357 122.112741,26.6909818 C123.731193,27.3561095 122.486324,27.1985311 123.914621,28.1543849 C124.390924,28.4725957 125.306233,28.5318403 125.227358,29.1029095 C125.131975,29.7961326 124.516267,31.2399911 123.867541,32.762028 C123.536758,33.5285434 123.37901,34.1209895 123.144833,34.7305372 C123.056175,34.9626295 122.473484,36.7589018 122.431907,37.0319157 C122.299227,37.8686695 124.315718,38.8385711 125.038427,39.2844326 C125.980638,39.8664957 128.448975,41.051388 129.027387,41.0367295 C129.549547,41.0232926 129.686507,39.8103049 129.686507,39.8103049 C129.686507,39.8103049 130.241073,38.9185818 130.38537,38.7225249 L130.724713,37.0380234 L131.891318,33.1101665 L132.157901,32.4542003 C132.297918,32.1750788 132.894673,32.0889603 132.84637,32.5818511 C132.775444,33.2866788 132.557164,33.7050557 133.029798,33.5120526 C133.262753,33.4161618 133.26581,33.3850126 133.403993,32.9617495 C134.144433,30.6988495 135.275575,25.3039249 135.449833,24.9203618 C135.764107,24.5716126 136.182324,24.9380742 136.636615,24.9954865 C137.429638,25.0962634 138.323547,25.1084788 138.562004,25.647788 C139.136747,26.9517803 141.433884,24.9783849 141.860661,26.0985357 C142.786975,28.5312295 137.714564,41.9333388 136.840833,44.2695311 C135.171021,48.7275357 135.383798,50.9837172 133.698701,54.2305665 C133.042638,55.4948588 131.883981,54.4638803 130.77485,53.7657711 C129.580118,53.0126926 126.804844,51.1498465 125.717113,50.4224203 C124.158581,49.3786157 122.584153,48.0355342 120.976707,47.0980034 C118.110941,45.4257172 115.314267,43.5934095 112.655775,41.6371157 C110.435067,40.0026972 108.085958,38.1593957 105.901324,36.5261988 C103.765604,34.9278157 102.534187,34.0550265 100.07013,32.3149449 C99.4379126,31.8684726 98.612484,30.9284988 98.749444,29.7808634 L98.749444,29.7808634 Z M201.517135,28.6631557 C200.878193,21.8768988 190.897233,20.2901203 186.853855,17.9606465 C183.750244,16.1723142 177.560141,10.4542926 166.999547,10.8018203 C136.957615,11.7930988 102.352593,12.5980926 89.0570783,14.2752649 C72.3155526,16.3866942 49.7544497,8.40577262 33.1786211,16.3085157 C19.5376497,22.8107649 22.7916726,20.8080526 12.909764,35.5996618 C12.456084,36.2776157 12.0293069,36.9085403 11.6227069,37.5107588 C11.5047011,38.0415172 11.411764,38.5832695 11.3286097,39.1250218 C11.2497354,39.1983142 11.1647469,39.2716065 11.0748669,39.3497849 C8.25006686,41.7653772 7.380004,45.9302126 6.70559829,49.4097649 C6.22134686,51.8962065 5.368404,54.7967495 6.02507829,57.1384388 C6.05075829,57.1384388 6.60410114,56.7188403 6.613884,56.9930757 C6.67319257,56.4916342 6.36319829,55.6976342 6.33751829,55.1888634 C6.305724,54.5744295 6.38092971,53.9532772 6.43595829,53.3309034 C6.48609543,52.7763249 6.56007829,52.2590034 6.65790686,51.7117542 C6.79486686,50.9391311 7.36594114,47.1071649 8.16935829,46.6948957 C8.97705543,47.3093295 7.66187257,52.0513418 7.56893543,53.1183557 C7.48883829,54.0302342 7.388564,54.9506634 7.32619829,55.8655957 C7.088964,56.6034049 7.12075829,56.5710342 7.31886114,55.994468 C7.29073543,56.4415511 7.26994686,56.8874126 7.268724,57.3314418 C6.88963829,61.3643511 7.726684,65.8602234 9.20144971,69.1284495 C10.6615411,72.3624726 11.6074211,77.8508449 11.6074211,77.8508449 C11.6074211,77.8508449 13.5554326,90.6916572 14.9354269,93.7546649 C19.1964726,103.21487 19.7589869,108.888916 19.7589869,108.888916 L22.5214211,122.125506 C22.5214211,122.125506 24.5317983,134.781866 26.1037811,141.482005 C27.0716726,145.609583 27.8781469,147.680091 28.8515411,155.882722 C29.3205069,159.838063 31.3333297,177.712225 32.1300211,183.60004 C33.4690497,193.49328 38.3959411,204.909168 40.4203811,215.061374 C41.6878726,221.420093 41.3656497,225.564162 42.7101811,230.766083 L43.6939697,236.840183 L44.7077183,241.267039 L44.6918211,244.061919 L45.1974726,244.559696 L46.3616326,249.984548 L45.9018383,250.648454 C45.7923926,252.127126 46.3292269,252.976706 46.2583011,254.47187 L46.5750211,254.812068 L46.6728497,258.181682 C46.6771297,258.361248 46.6838554,258.647088 46.6881354,258.827265 L48.0522326,265.824848 L49.0182897,273.163851 C49.0219583,273.428314 49.0256269,273.689723 49.028684,273.954797 L49.906084,280.116848 L51.4652269,285.737757 C51.4737869,286.313713 51.4866269,286.853022 51.5031354,287.363625 C51.4523869,287.527311 51.4034726,287.730086 51.3747354,288.031806 L51.6284783,293.236171 L52.5199411,295.849042 L52.148804,296.043877 L52.414164,297.091957 L52.2441869,297.297176 C52.3676954,297.727768 52.4930383,298.15775 52.6183811,298.588342 L52.6948097,298.662245 L53.2762783,300.168402 L53.1069126,300.274065 C53.1497126,300.417596 53.1894554,300.561737 53.2322554,300.7071 L53.6119526,301.085777 L53.8620269,302.329303 L54.802404,305.787479 L54.8231926,305.950554 C55.1588669,306.722566 56.3297526,308.167036 56.7852669,308.673363 L57.1105469,309.05143 C57.9543183,310.20334 59.4131869,310.826325 60.6519411,311.254474 C62.5932269,311.924488 61.7091011,310.876408 63.5941354,311.44992 C66.658004,312.383176 68.1761811,312.984783 73.4735983,313.533865 C83.923524,314.615537 91.0570611,314.164179 101.543673,314.785942 C107.669575,315.14996 110.16665,314.888551 118.497364,314.77617 C119.232913,314.765786 118.719924,314.758457 119.416341,314.724865 C119.641347,314.71326 121.275084,314.843354 121.480524,314.767008 C121.906078,314.608819 124.402541,314.622256 124.771233,314.130586 C125.393055,313.298108 126.00693,312.341643 126.089473,310.970466 C126.13961,310.143485 127.721375,308.854762 127.780684,307.952656 C127.846107,306.944886 128.986421,302.194934 129.830804,299.0397 C131.402787,293.16349 141.576958,259.62554 143.399627,252.428236 C147.347621,236.840183 154.80277,207.795663 154.80277,207.795663 C154.80277,207.795663 167.795627,168.520759 171.012353,155.670785 C172.938353,147.976314 174.123913,140.386896 175.994884,133.739894 C177.616393,127.97973 178.71941,122.907902 180.237587,117.599706 C182.208833,110.708397 183.017753,103.964894 184.70285,97.2323849 L184.087141,96.5922988 C185.569244,85.1110588 197.514724,59.3573634 199.941484,43.3338326 C200.288164,41.0452803 202.098604,34.8337572 201.517135,28.6631557 L201.517135,28.6631557 Z" id="Fill-19" fill="#000000"></path>
                <path d="M117.867776,363.653649 C117.710639,358.704586 117.652553,354.915984 115.736947,350.333994 C113.783433,345.663441 109.742502,342.72442 106.640113,341.122983 C97.5885246,336.454874 90.1773989,337.708783 83.6094331,340.648415 C82.0111589,341.167569 78.4599817,343.738297 78.4141246,343.762117 C75.1350331,345.660998 71.9024103,349.194298 70.2833474,356.634078 C69.3295189,361.016958 71.0812617,367.256577 72.247256,371.091597 C73.668216,375.759706 78.2826674,380.7332 82.3645646,382.465341 C88.9147989,385.237623 90.8835989,384.452784 97.9865646,384.410641 C100.095382,384.397815 101.66553,383.754675 103.792079,383.185438 L103.77129,383.211701 L105.370176,383.206204 C105.370176,383.206204 106.437119,382.469006 106.743445,382.172172 C106.811313,382.106209 109.244187,381.124092 109.37381,381.070955 L109.915536,380.354523 L110.855302,379.842088 L111.12861,379.037094 C111.181805,378.979071 111.231942,378.919215 111.284525,378.860581 L111.610416,378.908221 L111.944256,378.552754 L112.441347,378.24004 L113.266165,377.856477 L113.53397,377.383131 L113.928953,377.027052 L114.182696,376.317338 L114.823473,374.519844 L116.39301,372.565383 L116.753753,370.511366 L116.813062,369.669726 C117.196427,367.841694 117.944816,366.121157 117.867776,363.653649" id="Fill-21" fill="#000000"></path>
                <polygon id="Fill-23" fill="#000000" points="130.879771 142.865947 131.098662 142.79693 132.155822 142.462839 131.667902 142.427415 130.188245 142.59843"></polygon>
                <polygon id="Fill-25" fill="#000000" points="129.308216 142.718019 129.710536 142.964159 129.845662 142.834676 129.873787 142.510968 129.407267 142.488369"></polygon>
            </g>
        </g>
    </g>
</svg>