<?xml version="1.0" encoding="UTF-8" standalone="no"?>
<svg width="198px" height="86px" viewBox="0 0 198 86" version="1.1" xmlns="http://www.w3.org/2000/svg" xmlns:xlink="http://www.w3.org/1999/xlink">
    <!-- Generator: sketchtool 39.1 (31720) - http://www.bohemiancoding.com/sketch -->
    <title>FB489117-DF78-416D-A386-627120AFF4E8</title>
    <desc>Created with sketchtool.</desc>
    <defs>
        <polygon id="path-1" points="0 85.084 197.999 85.084 197.999 0 0 0"></polygon>
    </defs>
    <g id="Symbols" stroke="none" stroke-width="1" fill="none" fill-rule="evenodd">
        <g id="header" transform="translate(-37.000000, -45.000000)">
            <g id="Logo-DoG" transform="translate(37.000000, 45.000000)">
                <path d="M6.8994,42.7105 C7.5254,42.7105 8.4984,42.6395 8.8594,42.6215 C9.2204,42.6055 9.5814,42.5615 9.9424,42.4915 C10.3054,42.4225 10.5694,42.3275 10.7384,42.2065 C10.9064,42.0845 11.2294,41.9085 11.3744,41.6755 C11.5184,41.4455 11.6114,41.1705 11.6534,40.8515 C11.6954,40.5335 11.7164,40.1385 11.7164,39.6635 L11.7164,22.8475 C11.7164,21.8175 11.2314,21.1345 10.5934,20.7995 C9.9544,20.4635 8.4054,20.3525 6.8994,20.3405 L6.8994,42.7105 L6.8994,42.7105 Z M0.5504,47.0735 L0.5504,15.8355 L7.3414,15.8355 C9.5094,15.8355 11.2944,16.0235 12.6974,16.3995 C14.1004,16.7765 15.2024,17.3955 16.0024,18.2565 C16.8044,19.1195 17.3584,20.1515 17.6654,21.3545 C17.9714,22.5575 18.1254,24.0905 18.1254,25.9535 L18.1254,36.1925 C18.1254,37.3025 18.0894,38.2725 18.0164,39.0995 C17.9444,39.9265 17.8094,40.7365 17.6104,41.5285 C17.4124,42.3215 17.1414,42.9925 16.7974,43.5415 C16.4554,44.0925 16.0114,44.6035 15.4704,45.0775 C14.9284,45.5515 14.2754,45.9285 13.5104,46.2065 C12.7454,46.4845 11.8484,46.6985 10.8194,46.8485 C9.7894,46.9985 8.6064,47.0735 7.2694,47.0735 L0.5504,47.0735 L0.5504,47.0735 Z" id="Fill-1" fill="#000000"></path>
                <path d="M6.8994,42.7105 C7.5254,42.7105 8.4984,42.6395 8.8594,42.6215 C9.2204,42.6055 9.5814,42.5615 9.9424,42.4915 C10.3054,42.4225 10.5694,42.3275 10.7384,42.2065 C10.9064,42.0845 11.2294,41.9085 11.3744,41.6755 C11.5184,41.4455 11.6114,41.1705 11.6534,40.8515 C11.6954,40.5335 11.7164,40.1385 11.7164,39.6635 L11.7164,22.8475 C11.7164,21.8175 11.2314,21.1345 10.5934,20.7995 C9.9544,20.4635 8.4054,20.3525 6.8994,20.3405 L6.8994,42.7105 L6.8994,42.7105 Z M0.5504,47.0735 L0.5504,15.8355 L7.3414,15.8355 C9.5094,15.8355 11.2944,16.0235 12.6974,16.3995 C14.1004,16.7765 15.2024,17.3955 16.0024,18.2565 C16.8044,19.1195 17.3584,20.1515 17.6654,21.3545 C17.9714,22.5575 18.1254,24.0905 18.1254,25.9535 L18.1254,36.1925 C18.1254,37.3025 18.0894,38.2725 18.0164,39.0995 C17.9444,39.9265 17.8094,40.7365 17.6104,41.5285 C17.4124,42.3215 17.1414,42.9925 16.7974,43.5415 C16.4554,44.0925 16.0114,44.6035 15.4704,45.0775 C14.9284,45.5515 14.2754,45.9285 13.5104,46.2065 C12.7454,46.4845 11.8484,46.6985 10.8194,46.8485 C9.7894,46.9985 8.6064,47.0735 7.2694,47.0735 L0.5504,47.0735 L0.5504,47.0735 Z" id="Stroke-3" stroke="#FFFFFF" stroke-width="0.65"></path>
                <mask id="mask-2" fill="white">
                    <use xlink:href="#path-1"></use>
                </mask>
                <g id="Clip-6"></g>
                <path d="M21.239,46.504 L27.419,46.504 L27.419,23.102 L21.239,23.102 L21.239,46.504 Z M21.239,21.058 L27.419,21.058 L27.419,15.409 L21.239,15.409 L21.239,21.058 Z" id="Fill-5" fill="#000000" mask="url(#mask-2)"></path>
                <path d="M21.239,46.504 L27.419,46.504 L27.419,23.102 L21.239,23.102 L21.239,46.504 Z M21.239,21.058 L27.419,21.058 L27.419,15.409 L21.239,15.409 L21.239,21.058 Z" id="Stroke-7" stroke="#FFFFFF" stroke-width="0.65" mask="url(#mask-2)"></path>
                <path d="M36.6011,32.3926 L39.0031,32.3926 L39.0031,29.2216 C39.0031,28.0596 38.5931,27.4776 37.7751,27.4776 C36.9921,27.4776 36.6011,28.0596 36.6011,29.2216 L36.6011,32.3926 Z M30.4211,40.5326 L30.4211,30.7536 C30.4211,28.3116 31.0261,26.4056 32.2361,25.0366 C33.4471,23.6696 35.2921,22.9856 37.7751,22.9856 C40.2691,22.9856 42.1171,23.6666 43.3211,25.0286 C44.5251,26.3916 45.1281,28.2996 45.1281,30.7536 L45.1281,35.5106 L36.6011,35.5106 L36.6011,40.6026 C36.6011,41.8956 36.9921,42.5406 37.7751,42.5406 C38.6301,42.5406 39.0581,41.8486 39.0581,40.4626 L39.0581,37.9436 L45.1281,37.9436 L45.1281,40.5326 C45.1281,42.4466 44.4071,44.0066 42.9641,45.2096 C41.5211,46.4146 39.7921,47.0156 37.7751,47.0156 C35.7581,47.0156 34.0271,46.4116 32.5851,45.2006 C31.1431,43.9926 30.4211,42.4346 30.4211,40.5326 L30.4211,40.5326 Z" id="Fill-8" fill="#000000" mask="url(#mask-2)"></path>
                <path d="M36.6011,32.3926 L39.0031,32.3926 L39.0031,29.2216 C39.0031,28.0596 38.5931,27.4776 37.7751,27.4776 C36.9921,27.4776 36.6011,28.0596 36.6011,29.2216 L36.6011,32.3926 L36.6011,32.3926 Z M30.4211,40.5326 L30.4211,30.7536 C30.4211,28.3116 31.0261,26.4056 32.2361,25.0366 C33.4471,23.6696 35.2921,22.9856 37.7751,22.9856 C40.2691,22.9856 42.1171,23.6666 43.3211,25.0286 C44.5251,26.3916 45.1281,28.2996 45.1281,30.7536 L45.1281,35.5106 L36.6011,35.5106 L36.6011,40.6026 C36.6011,41.8956 36.9921,42.5406 37.7751,42.5406 C38.6301,42.5406 39.0581,41.8486 39.0581,40.4626 L39.0581,37.9436 L45.1281,37.9436 L45.1281,40.5326 C45.1281,42.4466 44.4071,44.0066 42.9641,45.2096 C41.5211,46.4146 39.7921,47.0156 37.7751,47.0156 C35.7581,47.0156 34.0271,46.4116 32.5851,45.2006 C31.1431,43.9926 30.4211,42.4346 30.4211,40.5326 L30.4211,40.5326 Z" id="Stroke-9" stroke="#FFFFFF" stroke-width="0.65" mask="url(#mask-2)"></path>
                <path d="M67.0088,38.1065 L67.0088,25.2365 C67.0088,22.3035 66.0868,20.8375 64.2438,20.8375 C63.6888,20.8375 63.2198,20.9725 62.8348,21.2425 C62.4508,21.5125 62.1678,21.8825 61.9868,22.3505 C61.8068,22.8195 61.6778,23.2825 61.6048,23.7405 C61.5318,24.1975 61.4948,24.6975 61.4948,25.2365 L61.4948,38.1065 C61.4948,41.0285 62.4118,42.4895 64.2438,42.4895 C66.0868,42.4895 67.0088,41.0285 67.0088,38.1065 M55.3198,36.7495 L55.3198,26.7435 C55.3198,19.7065 58.2948,16.1895 64.2438,16.1895 C70.2038,16.1895 73.1838,19.7065 73.1838,26.7435 L73.1838,36.6005 C73.1838,37.7915 73.0928,38.8915 72.9128,39.9005 C72.7308,40.9095 72.4228,41.8665 71.9868,42.7705 C71.5518,43.6755 70.9978,44.4445 70.3258,45.0775 C69.6518,45.7125 68.8008,46.2115 67.7718,46.5755 C66.7428,46.9395 65.5658,47.1205 64.2438,47.1205 C62.9308,47.1205 61.7598,46.9415 60.7318,46.5835 C59.7018,46.2255 58.8538,45.7405 58.1868,45.1275 C57.5188,44.5155 56.9678,43.7665 56.5328,42.8775 C56.0978,41.9905 55.7868,41.0445 55.6008,40.0415 C55.4128,39.0385 55.3198,37.9405 55.3198,36.7495" id="Fill-10" fill="#000000" mask="url(#mask-2)"></path>
                <path d="M67.0088,38.1065 L67.0088,25.2365 C67.0088,22.3035 66.0868,20.8375 64.2438,20.8375 C63.6888,20.8375 63.2198,20.9725 62.8348,21.2425 C62.4508,21.5125 62.1678,21.8825 61.9868,22.3505 C61.8068,22.8195 61.6778,23.2825 61.6048,23.7405 C61.5318,24.1975 61.4948,24.6975 61.4948,25.2365 L61.4948,38.1065 C61.4948,41.0285 62.4118,42.4895 64.2438,42.4895 C66.0868,42.4895 67.0088,41.0285 67.0088,38.1065 L67.0088,38.1065 Z M55.3198,36.7495 L55.3198,26.7435 C55.3198,19.7065 58.2948,16.1895 64.2438,16.1895 C70.2038,16.1895 73.1838,19.7065 73.1838,26.7435 L73.1838,36.6005 C73.1838,37.7915 73.0928,38.8915 72.9128,39.9005 C72.7308,40.9095 72.4228,41.8665 71.9868,42.7705 C71.5518,43.6755 70.9978,44.4445 70.3258,45.0775 C69.6518,45.7125 68.8008,46.2115 67.7718,46.5755 C66.7428,46.9395 65.5658,47.1205 64.2438,47.1205 C62.9308,47.1205 61.7598,46.9415 60.7318,46.5835 C59.7018,46.2255 58.8538,45.7405 58.1868,45.1275 C57.5188,44.5155 56.9678,43.7665 56.5328,42.8775 C56.0978,41.9905 55.7868,41.0445 55.6008,40.0415 C55.4128,39.0385 55.3198,37.9405 55.3198,36.7495 L55.3198,36.7495 Z" id="Stroke-11" stroke="#FFFFFF" stroke-width="0.5" mask="url(#mask-2)"></path>
                <path d="M77.1211,46.5049 L77.1211,27.1379 L75.7271,27.1379 L75.7271,23.1029 L77.1211,23.1029 C77.1211,23.0429 77.1241,22.9559 77.1301,22.8419 C77.1361,22.7299 77.1391,22.6429 77.1391,22.5829 C77.1631,21.7699 77.2161,21.0489 77.2951,20.4219 C77.3741,19.7939 77.5301,19.1509 77.7621,18.4949 C77.9941,17.8359 78.2981,17.2919 78.6701,16.8619 C79.0431,16.4319 79.5501,16.0779 80.1921,15.8039 C80.8351,15.5289 81.5891,15.3909 82.4581,15.3909 C82.9711,15.3909 83.5511,15.4129 84.1981,15.4539 C84.8471,15.4959 85.3661,15.5409 85.7581,15.5879 L86.3441,15.6419 L86.3441,20.1609 C85.5011,20.0899 84.9631,20.0539 84.7311,20.0539 C84.2171,20.0539 83.8511,20.1939 83.6301,20.4759 C83.4111,20.7559 83.3011,21.2679 83.3011,22.0079 L83.3011,23.1029 L88.4711,23.1029 C88.4711,23.0429 88.4741,22.9559 88.4801,22.8419 C88.4861,22.7299 88.4891,22.6429 88.4891,22.5829 C88.5131,21.7699 88.5661,21.0489 88.6461,20.4219 C88.7251,19.7939 88.8811,19.1509 89.1141,18.4949 C89.3461,17.8359 89.6481,17.2919 90.0211,16.8619 C90.3931,16.4319 90.9011,16.0779 91.5431,15.8039 C92.1841,15.5289 92.9401,15.3909 93.8071,15.3909 C94.3201,15.3909 94.9021,15.4129 95.5501,15.4539 C96.1971,15.4959 96.7171,15.5409 97.1081,15.5879 L97.6951,15.6419 L97.6951,20.1609 C96.8511,20.0899 96.3131,20.0539 96.0811,20.0539 C95.5681,20.0539 95.2011,20.1939 94.9821,20.4759 C94.7601,20.7559 94.6511,21.2679 94.6511,22.0079 L94.6511,23.1029 L97.6401,23.1029 L97.6401,27.1379 L94.6511,27.1379 L94.6511,46.5049 L88.4711,46.5049 L88.4711,27.1379 L83.3011,27.1379 L83.3011,46.5049 L77.1211,46.5049 Z" id="Fill-12" fill="#000000" mask="url(#mask-2)"></path>
                <path d="M77.1211,46.5049 L77.1211,27.1379 L75.7271,27.1379 L75.7271,23.1029 L77.1211,23.1029 C77.1211,23.0429 77.1241,22.9559 77.1301,22.8419 C77.1361,22.7299 77.1391,22.6429 77.1391,22.5829 C77.1631,21.7699 77.2161,21.0489 77.2951,20.4219 C77.3741,19.7939 77.5301,19.1509 77.7621,18.4949 C77.9941,17.8359 78.2981,17.2919 78.6701,16.8619 C79.0431,16.4319 79.5501,16.0779 80.1921,15.8039 C80.8351,15.5289 81.5891,15.3909 82.4581,15.3909 C82.9711,15.3909 83.5511,15.4129 84.1981,15.4539 C84.8471,15.4959 85.3661,15.5409 85.7581,15.5879 L86.3441,15.6419 L86.3441,20.1609 C85.5011,20.0899 84.9631,20.0539 84.7311,20.0539 C84.2171,20.0539 83.8511,20.1939 83.6301,20.4759 C83.4111,20.7559 83.3011,21.2679 83.3011,22.0079 L83.3011,23.1029 L88.4711,23.1029 C88.4711,23.0429 88.4741,22.9559 88.4801,22.8419 C88.4861,22.7299 88.4891,22.6429 88.4891,22.5829 C88.5131,21.7699 88.5661,21.0489 88.6461,20.4219 C88.7251,19.7939 88.8811,19.1509 89.1141,18.4949 C89.3461,17.8359 89.6481,17.2919 90.0211,16.8619 C90.3931,16.4319 90.9011,16.0779 91.5431,15.8039 C92.1841,15.5289 92.9401,15.3909 93.8071,15.3909 C94.3201,15.3909 94.9021,15.4129 95.5501,15.4539 C96.1971,15.4959 96.7171,15.5409 97.1081,15.5879 L97.6951,15.6419 L97.6951,20.1609 C96.8511,20.0899 96.3131,20.0539 96.0811,20.0539 C95.5681,20.0539 95.2011,20.1939 94.9821,20.4759 C94.7601,20.7559 94.6511,21.2679 94.6511,22.0079 L94.6511,23.1029 L97.6401,23.1029 L97.6401,27.1379 L94.6511,27.1379 L94.6511,46.5049 L88.4711,46.5049 L88.4711,27.1379 L83.3011,27.1379 L83.3011,46.5049 L77.1211,46.5049 L77.1211,46.5049 Z" id="Stroke-13" stroke="#FFFFFF" stroke-width="0.65" mask="url(#mask-2)"></path>
                <path d="M105.4106,32.3926 L107.8126,32.3926 L107.8126,29.2216 C107.8126,28.0596 107.4026,27.4776 106.5846,27.4776 C105.8016,27.4776 105.4106,28.0596 105.4106,29.2216 L105.4106,32.3926 Z M99.2306,40.5326 L99.2306,30.7536 C99.2306,28.3116 99.8356,26.4056 101.0456,25.0366 C102.2566,23.6696 104.1006,22.9856 106.5846,22.9856 C109.0786,22.9856 110.9266,23.6666 112.1306,25.0286 C113.3346,26.3916 113.9376,28.2996 113.9376,30.7536 L113.9376,35.5106 L105.4106,35.5106 L105.4106,40.6026 C105.4106,41.8956 105.8016,42.5406 106.5846,42.5406 C107.4396,42.5406 107.8676,41.8486 107.8676,40.4626 L107.8676,37.9436 L113.9376,37.9436 L113.9376,40.5326 C113.9376,42.4466 113.2166,44.0066 111.7736,45.2096 C110.3306,46.4146 108.6006,47.0156 106.5846,47.0156 C104.5676,47.0156 102.8366,46.4116 101.3936,45.2006 C99.9526,43.9926 99.2306,42.4346 99.2306,40.5326 L99.2306,40.5326 Z" id="Fill-14" fill="#000000" mask="url(#mask-2)"></path>
                <path d="M105.4106,32.3926 L107.8126,32.3926 L107.8126,29.2216 C107.8126,28.0596 107.4026,27.4776 106.5846,27.4776 C105.8016,27.4776 105.4106,28.0596 105.4106,29.2216 L105.4106,32.3926 L105.4106,32.3926 Z M99.2306,40.5326 L99.2306,30.7536 C99.2306,28.3116 99.8356,26.4056 101.0456,25.0366 C102.2566,23.6696 104.1006,22.9856 106.5846,22.9856 C109.0786,22.9856 110.9266,23.6666 112.1306,25.0286 C113.3346,26.3916 113.9376,28.2996 113.9376,30.7536 L113.9376,35.5106 L105.4106,35.5106 L105.4106,40.6026 C105.4106,41.8956 105.8016,42.5406 106.5846,42.5406 C107.4396,42.5406 107.8676,41.8486 107.8676,40.4626 L107.8676,37.9436 L113.9376,37.9436 L113.9376,40.5326 C113.9376,42.4466 113.2166,44.0066 111.7736,45.2096 C110.3306,46.4146 108.6006,47.0156 106.5846,47.0156 C104.5676,47.0156 102.8366,46.4116 101.3936,45.2006 C99.9526,43.9926 99.2306,42.4346 99.2306,40.5326 L99.2306,40.5326 Z" id="Stroke-15" stroke="#FFFFFF" stroke-width="0.65" mask="url(#mask-2)"></path>
                <path d="M116.5728,46.5049 L116.5728,23.5139 L122.7528,23.5139 L122.7528,25.1349 C123.3398,24.4889 124.0468,23.9709 124.8708,23.5839 C125.6958,23.1969 126.5548,23.0029 127.4468,23.0029 C128.2908,23.0029 129.0458,23.2579 129.7108,23.7689 C130.3778,24.2799 130.8728,24.9089 131.1968,25.6539 C131.5208,26.3999 131.6818,27.1729 131.6818,27.9709 L131.6818,46.5049 L125.5028,46.5049 L125.5028,29.0109 C125.5028,27.9879 125.1608,27.4779 124.4758,27.4779 C124.4038,27.4779 124.3268,27.4869 124.2468,27.5049 C124.1678,27.5219 124.0898,27.5509 124.0098,27.5919 C123.9288,27.6329 123.8588,27.6689 123.7978,27.6979 C123.7358,27.7269 123.6628,27.7769 123.5778,27.8479 C123.4918,27.9179 123.4278,27.9709 123.3848,28.0059 C123.3428,28.0409 123.2778,28.1029 123.1918,28.1909 C123.1068,28.2789 123.0518,28.3379 123.0278,28.3669 C123.0028,28.3969 122.9538,28.4519 122.8818,28.5339 L122.7528,28.6759 L122.7528,46.5049 L116.5728,46.5049 Z" id="Fill-16" fill="#000000" mask="url(#mask-2)"></path>
                <path d="M116.5728,46.5049 L116.5728,23.5139 L122.7528,23.5139 L122.7528,25.1349 C123.3398,24.4889 124.0468,23.9709 124.8708,23.5839 C125.6958,23.1969 126.5548,23.0029 127.4468,23.0029 C128.2908,23.0029 129.0458,23.2579 129.7108,23.7689 C130.3778,24.2799 130.8728,24.9089 131.1968,25.6539 C131.5208,26.3999 131.6818,27.1729 131.6818,27.9709 L131.6818,46.5049 L125.5028,46.5049 L125.5028,29.0109 C125.5028,27.9879 125.1608,27.4779 124.4758,27.4779 C124.4038,27.4779 124.3268,27.4869 124.2468,27.5049 C124.1678,27.5219 124.0898,27.5509 124.0098,27.5919 C123.9288,27.6329 123.8588,27.6689 123.7978,27.6979 C123.7358,27.7269 123.6628,27.7769 123.5778,27.8479 C123.4918,27.9179 123.4278,27.9709 123.3848,28.0059 C123.3428,28.0409 123.2778,28.1029 123.1918,28.1909 C123.1068,28.2789 123.0518,28.3379 123.0278,28.3669 C123.0028,28.3969 122.9538,28.4519 122.8818,28.5339 L122.7528,28.6759 L122.7528,46.5049 L116.5728,46.5049 L116.5728,46.5049 Z" id="Stroke-17" stroke="#FFFFFF" stroke-width="0.65" mask="url(#mask-2)"></path>
                <path d="M140.5815,32.3926 L142.9825,32.3926 L142.9825,29.2216 C142.9825,28.0596 142.5725,27.4776 141.7555,27.4776 C140.9725,27.4776 140.5815,28.0596 140.5815,29.2216 L140.5815,32.3926 Z M134.4005,40.5326 L134.4005,30.7536 C134.4005,28.3116 135.0065,26.4056 136.2165,25.0366 C137.4275,23.6696 139.2715,22.9856 141.7555,22.9856 C144.2495,22.9856 146.0975,23.6666 147.3015,25.0286 C148.5055,26.3916 149.1075,28.2996 149.1075,30.7536 L149.1075,35.5106 L140.5815,35.5106 L140.5815,40.6026 C140.5815,41.8956 140.9725,42.5406 141.7555,42.5406 C142.6095,42.5406 143.0385,41.8486 143.0385,40.4626 L143.0385,37.9436 L149.1075,37.9436 L149.1075,40.5326 C149.1075,42.4466 148.3875,44.0066 146.9435,45.2096 C145.5015,46.4146 143.7715,47.0156 141.7555,47.0156 C139.7375,47.0156 138.0075,46.4116 136.5645,45.2006 C135.1235,43.9926 134.4005,42.4346 134.4005,40.5326 L134.4005,40.5326 Z" id="Fill-18" fill="#000000" mask="url(#mask-2)"></path>
                <path d="M140.5815,32.3926 L142.9825,32.3926 L142.9825,29.2216 C142.9825,28.0596 142.5725,27.4776 141.7555,27.4776 C140.9725,27.4776 140.5815,28.0596 140.5815,29.2216 L140.5815,32.3926 L140.5815,32.3926 Z M134.4005,40.5326 L134.4005,30.7536 C134.4005,28.3116 135.0065,26.4056 136.2165,25.0366 C137.4275,23.6696 139.2715,22.9856 141.7555,22.9856 C144.2495,22.9856 146.0975,23.6666 147.3015,25.0286 C148.5055,26.3916 149.1075,28.2996 149.1075,30.7536 L149.1075,35.5106 L140.5815,35.5106 L140.5815,40.6026 C140.5815,41.8956 140.9725,42.5406 141.7555,42.5406 C142.6095,42.5406 143.0385,41.8486 143.0385,40.4626 L143.0385,37.9436 L149.1075,37.9436 L149.1075,40.5326 C149.1075,42.4466 148.3875,44.0066 146.9435,45.2096 C145.5015,46.4146 143.7715,47.0156 141.7555,47.0156 C139.7375,47.0156 138.0075,46.4116 136.5645,45.2006 C135.1235,43.9926 134.4005,42.4346 134.4005,40.5326 L134.4005,40.5326 Z" id="Stroke-19" stroke="#FFFFFF" stroke-width="0.65" mask="url(#mask-2)"></path>
                <path d="M0,73.5801 L0,64.4131 C0,58.2631 2.559,55.1871 7.678,55.1871 C8.758,55.1871 9.72,55.3301 10.563,55.6131 C11.406,55.8991 12.112,56.2921 12.681,56.7921 C13.25,57.2931 13.718,57.9111 14.084,58.6431 C14.45,59.3751 14.715,60.1721 14.879,61.0291 C15.043,61.8861 15.125,62.8321 15.125,63.8621 L15.125,65.3961 L10.093,65.3961 L10.093,63.5731 C10.093,63.1211 10.081,62.7241 10.057,62.3811 C10.033,62.0391 9.972,61.6581 9.876,61.2391 C9.78,60.8191 9.65,60.4761 9.486,60.2051 C9.321,59.9351 9.085,59.7081 8.777,59.5251 C8.469,59.3421 8.102,59.2501 7.678,59.2501 C6.069,59.2501 5.264,60.5331 5.264,63.0981 L5.264,74.3321 C5.264,76.8871 6.069,78.1641 7.678,78.1641 C9.278,78.1641 10.078,76.8391 10.078,74.1881 L10.078,72.1061 L7.099,72.1061 L7.099,68.3311 L15.341,68.3311 L15.341,81.7211 L11.727,81.7211 L11.061,79.8991 C10.618,80.5931 9.987,81.1561 9.167,81.5841 C8.348,82.0131 7.505,82.2281 6.637,82.2281 C5.702,82.2281 4.851,82.0571 4.085,81.7141 C3.319,81.3721 2.687,80.9191 2.191,80.3551 C1.694,79.7911 1.278,79.1281 0.939,78.3661 C0.602,77.6051 0.361,76.8271 0.216,76.0311 C0.072,75.2361 0,74.4191 0,73.5801" id="Fill-20" fill="#000000" mask="url(#mask-2)"></path>
                <path d="M23.1313,70.1397 L25.0263,70.1397 L25.0263,67.5357 C25.0263,66.5817 24.7033,66.1047 24.0563,66.1047 C23.4403,66.1047 23.1313,66.5817 23.1313,67.5357 L23.1313,70.1397 Z M18.2593,76.8197 L18.2593,68.7937 C18.2593,66.7897 18.7353,65.2257 19.6893,64.1027 C20.6443,62.9797 22.1003,62.4167 24.0563,62.4167 C26.0233,62.4167 27.4813,62.9777 28.4323,64.0947 C29.3803,65.2137 29.8553,66.7787 29.8553,68.7937 L29.8553,72.6987 L23.1313,72.6987 L23.1313,76.8767 C23.1313,77.9387 23.4403,78.4687 24.0563,78.4687 C24.7323,78.4687 25.0693,77.8997 25.0693,76.7617 L25.0693,74.6937 L29.8553,74.6937 L29.8553,76.8197 C29.8553,78.3917 29.2863,79.6717 28.1493,80.6587 C27.0113,81.6477 25.6473,82.1407 24.0563,82.1407 C22.4663,82.1407 21.1023,81.6447 19.9643,80.6517 C18.8273,79.6597 18.2593,78.3817 18.2593,76.8197 L18.2593,76.8197 Z" id="Fill-21" fill="#000000" mask="url(#mask-2)"></path>
                <path d="M31.7168,77.166 L35.4478,75.835 C35.5438,76.125 35.6208,76.351 35.6788,76.509 C35.7368,76.668 35.8348,76.899 35.9748,77.203 C36.1148,77.506 36.2498,77.739 36.3798,77.904 C36.5098,78.068 36.6778,78.221 36.8858,78.36 C37.0938,78.5 37.3128,78.569 37.5438,78.569 C38.1508,78.569 38.4548,78.213 38.4548,77.499 C38.4548,77.239 38.3948,76.972 38.2748,76.696 C38.1538,76.422 38.0288,76.187 37.8988,75.988 C37.7678,75.79 37.5418,75.532 37.2188,75.214 C36.8958,74.896 36.6468,74.66 36.4738,74.506 C36.2998,74.353 35.9968,74.092 35.5638,73.726 L34.7668,73.045 C33.7368,72.149 32.9268,71.267 32.3378,70.399 C31.7508,69.531 31.4568,68.567 31.4568,67.506 C31.4568,66.688 31.6278,65.949 31.9698,65.287 C32.3118,64.627 32.7718,64.095 33.3508,63.69 C33.9288,63.284 34.5768,62.975 35.2958,62.757 C36.0138,62.54 36.7668,62.433 37.5588,62.433 C38.2618,62.433 38.9358,62.581 39.5838,62.879 C40.2288,63.18 40.7948,63.577 41.2828,64.073 C41.7688,64.569 42.1908,65.128 42.5468,65.751 C42.9028,66.372 43.1778,67.025 43.3718,67.709 L39.8728,68.91 C39.7568,68.621 39.6598,68.382 39.5838,68.194 C39.5058,68.007 39.3838,67.761 39.2148,67.456 C39.0458,67.152 38.8818,66.909 38.7218,66.728 C38.5638,66.543 38.3678,66.382 38.1368,66.242 C37.9058,66.103 37.6648,66.033 37.4148,66.033 C37.0768,66.033 36.8138,66.153 36.6258,66.395 C36.4378,66.634 36.3438,66.909 36.3438,67.217 C36.3438,67.642 36.5778,68.117 37.0458,68.643 C37.5128,69.167 38.1558,69.772 38.9748,70.457 L39.8728,71.252 C40.3538,71.687 40.7708,72.095 41.1228,72.475 C41.4748,72.855 41.8268,73.286 42.1788,73.769 C42.5308,74.251 42.7998,74.756 42.9878,75.287 C43.1758,75.817 43.2708,76.348 43.2708,76.877 C43.2708,78.401 42.7328,79.658 41.6588,80.652 C40.5828,81.645 39.2838,82.141 37.7608,82.141 C36.2858,82.141 35.0138,81.684 33.9438,80.768 C32.8738,79.852 32.1308,78.651 31.7168,77.166" id="Fill-22" fill="#000000" mask="url(#mask-2)"></path>
                <path d="M50.1489,70.1397 L52.0439,70.1397 L52.0439,67.5357 C52.0439,66.5817 51.7209,66.1047 51.0739,66.1047 C50.4579,66.1047 50.1489,66.5817 50.1489,67.5357 L50.1489,70.1397 Z M45.2769,76.8197 L45.2769,68.7937 C45.2769,66.7897 45.7529,65.2257 46.7069,64.1027 C47.6619,62.9797 49.1189,62.4167 51.0739,62.4167 C53.0409,62.4167 54.4989,62.9777 55.4499,64.0947 C56.3979,65.2137 56.8729,66.7787 56.8729,68.7937 L56.8729,72.6987 L50.1489,72.6987 L50.1489,76.8767 C50.1489,77.9387 50.4579,78.4687 51.0739,78.4687 C51.7499,78.4687 52.0869,77.8997 52.0869,76.7617 L52.0869,74.6937 L56.8729,74.6937 L56.8729,76.8197 C56.8729,78.3917 56.3039,79.6717 55.1669,80.6587 C54.0289,81.6477 52.6649,82.1407 51.0739,82.1407 C49.4839,82.1407 48.1199,81.6447 46.9819,80.6517 C45.8449,79.6597 45.2769,78.3817 45.2769,76.8197 L45.2769,76.8197 Z" id="Fill-23" fill="#000000" mask="url(#mask-2)"></path>
                <polygon id="Fill-24" fill="#000000" mask="url(#mask-2)" points="59.573 81.72 64.445 81.72 64.445 55.693 59.573 55.693"></polygon>
                <polygon id="Fill-25" fill="#000000" mask="url(#mask-2)" points="67.667 81.72 72.539 81.72 72.539 55.693 67.667 55.693"></polygon>
                <path d="M74.9209,77.166 L78.6519,75.835 C78.7479,76.125 78.8249,76.351 78.8829,76.509 C78.9409,76.668 79.0389,76.899 79.1789,77.203 C79.3189,77.506 79.4539,77.739 79.5839,77.904 C79.7139,78.068 79.8819,78.221 80.0899,78.36 C80.2979,78.5 80.5169,78.569 80.7479,78.569 C81.3549,78.569 81.6589,78.213 81.6589,77.499 C81.6589,77.239 81.5989,76.972 81.4789,76.696 C81.3579,76.422 81.2329,76.187 81.1029,75.988 C80.9719,75.79 80.7459,75.532 80.4229,75.214 C80.0999,74.896 79.8509,74.66 79.6779,74.506 C79.5039,74.353 79.2009,74.092 78.7679,73.726 L77.9709,73.045 C76.9409,72.149 76.1309,71.267 75.5419,70.399 C74.9549,69.531 74.6609,68.567 74.6609,67.506 C74.6609,66.688 74.8319,65.949 75.1739,65.287 C75.5159,64.627 75.9759,64.095 76.5549,63.69 C77.1329,63.284 77.7809,62.975 78.4999,62.757 C79.2179,62.54 79.9709,62.433 80.7629,62.433 C81.4659,62.433 82.1399,62.581 82.7879,62.879 C83.4329,63.18 83.9989,63.577 84.4869,64.073 C84.9729,64.569 85.3949,65.128 85.7509,65.751 C86.1069,66.372 86.3819,67.025 86.5759,67.709 L83.0769,68.91 C82.9609,68.621 82.8639,68.382 82.7879,68.194 C82.7099,68.007 82.5879,67.761 82.4189,67.456 C82.2499,67.152 82.0859,66.909 81.9259,66.728 C81.7679,66.543 81.5719,66.382 81.3409,66.242 C81.1099,66.103 80.8689,66.033 80.6189,66.033 C80.2809,66.033 80.0179,66.153 79.8299,66.395 C79.6419,66.634 79.5479,66.909 79.5479,67.217 C79.5479,67.642 79.7819,68.117 80.2499,68.643 C80.7169,69.167 81.3599,69.772 82.1789,70.457 L83.0769,71.252 C83.5579,71.687 83.9749,72.095 84.3269,72.475 C84.6789,72.855 85.0309,73.286 85.3829,73.769 C85.7349,74.251 86.0039,74.756 86.1919,75.287 C86.3799,75.817 86.4749,76.348 86.4749,76.877 C86.4749,78.401 85.9369,79.658 84.8629,80.652 C83.7869,81.645 82.4879,82.141 80.9649,82.141 C79.4899,82.141 78.2179,81.684 77.1479,80.768 C76.0779,79.852 75.3349,78.651 74.9209,77.166" id="Fill-26" fill="#000000" mask="url(#mask-2)"></path>
                <path d="M88.4805,76.8916 L88.4805,68.7936 C88.4805,66.7886 88.9575,65.2246 89.9115,64.1016 C90.8655,62.9786 92.3225,62.4166 94.2785,62.4166 C96.2455,62.4166 97.7035,62.9756 98.6535,64.0946 C99.6015,65.2126 100.0775,66.7796 100.0775,68.7936 L100.0775,70.4436 L95.2905,70.4436 L95.2905,68.2886 C95.2905,67.5376 95.2255,66.9856 95.0965,66.6316 C94.9655,66.2816 94.6935,66.1046 94.2785,66.1046 C93.6615,66.1046 93.3525,66.5816 93.3525,67.5376 L93.3525,76.8766 C93.3525,77.9376 93.6615,78.4686 94.2785,78.4686 C94.5105,78.4686 94.6955,78.4196 94.8355,78.3236 C94.9745,78.2266 95.0765,78.0646 95.1385,77.8316 C95.2015,77.6006 95.2425,77.3626 95.2615,77.1166 C95.2815,76.8706 95.2905,76.5266 95.2905,76.0826 L95.2905,74.0736 L100.0775,74.0736 L100.0775,76.8916 C100.0775,77.9326 99.8065,78.8616 99.2675,79.6746 C98.7275,80.4916 98.0195,81.1046 97.1415,81.5186 C96.2645,81.9326 95.3105,82.1406 94.2785,82.1406 C92.6875,82.1406 91.3235,81.6566 90.1865,80.6876 C89.0495,79.7186 88.4805,78.4536 88.4805,76.8916" id="Fill-27" fill="#000000" mask="url(#mask-2)"></path>
                <path d="M102.5747,81.7217 L102.5747,55.6937 L107.4467,55.6937 L107.4467,64.1967 C107.9207,63.6657 108.4817,63.2367 109.1337,62.9097 C109.7827,62.5817 110.4557,62.4177 111.1487,62.4177 C111.8137,62.4177 112.4097,62.6297 112.9347,63.0537 C113.4597,63.4777 113.8507,63.9987 114.1077,64.6157 C114.3617,65.2327 114.4897,65.8677 114.4897,66.5237 L114.4897,81.7217 L109.6157,81.7217 L109.6157,67.7957 C109.6157,67.7577 109.6187,67.6737 109.6237,67.5437 C109.6287,67.4117 109.6287,67.3077 109.6237,67.2257 C109.6187,67.1437 109.6137,67.0367 109.6087,66.9077 C109.6047,66.7767 109.5867,66.6737 109.5577,66.5967 C109.5297,66.5197 109.4907,66.4377 109.4427,66.3507 C109.3947,66.2647 109.3297,66.2007 109.2477,66.1617 C109.1657,66.1247 109.0667,66.1057 108.9507,66.1057 C108.7597,66.1057 108.5517,66.1827 108.3297,66.3367 C108.1077,66.4907 107.9497,66.6197 107.8527,66.7267 C107.7557,66.8327 107.6207,66.9867 107.4467,67.1897 L107.4467,81.7217 L102.5747,81.7217 Z" id="Fill-28" fill="#000000" mask="url(#mask-2)"></path>
                <path d="M124.1743,77.4551 L124.1743,72.8141 C122.5723,74.1051 121.7743,75.5231 121.7743,77.0651 C121.7743,77.4501 121.8483,77.7811 121.9983,78.0561 C122.1473,78.3301 122.4003,78.4681 122.7573,78.4681 C122.9593,78.4681 123.1593,78.4021 123.3583,78.2721 C123.5543,78.1421 123.6963,78.0281 123.7823,77.9331 C123.8703,77.8371 124.0013,77.6781 124.1743,77.4551 L124.1743,77.4551 Z M125.1563,81.7221 L124.6793,79.7691 C124.4013,80.6471 123.9433,81.2621 123.3073,81.6121 C122.6703,81.9651 121.8793,82.1411 120.9343,82.1411 C120.2403,82.1411 119.6343,82.0061 119.1123,81.7351 C118.5923,81.4671 118.1853,81.1021 117.8913,80.6451 C117.5973,80.1861 117.3803,79.6941 117.2403,79.1701 C117.1013,78.6441 117.0303,78.0921 117.0303,77.5141 C117.0303,76.8581 117.0983,76.2511 117.2343,75.6921 C117.3683,75.1331 117.5393,74.6391 117.7473,74.2091 C117.9543,73.7801 118.2423,73.3681 118.6133,72.9741 C118.9853,72.5781 119.3473,72.2431 119.6983,71.9691 C120.0503,71.6931 120.5013,71.4091 121.0503,71.1151 C121.6003,70.8211 122.0923,70.5751 122.5253,70.3791 C122.9593,70.1811 123.5043,69.9461 124.1583,69.6771 L124.1583,68.0861 C124.1583,67.4211 124.0763,66.9241 123.9143,66.5971 C123.7503,66.2691 123.4703,66.1051 123.0743,66.1051 C122.8043,66.1051 122.5863,66.1601 122.4173,66.2711 C122.2483,66.3831 122.1303,66.5491 122.0633,66.7701 C121.9953,66.9911 121.9513,67.1911 121.9323,67.3701 C121.9143,67.5491 121.9033,67.7861 121.9033,68.0861 L121.9033,69.1561 L117.1763,69.1561 C117.1763,66.9861 117.7203,65.3211 118.8083,64.1601 C119.8993,62.9991 121.4803,62.4181 123.5523,62.4181 C124.9973,62.4181 126.2663,62.9431 127.3563,63.9941 C128.4443,65.0451 128.9873,66.2931 128.9873,67.7381 L128.9873,76.7031 C128.9873,78.2561 129.1953,79.9291 129.6113,81.7221 L125.1563,81.7221 Z" id="Fill-29" fill="#000000" mask="url(#mask-2)"></path>
                <path d="M132.7876,81.7217 L132.7876,66.1057 L131.6886,66.1057 L131.6886,62.8517 L132.7876,62.8517 L132.7876,62.8217 C132.7976,62.2427 132.8216,61.7327 132.8606,61.2897 C132.8986,60.8457 132.9686,60.3737 133.0696,59.8727 C133.1716,59.3697 133.3206,58.9397 133.5176,58.5777 C133.7146,58.2167 133.9646,57.8827 134.2626,57.5727 C134.5616,57.2647 134.9426,57.0307 135.4046,56.8707 C135.8676,56.7127 136.3986,56.6327 136.9956,56.6327 C137.4006,56.6327 137.8586,56.6507 138.3696,56.6837 C138.8806,56.7187 139.2896,56.7547 139.5986,56.7927 L140.0606,56.8367 L140.0606,60.4807 C139.3956,60.4227 138.9716,60.3927 138.7886,60.3927 C138.3846,60.3927 138.0956,60.5067 137.9206,60.7327 C137.7476,60.9597 137.6606,61.3697 137.6606,61.9697 L137.6606,62.8517 L140.0176,62.8517 L140.0176,66.1057 L137.6606,66.1057 L137.6606,81.7217 L132.7876,81.7217 Z" id="Fill-30" fill="#000000" mask="url(#mask-2)"></path>
                <path d="M142.2407,75.2432 L142.2407,66.1052 L140.8527,66.1052 L140.8527,62.8512 L142.2407,62.8512 L142.2407,56.6472 L147.1137,56.6472 L147.1137,62.8512 L149.4557,62.8512 L149.4557,66.1052 L147.1137,66.1052 L147.1137,76.4142 C147.1137,76.9352 147.2097,77.3232 147.4027,77.5782 C147.5947,77.8342 147.9387,77.9622 148.4287,77.9622 C148.9887,77.9622 149.4607,77.9322 149.8457,77.8742 L149.8457,81.6492 C149.2097,81.8422 148.1847,81.9382 146.7667,81.9382 C146.1977,81.9382 145.6847,81.8702 145.2267,81.7352 C144.7687,81.6012 144.3827,81.4212 144.0707,81.1942 C143.7577,80.9682 143.4867,80.6802 143.2607,80.3332 C143.0337,79.9862 142.8557,79.6332 142.7247,79.2702 C142.5947,78.9092 142.4937,78.4872 142.4217,78.0062 C142.3497,77.5232 142.3007,77.0742 142.2777,76.6602 C142.2527,76.2452 142.2407,75.7732 142.2407,75.2432" id="Fill-31" fill="#000000" mask="url(#mask-2)"></path>
                <path d="M195.7144,18.5689 C195.7144,18.5689 196.9564,10.8869 197.5884,7.2219 C197.6714,6.7359 198.1054,5.4219 197.9744,4.1029 C197.8294,2.6529 196.9934,2.2899 196.0424,1.7669 C195.3154,1.3679 195.2984,-0.0101 192.8154,-0.0001 C185.8374,0.0229 178.3684,-0.0711 175.1504,0.2089 C171.2084,0.5549 167.7934,-0.4381 163.8274,0.9829 C160.7614,2.0809 159.3884,4.6939 159.2914,4.8199 C159.2644,4.9319 159.1804,5.1909 159.1594,5.2089 C158.5174,5.8299 158.3494,7.7729 158.3254,8.0009 C158.3074,8.1939 158.2514,8.8019 158.2514,8.8959 C158.1574,9.7549 158.0824,11.3199 158.4264,12.0259 C158.7664,12.7239 159.3954,16.4299 159.4714,16.9999 C159.6544,18.3859 159.8764,19.7729 159.9434,20.4789 C159.9854,20.9129 161.2744,28.4739 161.4934,30.2299 C161.6014,31.0739 163.0134,41.1489 163.4794,43.3269 C163.7714,44.6909 164.1094,48.0279 164.1094,48.0279 L164.5984,50.7989 L165.4244,57.2629 C165.4244,57.2629 166.1884,61.6139 166.2824,62.3529 C166.4214,63.4389 167.9834,64.1329 169.0144,64.2509 C169.1794,64.2709 169.6854,64.2909 169.6854,64.2909 L172.1454,64.4839 L178.3594,64.5729 C178.3594,64.5729 180.4204,64.5649 182.3804,64.5929 C182.5544,64.5959 182.4334,64.5909 182.5974,64.5859 C182.6504,64.5859 182.8964,64.5939 183.1694,64.5769 C183.3884,64.5639 183.9864,64.5939 184.3394,64.4979 C184.5564,64.4399 184.8854,64.1429 185.0024,63.8459 C185.0564,63.7119 185.2264,63.4809 185.3184,63.1659 C185.3784,62.9599 185.5344,62.1499 185.6884,61.4709 C186.4824,57.9369 186.9984,55.5689 187.9944,51.9749 C188.2384,51.0949 189.3894,46.3099 190.2194,42.5759 C190.7584,40.1529 192.8224,31.3979 192.8224,31.3979 L194.2634,25.5829 L195.7144,18.5689 Z" id="Fill-32" fill="#FFDD02" mask="url(#mask-2)"></path>
                <path d="M172.6245,83.5625 C171.5375,82.8325 169.9905,81.8575 169.5375,79.2355 C169.2175,77.3885 169.0885,76.8235 169.1035,74.9515 C169.1125,73.8905 169.7405,71.6615 170.2325,70.9725 C170.6315,70.4165 171.2425,69.8835 171.4845,69.6005 C171.7925,69.2435 172.2855,69.0345 172.5075,68.8865 C172.9665,68.5815 173.0505,68.4345 173.6515,68.1855 C174.2285,67.9475 174.8615,67.7255 175.3395,67.6585 C176.2865,67.5215 176.7105,67.2805 178.1055,67.3115 C180.7645,67.3725 181.7005,67.5835 183.6095,68.6125 C184.1955,68.9265 185.9425,70.4155 186.6235,72.0365 C187.0915,73.1525 187.3695,73.8565 187.5145,74.8175 C187.6655,75.8155 187.4235,77.1175 187.2615,78.2075 C187.1665,78.8395 186.8035,79.8715 186.6375,80.2935 C186.4675,80.7345 185.8065,81.8825 185.5495,82.2915 C185.0335,83.1095 183.3535,84.0735 183.0345,84.2295 C180.3535,85.5495 175.2795,85.3495 172.6245,83.5625" id="Fill-33" fill="#FFDD02" mask="url(#mask-2)"></path>
                <path d="M194.3188,20.8506 C194.5888,18.9266 195.2668,15.0426 195.7938,11.7936 C195.8648,11.3636 195.9778,9.8946 195.7468,9.0456 C195.4088,7.8076 194.0298,6.8746 193.2668,6.5166 C192.2538,6.0416 191.1938,5.6936 190.1938,5.6706 C184.8278,5.5486 180.7938,4.4336 178.3058,4.6596 C176.7118,4.8046 170.5218,3.7606 168.0798,5.0956 C166.6608,5.8736 165.7768,6.3646 164.3568,8.6976 C164.2768,8.8296 164.1848,8.9386 164.1178,9.0556 C163.9598,9.3296 163.5628,9.9506 163.3598,10.7296 C163.2508,11.1476 163.1958,11.8206 163.1608,12.3936 L163.1608,12.4826 C163.1598,12.9296 163.3398,14.3946 163.4688,14.9996 C163.5768,15.4926 163.7668,15.9126 163.9898,16.6566 C164.3648,17.9016 164.6498,19.0086 164.8208,19.6116 C165.2558,21.1576 166.8708,31.3836 166.8708,31.3836 L169.4638,48.0216 L169.6618,49.2646 C169.6378,49.5426 170.1568,53.5116 170.1568,53.5116 C170.1558,53.5606 170.5608,55.8836 170.5608,55.8836 C171.0018,57.6516 171.1568,58.0076 171.2218,58.6576 C171.3168,59.6166 171.6098,60.1506 172.0078,60.2336 C172.1818,60.2696 172.6168,60.4136 172.6168,60.4136 L174.4678,60.5246 L179.4418,60.4006 L182.6208,60.3616 L183.0458,60.3466 C183.0458,60.3466 183.5218,60.3226 183.6088,60.2476 C183.7298,60.1436 183.7838,60.0476 183.8878,59.9026 C184.0168,59.7246 184.1128,59.4896 184.1878,59.3356 C184.4238,58.8486 184.5748,58.3886 184.5748,58.3886 L187.2898,49.7536 L189.3208,41.1826 C189.3208,41.1826 190.3938,36.4576 191.0138,34.0406 C191.3868,32.5956 191.6248,31.1666 191.9838,29.9166 C192.2948,28.8346 193.2218,25.3686 193.5138,24.3716 C193.8898,23.0746 194.0078,22.0746 194.3348,20.8096" id="Fill-34" fill="#D11217" mask="url(#mask-2)"></path>
                <path d="M189.2856,15.3374 C189.2026,14.3244 188.8106,13.6764 188.3796,13.2184 C188.0586,12.8794 187.3866,12.1594 186.0846,12.2184 C182.4306,12.3844 178.1766,12.6364 176.4776,12.7874 C174.3526,12.9754 172.0936,12.0944 170.0156,13.1864 C169.1566,13.6364 168.4046,14.5584 167.6146,16.0244 C167.5616,16.1244 167.3606,16.5634 167.3506,16.5764 C167.0046,16.9394 166.9126,19.1654 166.9366,19.0774 C166.9326,19.1434 167.0306,20.3214 167.1156,20.8474 C167.1616,21.1164 169.4676,37.1994 169.5686,38.0814 C169.7376,39.5604 170.5896,46.6124 170.5896,46.6124 L171.1086,50.2424 C171.1086,50.2424 171.4596,53.6164 171.5126,54.1324 C171.5916,54.8914 171.7506,55.8644 172.2646,56.0784 C172.5056,56.1774 172.5686,56.0454 172.8046,56.1204 C173.2996,56.2744 179.1736,56.6194 180.2006,56.5964 C180.2926,56.5954 181.1076,56.5334 181.1936,56.5274 C181.4726,56.5054 182.3886,56.4284 182.4126,56.4164 C182.4666,56.3924 182.6176,56.3454 182.6916,56.2814 C182.7666,56.2174 182.8746,56.0994 182.9376,55.9484 C182.9936,55.8124 183.0566,55.5634 183.0986,55.4034 C183.1516,55.2544 183.2386,54.7384 183.3146,54.2604 C183.7126,51.7634 183.9456,50.9034 184.4516,48.3614 C184.9286,45.9464 187.5826,26.2944 187.7866,25.2884 L188.0006,24.4524 C188.1586,22.9234 188.7846,20.1164 189.0986,17.5324 C189.1396,17.1904 189.3596,16.2614 189.2856,15.3374" id="Fill-35" fill="#000000" mask="url(#mask-2)"></path>
                <path d="M175.0229,69.4502 C176.4109,69.2312 177.9429,68.2102 182.3349,70.7482 C183.0339,71.1502 183.7679,72.7192 183.9239,73.1822 C184.1989,73.9992 184.4469,75.3182 184.3459,75.9992 C184.2469,76.6922 184.2759,77.7522 183.9239,78.6602 C183.5719,79.5752 183.3979,79.9312 182.9379,80.6302 C182.6169,81.1212 182.0849,81.9702 181.2579,82.3372 C180.2359,82.7882 178.9339,83.2782 178.3949,83.3212 C177.0489,83.4272 175.9019,83.3332 174.5859,82.9662 C172.9279,82.5042 172.4229,81.8802 172.0019,81.5192 C171.0479,80.7072 170.8909,80.1412 170.5649,79.0832 C169.9979,77.2372 170.0149,75.6022 170.4749,73.7702 C171.0229,71.5882 173.0089,70.1612 175.0229,69.4502" id="Fill-36" fill="#D11217" mask="url(#mask-2)"></path>
                <path d="M182.9897,76.2403 C182.9597,75.2353 182.9467,74.4693 182.5677,73.5383 C182.1817,72.5903 181.3837,71.9933 180.7697,71.6693 C178.9797,70.7213 177.5147,70.9753 176.2177,71.5743 C175.9007,71.6783 175.1987,72.1983 175.1897,72.2043 C174.5427,72.5883 173.8657,73.2223 173.7607,74.8713 C173.7097,75.6813 173.7407,76.9703 173.9707,77.7483 C174.2527,78.6963 175.1657,79.7043 175.9707,80.0553 C177.2647,80.6173 177.6537,80.4593 179.0587,80.4513 C179.8617,80.4453 180.7627,80.2583 181.4097,79.7833 C181.9357,79.3973 182.2177,78.8463 182.5587,78.3793 C182.9447,77.8533 183.0167,77.1713 182.9897,76.2403" id="Fill-37" fill="#000000" mask="url(#mask-2)"></path>
            </g>
        </g>
    </g>
</svg>