<?xml version="1.0" encoding="utf-8"?>
<!-- Generator: Adobe Illustrator 16.0.0, SVG Export Plug-In . SVG Version: 6.00 Build 0)  -->
<!DOCTYPE svg PUBLIC "-//W3C//DTD SVG 1.1//EN" "http://www.w3.org/Graphics/SVG/1.1/DTD/svg11.dtd">
<svg version="1.1" id="Ebene_1" xmlns="http://www.w3.org/2000/svg" xmlns:xlink="http://www.w3.org/1999/xlink" x="0px" y="0px"
	 width="841.89px" height="595.28px" viewBox="0 0 841.89 595.28" enable-background="new 0 0 841.89 595.28" xml:space="preserve">
<g>
	<path d="M281.624,296.296l-35.956,40.818l-13.118-50.303l-53.034-17.9l48.582-27.791l2.547-41.617
		c-10.412-3.371-21.517-5.215-33.069-5.215c-58.346,0-105.649,46.447-105.649,103.752c0,57.293,47.304,103.744,105.649,103.744
		c58.347,0,105.647-46.451,105.647-103.744c0-0.17-0.001-0.326-0.008-0.494L281.624,296.296z"/>
	<polygon fill="#E94E1B" points="246.211,230.856 246.604,254.257 227.533,267.843 249.911,274.708 256.939,297.032 270.391,277.87 
		293.789,278.087 279.729,259.382 287.158,237.188 283.948,238.288 265.02,244.784 	"/>
	<path d="M350.907,282.253c1.175-0.615,2.15-1.428,2.916-2.455c0.766-1.021,1.341-2.186,1.723-3.49
		c0.382-1.303,0.578-2.668,0.578-4.1c0-1.635-0.157-3.18-0.46-4.639c-0.306-1.459-0.822-2.748-1.533-3.869
		c-0.717-1.129-1.665-2.02-2.837-2.684c-1.177-0.666-2.66-1-4.449-1c-1.535,0-2.847,0.309-3.948,0.92
		c-1.098,0.611-2.021,1.443-2.763,2.492c-0.738,1.051-1.272,2.248-1.607,3.602c-0.335,1.355-0.496,2.777-0.496,4.256
		c0,1.434,0.136,2.852,0.421,4.258c0.277,1.406,0.767,2.67,1.453,3.795c0.694,1.125,1.601,2.045,2.726,2.76
		c1.12,0.715,2.529,1.074,4.215,1.074C348.377,283.173,349.731,282.866,350.907,282.253 M365.82,295.44
		c-0.431,2.041-1.365,3.945-2.797,5.709c-1.434,1.768-3.508,3.258-6.212,4.49c-2.712,1.225-6.341,1.836-10.887,1.836
		c-1.941,0-3.924-0.244-5.938-0.73c-2.025-0.482-3.864-1.236-5.523-2.258c-1.661-1.021-3.046-2.342-4.14-3.949
		c-1.102-1.611-1.725-3.543-1.88-5.789h10.813c0.503,2.045,1.505,3.463,2.985,4.258c1.484,0.789,3.192,1.186,5.139,1.186
		c3.066,0,5.302-0.92,6.704-2.76c1.409-1.84,2.083-4.166,2.038-6.98v-5.207h-0.157c-1.176,2.096-2.844,3.639-5.019,4.633
		c-2.175,1-4.464,1.494-6.868,1.494c-2.959,0-5.517-0.52-7.663-1.568c-2.144-1.049-3.905-2.479-5.289-4.297
		c-1.379-1.812-2.392-3.93-3.025-6.359c-0.646-2.428-0.961-4.994-0.961-7.705c0-2.555,0.364-5.021,1.107-7.4
		c0.741-2.375,1.833-4.471,3.262-6.283c1.432-1.816,3.211-3.262,5.33-4.338c2.121-1.072,4.56-1.604,7.32-1.604
		c2.605,0,4.896,0.482,6.862,1.455c1.969,0.969,3.617,2.6,4.943,4.904h0.157v-5.289h10.354v37.109
		C366.478,291.579,366.25,293.392,365.82,295.44"/>
	<path d="M385.562,252.888v7.359h0.153c0.511-1.223,1.199-2.367,2.069-3.412c0.872-1.047,1.867-1.943,2.987-2.684
		c1.126-0.742,2.332-1.312,3.606-1.727c1.277-0.402,2.61-0.607,3.987-0.607c0.715,0,1.506,0.125,2.374,0.379v10.123
		c-0.511-0.102-1.116-0.193-1.836-0.27c-0.716-0.076-1.408-0.113-2.071-0.113c-1.994,0-3.684,0.334-5.057,0.994
		c-1.385,0.666-2.497,1.57-3.341,2.723c-0.84,1.152-1.443,2.49-1.8,4.021c-0.359,1.537-0.536,3.197-0.536,4.988v17.861h-10.885
		v-39.637H385.562z"/>
	<path d="M427.61,262.163c-1.299-1.432-3.278-2.146-5.942-2.146c-1.733,0-3.177,0.297-4.33,0.881c-1.151,0.59-2.07,1.32-2.762,2.188
		c-0.687,0.869-1.176,1.793-1.453,2.756c-0.281,0.977-0.451,1.844-0.499,2.611h17.708
		C429.824,265.69,428.915,263.597,427.61,262.163 M415.307,283.019c1.636,1.584,3.987,2.375,7.059,2.375
		c2.19,0,4.083-0.547,5.666-1.646c1.582-1.098,2.558-2.262,2.917-3.492h9.581c-1.531,4.754-3.878,8.156-7.052,10.203
		c-3.175,2.045-7.003,3.062-11.498,3.062c-3.12,0-5.926-0.498-8.436-1.494c-2.503-0.996-4.626-2.414-6.365-4.258
		c-1.734-1.84-3.075-4.033-4.026-6.594c-0.945-2.555-1.414-5.363-1.414-8.436c0-2.961,0.48-5.717,1.456-8.271
		c0.971-2.559,2.353-4.768,4.14-6.633c1.79-1.867,3.923-3.338,6.401-4.414c2.479-1.072,5.228-1.604,8.244-1.604
		c3.371,0,6.311,0.65,8.814,1.953c2.505,1.301,4.564,3.053,6.177,5.254c1.609,2.193,2.766,4.697,3.486,7.512
		c0.713,2.809,0.965,5.746,0.765,8.818h-28.598C412.777,278.878,413.67,281.44,415.307,283.019"/>
	<path d="M471.616,262.163c-1.3-1.432-3.278-2.146-5.942-2.146c-1.734,0-3.179,0.297-4.328,0.881
		c-1.148,0.59-2.071,1.32-2.764,2.188c-0.687,0.869-1.171,1.793-1.452,2.756c-0.283,0.977-0.447,1.844-0.499,2.611h17.711
		C473.833,265.69,472.926,263.597,471.616,262.163 M459.315,283.019c1.638,1.584,3.986,2.375,7.049,2.375
		c2.203,0,4.091-0.547,5.677-1.646c1.583-1.098,2.558-2.262,2.916-3.492h9.582c-1.533,4.754-3.887,8.156-7.052,10.203
		c-3.173,2.045-7.003,3.062-11.505,3.062c-3.114,0-5.929-0.498-8.429-1.494c-2.509-0.996-4.629-2.414-6.366-4.258
		c-1.736-1.84-3.077-4.033-4.023-6.594c-0.949-2.555-1.419-5.363-1.419-8.436c0-2.961,0.486-5.717,1.456-8.271
		c0.968-2.559,2.353-4.768,4.14-6.633c1.789-1.867,3.922-3.338,6.399-4.414c2.481-1.072,5.229-1.604,8.242-1.604
		c3.373,0,6.311,0.65,8.82,1.953c2.507,1.301,4.557,3.053,6.171,5.254c1.615,2.193,2.771,4.697,3.486,7.512
		c0.717,2.809,0.969,5.746,0.768,8.818h-28.597C456.789,278.878,457.677,281.44,459.315,283.019"/>
	<path d="M502.016,252.888v5.52h0.233c1.38-2.299,3.168-3.975,5.363-5.021c2.203-1.049,4.452-1.568,6.749-1.568
		c2.917,0,5.304,0.395,7.171,1.182c1.858,0.795,3.336,1.893,4.406,3.299c1.074,1.408,1.827,3.117,2.261,5.137
		c0.438,2.018,0.656,4.256,0.656,6.709v24.381h-10.894V270.14c0-3.273-0.51-5.713-1.53-7.322c-1.021-1.611-2.835-2.414-5.438-2.414
		c-2.967,0-5.12,0.883-6.443,2.643c-1.331,1.764-1.995,4.664-1.995,8.701v20.777h-10.886v-39.637H502.016z"/>
	<path fill="#E94E1B" d="M547.712,252.888v5.365h0.153c1.43-2.041,3.158-3.627,5.174-4.752s4.332-1.684,6.94-1.684
		c2.505,0,4.792,0.482,6.861,1.455c2.067,0.965,3.642,2.684,4.718,5.135c1.173-1.736,2.771-3.268,4.788-4.602
		c2.019-1.328,4.406-1.988,7.165-1.988c2.1,0,4.038,0.25,5.831,0.764c1.787,0.51,3.322,1.326,4.602,2.451
		c1.278,1.125,2.273,2.596,2.982,4.406c0.722,1.82,1.082,4.006,1.082,6.561v26.525h-10.886V270.06c0-1.326-0.056-2.582-0.153-3.752
		c-0.104-1.18-0.388-2.205-0.846-3.072c-0.46-0.867-1.14-1.555-2.034-2.068c-0.889-0.508-2.109-0.764-3.641-0.764
		c-1.532,0-2.776,0.293-3.72,0.883c-0.944,0.586-1.683,1.35-2.224,2.299c-0.532,0.947-0.892,2.016-1.074,3.221
		c-0.182,1.201-0.266,2.414-0.266,3.637v22.082H562.28V270.29c0-1.174-0.03-2.34-0.079-3.484c-0.054-1.152-0.267-2.217-0.65-3.182
		c-0.386-0.975-1.027-1.752-1.917-2.338c-0.894-0.59-2.213-0.883-3.946-0.883c-0.518,0-1.189,0.111-2.039,0.342
		c-0.839,0.229-1.66,0.666-2.447,1.305c-0.797,0.639-1.474,1.562-2.035,2.76c-0.556,1.201-0.843,2.775-0.843,4.713v23.002h-10.888
		v-39.637H547.712z"/>
	<path fill="#E94E1B" d="M633.425,292.524v-5.52h-0.226c-1.383,2.297-3.173,3.961-5.367,4.984c-2.197,1.021-4.446,1.531-6.75,1.531
		c-2.912,0-5.306-0.383-7.167-1.148c-1.866-0.768-3.333-1.854-4.408-3.258c-1.076-1.406-1.828-3.119-2.267-5.139
		c-0.431-2.018-0.65-4.254-0.65-6.709v-24.379h10.893v22.387c0,3.273,0.505,5.709,1.53,7.322c1.022,1.611,2.838,2.412,5.444,2.412
		c2.964,0,5.11-0.881,6.44-2.645c1.325-1.76,1.993-4.66,1.993-8.701v-20.775h10.885v39.637H633.425z"/>
	<path fill="#E94E1B" d="M661.221,282.677c0.48,0.84,1.109,1.531,1.874,2.066c0.765,0.541,1.648,0.932,2.65,1.186
		c0.994,0.264,2.026,0.389,3.101,0.389c0.769,0,1.575-0.092,2.417-0.27c0.844-0.18,1.613-0.461,2.296-0.844
		c0.691-0.385,1.271-0.893,1.727-1.537c0.46-0.635,0.692-1.443,0.692-2.412c0-1.637-1.088-2.863-3.259-3.68
		c-2.178-0.814-5.204-1.635-9.086-2.457c-1.584-0.354-3.131-0.771-4.638-1.262c-1.508-0.482-2.853-1.121-4.028-1.916
		c-1.175-0.795-2.119-1.791-2.837-2.99c-0.715-1.201-1.066-2.674-1.066-4.41c0-2.555,0.494-4.648,1.49-6.287
		c1.001-1.635,2.314-2.924,3.944-3.875c1.641-0.941,3.477-1.604,5.521-1.986c2.047-0.385,4.146-0.574,6.293-0.574
		c2.143,0,4.227,0.205,6.246,0.611c2.018,0.41,3.822,1.098,5.408,2.068c1.583,0.969,2.893,2.262,3.947,3.869
		c1.049,1.615,1.671,3.646,1.873,6.102h-10.352c-0.15-2.1-0.943-3.52-2.376-4.258c-1.427-0.74-3.114-1.109-5.059-1.109
		c-0.612,0-1.275,0.033-1.994,0.113c-0.714,0.076-1.368,0.24-1.952,0.498c-0.591,0.256-1.084,0.623-1.493,1.109
		c-0.413,0.488-0.616,1.141-0.616,1.955c0,0.973,0.356,1.764,1.073,2.375c0.714,0.613,1.647,1.113,2.797,1.498
		c1.155,0.385,2.466,0.729,3.952,1.035c1.481,0.303,2.985,0.637,4.521,0.998c1.582,0.357,3.128,0.787,4.636,1.301
		c1.51,0.514,2.851,1.189,4.024,2.033c1.179,0.844,2.123,1.893,2.838,3.145c0.718,1.25,1.077,2.797,1.077,4.637
		c0,2.604-0.523,4.793-1.574,6.553c-1.045,1.768-2.413,3.184-4.103,4.258c-1.686,1.072-3.613,1.83-5.784,2.262
		c-2.175,0.434-4.388,0.65-6.637,0.65c-2.298,0-4.552-0.229-6.747-0.688c-2.193-0.461-4.148-1.229-5.863-2.301
		c-1.712-1.07-3.115-2.492-4.217-4.252c-1.099-1.766-1.7-3.973-1.803-6.639h10.352C660.488,280.821,660.731,281.829,661.221,282.677
		"/>
	<path fill="#E94E1B" d="M704.421,292.524h-10.882v-39.637h10.882V292.524z M693.539,237.782h10.882v8.971h-10.882V237.782z"/>
	<path fill="#E94E1B" d="M731.943,260.017c-1.737,0-3.189,0.395-4.372,1.189c-1.172,0.791-2.127,1.812-2.874,3.068
		c-0.737,1.25-1.263,2.633-1.567,4.139c-0.311,1.51-0.464,3.004-0.464,4.486c0,1.432,0.153,2.893,0.464,4.367
		c0.305,1.486,0.805,2.824,1.494,4.029c0.688,1.197,1.621,2.182,2.801,2.945c1.175,0.768,2.602,1.152,4.29,1.152
		c2.605,0,4.609-0.727,6.018-2.186c1.406-1.455,2.287-3.41,2.646-5.861h10.503c-0.718,5.26-2.763,9.273-6.13,12.035
		c-3.375,2.764-7.696,4.139-12.962,4.139c-2.97,0-5.687-0.494-8.165-1.494s-4.584-2.387-6.326-4.178
		c-1.731-1.785-3.093-3.922-4.063-6.4c-0.968-2.482-1.454-5.201-1.454-8.17c0-3.062,0.445-5.914,1.342-8.545
		c0.896-2.635,2.211-4.906,3.944-6.822c1.739-1.916,3.864-3.414,6.367-4.49c2.505-1.072,5.363-1.604,8.588-1.604
		c2.351,0,4.61,0.307,6.784,0.916c2.174,0.615,4.116,1.547,5.826,2.797c1.713,1.258,3.104,2.816,4.18,4.676
		c1.074,1.871,1.686,4.082,1.836,6.633h-10.65C739.281,262.294,736.594,260.017,731.943,260.017"/>
	<path d="M339.562,372.261h-10.89v-39.637h10.89V372.261z M328.673,317.519h10.89v8.971h-10.89V317.519z"/>
	<path d="M358.501,332.624v5.52h0.229c1.378-2.299,3.167-3.975,5.365-5.021c2.201-1.049,4.446-1.57,6.747-1.57
		c2.915,0,5.301,0.396,7.172,1.188c1.862,0.793,3.333,1.889,4.411,3.295c1.069,1.406,1.825,3.117,2.259,5.137
		c0.434,2.021,0.648,4.256,0.648,6.709v24.381h-10.885v-22.387c0-3.268-0.513-5.713-1.533-7.324
		c-1.021-1.604-2.838-2.414-5.441-2.414c-2.968,0-5.117,0.883-6.442,2.646c-1.333,1.764-1.989,4.664-1.989,8.705v20.773h-10.894
		v-39.637H358.501z"/>
	<path d="M404.806,372.261h-10.888v-39.637h10.888V372.261z M393.918,317.519h10.888v8.971h-10.888V317.519z"/>
	<path d="M435.17,332.624v7.283h-7.979v19.627c0,1.844,0.314,3.066,0.926,3.684c0.609,0.611,1.836,0.916,3.676,0.916
		c0.615,0,1.206-0.023,1.763-0.072c0.566-0.053,1.098-0.129,1.615-0.232v8.432c-0.92,0.152-1.946,0.254-3.071,0.309
		c-1.125,0.049-2.223,0.074-3.296,0.074c-1.686,0-3.285-0.113-4.792-0.342c-1.509-0.23-2.837-0.676-3.984-1.338
		c-1.148-0.672-2.056-1.615-2.725-2.846c-0.663-1.225-0.992-2.832-0.992-4.824v-23.387h-6.596v-7.283h6.596v-11.883h10.881v11.883
		H435.17z"/>
	<path d="M451.574,372.261h-10.887v-39.637h10.887V372.261z M440.684,317.519h10.887v8.971h-10.887V317.519z"/>
	<path d="M483.125,353.821c-0.687,0.23-1.429,0.422-2.226,0.578c-0.789,0.15-1.62,0.281-2.488,0.383
		c-0.872,0.102-1.741,0.229-2.605,0.381c-0.821,0.156-1.624,0.359-2.423,0.615c-0.784,0.258-1.482,0.604-2.063,1.033
		c-0.592,0.438-1.061,0.988-1.422,1.646c-0.358,0.67-0.538,1.51-0.538,2.535c0,0.971,0.18,1.787,0.538,2.457
		c0.361,0.66,0.843,1.189,1.458,1.568c0.614,0.385,1.328,0.646,2.149,0.803c0.813,0.156,1.657,0.232,2.525,0.232
		c2.147,0,3.809-0.357,4.989-1.072c1.172-0.719,2.039-1.574,2.604-2.574c0.562-0.996,0.905-2.004,1.032-3.029
		c0.131-1.02,0.195-1.84,0.195-2.451v-4.064C484.391,353.272,483.812,353.593,483.125,353.821 M461.619,338.452
		c1.126-1.691,2.558-3.045,4.295-4.066c1.733-1.02,3.688-1.75,5.862-2.18c2.172-0.439,4.357-0.656,6.558-0.656
		c1.986,0,4.008,0.143,6.057,0.422c2.04,0.281,3.907,0.836,5.594,1.648c1.685,0.818,3.069,1.955,4.141,3.414
		c1.08,1.455,1.61,3.383,1.61,5.781v20.635c0,1.781,0.102,3.496,0.311,5.135c0.202,1.635,0.561,2.859,1.075,3.676h-11.046
		c-0.202-0.611-0.369-1.236-0.499-1.879c-0.13-0.637-0.212-1.287-0.267-1.953c-1.741,1.791-3.785,3.041-6.137,3.76
		c-2.349,0.711-4.75,1.072-7.203,1.072c-1.895,0-3.659-0.232-5.287-0.691c-1.642-0.457-3.075-1.176-4.3-2.145
		c-1.225-0.973-2.183-2.201-2.873-3.68c-0.69-1.486-1.036-3.25-1.036-5.295c0-2.246,0.397-4.098,1.19-5.559
		c0.791-1.455,1.811-2.619,3.067-3.488c1.249-0.867,2.684-1.518,4.292-1.955c1.611-0.432,3.235-0.779,4.866-1.037
		c1.639-0.25,3.248-0.457,4.832-0.611c1.585-0.152,2.992-0.381,4.218-0.689c1.23-0.307,2.195-0.752,2.915-1.342
		c0.717-0.588,1.046-1.439,0.997-2.564c0-1.18-0.195-2.111-0.577-2.803c-0.384-0.691-0.893-1.225-1.532-1.611
		c-0.639-0.381-1.378-0.635-2.223-0.764c-0.846-0.127-1.757-0.191-2.727-0.191c-2.142,0-3.835,0.461-5.058,1.377
		c-1.229,0.924-1.943,2.459-2.146,4.604h-10.885C459.855,342.257,460.491,340.136,461.619,338.452"/>
	<path d="M525.945,332.624v7.283h-7.976v19.627c0,1.844,0.306,3.066,0.921,3.684c0.61,0.611,1.837,0.916,3.677,0.916
		c0.615,0,1.203-0.023,1.765-0.072c0.564-0.053,1.1-0.129,1.613-0.232v8.432c-0.923,0.152-1.947,0.254-3.066,0.309
		c-1.129,0.049-2.23,0.074-3.299,0.074c-1.689,0-3.287-0.113-4.795-0.342c-1.507-0.23-2.837-0.676-3.986-1.338
		c-1.15-0.672-2.054-1.615-2.723-2.846c-0.661-1.225-0.994-2.832-0.994-4.824v-23.387h-6.591v-7.283h6.591v-11.883h10.888v11.883
		H525.945z"/>
	<path d="M542.351,372.261H531.46v-39.637h10.891V372.261z M531.464,317.519h10.887v8.971h-10.887V317.519z"/>
	<polygon points="560.752,372.261 547.181,332.624 558.6,332.624 566.963,359.687 567.113,359.687 575.471,332.624 586.278,332.624 
		572.862,372.261 	"/>
	<path d="M614.763,341.899c-1.299-1.43-3.279-2.145-5.942-2.145c-1.734,0-3.182,0.293-4.329,0.883
		c-1.152,0.586-2.068,1.314-2.762,2.178c-0.688,0.875-1.176,1.795-1.458,2.764c-0.276,0.973-0.447,1.84-0.495,2.607h17.711
		C616.978,345.431,616.067,343.329,614.763,341.899 M602.46,362.753c1.635,1.586,3.988,2.377,7.059,2.377
		c2.19,0,4.081-0.547,5.665-1.646c1.583-1.1,2.557-2.262,2.915-3.49h9.584c-1.531,4.752-3.88,8.154-7.05,10.199
		c-3.173,2.041-7.005,3.068-11.502,3.068c-3.115,0-5.93-0.498-8.431-1.498c-2.51-0.992-4.629-2.414-6.367-4.254
		c-1.733-1.84-3.08-4.037-4.027-6.596c-0.944-2.555-1.419-5.367-1.419-8.434c0-2.961,0.489-5.723,1.46-8.275
		c0.97-2.562,2.351-4.768,4.141-6.631c1.784-1.865,3.921-3.338,6.399-4.412c2.481-1.072,5.229-1.609,8.244-1.609
		c3.371,0,6.308,0.65,8.814,1.951c2.507,1.307,4.564,3.057,6.176,5.256c1.61,2.195,2.769,4.703,3.482,7.512
		c0.72,2.811,0.977,5.752,0.77,8.816h-28.597C599.931,358.614,600.823,361.173,602.46,362.753"/>
</g>
</svg>
