<?xml version="1.0" encoding="utf-8"?>
<!-- Generator: Adobe Illustrator 15.1.0, SVG Export Plug-In . SVG Version: 6.00 Build 0)  -->
<!DOCTYPE svg PUBLIC "-//W3C//DTD SVG 1.1//EN" "http://www.w3.org/Graphics/SVG/1.1/DTD/svg11.dtd">
<svg version="1.1" id="Layer_1" xmlns="http://www.w3.org/2000/svg" xmlns:xlink="http://www.w3.org/1999/xlink" x="0px" y="0px"
	 width="114px" height="30px" viewBox="0 0 114 30" enable-background="new 0 0 114 30" xml:space="preserve">
<g>
	<g>
		<path fill="#20426A" d="M49.381,25.287c-2.187,0-3.581-0.275-3.581-2.799v-7.562c0-2.543,1.395-2.8,3.581-2.823h3.306
			c0.858,0,0.858-0.282,1.02-1.196c0.529-3.059,0.504-2.872,0.504-2.872h-0.003c0,0-5.434,0-5.447,0
			c-6.158,0-8.201,2.142-8.201,7.273v6.243c0,5.073,1.979,7.881,7.864,7.989c2.354-0.06,4.595-0.356,6.125-0.619v-3.638h-5.167
			L49.381,25.287L49.381,25.287z"/>
		<path fill="#20426A" d="M64.333,8.038h-4.854c-0.123,0-0.189,0.048-0.189,0.191L59.286,29.5h5.237V8.229
			C64.523,8.086,64.482,8.038,64.333,8.038z"/>
		<path fill="#20426A" d="M98.167,25.096c0-0.097-0.045-0.135-0.146-0.135l0,0h-5.023l0,0c-0.049,0-0.145,0.038-0.145,0.135v4.615
			c0,0.072,0.094,0.148,0.145,0.148c0.002,0,0.002,0,0.002,0h5.021l0,0c0.102,0,0.146-0.076,0.146-0.156v-0.002V25.096
			L98.167,25.096z"/>
		<path fill="#20426A" d="M8.997,25.287L8.997,25.287c-2.195,0-3.589-0.275-3.589-2.799V8.229c0-0.144-0.048-0.191-0.191-0.191
			h-5.05v13.517c0,5.168,0.47,7.994,6.629,7.994c0.01,0,1.053,0,1.914,0c1.846-0.05,3.72-0.24,5.149-0.434l0.644-3.828H8.997z"/>
		<path fill="#20426A" d="M30.269,8.229v14.26c0,2.465-1.318,2.784-3.375,2.799h-0.595c-2.071-0.015-3.377-0.334-3.377-2.799V8.229
			c0-0.144-0.053-0.191-0.191-0.191h-5.066v13.517c0,5.168,2.051,7.994,8.224,7.994c0,0,1.405,0,1.421,0
			c6.156,0,8.2-2.826,8.2-7.994V8.038h-5.045C30.339,8.038,30.269,8.086,30.269,8.229z"/>
		<path fill="#20426A" d="M82.516,0.329v7.708h-4.595c-6.159,0-8.229,2.142-8.229,7.273v6.243c0,5.168,2.07,7.994,8.229,7.994
			c0,0,0.947,0,2.017,0c3.559-0.105,6.897-0.721,7.873-0.912V0.14h-5.104C82.557,0.14,82.516,0.19,82.516,0.329z M82.516,25.287h-4
			h-0.002c-2.158,0-3.554-0.275-3.554-2.799v-7.562c0-2.543,1.396-2.8,3.554-2.823h0.002h4V25.287z"/>
	</g>
</g>
<rect x="-11" y="-67" fill="#FFFFFF" width="50" height="50"/>
<g>
	<path fill="#20426A" d="M23.288-51.709c0.394,0,0.712,0.318,0.712,0.712v3.29c0,0.395-0.318,0.712-0.712,0.712H4.712
		C4.318-46.995,4-47.312,4-47.707v-3.29c0-0.394,0.318-0.712,0.712-0.712H23.288L23.288-51.709z"/>
	<path fill="#20426A" d="M23.288-44.355c0.394,0,0.712,0.317,0.712,0.711v3.291c0,0.395-0.318,0.711-0.712,0.711H4.712
		C4.318-39.643,4-39.959,4-40.354v-3.291c0-0.394,0.318-0.711,0.712-0.711H23.288z"/>
	<path fill="#20426A" d="M23.288-37.005c0.394,0,0.712,0.317,0.712,0.712v3.29c0,0.394-0.318,0.712-0.712,0.712H4.712
		C4.318-32.291,4-32.609,4-33.003v-3.29c0-0.395,0.318-0.712,0.712-0.712H23.288z"/>
</g>
</svg>
