<svg xmlns="http://www.w3.org/2000/svg" viewBox="0 0 113.74144 218.19014" height="218.19" width="113.741"><path d="M39.977 217.448c-4.191-1.784-8.952-5.903-10.697-9.255-1.122-2.156-1.79-6.457-2.05-13.198-.349-9.041-.164-10.38 1.93-13.97 1.275-2.184 3.84-4.997 5.7-6.25 3.007-2.027 4.594-2.28 14.275-2.28 12.175 0 16.45 1.403 21.097 6.927 5.105 6.067 5.754 19.943 1.361 29.1-3.062 6.383-8.856 9.105-20.441 9.604-4.788.206-9.816-.1-11.175-.678zm7.814-49.688c-6.938-.24-10-.748-10.873-1.8-.669-.806-1.99-1.465-2.938-1.465-5.519 0-12.021-17.015-12.038-31.5-.004-2.75-.499-7.7-1.1-11-.603-3.3-1.453-8.025-1.89-10.5-.436-2.475-1.927-7.2-3.313-10.5-2.642-6.293-6.122-25.216-5.118-27.832 1.113-2.9-1.726-16.705-6.141-29.868-6.445-19.216-5.952-25.789 2.641-35.19C14.885-.5 14.598-.458 59.947.327l38.5.667 5.5 2.858c9.306 4.836 10.309 6.179 9.621 12.885-.324 3.16-2.351 11.26-4.506 18-2.155 6.741-4.126 13.382-4.382 14.757-.501 2.697-4.518 16.92-13.698 48.5-3.198 11-8.19 29.225-11.092 40.5-4.85 18.833-7.7 27.171-9.678 28.3-1.427.816-12.725 1.301-22.421.965z" fill="#f9eaa2"/><path d="M38.45 214.968c-7.765-4.173-9.735-8.146-9.887-19.932-.202-15.746 3.852-20.483 18.222-21.287 10.66-.597 16.452.836 20.749 5.133 8.708 8.708 6.74 30.277-3.21 35.173-5.38 2.647-21.584 3.219-25.874.913zm-3.074-50.726c-7.014-3.57-9.572-10.019-11.406-28.747-1.57-16.021-3.69-27.27-6.32-33.524-3.214-7.642-4.537-14.811-5.72-30.976-.827-11.306-1.54-14.753-5.467-26.458C.754 27.522.371 20.337 4.806 13.44c1.573-2.445 3.942-5.437 5.264-6.648 5.491-5.03 6.633-5.146 48.428-4.966l39.006.168 6.972 4.033 6.971 4.033-.108 6.467c-.077 4.572-1.283 10.129-4.118 18.967-2.206 6.875-5.901 19.475-8.213 28-2.312 8.525-6.391 22.925-9.065 32-2.673 9.075-6.221 22.125-7.884 29-4.947 20.452-9.663 36.667-11.467 39.419l-1.69 2.581-14.728-.09c-12.813-.078-15.256-.36-18.798-2.163z" fill="#e5bd35"/><path d="M36.998 212.704c-5.178-2.84-7.455-8.093-7.507-17.318-.04-7.13.181-7.97 3.035-11.502 8.144-10.08 24.16-11.412 32.594-2.711 3.026 3.122 3.323 4.006 3.672 10.922.468 9.256-1.134 15.344-5.014 19.064-2.796 2.682-3.51 2.852-13.144 3.137-8.492.25-10.76-.014-13.636-1.592zm6.668-46.945c-6.687-.526-12.878-3.982-13.909-7.764-.45-1.65-2.406-13.24-4.348-25.754-1.941-12.515-4.378-25.565-5.416-29-1.037-3.435-2.593-11.646-3.456-18.246-3.038-23.216-3.786-27.02-7.753-39.455-6.383-20.005-5.358-26.712 5.379-35.216 7.347-5.819 11.844-6.5 47.784-7.229l32.5-.66 5.17 2.447c2.845 1.346 5.713 3.46 6.376 4.698 1.769 3.305.546 12.09-3.429 24.622-1.883 5.936-5.084 18.668-7.114 28.293-2.03 9.625-5.48 23.78-7.667 31.454-2.186 7.675-5.074 19.375-6.417 26-2.383 11.758-8.288 34.55-10.762 41.543-.932 2.633-1.97 3.654-4.197 4.132-3.171.68-14.92.75-22.741.135zm-10.162-17.014c-.893-6.326-1.505-8.25-2.624-8.25-1.538 0-1.052 8.384.624 10.777 2.309 3.297 2.744 2.747 2-2.527zm-7.853-46.997c-.893-4.264-1.98-10.138-2.414-13.053-1.021-6.852-2.706-7.144-3.089-.535-.327 5.639 2.063 16.464 4.453 20.172 2.444 3.792 2.781 1.677 1.05-6.584zm-6.167-43.003c-.377-2.063-2.285-9.15-4.24-15.75s-3.708-12.563-3.894-13.25c-.461-1.696-2.338-1.582-3.016.184-.596 1.553 8.06 29.195 9.799 31.29 1.74 2.096 2.075 1.482 1.351-2.474z" fill="#ca1214"/><path d="M42.967 209.743c-6.636-3.334-10.146-12.697-8.085-21.571 1.1-4.74 3.138-7.05 8.513-9.652 5.531-2.677 12.005-2.585 16.997.242 5.261 2.98 7.696 7.43 8.224 15.029.777 11.196-5.348 17.7-16.669 17.7-3.242 0-6.928-.717-8.98-1.748zm-6.141-45.81c-2.542-.783-5.07-1.99-5.62-2.68-1.438-1.814-2.794-8.633-6.274-31.56-1.695-11.167-3.924-23.092-4.954-26.5-1.029-3.409-2.578-11.598-3.441-18.198-3.038-23.216-3.786-27.02-7.753-39.455-6.36-19.935-5.346-26.721 5.245-35.11 6.404-5.072 9.41-5.584 38.418-6.542 40.543-1.34 39.994-1.37 46.669 2.457 3.118 1.787 6.216 3.91 6.886 4.716 1.793 2.16.5 10.74-3.507 23.255-2.872 8.973-8.508 31.388-11.064 43.997-.37 1.825-2.66 9.7-5.088 17.5-2.43 7.8-5.559 19.582-6.955 26.182-1.396 6.6-3.845 16.275-5.442 21.5-1.597 5.225-3.217 11.274-3.599 13.443-.382 2.169-1.733 4.981-3.002 6.25-2.158 2.158-3.069 2.302-14.102 2.237-7.174-.042-13.607-.627-16.417-1.492zm26.388-5.188c2.356-2.613 3.181-7.005 1.662-8.836-1.727-2.08-8.365-5.414-10.782-5.414-1.795 0-3.147 1.791-3.147 4.17 0 .62 1.544.745 4.035.324 4.314-.729 6.965.527 6.965 3.3 0 7.429-15.583 6.858-23.294-.853-3.152-3.152-3.783-4.43-3.523-7.134.24-2.496 1.025-3.63 3.24-4.687 2.767-1.32 2.823-1.467 1.059-2.757-2.504-1.831-2.85-1.765-6.405 1.226-2.486 2.092-3.077 3.353-3.077 6.566 0 5.135 1.001 6.88 5.889 10.268 5.835 4.044 10.703 5.484 18.706 5.533 5.529.034 7.444-.342 8.672-1.706zm5.665-18.57c1.49-3.922 1.628-6.974.333-7.416-.68-.231-1.76.73-2.402 2.138-.641 1.408-2.02 2.83-3.063 3.162-2.743.87-6.8-2.13-6.8-5.028 0-3.035-1.393-3.972-3.009-2.025-1.6 1.928-4.961 1.898-7.768-.068-1.58-1.107-2.223-2.573-2.223-5.073 0-2.795-.355-3.448-1.729-3.184-2.328.449-4.032 5.38-2.632 7.617 1.274 2.036 22.902 12.095 26.136 12.155 1.482.027 2.582-.766 3.157-2.277zm2.846-14.237c1.568-1.098 2.222-2.575 2.222-5.014 0-2.829-.592-3.82-3.25-5.44-4.224-2.576-7.947-2.51-12.693.22-3.337 1.921-4.198 2.048-6.573.965-2.393-1.09-2.666-1.666-2.186-4.62.677-4.17-.08-5.06-2.467-2.901-3.434 3.108-1.847 8.253 3.378 10.955 3.041 1.573 3.325 1.533 8.278-1.146 5.76-3.116 9.675-2.898 11.57.644.912 1.704.734 2.488-.98 4.313-3.133 3.334-1.218 4.77 2.7 2.024zM37.493 113.04c5.11-5.11 2.285-14.378-7.528-24.69-7.17-7.536-9.372-7.628-9.83-.41-.694 10.936 4.834 23.994 11.258 26.596 3.085 1.25 3.442 1.162 6.1-1.496zm-8.576-5.795c-2.308-3.747-4.97-12.03-4.97-15.463 0-3.633 2.718-3.928 6.15-.667 3.813 3.625 5.614 7.053 6.449 12.27 1.157 7.24-3.955 9.827-7.63 3.86zm48.963-.47c1.302-4.715-.143-6.415-2.455-2.887-3.109 4.745-10.478 2.66-10.478-2.964 0-2.638-1.727-3.304-2.608-1.006-.885 2.304-3.496 2.739-6.12 1.019-1.851-1.213-2.304-2.178-1.856-3.962.834-3.325-1.21-4.15-2.418-.975-2.06 5.42-1.64 5.838 10.252 10.22 6.188 2.28 12.017 4.174 12.953 4.21 1.139.043 2.044-1.168 2.73-3.655zm4.425-14.904c2.14-4.489 1.178-5.832-1.523-2.124-1.1 1.511-2.859 2.748-3.906 2.748-1.048 0-6.226-1.384-11.507-3.076-5.282-1.692-9.887-2.792-10.233-2.446-.947.947 1.683 2.313 7.811 4.058 3.025.861 7.3 2.182 9.5 2.936 6.521 2.234 7.937 1.933 9.858-2.096zm-36.358.654c0-1.084-1.357-2.974-3.016-4.2-4.608-3.407-6.273-6.42-4.932-8.926 1.46-2.73.39-3.661-2.286-1.99-1.902 1.188-2.354 1.078-4.02-.98-1.058-1.306-1.63-3.109-1.312-4.127.311-.994.844-2.707 1.183-3.807.994-3.225-2.331-2.452-4.091.95-.84 1.623-1.526 3.436-1.526 4.03 0 1.199 18.062 20.865 19.25 20.96.413.033.75-.827.75-1.91zm30.393-8.612c.334-.87.597-2.332.585-3.25-.017-1.293-.443-1.12-1.893.766l-1.871 2.435-7.107-2.624c-3.909-1.443-7.107-2.239-7.107-1.768 0 .795 13.086 5.767 15.643 5.944.629.043 1.416-.633 1.75-1.503zm9.607-6.418c0-6.102-6.553-9.407-12.94-6.527-5.328 2.403-7.434 1.76-8.139-2.484-.43-2.599-.769-3.064-1.324-1.823-1.468 3.279-.244 7.246 2.536 8.217 2.079.727 3.268.468 5.654-1.231 1.662-1.184 4.19-2.152 5.618-2.152 3.293 0 6.595 3.254 6.595 6.5 0 1.375.45 2.5 1 2.5s1-1.35 1-3zm-34 1.082c0-.506-1.797-2.79-3.993-5.075-3.121-3.248-3.94-4.827-3.75-7.222.216-2.72-.072-3.08-2.565-3.21-3.64-.19-4.89-2.19-4.224-6.765.295-2.029.105-3.956-.423-4.282-.94-.581-4.045 4.35-4.045 6.425 0 1.252 17.163 21.047 18.25 21.047.412 0 .75-.413.75-.918zM89.35 63.332c.833-1.19 1.262-2.573.952-3.073-.31-.501-1.216.022-2.015 1.163-3.065 4.375-16.593.893-17.979-4.629-.715-2.85-2.36-3.025-2.36-.25 0 6.618 17.61 12.204 21.402 6.789zm-64.723-2.927c1.941-2.934 2.807-5.691 3.063-9.75.305-4.863-.072-6.39-2.677-10.847-1.669-2.853-4.503-6.28-6.3-7.616-4.106-3.054-9.617-4.246-10.384-2.246-.648 1.688 7.926 28.561 10.238 32.09.886 1.352 2.003 2.459 2.482 2.459.48 0 2.089-1.84 3.578-4.09zm-4.188-4.926c-1.206-1.951-6.49-18.375-6.49-20.172 0-4.616 7.022.5 10.37 7.556 2.002 4.219 2.029 5.74.18 10.164-1.453 3.48-2.89 4.347-4.06 2.452zm38.471 4.132c1.6-4.848.848-7.78-.991-3.866-.71 1.512-2.068 2.75-3.016 2.75-2.652 0-5.263-4.71-4.56-8.227.554-2.766.418-2.943-1.826-2.38-4.302 1.08-6.838-3.152-4.504-7.514.586-1.095.88-2.527.654-3.184-.499-1.447-4.71 5.153-4.715 7.389-.004 1.807 14.925 18.787 16.586 18.865.6.028 1.667-1.697 2.372-3.833zm26.163-5.878c-.756-.268-2.267-1.38-3.357-2.47-1.78-1.78-1.826-2.138-.45-3.514 1.375-1.375 1.947-1.365 5.607.1 6.478 2.591 4.72.187-1.99-2.723-3.337-1.447-6.2-2.631-6.362-2.631-.162 0-.081 1.12.18 2.488.602 3.146-1.587 4.114-5.902 2.61-5.807-2.025-3.969-.46 4.35 3.702 4.52 2.262 8.463 3.846 8.76 3.52.296-.327-.08-.813-.836-1.082zm-25.647-14.26c-5.845-5.934-5.341-7.472 2.157-6.591 7.54.886 7.026-.86-2.135-7.256-7.57-5.285-10.479-5.593-4-.424 5.186 4.138 4.59 5.29-2.75 5.309l-6.25.016 7.71 7.568c4.516 4.433 8.18 7.277 8.846 6.866.73-.451-.55-2.414-3.578-5.489zm32.495 1.376c-4.387-2.921-5.174-4.475-3.31-6.534 1.547-1.709 1.51-1.82-.615-1.82-1.548 0-2.089.45-1.714 1.427.301.785-.137 1.995-.973 2.689-1.307 1.084-.91 1.58 2.81 3.528 5.069 2.653 7.363 3.081 3.802.71zm-57.312-4.913c.76-1.98-16.686-18.7-18.104-17.351-.98.932.446 2.738 10.393 13.16 5.859 6.139 6.773 6.636 7.711 4.19zm44.607-3.574c-.624-.623-1.951-.816-2.95-.428-1.733.67-1.727.77.129 2.136 2.286 1.683 4.73.202 2.82-1.708zm16.461 1.529c-.332-.332-1.194-.368-1.916-.08-.798.32-.561.557.604.605 1.054.043 1.645-.193 1.312-.525zM43.4 22.44c1.952-3.329 3.548-6.479 3.548-7 0-2.061-1.866-.746-4.422 3.116-1.999 3.02-3.252 3.982-4.883 3.75-1.848-.263-2.176-.916-2.074-4.132.085-2.714-.19-3.51-.95-2.75-3.04 3.04-8.692-.153-6.737-3.805.59-1.102.68-2.245.203-2.54-1.318-.815-4.359 3.024-3.974 5.017.289 1.5 13.979 14.398 15.281 14.398.253 0 2.057-2.724 4.008-6.054zm55.548 5.182c0-.48-1.778-1.157-3.952-1.504-2.174-.348-4.356-1.352-4.848-2.232-.743-1.327-1.233-1.388-2.883-.358-3.116 1.946-7.666-.001-8.448-3.617-.599-2.764-.638-2.721-.75.814-.14 4.384-1.698 3.793 20.131 7.637.413.073.75-.26.75-.74zm-28.102-5.378c1.713-4.546 2.365-9.03 1.21-8.316-.61.376-1.108 1.502-1.108 2.503 0 4.948-5.85 4.93-7.02-.022-.384-1.628-.81-1.998-1.331-1.155-.422.682-1.158 1.24-1.636 1.24-1.733 0-4.013-3.2-4.013-5.63 0-1.404-.435-2.219-1-1.87-.55.34-1 1.886-1 3.436 0 2.35 1.112 3.587 6.695 7.441 3.683 2.543 7.069 4.623 7.525 4.623.456 0 1.211-1.013 1.678-2.25zm17.087-8.607c-.008-.354-.396-1.243-.86-1.977-.675-1.064-.976-.997-1.486.332-1.01 2.635-.756 3.484.861 2.864.825-.317 1.493-.865 1.485-1.219z" fill="#a11416"/><path d="M44.447 209.083c-6.081-2.703-7.956-5.955-8.343-14.472-.323-7.119-.146-7.975 2.235-10.804 5.296-6.295 14.236-8.073 21.628-4.302 4.903 2.501 7.107 6.631 7.71 14.445.397 5.166.12 6.554-1.902 9.545-4.3 6.358-13.923 8.88-21.328 5.588zm-6.761-45.519c-2.62-.365-5.399-1.317-6.177-2.116-.779-.8-2.348-7.19-3.489-14.203-5.433-33.418-6.275-38.092-7.655-42.513-.814-2.605-2.364-11.037-3.445-18.737-1.08-7.7-2.419-17.066-2.974-20.813-.554-3.747-2.806-12.668-5.004-19.824-2.72-8.86-3.995-14.877-3.995-18.857 0-5.654.171-6.032 5.246-11.584 7.654-8.375 10.483-9.37 26.754-9.414 7.425-.02 22.5-.49 33.5-1.047l20-1.011 7.5 3.775 7.5 3.775-.16 6c-.098 3.712-1.495 10.195-3.663 17-1.928 6.05-5.394 19.1-7.702 29-2.309 9.9-6.195 24.525-8.637 32.5-2.441 7.975-5.535 19.675-6.875 26-1.34 6.325-3.772 16-5.404 21.5-1.633 5.5-3.451 11.896-4.042 14.213-1.632 6.402-3.66 7.31-15.99 7.153-5.79-.073-12.67-.432-15.288-.797zm25.19-3.03c2.443-1.308 4.436-6.45 3.675-9.483-.737-2.934-8.02-7.556-11.906-7.556-2.863 0-5.246 3.13-4.286 5.63.412 1.075 1.849 1.391 5.327 1.171 4.243-.268 4.795-.064 5.072 1.881.446 3.134-3.049 4.687-8.97 3.986-6.556-.777-11.69-3.38-13.976-7.088-2.475-4.013-2.022-6.747 1.385-8.375 3.268-1.561 3.395-2.312.79-4.669-4.34-3.928-10.271 1.054-10.445 8.776-.21 9.28 10.538 16.686 24.221 16.687 4.024 0 8.124-.432 9.113-.96zm6.794-19.193c.673-1.378 1.348-4.045 1.5-5.926.234-2.885-.074-3.469-1.971-3.739-1.624-.23-2.506.356-3.173 2.113-.51 1.338-1.583 2.686-2.387 2.994-2.188.84-5.692-2.077-5.692-4.738 0-3.075-2.775-4.064-5.213-1.857-1.746 1.58-2.17 1.601-4.605.23-2.011-1.134-2.696-2.315-2.74-4.726-.108-5.911-4.17-6.682-6.432-1.22-2.282 5.508-1.178 7.195 7.49 11.449 9.355 4.59 19.574 8.578 21 8.195.55-.148 1.55-1.397 2.223-2.775zm3.124-14.596c1.137-.963 2.36-2.984 2.717-4.493.535-2.258.029-3.364-2.857-6.25-2.904-2.904-4.234-3.507-7.739-3.507-2.525 0-5.574.83-7.56 2.057-2.642 1.633-3.747 1.832-5.367.965-2.275-1.218-2.503-2.29-1.062-4.983 1.404-2.622-1.086-4.587-3.903-3.08-4.547 2.434-3.3 10.84 2.015 13.588 3.782 1.956 6.162 1.829 9.103-.485 3.385-2.662 7.493-3.567 9.32-2.051 1.92 1.593 1.912 4.612-.014 5.35-1.818.699-1.98 3.278-.25 3.977 2.278.919 3.507.68 5.597-1.088zm-35.901-11.22c2.992-1.602 5.12-8.21 3.977-12.349-1.445-5.231-8.657-15.476-13.225-18.785-4.65-3.368-5.018-3.433-7.182-1.269-1.304 1.304-1.492 2.745-.943 7.25 1.226 10.068 4.302 18.233 8.42 22.351 3.882 3.882 5.808 4.484 8.953 2.801zm-6.645-8.375c-2.427-3.086-5.773-13.982-4.951-16.123 1.472-3.836 7.6 3.035 9.763 10.947 1.71 6.254-1.364 9.56-4.812 5.176zm47.575 3.577c.52-.973 1.26-3.443 1.645-5.49.568-3.028.372-3.846-1.055-4.394-1.226-.47-2.337.128-3.693 1.99-1.067 1.464-2.77 2.662-3.785 2.662-2.366 0-5.053-2.667-4.4-4.369.277-.72-.2-1.895-1.061-2.609-1.297-1.076-1.873-1.018-3.374.34-3.505 3.172-6.498 1.658-6.6-3.337-.088-4.234-3.59-3.278-5.218 1.423-1.159 3.346-1.157 4.158.01 5.326 1.144 1.144 23.569 9.952 25.87 10.161.393.036 1.14-.73 1.661-1.703zm5.628-18.881c1.323-3.465 1.452-4.793.55-5.686-.899-.89-1.836-.36-3.96 2.232l-2.782 3.397-10.305-3.147c-5.668-1.73-10.913-3.147-11.656-3.147-1.698 0-1.762 2.416-.1 3.785 1.781 1.468 23.996 8.058 25.376 7.528.633-.243 1.928-2.476 2.877-4.962zm-36.238 1.742c.347-1.327-.86-3.23-3.958-6.25-3.806-3.71-4.386-4.793-3.972-7.429.69-4.394-.48-5.965-3.186-4.276-1.787 1.116-2.353 1.087-3.63-.189-1.258-1.26-1.308-2.049-.297-4.727 1.027-2.721.964-3.464-.409-4.837-.892-.892-2.16-1.288-2.82-.881-1.378.851-3.994 6.706-3.994 8.938 0 1.848 18.749 21.558 20.506 21.558.694 0 1.485-.858 1.76-1.907zm30.127-8.675c1.094-2.85.657-6.418-.786-6.418-.766 0-1.652.675-1.968 1.5-.786 2.048-3.538 1.884-10.194-.607-5.484-2.051-8.178-1.697-6.593.867.87 1.407 13.52 6.052 16.791 6.166 1.179.04 2.416-.638 2.75-1.508zm-24.393-6.185c0-.907-1.673-3.362-3.717-5.456-2.923-2.993-3.725-4.605-3.75-7.542-.029-3.309-.318-3.735-2.533-3.735-4.135 0-5.108-1.265-4.79-6.23.185-2.917-.15-4.714-.93-4.988-1.407-.495-5.27 5.358-5.276 7.993-.002.977 2.584 4.601 5.746 8.055a2569.66 2569.66 0 0 1 9.56 10.496c3.757 4.158 5.69 4.636 5.69 1.407zM86.75 77.37c.252-3.007-.22-4.048-2.827-6.242-3.591-3.022-7.638-3.376-12.116-1.06-3.631 1.877-6.29 1.177-5.596-1.474.27-1.033.113-2.49-.35-3.238-.692-1.12-1.136-1.066-2.503.3-3.474 3.474-.756 10.847 3.994 10.832 1.153-.003 3.445-.9 5.095-1.993s3.987-1.99 5.194-1.993c2.589-.008 5.306 3.469 5.306 6.789 0 1.698.486 2.259 1.75 2.019 1.209-.229 1.844-1.449 2.053-3.94zm3.259-12.936c2.325-2.326 2.226-5.26-.194-5.726-.967-.186-1.837.56-2.18 1.871-.513 1.963-1.071 2.134-5.572 1.701-6.262-.602-10.007-2.99-10.784-6.878-.41-2.05-1.113-2.905-2.216-2.696-2.359.447-2.639 5.546-.44 8.019 4.879 5.489 17.43 7.665 21.386 3.709zm-66.353-1.189C32.264 53.831 30.87 41.982 20 32.161c-3.247-2.933-4.857-3.666-8.056-3.666-3.14 0-3.996.375-3.995 1.75.003 2.504 9.76 32.257 11.112 33.888 1.54 1.856 2.203 1.728 4.595-.888zm-3.2-9.917c-1.78-4.81-5.509-16.325-5.509-17.008 0-1.983 3.11-.547 5.445 2.514 3.463 4.54 4.709 8.562 3.746 12.096-.872 3.2-2.898 4.52-3.683 2.398zm39.493 6.662c1.063-2.478 1.673-5.178 1.358-6-.89-2.32-3.307-1.764-4.36 1.005-.522 1.375-1.356 2.5-1.853 2.5-1.926 0-3.647-3.493-3.647-7.405 0-4.02-.06-4.09-3.256-3.78-3.744.362-5.3-1.894-3.402-4.934 1.623-2.599 1.444-5.881-.321-5.881-1.8 0-5.76 7.432-5.33 10 .414 2.471 15.568 19 17.42 19 .803 0 2.33-2.027 3.391-4.505zm27.998-4.995c0-.825-.337-1.51-.75-1.522-1.718-.051-5.484-3.79-4.85-4.815.488-.79 1.85-.647 4.709.497 3 1.2 4.31 1.321 5.157.475.711-.712.78-1.463.184-2.015-1.141-1.058-19.332-9.12-20.576-9.12-2.25 0-.498 2.809 2.703 4.335 1.967.938 3.381 2.259 3.142 2.935-.46 1.306-1.297 1.33-6.469.194-6.178-1.358-3.536 1.947 5 6.255 8.86 4.471 11.75 5.155 11.75 2.781zm-23-11.045c0-.714-1.8-2.84-4-4.723-5.605-4.798-5.277-6.036 1.38-5.204 9.611 1.201 8.508-1.976-3.548-10.213-5.517-3.77-7.101-4.439-8.096-3.417-.988 1.016-.483 1.927 2.514 4.542 2.063 1.8 3.75 3.624 3.75 4.055 0 .431-2.271.515-5.047.186-7.862-.931-7.44 1.017 2.203 10.187 6.152 5.85 8.673 7.665 9.594 6.91.688-.562 1.25-1.608 1.25-2.323zm31-.856c0-.77-1.61-2.352-3.579-3.513-4.48-2.643-3.986-4.586 1.164-4.586 2.814 0 3.915-.422 3.915-1.5 0-1.194-2.225-1.658-10.924-2.276-16.402-1.166-16.745.742-1.557 8.668 9.243 4.824 10.981 5.331 10.981 3.207zm-13.5-8.599c.34-.55.817-1 1.06-1 .242 0 .44.45.44 1s-.476 1-1.059 1c-.582 0-.78-.45-.44-1zm-46.5 2c.94-1.757.02-3.004-7.566-10.25C18.913 17.201 17.415 16.088 15.94 17c-2.109 1.304-.71 3.744 7.143 12.463 8.3 9.216 10.928 10.652 12.865 7.032zm5.229-8.75c.846-.963 3.008-4.382 4.805-7.598 2.672-4.782 3.012-6.012 1.867-6.75-1.4-.904-5.367 2.536-7.668 6.646-.62 1.108-1.605 1.523-2.657 1.12-1.3-.5-1.53-1.397-1.034-4.04.708-3.772-.64-5.42-2.55-3.117-.68.819-2.101 1.489-3.157 1.489-1.597 0-1.872-.615-1.628-3.645.37-4.59-1.34-5.312-4.678-1.974-2.84 2.84-2.983 3.483-1.245 5.619 2.224 2.734 14.775 14 15.598 14 .445 0 1.5-.788 2.347-1.75zm59.271-.202c0-.874-1.677-1.87-4.214-2.5-2.318-.576-4.83-1.895-5.584-2.93-1.258-1.73-1.564-1.758-3.785-.347-1.715 1.09-3.093 1.274-4.747.635-1.966-.76-2.227-1.37-1.67-3.903.52-2.367.318-3.003-.952-3.003-1.637 0-1.96.553-2.923 5.008-.902 4.176.706 5.253 10.544 7.063 10.808 1.989 13.331 1.984 13.331-.023zm-28.093-6.727c1.892-5.555 2.08-9.65.415-9.095-.648.216-1.548 1.154-2 2.084-.452.93-1.208 2.477-1.68 3.44-1.163 2.367-3.54 2.216-3.937-.25-.682-4.238-1.125-4.81-2.704-3.5-2.32 1.926-4.694.428-4.323-2.728.225-1.905-.173-2.832-1.312-3.055-2.304-.45-4.36 5.483-2.624 7.575 2.053 2.473 14.955 11.204 15.793 10.687.428-.265 1.495-2.586 2.372-5.158zm14.37-4.498c.903-.903 2.666-.903 7.566 0 7.975 1.47 8.921 1.468 8.427-.013-.218-.654-3.505-1.923-7.304-2.818-5.649-1.332-7.004-2.037-7.437-3.87-1.12-4.744-3.693-1.386-3.929 5.128-.107 2.945.783 3.467 2.677 1.573z" fill="#5d1817"/><path d="M44.982 208.248c-5.446-1.969-8.035-6.726-8.035-14.766 0-8.09 1.82-10.99 8.503-13.541 7.334-2.801 15.27-.775 18.948 4.838.813 1.24 1.773 4.765 2.133 7.833.747 6.355-1.242 11.958-5.156 14.522-3.095 2.028-12.16 2.644-16.393 1.114zm-12.823-47.003c-.568-.688-1.368-3.046-1.779-5.241l-.746-3.991 3.841 3.373c2.113 1.854 5.671 4.203 7.907 5.219l4.065 1.846-6.127.022c-3.71.013-6.535-.471-7.16-1.228zm32.538-.583c1.994-2.09 2.773-1.97 1.905.29-.325.849-1.281 1.543-2.123 1.543-1.296 0-1.262-.282.218-1.833zm-16.475-6.138c-9.02-2.143-14.937-11.463-8.27-13.026 1.575-.37 2.613-1.4 2.815-2.794.392-2.708.82-2.72 6.723-.19l4.71 2.018-2.627 2.434c-5.016 4.648-2.07 11.055 3.844 8.36 2.01-.915 2.856-.901 3.807.063.966.98.815 1.542-.718 2.673-2.088 1.542-5.16 1.68-10.284.462zm19.807-2.974c-.045-.795-1.32-2.742-2.832-4.327l-2.75-2.88 2.763.687c1.691.421 3.34.21 4.25-.546 1.227-1.018 1.48-.906 1.442.639-.056 2.344-2.763 8.398-2.873 6.427zm-40.46-13.16a7430.009 7430.009 0 0 0-4.14-26.202l-.454-2.806 3.29 3.488c5.926 6.284 11.839 5.559 15.39-1.89 1.403-2.941 1.452-4.01.347-7.7-1.687-5.635-7.037-13.593-12.565-18.688-4.91-4.526-6.005-4.825-9.275-2.535-1.766 1.237-2.31 1.29-2.619.25-.825-2.782-3.723-25.018-3.314-25.427.238-.238 1.372 1.828 2.52 4.591 1.489 3.584 2.643 5.024 4.024 5.024 3.606 0 10.174-11.276 10.174-17.466 0-3.86-5.967-14.35-10.248-18.015-3.26-2.79-4.964-3.519-8.232-3.519-2.266 0-4.66.54-5.32 1.2-1.768 1.768-1.59-5.555.218-9 2.126-4.05 8.585-9.895 12.94-11.71 4.792-1.996 5.714-1.26 2.588 2.068-2.225 2.369-2.29 2.736-.92 5.174 1.897 3.375 15.493 15.268 17.454 15.268 1.496 0 4.731-4.506 8.693-12.106 1.849-3.547 1.928-4.222.645-5.505-2.014-2.013-4.166-.937-7.37 3.686-3.665 5.289-6.214 5.093-3.35-.257.855-1.597.757-2.392-.44-3.589-1.384-1.384-1.803-1.364-4.184.197-3.084 2.02-4.417 1.314-2.702-1.432.658-1.053.939-2.585.625-3.404-.486-1.266 1.161-1.487 11.016-1.475 6.373.008 11.587.143 11.587.3 0 .158-.483 1.672-1.073 3.365-.737 2.115-.753 3.676-.05 4.99 1.449 2.707 15.936 12.516 17.563 11.891 1.988-.762 5.084-10.97 4.675-15.411-.063-.688-1.05-1.25-2.195-1.25-1.496 0-2.519 1.115-3.64 3.972-1.673 4.257-3.28 4.471-3.28.438 0-2.845-2.375-4.173-4.423-2.473-1.71 1.419-2.294.495-2.17-3.437l.093-3 12.827-.28c11.903-.26 12.79-.153 12.298 1.5-.291.979-.834 3.052-1.205 4.606-.554 2.322-1.078 2.726-2.933 2.26-2.847-.714-4.077.8-4.95 6.091-.605 3.673-.407 4.361 1.638 5.696 1.279.834 5.462 2.017 9.296 2.627 3.835.61 7.208 1.345 7.496 1.633.288.289-4.199.377-9.971.196l-10.496-.329v2.5c0 2.143 1.333 3.19 9.334 7.333 5.134 2.658 9.14 5.026 8.904 5.262-.236.236-4.564-1.406-9.619-3.65-5.054-2.243-9.96-3.93-10.904-3.748-2.753.53-1.986 3.04 1.685 5.515l3.4 2.29-4.65-.637c-4.053-.555-4.65-.405-4.65 1.17 0 .994.745 2.63 1.655 3.636.953 1.053 1.175 1.829.523 1.829-.622 0-1.846 1.09-2.72 2.424-1.436 2.191-1.44 2.71-.047 5.403.847 1.64 3.127 3.96 5.065 5.158 1.938 1.198 3.524 2.355 3.524 2.57 0 .847-6.223 3.555-6.813 2.965-.344-.344-.64-1.564-.657-2.709-.016-1.145-.809-2.576-1.76-3.18-4.309-2.73-7.168 7.062-3.308 11.327 1.844 2.038 1.834 2.051-1.106 1.463-3.678-.736-6.336 1.692-4.403 4.022 1.249 1.505 15.304 6.557 18.242 6.557 3.21 0 5.53-7.132 3.108-9.554-1.408-1.409-1.764-1.361-3.744.499-2.555 2.4-4.129 2.516-7.559.555l-2.5-1.43 3-.057c1.65-.032 4.125-.937 5.5-2.013 1.375-1.076 3.218-1.966 4.095-1.978 2.334-.032 4.905 3.242 4.905 6.248 0 3.232 1.339 4.154 3.98 2.741 1.54-.825 2.017-.776 2.005.204-.026 2.2-1.648 4.139-2.419 2.892-1.314-2.127-4.501-1.132-6.066 1.893-.853 1.65-1.691 3-1.863 3-.17 0-4.772-1.345-10.224-2.989-5.452-1.643-10.714-2.993-11.694-3-2.305-.014-3.349 2.75-1.909 5.056.946 1.514.776 1.853-1.063 2.118-1.665.24-2.511 1.464-3.542 5.123-1.745 6.198-1.155 6.878 8.86 10.214 8.628 2.873 10.775 4.478 5.99 4.478-1.684 0-4.682.868-6.661 1.93-5.252 2.814-7.855 1.382-5.204-2.862.933-1.495.907-2.247-.122-3.487-4.414-5.318-11.524 3.962-8.033 10.485.86 1.607.704 1.934-.927 1.934-3.383 0-6.37 4.897-5.847 9.584.418 3.738.218 4.174-2.353 5.145-1.545.583-3.698 2.523-4.786 4.31l-1.977 3.251-.523-3.395zm19.926-43.328c1.93-2.945 1.165-4.715-4.01-9.278-3.223-2.841-3.57-3.598-3.014-6.564.8-4.26-1.574-6.8-4.591-4.915-2.953 1.844-3.167 1.528-2.457-3.63.735-5.348-.83-7.837-4.247-6.752-2.05.65-5.229 6.493-5.229 9.61 0 1.824 19.562 23.885 21.227 23.939.4.012 1.445-1.072 2.321-2.41zm5.252-13.767c2.045-2.045 1.342-4.646-2.3-8.506-2.445-2.592-3.5-4.642-3.5-6.802 0-3.687-1.555-5.492-4.731-5.492-2.826 0-3.816-2.108-2.31-4.922.796-1.488.808-2.646.041-4.078-2.186-4.085-6.308-1.58-8.984 5.46-.835 2.195.102 3.628 9.156 13.993 5.548 6.35 10.389 11.547 10.757 11.547.37 0 1.211-.54 1.871-1.2zm5.937-16.05c.54-.688 1.78-3.383 2.754-5.989 1.436-3.838 1.534-5.026.518-6.25-1.774-2.139-4.759-1.874-5.509.489-1.278 4.029-4.99.802-3.931-3.417.855-3.409-1.17-5.9-4.183-5.144-3.018.758-3.776-.77-2.064-4.16.772-1.528 1.203-3.342.958-4.029-.902-2.526 1.217-1.1 7.793 5.25 3.703 3.575 7.171 6.5 7.708 6.5 1.882 0 3.44-2.985 2.829-5.42-.338-1.346-1.963-3.408-3.612-4.582-4.118-2.932-3.76-3.838 1.292-3.269 5.074.572 7.531-1.327 5.83-4.505-1.287-2.404-15.397-12.224-17.565-12.224-2.86 0-2.954 2.973-.185 5.864 3.523 3.677 3.316 4.487-.946 3.688-4.964-.932-7.068.816-4.923 4.09 1.434 2.187 1.41 2.358-.323 2.358-4.02 0-8.86 8.953-6.841 12.653 1.608 2.948 17.24 19.347 18.442 19.347.537 0 1.418-.563 1.958-1.25zM35.633 38.321c1.273-1.196 2.314-2.693 2.314-3.326s-4.499-5.313-9.998-10.4c-10.34-9.563-13.237-10.839-13.796-6.07-.232 1.984 1.632 4.567 8.835 12.242 5.022 5.35 9.4 9.728 9.73 9.728.33 0 1.642-.978 2.915-2.174zm36.935 97.764c.512-3.025.286-4.185-.997-5.123-1.499-1.096-1.407-1.379.945-2.92 1.433-.939 2.853-1.459 3.156-1.156.616.617-1.545 9.28-2.896 11.609-.53.913-.61-.03-.208-2.41zm-12.954-1.257c-.367-.366-.667-1.626-.667-2.8 0-4.19-4.949-6.233-6.854-2.829-.819 1.463-1.338 1.53-3.668.468-2.363-1.077-2.633-1.645-2.086-4.382.806-4.028.693-3.962 4.361-2.577 2.753 1.039 3.757.856 8.515-1.551 5.306-2.685 8.732-2.755 8.732-.177 0 .698-.675 1.83-1.5 2.515-1.898 1.575-1.912 3.413-.037 4.969 1.266 1.051 1.174 1.603-.688 4.122-2.038 2.756-4.64 3.711-6.108 2.242zm15.12-18.726l-2.712-3.407 3.462.098c3.53.1 3.757.49 2.614 4.459-.633 2.195-.725 2.163-3.364-1.15zm-45.29-12.831c-2.954-6.455-4.18-11.776-2.71-11.776 1.464 0 6.11 5.73 6.75 8.327 2.222 9.005-.45 11.286-4.04 3.449zm39.17.557c-.367-.366-.667-1.626-.667-2.8 0-4.127-4.48-6.069-7-3.033-2.191 2.64-3.771 1.695-4.17-2.496-.308-3.226-.088-3.906 1.144-3.526 13.644 4.203 20.013 5.875 22.276 5.845 1.93-.025 2.75.468 2.75 1.654 0 2.632-1.173 3.176-3.097 1.435-2.156-1.951-5.555-1.083-6.419 1.64-.598 1.884-3.454 2.644-4.817 1.281zM87.947 74.95c0-.85-1.077-2.623-2.394-3.94-2.62-2.62-2.401-3.515.861-3.515 1.173 0 2.666-.533 3.317-1.183 1.974-1.975 2.31-.379 1.061 5.033-1.116 4.837-2.845 7.027-2.845 3.605zm-10-14.137c-2.925-1.116-6-4.7-6-6.992 0-2.961.45-2.915 6.5.674 2.75 1.631 5.82 2.974 6.824 2.983 1.191.011 1.708.623 1.491 1.767-.342 1.804-5.697 2.756-8.815 1.568zm13.25-3.262c-1.237-1.032-2.25-2.33-2.25-2.883 0-.553-1.237-1.967-2.75-3.141l-2.75-2.136 2.5.742c1.375.409 3.625.77 5 .802 2.119.05 2.472-.36 2.312-2.69-.148-2.165.247-2.75 1.857-2.75 1.247 0 1.854.498 1.556 1.276-.27.701-1.025 3.851-1.678 7-.654 3.148-1.27 5.709-1.368 5.69-.098-.018-1.191-.877-2.429-1.91zm-80.159-9.147c-.676-2.257-1.045-4.288-.82-4.513.225-.225.962 1.438 1.638 3.695.677 2.257 1.046 4.288.82 4.513-.224.225-.962-1.438-1.638-3.695zm7.844-2.659c-1.225-3.713-2.435-7.313-2.688-8-1.021-2.772 1.652-1.001 4.12 2.729 1.748 2.64 2.633 5.33 2.633 8 0 5.939-1.546 4.9-4.065-2.729zm75.06-6.544l-3.495-2.206 3.99-.5c2.987-.374 4.08-1.003 4.348-2.5.462-2.592 2.162-4.439 2.162-2.35 0 1.805-1.986 8.023-2.892 9.056-.34.388-2.192-.287-4.114-1.5zM7.57 37.956c-.965-2.514-.68-3.163.498-1.136.584 1.004.851 2.036.593 2.293-.257.258-.748-.263-1.091-1.157zm90.04-13.465c-2.66-.857-5.27-2.331-5.8-3.277-1.049-1.874-4.373-2.32-5.363-.719-.34.55-1.465 1-2.5 1-2.153 0-3.413-1.522-2.492-3.012.401-.65 1.229-.675 2.308-.071 1.163.65 2.17.5 3.258-.484 1.328-1.201 2.777-1.233 9.25-.203 7.226 1.15 7.675 1.37 7.661 3.745-.026 4.235-1.043 4.72-6.322 3.02zm-1.6-11.878c-5.529-1.45-6.54-2.072-7.164-4.403-.64-2.392-.445-2.715 1.635-2.715 3.672 0 14.466 6.06 14.466 8.122 0 1.153-1.246 1.013-8.937-1.004z" fill="#2e1a18"/><path d="M46.447 207.703c-6.062-2.146-8.5-5.985-8.5-13.383 0-7.536 1.432-10.372 6.47-12.81 5.052-2.446 9.575-2.562 14.204-.366 4.576 2.172 6.118 4.726 6.907 11.444.702 5.967-.555 9.764-4.375 13.221-2.154 1.95-11.243 3.12-14.706 1.894zm-14.031-47.708c-.258-.825-.69-2.203-.961-3.063-.402-1.275.012-1.21 2.25.348 1.508 1.05 3.642 2.415 4.742 3.032 1.758.986 1.542 1.126-1.781 1.153-2.506.02-3.94-.476-4.25-1.47zm22.271-7.24c1.782-.888 3.57-1.284 3.971-.882 1.06 1.059-1.795 2.6-4.71 2.543-2.379-.047-2.343-.128.74-1.662zm-11.426-1.21c-5.67-3.457-6.843-8.554-2.125-9.222 1.507-.214 2.423-1.111 2.63-2.578.383-2.689.233-2.67 4.594-.59l3.481 1.66-1.947 2.475c-2.435 3.095-2.536 7.763-.197 9.125 1.526.889 1.43 1.023-.75 1.046-1.375.015-3.933-.848-5.686-1.916zm24.325-3.55c-.317-.825-.14-1.5.393-1.5.532 0 .968.675.968 1.5s-.177 1.5-.393 1.5c-.216 0-.652-.675-.968-1.5zm-40.918-21.75c-.978-6.188-1.766-11.628-1.75-12.089.016-.461 1.414.326 3.106 1.75 3.683 3.099 7.73 3.315 11.185.598 2.296-1.807 2.59-1.837 3.169-.33.578 1.508-.834 3.267-2.655 3.306-1.413.03-3.776 5.968-3.776 9.49 0 2.902-.475 3.755-2.525 4.535-1.39.528-2.788 1.642-3.107 2.475-1.2 3.125-1.917 1.21-3.647-9.735zm33.946 7.583c-.367-.366-.667-1.7-.667-2.964 0-3.849-6.155-5.907-8.416-2.815-1.599 2.187-4.775.788-4.387-1.931.266-1.863.86-2.085 4.84-1.812 3.306.227 5.206-.21 7-1.612 3.296-2.574 6.632-3.544 7.48-2.173.376.609-.1 1.68-1.058 2.38-1.344.983-1.59 2.078-1.08 4.8.364 1.939.38 4.26.034 5.16-.64 1.67-2.55 2.163-3.746.967zm12.333-4.333c0-.55.45-1 1-1s1 .45 1 1-.45 1-1 1-1-.45-1-1zm2.5-14c-.34-.55.11-1 1-1s1.34.45 1 1c-.34.55-.79 1-1 1-.21 0-.66-.45-1-1zm-22.82-1.654c-.254-.254.042-1.799.66-3.433.996-2.64 1.457-2.899 4.14-2.327 5.324 1.134 5.41 1.866.482 4.068-2.65 1.185-5.028 1.946-5.282 1.692zm-22.482-11.11c-2.369-5.51-3.671-10.236-2.82-10.236 1.18 0 5.405 7.574 5.974 10.711.912 5.025-.907 4.751-3.154-.475zm12.76.02c-.66-2.066-2.12-5.331-3.243-7.256l-2.042-3.5 3.598 3.382c1.979 1.86 4.228 3.14 5 2.845 2.09-.803 1.64 6.184-.477 7.369-1.325.741-1.863.203-2.836-2.84zm26.042-2.206c0-1.725-.726-3.406-1.75-4.048-1.584-.994-1.56-1.05.25-.597 1.1.275 3.238.795 4.75 1.156 3.226.77 3.229.779 1.135 3.974-2.235 3.411-4.385 3.173-4.385-.485zm-11-4.55c0-2.596 1.098-2.962 4.5-1.5 1.751.752 1.778.868.219.93-.98.038-2.04.745-2.357 1.57-.908 2.366-2.362 1.75-2.362-1zm-12.084-9.088c-3.753-3.826-4.416-5.11-4.416-8.552v-4.05L45.61 78.9c2.289 2.527 4.652 4.595 5.25 4.595 1.265 0 1.492 6.632.253 7.398-.459.283-2.821-1.51-5.25-3.986zM17.043 72.86c-1.239-8.07-1.042-11.921.38-7.441.8 2.521 4.142 2.73 6.696.42 2.171-1.965 2.313-.818.328 2.655-2.076 3.632-1.814 7.036.75 9.767l2.25 2.396-2.657-.667c-1.46-.366-3.509-.21-4.55.348-1.752.937-1.994.372-3.198-7.478zm52.904 6.17c0-.256.89-.942 1.978-1.524 1.613-.863 1.87-.778 1.393.465-.518 1.35-3.37 2.245-3.37 1.058zm-18.25-6.065c-2.795-3.122-3.75-5.066-3.75-7.63 0-4.173-1.485-5.841-5.2-5.841-3.02 0-3.419-.975-1.706-4.174 1.018-1.904 1.54-1.553 7.66 5.152 5.321 5.83 7.014 7.108 8.93 6.742 1.887-.36 2.255-.101 1.816 1.282-.303.954-.1 2.918.45 4.366.848 2.23.73 2.632-.774 2.632-.977 0-2.203.374-2.726.83-.547.48-2.54-.945-4.7-3.359zm24.75 2.529c-1.928-.829-1.921-.862.191-.93 1.205-.038 2.47.38 2.81.93.73 1.183-.248 1.183-3 0zm-42.43-3.423c.04-.592.39-1.886.78-2.876.653-1.653.895-1.602 2.99.628l2.28 2.427-3.06.449c-1.819.266-3.031.012-2.99-.628zm53.13-.628c-1.571-2.517-1.544-2.626.8-3.239 1.58-.413 2-.03 2 1.825 0 3.124-1.316 3.789-2.8 1.414zm-18.45-4.424c.405-2.115.761-2.322 2.445-1.42 1.901 1.017 1.906 1.103.138 2.443-2.616 1.982-3.119 1.783-2.582-1.023zm-41.092-5.076c.607-1.582 2.342-1.994 2.342-.556 0 .491-.652 1.143-1.449 1.45-.968.37-1.264.075-.893-.894zm33.913-.366c.36-.87.883-2.37 1.16-3.333.658-2.292 2.27-2.257 2.27.05 0 .99.483 2.284 1.075 2.875.767.768.182 1.207-2.043 1.534-2.55.374-2.999.168-2.462-1.126zm15.298-2.593c-2.514-1.366-4.428-4.264-3.458-5.234.62-.62 12.476 5.048 12.54 5.994.085 1.28-6.312.745-9.082-.76zm13.798-3.157c-1.302-1.302-.638-3.107 1.333-3.623 1.591-.416 2-.03 2 1.884 0 2.266-1.844 3.228-3.333 1.74zm-27.493-2.85c-1.4-3.075-5.459-3.342-7.457-.49-1.903 2.718-2.811 1.45-2.108-2.945.705-4.41-1.274-6.6-5.096-5.64-2.973.746-2.96.795-.89-3.354l1.623-3.253 6.294 6.238c4.796 4.753 6.79 6.108 8.376 5.693 2.778-.726 3.362.504 1.732 3.647l-1.342 2.586-1.132-2.482zM31.34 47.282c-.594-2.358-1.429-5.09-1.856-6.07-.705-1.619-.524-1.668 1.961-.536 2.509 1.143 2.942 1.009 5.193-1.608 1.667-1.938 2.274-3.576 1.892-5.1-.435-1.73-.055-2.378 1.66-2.826 3.231-.845 4.643 1.044 2.108 2.82-2.56 1.793-6.56 10.825-5.74 12.96.35.912.08 1.573-.643 1.573-.686 0-1.753.692-2.371 1.537-.926 1.267-1.315.782-2.204-2.75zm-11.509-2.037c-.889-3.163-1.463-5.75-1.276-5.75 1.083 0 3.464 6.554 3.202 8.816-.244 2.119-.65 1.473-1.926-3.066zm44.768-5.4l-2.849-3.35h3.564c3.807 0 6.332-2.737 5.213-5.652-.316-.823.06-2.13.834-2.904.774-.775 1.621-1.979 1.882-2.676.354-.946.82-.853 1.84.367.75.9 2.04 1.876 2.864 2.171.998.357.775.563-.668.615-4.162.152-5.332 1.18-5.332 4.686 0 2.278-.47 3.393-1.432 3.393-1.57 0-3.042 3.423-2.116 4.922.32.517.236 1.129-.185 1.36-.422.23-2.049-1.088-3.615-2.931zm30.348-1.35c-1.213-.784-1.07-.972.75-.985 1.238-.008 2.25.435 2.25.985 0 1.253-1.06 1.253-3 0zm-88-14.35c0-3.134 5.02-9.912 9.693-13.087 4.867-3.308 5.22-3.237 3.959.791-.787 2.515-1.502 3.236-2.856 2.882-2.32-.607-4.796 1.449-4.796 3.982 0 1.085.93 3.28 2.068 4.878l2.068 2.904h-5.068c-4.653 0-5.068-.192-5.068-2.35zm39.1.1c.644-1.238 1.274-2.377 1.4-2.531.126-.155.976.858 1.888 2.25 1.65 2.518 1.642 2.531-1.4 2.531-2.852 0-2.979-.152-1.887-2.25zm50.65-.953c-2.125-.564-3.75-1.617-3.75-2.429 0-.788-1.012-1.878-2.25-2.423-2.054-.905-2.01-.944.501-.449 1.513.298 4.775.82 7.25 1.16 3.89.532 4.5.936 4.5 2.98 0 2.56-.578 2.668-6.25 1.161zm-46.25-6.797c-.34-.55-.141-1 .441-1 .583 0 1.06.45 1.06 1s-.2 1-.442 1-.719-.45-1.059-1zm-10.5-2.433c0-.885-1.123-2.122-2.496-2.747-2.055-.936-2.842-.824-4.457.637-1.922 1.74-1.938 1.715-.815-1.259l1.145-3.034 9.705-.034c9.17-.033 9.678.074 9.191 1.933-.63 2.41-1.918 3.32-2.763 1.953-1.04-1.684-3.186-1.16-6.433 1.573-2.423 2.04-3.077 2.247-3.077.978zm26.707-1.581c-.464-1.774-1.12-2.14-3.147-1.753-2.162.414-2.56.123-2.56-1.872 0-2.338.106-2.361 11-2.361 9.837 0 10.993.185 10.93 1.75-.125 3.1-1.376 4.748-3.667 4.828-1.335.047-2.471-.659-2.817-1.75-.331-1.043-1.518-1.821-2.763-1.813-2.64.019-4.024.88-5.372 3.349-.959 1.756-1.052 1.734-1.604-.378zm27.543-1.248c-3.108-.748-4.25-1.521-4.25-2.88 0-2.584 1.822-2.331 8.09 1.124 5.842 3.22 4.603 3.786-3.84 1.756z" fill="#1c1b19"/></svg>