<svg xmlns="http://www.w3.org/2000/svg" viewBox="0 0 312.36517 473.44772" height="473.448" width="312.365"><path d="M151.87 471.41c-18.201-2.457-31.386-7.035-33.82-11.742-1.326-2.563-2.21-12.739-3.301-37.958-1.355-31.318-1.307-34.64.53-36.478 1.664-1.664 5.525-2.074 21.806-2.32 10.882-.163 36.716-.73 57.41-1.26 20.695-.53 39.154-.58 41.02-.112 5.56 1.395 6.86 6.74 8.156 33.549.64 13.249 1.044 28.53.897 33.958-.242 8.935-.53 9.967-3.045 10.898-2.034.752-2.778 2.042-2.778 4.818 0 2.123-1.1 4.89-2.5 6.29-2.386 2.385-4.065 2.493-36.563 2.356-22.327-.094-38.8-.783-47.812-2zm-9.573-102.249c-5.264-.748-10.327-1.962-11.25-2.696-.922-.735-3.747-1.709-6.276-2.164-9.183-1.654-10.008-3.288-11.14-22.09-.557-9.23-1.596-21.002-2.309-26.158-2.298-16.615-3.079-47.35-1.442-56.747 1.866-10.712 4.39-15.752 15.383-30.713 4.783-6.51 10.13-14.384 11.881-17.5 1.753-3.116 8.423-13.54 14.824-23.165 14.101-21.203 17.115-27.67 17.279-37.068.106-6.094-.394-7.703-3.627-11.677-5.569-6.844-16.214-12.918-25.51-14.556-10.638-1.874-18.658.004-28.973 6.782-6.827 4.487-8.583 6.44-11.826 13.163-4.08 8.458-5.817 10.182-10.285 10.212-1.942.013-3.257 1.108-4.15 3.454-1.871 4.923-4.845 7.815-8.037 7.815-5.793 0-19.195-5.387-36.466-14.657-21.791-11.696-30.359-18.182-34.025-25.755-1.5-3.1-3.544-6.313-4.541-7.14-3.59-2.98-1.523-21.792 3.499-31.823 6.427-12.84 21.957-30.213 37.814-42.301 5.5-4.193 13.937-10.949 18.75-15.012C79.993 14.06 87.717 10.536 112.99 6.038c36.698-6.531 66.173-7.725 93.057-3.77 20.45 3.009 34.562 7.218 45.033 13.434 10.358 6.149 35.452 32.677 41.718 44.1C299.326 71.707 308.68 96.34 310.72 107c3.463 18.096 1.395 40.651-5.6 61.098-3.924 11.471-18.386 36.446-31.388 54.206-11.264 15.387-17.23 25.836-20.216 35.407-3.416 10.948-5.169 39.116-4.393 70.587.623 25.253.534 26.696-1.736 28.113-1.378.86-2.392 2.898-2.392 4.805 0 1.82-.985 4.452-2.188 5.846-2.106 2.442-3.832 2.553-46.562 2.998-27.877.291-47.934-.043-53.948-.898z" fill="#f7d717"/><path d="M151.87 471.41c-18.05-2.437-31.39-7.041-33.778-11.66-1.223-2.365-2.124-11.432-2.924-29.426-1.306-29.371-.382-36.446 5.411-41.429 3.242-2.788 3.892-2.843 34.173-2.876 16.977-.02 39.024-.516 48.993-1.106 20.701-1.224 30.839-.323 33.235 2.954.89 1.218 1.955 5.106 2.366 8.638 1.208 10.397 1.363 54.44.225 63.722-1.713 13.954.113 13.35-39.889 13.182-22.327-.094-38.8-.783-47.812-2zm-24.616-22.83c-.589-8.147-1.506-10.03-3.778-7.759-2.96 2.961-.574 15.232 2.963 15.232.884 0 1.168-2.602.815-7.474zm-.617-33.518c-.796-9.499-2.144-11.514-3.517-5.26-.911 4.147.207 11 2.197 13.468 1.978 2.455 2.133 1.49 1.32-8.208zm15.66-45.7c-5.264-.86-10.327-2.163-11.25-2.897-.922-.735-3.747-1.709-6.276-2.164-9.496-1.71-10.002-2.864-11.326-25.846-1.503-26.086-.4-68.325 2.004-76.777 3.823-13.444 15.922-35.877 33.663-62.415 17.436-26.084 20.258-32.39 20.258-45.278 0-9.467-.267-10.52-3.75-14.802-5.568-6.844-16.213-12.918-25.51-14.556-10.638-1.874-18.658.004-28.973 6.782-6.827 4.487-8.583 6.44-11.826 13.163-4.08 8.458-5.817 10.182-10.285 10.212-1.942.013-3.257 1.108-4.15 3.454-1.904 5.008-4.86 7.815-8.231 7.815-10.392 0-44.03-19.276-60.654-34.758-6.887-6.413-8.864-11.482-8.864-22.722 0-10.03 2.234-15.445 13.284-32.203 11.005-16.692 17.705-23.821 31.278-33.284 23.385-16.304 41.93-24.91 67.856-31.489 26.086-6.62 41.582-8.452 64.825-7.666 28.356.958 45.517 6.297 65.057 20.241 27.635 19.72 40.597 39.59 51.785 79.38 11.62 41.324 5.513 69.3-23.083 105.76-10.026 12.784-20.765 31.24-25.198 43.307-6.9 18.782-7.045 20.096-7.4 66.937-.289 38.006-.613 44.553-2.34 47.188l-2.004 3.059-32.784.006c-18.03.004-38.127.255-44.658.56-6.532.304-16.183-.15-21.448-1.008zm-15.317-27.99c-1.365-1.366-2.302.806-1.321 3.064.93 2.142.997 2.14 1.515-.044.298-1.256.21-2.616-.194-3.02zm1.765-21.018c0-4.95-.688-5.191-5-1.756l-3.125 2.489 2.942 2.476c3.726 3.135 5.183 2.234 5.183-3.209zm1.25-22.58c0-4.814-.293-5.535-1.753-4.323-2.054 1.705-3.648 7.193-2.587 8.91.405.655 1.548 1.192 2.538 1.192 1.309 0 1.802-1.58 1.802-5.778zm1.809-28.592c.466-3.108 2.217-9.679 3.891-14.601 1.674-4.923 2.84-9.154 2.591-9.403-1.368-1.368-9.707 16.52-11.407 24.468-.629 2.942-.406 4.525.735 5.23 2.485 1.536 3.264.477 4.19-5.694zM71.807 151.269c-.653-.568-5.125-3.765-9.937-7.105-4.813-3.34-15.602-13-23.976-21.466-8.374-8.468-15.827-15.395-16.562-15.395-2.964 0-1.039 4.194 3.916 8.529 2.889 2.528 7.872 7.162 11.074 10.298 3.202 3.137 9.698 8.46 14.435 11.83 4.737 3.37 11.046 7.975 14.02 10.235 2.975 2.26 6.041 4.108 6.813 4.108.865 0 .948-.398.217-1.034z" fill="#e4a60e"/><path d="M150.62 470.117c-7.563-1.044-17.407-3.1-21.875-4.568-12.041-3.958-12.342-4.873-12.585-38.246-.294-40.366-1.566-38.754 30.59-38.738 13.129.006 35.963-.65 50.745-1.46 14.78-.809 28.988-1.069 31.572-.578 7.729 1.469 8.187 3.132 9.162 33.276.981 30.303.007 47.83-2.813 50.65-2.628 2.628-65.114 2.381-84.796-.336zm-20.625-18.253c0-7.84-2.043-14.561-4.427-14.561-2.545 0-5.574 5.08-5.569 9.34.006 5.084 4.292 11.91 7.477 11.91 2.21 0 2.519-.817 2.519-6.689zm-1.123-35.267c-.558-5.536-.73-11.999-.384-14.363.59-4.026.488-4.18-1.625-2.427-6.821 5.657-7.473 20.462-1.178 26.757 3.433 3.433 4.273.805 3.187-9.967zm12.373-48.685c-4.47-.868-9.813-2.188-11.875-2.933-2.063-.745-5.29-1.661-7.172-2.035-1.882-.375-4.407-2.185-5.612-4.023-1.978-3.02-2.179-7.26-2.083-44.043.085-32.614.509-42.525 2.132-49.885 2.684-12.166 16.72-39.06 33.41-64.016 15.808-23.637 20.32-32.933 20.981-43.238.687-10.696-1.262-15.503-9.24-22.795-13.022-11.902-30.637-15.202-44.509-8.338-10.576 5.233-15.98 10.266-19.45 18.117-3.366 7.61-4.538 8.782-8.814 8.81-2.174.015-3.415 1.322-5.192 5.468-2.786 6.498-5.52 7.528-13.603 5.127-10.332-3.07-46.714-26.969-55.385-36.382-7.278-7.901-8.106-23.573-1.88-35.59 5.297-10.221 16.418-26.47 23.187-33.875 7.702-8.428 31.303-24.383 46.5-31.437C129.637 5.03 188.344-.677 224.753 13.027c24.14 9.086 49.597 31.897 61.108 54.755 5.89 11.698 14.88 39.209 17.248 52.783 5.597 32.097-2.354 57.872-27.527 89.238-7.053 8.788-12.783 17.668-17.34 26.875-14.05 28.384-16.51 43.904-15.166 95.625.661 25.431.497 32.287-.814 33.914-1.447 1.797-7.06 2.113-47.267 2.656-33.824.457-47.727.209-53.75-.961zm-11.25-24.36c0-3.5-.536-5-1.786-5-2.553 0-5.89 3.683-4.906 5.414 3.648 6.417 6.692 6.23 6.692-.413zm-.25-17.75c1.922-1.922 1.994-12.25.085-12.25-2.703 0-9.835 5.216-9.835 7.192 0 4.869 6.544 8.264 9.75 5.059zm.785-21.714c2.145-2.144 2.856-15.535.826-15.535-.627 0-2.595 1.73-4.375 3.846-4.755 5.65-4.357 12.962.737 13.555.466.054 1.732-.785 2.812-1.866zm2.508-29.598c.325-1.547 1.177-5.778 1.892-9.404.715-3.625 3.273-11.697 5.683-17.938 2.41-6.24 4.358-11.993 4.33-12.783-.103-2.833-8.469 8.16-12.956 17.025-5.546 10.957-8.387 20.966-6.77 23.856 1.769 3.159 7.107 2.643 7.821-.756zM76.245 151.678c0-1.031-.516-1.875-1.146-1.875-3.58 0-22.102-14.728-36.2-28.785-8.945-8.918-17.138-16.215-18.209-16.215-1.377 0-1.945 1.234-1.945 4.226 0 3.37.896 4.91 4.417 7.596 2.43 1.853 7.623 6.5 11.54 10.324 3.919 3.825 11.353 9.946 16.52 13.602 5.17 3.656 11.085 8.057 13.148 9.78 4.29 3.583 11.875 4.444 11.875 1.347z" fill="#cd090f"/><path d="M140.62 468.529c-3.438-.49-9.344-1.951-13.125-3.246-10.594-3.629-11.091-5.291-11.363-37.98-.23-27.638.558-33.221 5.231-37.072 2.092-1.724 105.04-2.927 109.57-1.281 1.548.562 3.495 2.25 4.327 3.75 1.83 3.3 3.66 58.907 2.158 65.568-.55 2.436-2.4 5.829-4.111 7.54l-3.112 3.113-41.663.25c-22.914.137-44.475-.152-47.912-.642zm62.934-10.371c.794-.957 1.511-8.667 1.715-18.438.291-13.937.67-16.792 2.226-16.792 3.042 0 8.827 12.461 11.18 24.079 1.201 5.936 2.75 10.98 3.44 11.21 2.912.972 3.99-3.969 5.38-24.664 1.745-25.977 1.44-34.375-1.25-34.375-1.5 0-2 2.498-2.5 12.487-.5 9.965-1.017 12.561-2.567 12.856-1.373.262-3.124-2.495-5.982-9.417-2.223-5.383-5.149-11.609-6.503-13.835-2.106-3.463-2.82-3.855-4.955-2.713-2.187 1.17-2.504 2.675-2.582 12.228-.05 5.992-.587 15.675-1.196 21.519-3.077 29.55-3.056 27.5-.29 27.5 1.385 0 3.133-.74 3.884-1.645zm-63.61-2.88c5.225-4.396 7.55-9.25 7.55-15.76 0-6.164-1.015-7.893-9.766-16.633-3.465-3.46-6.71-7.921-7.209-9.913-1.154-4.596 1.646-9.895 5.524-10.453 3.708-.533 5.974 1.459 6.895 6.062 1.067 5.334 4.167 4.688 5.942-1.239 1.749-5.835.457-8.145-6.083-10.879-4.686-1.959-9.314-1.174-14.506 2.458-9.52 6.66-9.17 25.646.547 29.67 2.017.836 5.384 3.474 7.48 5.862 3.027 3.447 3.735 5.283 3.432 8.908-.346 4.156-.718 4.567-4.13 4.567-3.192 0-4.118-.792-6.218-5.313-2.773-5.969-4.617-6.595-7.462-2.534-2.651 3.786-2.436 9.527.54 14.41 2.196 3.6 3.108 4.062 8.025 4.062 4.161 0 6.52-.819 9.439-3.274zm36.383-.066c2.03-5.342.721-6.734-6.112-6.492-7.9.28-8.97-.52-8.97-6.705 0-5.642 2.717-9.712 6.484-9.712 3.322 0 5.14-5.153 2.537-7.188-1.1-.86-2.997-1.562-4.216-1.562-3.504 0-4.924-4.181-4.023-11.845.881-7.498 1.163-7.725 10.468-8.443 3.7-.285 4.434-.849 4.758-3.653.345-2.976-.104-3.387-4.375-4.018-2.617-.386-6.987-.294-9.71.204-4.364.799-5.07 1.423-5.951 5.268-.55 2.399-1.36 16.315-1.802 30.924l-.801 26.563h10.221c9.929 0 10.258-.096 11.492-3.34zm14.162-4.472c.382-4.297 1.046-18.078 1.475-30.625.765-22.346.73-22.812-1.755-22.812-4.125 0-5.723 10.766-5.445 36.69.132 12.272.552 22.819.934 23.437.382.617 1.46 1.123 2.396 1.123 1.18 0 1.914-2.395 2.395-7.813zm-26.12-83.686c-4.812-.543-14.374-1.282-21.25-1.64-16.341-.852-23.193-2.298-25.73-5.43-4.281-5.288-4.612-74.979-.453-95.616 2.296-11.395 16.422-38.44 33.11-63.39 15.807-23.638 20.319-32.934 20.98-43.24.687-10.695-1.262-15.502-9.24-22.794-16.924-15.468-37.836-15.82-60.872-1.027-6.735 4.325-7.61 5.475-13.401 17.601-6.943 14.538-8.06 15.353-17.295 12.61-10.332-3.07-46.714-26.969-55.385-36.382-7.278-7.901-8.106-23.573-1.88-35.59 5.297-10.221 16.418-26.47 23.187-33.875 12.89-14.104 48.214-34.593 68.739-39.872 22.973-5.908 39.633-7.886 66.366-7.88 21.891.005 27.318.402 37.245 2.722 23.62 5.52 45.721 16.745 58.51 29.715 6.215 6.301 9.169 10.882 15.905 24.663 14.238 29.126 18.27 44.397 19.26 72.945.594 17.17.4 19.68-2.124 27.495-4.007 12.403-12.397 26.708-24.477 41.734-7.904 9.831-12.723 17.516-19.205 30.625-15.011 30.357-16.277 36.714-17.249 86.635-.537 27.58-1.066 35.762-2.401 37.097-.942.942-4.666 2.015-8.276 2.384-11.595 1.185-55.027 1.531-64.063.51zm4.05-12.564c.733-.93.87-4.596.34-9.062-.49-4.125-.633-8.203-.318-9.063.352-.963 2.949-1.562 6.77-1.562 3.409 0 7.267-.572 8.573-1.271 3.052-1.634 5.372-9.994 3.864-13.92-1.482-3.858-11.927-13.56-14.598-13.56-1.151 0-6.668 4.001-12.261 8.891-10.674 9.331-29.523 22.648-34.116 24.101-3.609 1.142-4.39 3.65-2.138 6.865 2.97 4.24 6.605 3.162 18.918-5.607 7.281-5.186 12.312-7.971 13.544-7.498 1.588.609 1.916 2.708 1.728 11.063-.127 5.67-.174 10.733-.106 11.248.21 1.572 8.486 1.044 9.8-.625zm-.969-25.982c-2.472-2.472-2.481-2.65-.312-6.324 3.47-5.878 7.313-8.972 10.06-8.1 4.51 1.431 7.136 12.13 3.797 15.469-2.462 2.46-10.673 1.828-13.545-1.045zm50.485 22.555c11.27-1.459 12.06-1.79 12.06-5.068 0-2.232-.68-2.353-9.198-1.633-6.31.534-9.474.33-10.08-.65-.49-.795 3.86-8.854 9.823-18.195 9.786-15.329 11.916-19.464 10.028-19.464-1.26 0-25.575 8.663-28.083 10.005-2.468 1.321-3.497 4.995-1.4 4.995.6 0 3.736-1.17 6.967-2.599 6.164-2.727 9.443-2.503 9.443.645 0 1.031-4.608 8.684-10.24 17.005-10.888 16.09-11.238 18.13-2.885 16.819 2.062-.324 8.166-1.161 13.565-1.86zM129.96 325.47c.837-1.009 5.188-3.885 9.67-6.39 4.481-2.507 11.09-7.166 14.687-10.354a1974.93 1974.93 0 0 1 11.96-10.508c3.925-3.412 5.043-5.088 4.052-6.079-1.992-1.992-12.853 3.312-27.043 13.205-6.476 4.515-12.472 8.21-13.324 8.21-2.808 0-9.968 5.165-9.968 7.19 0 2.73 3.674 6.56 6.29 6.56 1.185 0 2.838-.826 3.676-1.834zm67.534-19.466c0-.715-1.125-3.505-2.5-6.2-2.93-5.741-3.236-11.584-.718-13.674.98-.813 4.215-1.304 7.188-1.09l5.405.389 1.706 7.187c1.093 4.604 2.35 7.188 3.494 7.188 1.402 0 1.582-1.011.834-4.688-2.018-9.914-1.378-13.072 3.29-16.236 2.38-1.612 5.473-2.767 6.876-2.566 2.177.311 2.641 1.514 3.175 8.223.576 7.232 2.624 11.11 5.07 9.598.63-.389.62-12.062-.018-23.394-.123-2.188-10.388-.64-22.048 3.326-6.896 2.345-15.219 4.666-18.495 5.157-3.277.491-6.247 1.646-6.6 2.565-1.585 4.132 8.123 25.515 11.584 25.515.966 0 1.757-.585 1.757-1.3zm-67.094-1.785c3.015-3.016 31.246-21.153 36.875-23.691 3.92-1.768 5.219-3.066 5.219-5.215 0-1.574-.556-3.205-1.236-3.625-1.88-1.163-12.237 3.848-19.44 9.405-14.45 11.147-12.03 3.095 4.227-14.077 5.494-5.802 6.39-7.313 4.716-7.956-2.136-.82-16.552 3.98-17.743 5.906-1.25 2.023-5.524 1.172-5.524-1.1 0-2.977 11.121-20.123 17.637-27.191l5.3-5.751-3.046-3.047-3.047-3.047-8.768 8.424c-16.007 15.38-26.907 44.05-16.747 44.05 1.35 0 3.497-.651 4.772-1.447 2.826-1.765 6.399-.599 6.399 2.089 0 1.084-3.657 5.555-8.125 9.937-6.934 6.798-8.125 8.608-8.125 12.34 0 3.858 1.064 5.394 3.973 5.732.466.054 1.674-.727 2.683-1.736zm55.221-39.42c.324-.523-.529-4.2-1.894-8.17-4.496-13.067-4.369-13.178 21.267-18.646 17.533-3.739 30.833-7.743 32.002-9.636.429-.693.154-1.887-.61-2.652-1.021-1.02-7.126-.01-22.954 3.8-11.86 2.854-23.813 5.535-26.563 5.958-2.75.422-7.11 1.66-9.688 2.75-5.771 2.439-6.069 5.494-1.644 16.889 1.674 4.31 3.327 8.777 3.673 9.927.625 2.07 5.09 1.918 6.411-.22zm18.346-4.017c-.384-4.373-.183-4.64 4.375-5.818 2.627-.68 11.527-2.964 19.777-5.078 10.488-2.686 15.658-4.634 17.187-6.476 4.834-5.82 1.722-6.248-12.58-1.73-5.442 1.72-15.737 4.283-22.876 5.696-7.14 1.414-13.66 2.792-14.489 3.064-1.135.371-1.014 1.974.49 6.49 2.44 7.328 3.935 9.351 6.528 8.834 1.48-.296 1.886-1.573 1.588-4.982zm1.687-38.907c10.568-5.067 12.907-7.4 10.43-10.4-5.35-6.48-22.448-9.327-37.2-6.195-12.202 2.591-15.404 4.721-14.901 9.913.307 3.174 1.315 4.44 4.95 6.217 5.547 2.712 13.313 4.324 21.72 4.507 4.749.103 8.418-.885 15-4.042zm-26.714-1.987c-5.15-1.314-6.809-2.877-6.251-5.889 1.13-6.106 22.722-10.167 31.055-5.841 6.335 3.289 6.562 7.37.547 9.884-5.541 2.315-19.523 3.334-25.35 1.846zm78.906-5.566c7.385-3.18 27.347-27.18 29.576-35.558 3.952-14.854 2.553-19.938-5.093-18.504-4.449.835-51.291 26.821-55.097 30.566-2.015 1.983-2.004 2.398.202 7.305 1.286 2.86 5.097 8.064 8.47 11.562 5.668 5.882 6.574 6.36 12.025 6.36 3.242 0 7.705-.779 9.917-1.731zm-12.81-9.208c-4.656-2.348-9.462-9.262-8.387-12.063.922-2.403 36.793-21.08 38.482-20.037 1.924 1.189.481 9.095-3.12 17.099-3.401 7.559-9.522 13.732-15.641 15.773-5.556 1.854-6.22 1.808-11.334-.772zm-29.018-9.373c-.377-2.654-1.239-2.883-15.302-4.062-9.436-.792-15.082-1.796-15.392-2.74-.545-1.656 3.965-4.242 11.545-6.62 7.132-2.236 8.038-3.502 4.549-6.354-2.108-1.722-4.888-2.411-9.727-2.411-8.655 0-9.647-2.013-5.05-10.246 3.778-6.768 4.186-10.006 1.538-12.204-1.502-1.247-2.15-.709-3.746 3.112-1.061 2.54-3.9 7.864-6.31 11.83-2.408 3.965-4.38 7.84-4.38 8.609 0 .78 2.075 1.407 4.688 1.418 2.578.01 5.531.584 6.563 1.275 1.594 1.068 1.408 1.647-1.239 3.862-1.712 1.434-5.75 3.943-8.974 5.576-3.223 1.634-6.268 3.629-6.765 4.434-1.84 2.978 3.547 4.832 14.404 4.957 5.884.068 13.792.552 17.574 1.074 3.78.523 9.023 1.03 11.649 1.127 4.278.157 4.733-.117 4.375-2.637zm23.056-24.167c22.183-11.035 47.31-25.718 46.779-27.336-.786-2.393-5.844-2.148-10.114.491-2.317 1.432-5.107 2.261-6.2 1.842-1.174-.45-6.669 1.844-13.437 5.61-12.069 6.716-17.088 8.075-15.461 4.185 3.192-7.632 6.599-18.461 6.075-19.31-2.255-3.648-20.207 4.223-35.16 15.416-6.91 5.173-7.612 6.668-4.882 10.402 2.487 3.4 6.47 1.827 15.587-6.158 4.34-3.802 8.419-6.912 9.062-6.912 2.706 0 .723 4.34-6.33 13.851-4.124 5.563-7.5 10.882-7.5 11.82 0 1.352 3.01 4.096 4.706 4.29.182.022 7.775-3.665 16.875-8.191zm-163.27-25.208c-.434-3.953-2.124-13.23-3.755-20.617-2.347-10.622-2.656-13.856-1.478-15.466 2.477-3.388 6.356-.977 14.537 9.036 4.205 5.146 8.29 9.147 9.078 8.89.788-.255 2.201-2.043 3.14-3.971 2.097-4.304.6-15.493-4.86-36.31-1.984-7.562-4.757-19.655-6.163-26.874-3.036-15.591-5.054-22.5-6.572-22.5-1.966 0-7.803 3.422-10.026 5.878-2.045 2.26-2.032 2.713.26 8.746 1.33 3.499 3.844 11.988 5.587 18.865 1.743 6.876 4.3 15.138 5.68 18.36 5.64 13.156 1.04 14.462-8.69 2.469-7.26-8.947-16.632-16.187-19.52-15.079-3.567 1.369-3.288 4.744 1.31 15.837 8.091 19.52 10.272 31.174 5.834 31.174-2.522 0-10.833-6.158-20.019-14.832-9.267-8.751-14.77-12.042-17.02-10.175-1.036.86-1.883 2.338-1.883 3.285 0 .947-.563 1.722-1.25 1.722-.688 0-1.25 1.902-1.25 4.226 0 3.37.896 4.91 4.417 7.596 2.43 1.853 7.623 6.5 11.54 10.324 3.919 3.825 11.353 9.946 16.52 13.602 5.17 3.656 11.085 8.057 13.148 9.78 2.337 1.952 5.346 3.149 7.986 3.177l4.236.045-.788-7.188zm134.3-5.625c16.285-18.677 23.545-32.274 19.021-35.625-3.09-2.288-6.102-1.97-20.515 2.166-25.826 7.411-35.202 12.522-22.973 12.522 5.45 0 6.27.45 11.957 6.562 3.358 3.61 6.116 7.155 6.128 7.879.012.724-1.698 3.654-3.8 6.512-3.165 4.304-3.586 5.633-2.455 7.746.75 1.403 1.878 2.55 2.505 2.55s5.187-4.64 10.132-10.312zm-6.915-14.965c-3.453-4.93-2.458-6.7 5.37-9.555 8.847-3.225 10.185-3.295 10.185-.527 0 2.463-9.754 12.86-12.065 12.86-.849 0-2.42-1.25-3.49-2.778zm-18.083 9.518c1.407-1.696 1.35-2.234-.357-3.438-18.034-12.71-20.31-15.246-17.128-19.08.871-1.05 9.483-5.839 19.137-10.64 9.654-4.803 17.782-8.962 18.063-9.243.935-.935-3.608-6.84-5.262-6.84-.894 0-6.647 2.747-12.783 6.104a1385.117 1385.117 0 0 1-21.731 11.595c-7.276 3.779-11.285 6.708-12.851 9.39l-2.277 3.9 10.171 7.318c18.69 13.447 21.803 14.808 25.018 10.934zm84.032-5.677c4.174-2.197 4.566-3.415 4.586-14.25.02-10.726 1.07-13.063 5.862-13.063 3.088 0 5.484 3.604 7.657 11.519 1.035 3.77.855 5.468-.953 9.014-2.268 4.45-2.114 5.717.698 5.717 2.871 0 5.506-3.868 5.506-8.083 0-6.673-4.751-20.351-7.815-22.497-3.707-2.597-13.871-2.532-16.057.102-.94 1.13-1.97 6.444-2.341 12.058-.51 7.714-1.168 10.353-2.85 11.409-3.925 2.464-6.562-.556-6.562-7.515 0-5.618-.254-6.129-3.21-6.473-5.04-.586-6.884 4.659-4.152 11.811 1.673 4.381 3.273 6.112 7.856 8.496 6.706 3.488 8.09 3.695 11.775 1.755zm-145.394-19.999c3.78-1.743 8.421-3.809 10.312-4.59 3.842-1.588 4.3-3.578 1.65-7.173-1.767-2.396-1.888-2.392-9.574.271-4.281 1.484-8.532 2.41-9.447 2.06-2.01-.772-7.152-17.378-6.172-19.932.382-.997 2.672-2.639 5.088-3.648 3.533-1.477 4.393-2.517 4.393-5.319 0-4.718-1.996-6.453-6.076-5.283-7.469 2.142-11.401-3.365-11.417-15.988-.006-5.145.237-5.51 4.927-7.352 3.28-1.288 5.061-2.826 5.313-4.587.25-1.757 1.744-3.05 4.44-3.844 3.301-.972 4.063-1.837 4.063-4.614 0-1.88-.464-3.704-1.032-4.055-1.485-.918-14.824 2.595-21.78 5.736-5.367 2.423-5.938 3.084-5.938 6.864 0 9.035 15.647 70.843 18.988 75.003.689.858 2.082 1.093 3.29.555 1.153-.514 5.19-2.36 8.972-4.104zM249.995 98.5c0-.717-2.597-4.079-5.77-7.471-3.677-3.931-5.5-6.87-5.028-8.1 1.286-3.353 4.513-3.594 7.724-.577 2.661 2.5 3.465 2.675 6.323 1.373 2.609-1.19 3.099-2.056 2.411-4.27-2.149-6.918-2.148-8.567.004-10.945 1.223-1.35 2.777-2.456 3.453-2.456.677 0 4.808 3.14 9.18 6.98 9.875 8.669 11.434 6.965 4.893-5.346-6.964-13.105-7.387-13.52-11.88-11.659-5.226 2.164-17.041 10.623-25.642 18.357l-7.182 6.458 1.479 4.48c.813 2.464 1.963 4.48 2.555 4.48.593 0 3.677 2.25 6.855 5 5.481 4.744 10.625 6.533 10.625 3.696zm-89.69-8.281c14.527-7.33 16.26-8.733 14.605-11.823-1.725-3.224-4.245-2.953-13.571 1.459-9.178 4.342-11.959 4.087-10.956-1.004.655-3.325-.857-16.268-4.818-41.241-2.017-12.715-3.77-15.75-8.686-15.037-1.826.265-2.42 1.176-2.18 3.347.18 1.64 1.49 12.888 2.909 24.995 1.42 12.108 2.902 25.951 3.294 30.764.705 8.647 3.162 14.257 6.279 14.336.858.021 6.764-2.587 13.125-5.796zM220.91 76.99c.672-.86 5.803-10.39 11.403-21.18l10.182-19.616-2.778-1.946c-4.327-3.03-5.7-2.398-9.017 4.149-3.635 7.172-5.812 8.357-9.65 5.25l-2.817-2.282 2.412-7.096c2.1-6.176 2.173-7.248.57-8.262-4.491-2.84-5.888-1.3-12.235 13.483-3.468 8.078-7.727 17.754-9.465 21.502-3.427 7.392-2.826 10.06 2.268 10.06 2.178 0 3.519-1.772 6.619-8.749 4.18-9.41 6.284-11.112 11.048-8.941 4.065 1.852 3.862 3.619-1.54 13.448-4.386 7.978-4.485 8.417-2.261 10.043 2.872 2.1 3.71 2.122 5.261.137zm-36.403-11.71c6.159-2.923 7.498-10.476 1.858-10.476-1.228 0-3.238 1.11-4.467 2.468-3.33 3.68-6.724 4.332-9.493 1.826-3.602-3.26-3.358-15.859.445-23.051 3.734-7.06 6.05-8.501 10.146-6.31 2.568 1.375 3.524 1.394 5.081.102 4.413-3.662.794-9.264-6.832-10.576-6.836-1.176-15.006 4.63-19.557 13.9-2.924 5.954-3.568 8.895-3.568 16.294 0 10.33 1.526 12.748 10 15.844 6.653 2.43 11.232 2.425 16.387-.021z" fill="#a20e12"/><path d="M138.12 467.175c-12.417-1.557-17.216-3.664-19.632-8.622-1.783-3.658-2.17-8.78-2.356-31.25-.231-27.79.546-33.196 5.345-37.176 2.13-1.765 84.724-2.518 100.653-.917 13.674 1.374 13.22.27 14.27 34.73.539 17.694.411 30.84-.327 33.741-1.255 4.93-4.927 9.58-7.64 9.678-17.71.641-84.82.504-90.313-.184zm38.504-8.193c1.795-.51 2.177-1.701 1.875-5.847l-.38-5.207-7.5-.625-7.5-.625-.378-4.532c-.418-5.006 2.107-8.593 6.049-8.593 2.922 0 5.36-4.252 4.32-7.532-.438-1.377-2.508-2.885-4.757-3.465-3.877-1-3.993-1.232-4.355-8.727-.353-7.339-.222-7.737 2.81-8.497 1.75-.44 4.067-.459 5.15-.043 3.597 1.38 6.787-1.485 6.787-6.099 0-3.896-.388-4.347-4.384-5.096-5.44-1.02-15.002.322-16.62 2.333-.664.825-1.598 3.327-2.075 5.559-1.315 6.15-2.922 50.442-1.96 54.04.574 2.148 2.008 3.415 4.503 3.977 3.598.812 13.989.236 18.415-1.021zm13.44.112c1.094-1.318 1.936-8.777 2.575-22.813 1.095-24.065 1.453-34.948 1.25-38.04-.198-3.006-5.928-2.896-7.554.144-2.542 4.75-4.13 25.645-3.244 42.668.99 19.006 2.637 23.266 6.973 18.041zm14.704.357c.73-.88 1.503-8.569 1.715-17.084.236-9.432.903-15.655 1.708-15.922 2.197-.731 8.06 13.372 9.706 23.348 1.558 9.442 3.073 11.39 6.925 8.91 2.59-1.667 3.654-9.794 4.637-35.43.702-18.314.547-23.825-.713-25.343-1.45-1.748-1.84-1.732-3.93.16-1.906 1.724-2.321 3.954-2.321 12.458 0 5.696-.562 10.704-1.249 11.129-.688.425-3.21-3.612-5.616-8.989-7.343-16.41-8.848-18.18-13.122-15.437-1.434.92-2.207 6.314-3.358 23.436-.823 12.232-1.996 25.44-2.606 29.351-.635 4.065-.642 7.947-.018 9.063 1.32 2.357 6.397 2.573 8.242.35zm-62.495-5.047c10.08-10.271 9.71-20.6-1.07-29.877-9.738-8.381-12.76-18.27-6.217-20.347 3.321-1.054 4.704-.026 6.839 5.083 2.35 5.623 6.152 5.79 8.047.353 2.054-5.89 1.711-7.773-2.065-11.365-12.2-11.604-29.527 2.23-26.045 20.794.543 2.896 2.575 5.993 5.99 9.132 10.136 9.317 11.133 10.679 10.74 14.676-.562 5.741-3.997 5.564-8.138-.42-4-5.78-5.683-6.25-8.414-2.352-2.458 3.51-2.486 8.801-.07 13.472 2.37 4.582 5.088 6.164 10.677 6.212 3.594.03 5.425-.979 9.726-5.361zm12.722-89.61c-3.094-.58-11.98-1.098-19.745-1.149-20.137-.132-19.643.52-20.84-27.476-1.093-25.583.111-59.82 2.526-71.8 2.296-11.396 16.422-38.441 33.11-63.392 15.807-23.637 20.319-32.933 20.98-43.238.687-10.696-1.262-15.503-9.24-22.795-8.612-7.871-17.943-11.556-31.166-12.31-9.876-.563-10.144-.498-21.498 5.212-12.476 6.275-19.262 12.708-21.7 20.576-5.305 17.117-7.045 18.724-17.061 15.748-10.455-3.106-46.795-26.944-55.528-36.424-7.278-7.901-8.106-23.573-1.88-35.59C18.135 82.159 29.11 66.06 35.891 58.51c10.612-11.813 44.093-31.49 63.556-37.354 24.728-7.449 69.09-11.715 92.912-8.935 31.075 3.627 64.058 18.7 77.458 35.396 5.848 7.286 19.406 35.287 24.014 49.595 5.498 17.069 7.727 33.799 7.092 53.217-.422 12.927-1.1 17.717-3.316 23.428-4.505 11.61-10.832 22.001-21.508 35.322-16.561 20.662-28.558 42.47-33.629 61.132-3.428 12.62-4.973 32.279-4.974 63.316-.001 21.293-.374 27.458-1.775 29.375-1.679 2.298-3.718 2.438-38.437 2.638-20.166.116-39.196-.264-42.29-.845zm15.358-9.054c.312-.86.278-5.64-.076-10.625l-.643-9.062h6.964c6.013 0 7.315-.445 9.523-3.252 3.689-4.69 4.499-10.663 2.08-15.34-1.931-3.736-13.484-13.908-15.794-13.908-.612 0-5.434 3.939-10.715 8.753-5.282 4.814-15.973 13.11-23.76 18.437-7.787 5.327-14.414 10.352-14.728 11.168-.814 2.119 4.06 7.892 6.664 7.892 1.206 0 7.452-3.628 13.88-8.062 6.43-4.434 12.227-7.73 12.884-7.324.69.427.914 4.843.53 10.44-.427 6.242-.175 10.189.71 11.072 1.904 1.905 11.776 1.756 12.481-.189zm-1.358-27.437c-.825-.825-1.498-2.372-1.495-3.438.006-2.102 6.918-10.062 8.737-10.062 1.921 0 5.008 5.41 5.008 8.778 0 4.271-2.156 6.222-6.875 6.222-2.132 0-4.55-.675-5.375-1.5zm47.027 24.62c7.097-1.009 13.425-2.157 14.063-2.55.638-.395 1.16-2.42 1.16-4.5v-3.784l-9.375.879c-7.229.677-9.375.513-9.375-.717 0-.877 3.294-6.709 7.32-12.96 12.368-19.197 13.453-21.425 11.552-23.716-.91-1.097-2.255-1.624-2.988-1.171-.733.453-7.56 3.181-15.171 6.063-13.89 5.26-16.405 7.365-13.288 11.121 1.14 1.373 2.194 1.252 5.993-.685 4.647-2.37 10.337-3.148 10.325-1.413-.004.516-4.503 7.559-10 15.651-5.496 8.093-9.993 15.5-9.993 16.459 0 3.542 2.833 3.731 19.777 1.323zm-77.516-31.558c11.006-6.165 33.989-25.52 33.989-28.625 0-2.977-3.626-3.368-9.13-.986-8.309 3.595-43.37 27.18-43.37 29.174 0 2.452 3.707 6.375 6.024 6.375 1.037 0 6.656-2.672 12.487-5.938zm59.48-15.434c-.074-1.652-1.185-5.691-2.47-8.977-2.999-7.664-1.666-10.276 5.24-10.276 4.756 0 4.896.13 6.314 5.875 1.75 7.093 2.545 8.5 4.8 8.5 2.891 0 3.357-2.233 1.916-9.177-.759-3.652-1.053-7.49-.655-8.527.872-2.273 9.06-6.381 10.7-5.368.64.396 1.164 3.74 1.164 7.431 0 6.17 2.03 10.684 4.776 10.622 3.114-.07 3.725-2.55 3.383-13.735-.2-6.529-.43-12.293-.512-12.809-.336-2.135-12.823-.758-20.936 2.308-4.723 1.785-13.086 4.23-18.586 5.43l-10 2.186.086 4.9c.15 8.516 9.832 26.382 13.591 25.078.728-.252 1.262-1.81 1.189-3.461zm-53.616-9.872c6.875-4.608 16.156-10.343 20.625-12.744 8.316-4.469 10.424-7.844 7.606-12.181-1.66-2.556-9.68.26-18.276 6.415-3.651 2.615-6.963 4.754-7.36 4.754-2.18 0 .22-3.482 8.17-11.853 9.213-9.698 10.343-13.147 4.31-13.147-1.721 0-6.309 1.406-10.195 3.125-8.11 3.586-9.255 3.765-9.255 1.444 0-2.331 9.172-16.372 15.772-24.144 3.013-3.547 5.478-6.964 5.478-7.594 0-2.3-5.863-6.651-7.905-5.868-1.123.431-5.38 4.718-9.457 9.527-12.156 14.335-21.99 36.749-18.324 41.763 1.2 1.64 2.742 1.968 6.745 1.43 7.128-.955 6.82 1.081-1.684 11.105-5.362 6.32-6.875 9.029-6.875 12.304 0 7.845 3.572 7.094 20.625-4.336zm40.662-29.785l2.814-2.279-2.82-8.47c-2.375-7.14-2.55-8.729-1.112-10.11.938-.9 10.987-3.72 22.33-6.267 20.021-4.493 28.93-7.182 32.22-9.722 1.267-.98 1.164-1.707-.507-3.552-2.678-2.96-5.242-2.918-16.738.278-5.142 1.43-17.147 4.257-26.677 6.282-9.53 2.024-18.377 4.243-19.66 4.929-4.584 2.453-5.128 5.584-2.317 13.34 2.601 7.175 4.714 13.293 5.625 16.287.68 2.233 3.574 1.93 6.842-.716zm20.588-4.464v-4.868l17.227-4.183c20.103-4.882 24.046-6.64 25.199-11.232 1.218-4.855-.996-5.532-9.78-2.99-18.656 5.398-22.006 6.253-32.32 8.244-6.009 1.16-11.496 2.797-12.195 3.639-.874 1.053-.673 3.221.645 6.957 2.415 6.846 5.363 10.14 8.655 9.668 2.089-.299 2.569-1.276 2.569-5.235zm-.827-37.638c9.268-4.315 13.952-7.88 13.952-10.62 0-5.076-14.776-11.269-26.79-11.228-9.718.034-23.22 3.302-26.544 6.425-7.018 6.593-1.286 14.528 12.454 17.242 10.624 2.099 19.851 1.475 26.928-1.82zm-23.26-5.565c-14.7-2.352-5.887-10.316 11.697-10.57 12.165-.175 18.506 5.135 10.5 8.792-4.184 1.912-15.635 2.829-22.198 1.778zm80.772-5.086c5.883-4.348 22.153-24.676 25.057-31.306 3.733-8.52 4.586-16.778 2.121-20.54-2.781-4.244-6.575-3.991-16.707 1.112-11.416 5.75-45.477 25.525-47.7 27.693-1.555 1.517-1.392 2.607 1.231 8.207 1.664 3.551 5.655 9.26 8.87 12.684l5.847 6.226 8.548-.49c6.63-.382 9.486-1.186 12.733-3.586zm-18.654-10.32c-1.083-.838-2.998-3.104-4.256-5.036-2.948-4.529-2.823-4.644 16.484-15.099 17.74-9.606 19.667-10.043 18.509-4.2-1.519 7.66-8.564 20.176-13.016 23.124-4.744 3.142-14.374 3.8-17.721 1.21zm-26.39-7.46l-.391-4.063-13.973-1.25c-13.366-1.196-17.785-2.355-14.019-3.678 11.963-4.2 16.117-6.152 16.117-7.571 0-3.45-6.333-6.876-12.708-6.876-7.706 0-8.546-1.815-4.1-8.857 3.66-5.798 4.254-10.07 1.81-13.014-2.448-2.95-4.558-2.225-6.352 2.183-.91 2.235-4.109 8.134-7.11 13.11-3.002 4.975-5.106 9.615-4.675 10.312.43.696 2.577 1.274 4.77 1.285 2.195.01 4.72.482 5.611 1.048 2.077 1.317.728 2.457-8.243 6.96-7.89 3.962-9.272 6.47-5.323 9.667 2.172 1.76 5.11 2.335 12.396 2.43 5.252.067 12.642.55 16.424 1.073 3.78.523 9.863 1.03 13.516 1.127l6.642.176-.392-4.063zm20.567-21.723c19.104-9.572 44.016-23.757 48.148-27.415 2.889-2.558 3.115-3.2 1.519-4.317-4.29-3.002-17.5.62-32.298 8.855-6.371 3.546-11.88 6.151-12.241 5.79-.362-.362.816-4.742 2.617-9.734 1.8-4.991 2.987-9.822 2.637-10.735-.369-.961-2.563-1.66-5.214-1.66-8.921 0-39.251 19.251-39.251 24.913 0 1.21 1.102 3.198 2.45 4.417 3.399 3.077 7.247 1.822 15.182-4.952 10.72-9.15 10.921-7.892.923 5.776-6.698 9.156-7.451 12.542-3.243 14.571 4.08 1.968 3.515 2.134 18.77-5.51zM77.387 151.254c.843-1.575.67-4.694-.546-9.912-5.85-25.079-6.646-31.54-3.88-31.54 1.824 0 10.23 8.586 13.923 14.222 4.458 6.804 9.269 7.036 11.945.575 2.01-4.851.18-17.758-5.728-40.421-2.33-8.938-5.163-21.313-6.296-27.5-2.473-13.508-4.732-19.375-7.459-19.375-2.501 0-13.101 7.16-13.101 8.85 0 .677.863 3.296 1.918 5.82 1.054 2.525 3.31 10.083 5.011 16.795 1.702 6.712 4.568 16.18 6.37 21.04 1.8 4.861 2.915 9.197 2.475 9.637-.44.44-4.742-3.48-9.561-8.71-8.335-9.045-15.456-14.682-18.548-14.682-.779 0-2.534 1.119-3.902 2.486-2.27 2.27-2.334 2.842-.741 6.563 6.828 15.949 8.38 20.197 10.293 28.168 1.185 4.938 1.767 9.367 1.293 9.841-1.437 1.437-5.925-1.678-18.096-12.559-6.387-5.709-13.056-11.153-14.821-12.098-2.972-1.59-3.43-1.46-6.2 1.76-2.028 2.358-2.991 5.019-2.991 8.26 0 4.005.717 5.33 4.417 8.151 2.43 1.853 7.623 6.5 11.54 10.324 3.919 3.825 11.353 9.946 16.52 13.602 5.17 3.656 11.085 8.057 13.148 9.78 4.573 3.82 11.214 4.291 13.017.923zm126.022-1.139c9.966-8.93 25.652-30.637 27.873-38.57 1.495-5.34 1.436-5.988-.69-7.542-1.279-.935-4.154-1.7-6.389-1.7-4.491 0-30.157 7.475-39.573 11.526-7.942 3.416-7.586 6.328.893 7.304 5.403.621 6.76 1.431 11.522 6.875 2.97 3.393 5.41 6.572 5.424 7.064.014.491-1.662 2.816-3.724 5.165-4.32 4.92-4.438 5.528-1.805 9.288 2.347 3.35 3.292 3.437 6.469.59zm1.154-25.098c-1.138-1.257-2.068-2.898-2.068-3.647 0-1.74 10.25-5.693 13.26-5.113 1.937.373 1.56 1.238-2.51 5.742-2.635 2.917-5.201 5.304-5.702 5.304-.501 0-1.842-1.029-2.98-2.286zm-18.568 12.036c2.78-2.78 1.535-4.626-7.75-11.492-10.205-7.547-11.064-8.486-10.09-11.023.366-.957 9.05-5.93 19.295-11.05 12.091-6.043 18.657-10.014 18.711-11.315.046-1.103-1.325-3.525-3.046-5.382l-3.13-3.378-7.808 4.535c-4.294 2.494-12.026 6.51-17.182 8.925-18.312 8.576-26.25 14.704-26.25 20.263 0 .531 4.793 4.302 10.65 8.379 5.859 4.077 12.41 8.678 14.56 10.225 4.276 3.076 9.686 3.666 12.04 1.313zm85.706-7.34c3.058-2.406 3.294-3.293 3.294-12.399 0-5.394.341-10.697.758-11.784 1.406-3.664 5.327-2.2 7.966 2.973 3.047 5.973 3.25 12.177.499 15.217-2.628 2.904-1.364 6.083 2.419 6.083 5.324 0 7.546-3.997 6.799-12.233-.768-8.467-5.283-19.827-8.582-21.593-1.26-.674-4.9-1.339-8.088-1.478-4.953-.215-6.233.254-8.784 3.22-2.518 2.928-2.987 4.812-2.987 12 0 8.94-1.776 12.359-5.65 10.873-1.47-.565-1.846-2.312-1.578-7.328.351-6.561.338-6.588-3.59-6.969-4.339-.421-7.95 3.16-7.912 7.848.041 5.05 5.496 12.443 11.268 15.273 7.08 3.472 10.052 3.534 14.168.296zm-151.89-16.763c3.194-1.706 8.762-4.307 12.371-5.779 7.064-2.88 8.288-5.608 4.666-10.395-1.666-2.201-2.317-2.27-7.773-.824-3.276.868-7.574 1.667-9.553 1.777-3.2.177-3.77-.38-5.156-5.032-3.522-11.816-3.584-11.32 1.861-14.758 5.273-3.329 6.408-6.953 3.739-11.94-1.069-1.996-2.181-2.267-6.75-1.64-4.774.654-5.658.398-6.947-2.01-.813-1.519-1.786-5.754-2.164-9.412-.656-6.359-.528-6.733 2.914-8.506 1.98-1.02 5.991-2.567 8.913-3.439 5.594-1.669 7.56-4.525 2.188-3.176-1.802.452-3.125.245-3.125-.49 0-.7 1.012-1.273 2.25-1.273 3.208 0 5.25-2.468 5.25-6.347 0-5.953-2.48-6.654-13.172-3.72-11.26 3.09-16.304 5.502-17.957 8.59-1.904 3.558 2.438 24.23 12.652 60.227 4.384 15.452 6.968 21.25 9.469 21.25.283 0 3.128-1.396 6.323-3.103zm131.018-13.868c.497-1.295-1.234-3.993-5.039-7.856-3.187-3.236-5.795-6.521-5.795-7.3 0-2.55 3.058-2.518 6.568.068 2.771 2.042 4.113 2.299 6.875 1.315 3.612-1.286 4.147-4.245 2.163-11.958-.667-2.594-.3-3.624 1.667-4.677 2.181-1.167 3.499-.413 9.72 5.564 7.6 7.302 10.906 8.181 11.48 3.054.404-3.597-10.004-22.196-13.08-23.376-3.449-1.323-19.626 9.071-32.227 20.706-5.303 4.896-5.819 5.852-5.132 9.51.556 2.965 2.822 5.808 8.362 10.494 7.78 6.58 13.005 8.192 14.438 4.456zm-88.959-8.136c7.898-4.183 14.65-8.079 15.008-8.656 1.21-1.959-2.248-7.487-4.683-7.487-1.32 0-6.05 1.46-10.512 3.246-4.463 1.785-8.263 3.05-8.446 2.812-.182-.238-1.026-6.058-1.875-12.933s-2.644-19.531-3.989-28.125c-2.663-17.018-3.87-19.143-10.503-18.493-4.327.424-4.216-1.771-1.279 25.368a9507.31 9507.31 0 0 1 3.197 30c1.368 13.117 4.641 21.631 8.403 21.856.176.01 6.782-3.404 14.68-7.588zm64.413-20.518c2.427-4.813 7.49-14.56 11.25-21.662l6.837-12.91-2.951-2.402c-5.166-4.203-8.58-3.177-11.768 3.536-2.247 4.735-3.448 5.938-5.925 5.938-3.591 0-3.758-1.643-1.12-11.005 1.465-5.194 1.445-6.162-.147-7.168-2.62-1.658-6.94-1.472-8.418.36-.694.86-5.31 11.058-10.258 22.663-9.63 22.585-9.773 23.98-2.534 24.798 2.742.309 3.728-.825 8.12-9.332 5.053-9.787 7.492-11.592 10.603-7.844 1.247 1.504.695 3.371-2.972 10.043-5.257 9.562-5.511 11.53-1.693 13.086 4.91 2 6.458.856 10.976-8.101zm-39.91-4.728c7.836-5.264 5.506-15.728-2.573-11.551-1.85.956-4.094 2.62-4.987 3.696-6.215 7.488-10.58-9.74-5.16-20.363 3.588-7.032 5.825-8.534 8.76-5.879 2.205 1.996 2.589 2.003 5.496.098 6.132-4.018 5.11-9.512-2.35-12.629-5.925-2.476-8.64-2.226-14.24 1.309-9.235 5.83-15.074 16.989-15.074 28.809 0 9.3 2.113 13.047 9.232 16.362 8.21 3.823 15.349 3.873 20.895.148z" fill="#5d1515"/><path d="M140.62 465.936c-10.584-.898-18.556-3.014-20.592-5.468-.83-1-1.765-4.23-2.08-7.179l-.57-5.361 2.548 4.61c3.369 6.093 7.069 8.515 13.011 8.515 4.083 0 5.761-.875 10.205-5.319 10.835-10.835 10.431-21.31-1.25-32.381-7.973-7.557-10.276-12.073-8.168-16.012 2.03-3.794 5.076-2.68 6.734 2.462 1.103 3.418 2.167 4.462 4.864 4.772 3.002.345 3.776-.308 5.923-5l2.469-5.397-.624 9.375c-1.43 21.515-1.245 44.825.37 46.453 1.746 1.76 17.204 2.18 23.161.629 3.34-.87 3.484-1.214 3.125-7.435l-.376-6.522-7.813-.372-7.812-.373v-4.162c0-4.407 1.562-6.41 5.582-7.155 1.351-.25 3.32-1.994 4.375-3.874 2.423-4.319.822-7.326-4.805-9.025-3.952-1.194-4.005-1.314-3.644-8.125l.367-6.914 5.156.38c6.368.468 9.219-2.006 9.219-8 0-5.503-3.88-7.253-14.11-6.363-8.433.733-10.295 1.95-11.4 7.448l-.812 4.035-1.545-3.088c-.85-1.698-3.505-4.42-5.902-6.047-3.572-2.428-5.356-2.827-9.91-2.216-3.178.426-6.86 1.944-8.603 3.548-6.46 5.94-9.418 17.545-6.458 25.331.694 1.824 4.631 6.553 8.75 10.51 5.47 5.252 7.49 8.088 7.49 10.514 0 4.746-2.8 4.145-6.36-1.365-4.211-6.521-7.829-6.778-10.91-.774l-2.407 4.694-.626-19.303c-.665-20.526.288-28.76 3.874-33.47l2.22-2.916 43.042-.116c45.074-.121 62.076.76 65.69 3.402 1.9 1.389 2.268 5.196 3.03 31.357.477 16.377.376 31.557-.225 33.733-2.285 8.275-1.55 8.14-45.6 8.437-21.92.148-43.79-.065-48.603-.473zm49.91-5.598c1.08-1.08 1.987-2.627 2.015-3.437.027-.81.889.074 1.915 1.964 1.999 3.686 6.164 4.527 10.617 2.144 2-1.07 2.439-2.745 2.541-9.688.068-4.616.53-11.487 1.027-15.268l.904-6.875 2.626 5.625c1.444 3.094 3.261 9.281 4.038 13.75 1.986 11.431 2.411 12.5 4.977 12.5 1.253 0 3.487-.985 4.964-2.188 2.385-1.94 2.818-4.087 3.845-19.062 1.79-26.099 1.591-41.907-.55-43.684-1.285-1.067-2.485-1.12-4.227-.188-3.317 1.775-3.977 3.993-3.977 13.349 0 4.413-.487 8.023-1.082 8.023-.594 0-2.907-4.189-5.139-9.308s-5.159-10.303-6.504-11.52c-2.22-2.01-2.756-2.041-5.798-.337-3.349 1.875-3.354 1.9-4.788 24.333-1.896 29.64-4.257 36.026-3.45 9.332.32-10.656.825-22.07 1.12-25.365.419-4.685.022-6.504-1.82-8.345-2.766-2.767-7.011-2.113-8.873 1.367-4.208 7.862-4.47 58.86-.324 63.007 2.337 2.336 3.504 2.311 5.943-.129zm-34.285-96.786c-3.094-.585-12.172-1.106-20.174-1.157-12.375-.078-14.99-.45-17.5-2.482l-2.951-2.39.099-41.672c.08-33.748.488-43.42 2.146-50.858 2.72-12.205 17.177-39.887 32.922-63.036 6.652-9.779 14.116-21.998 16.588-27.154 4.004-8.351 4.495-10.467 4.495-19.375 0-8.95-.377-10.556-3.59-15.293-7.003-10.322-24.689-19.115-38.91-19.345-8.152-.133-15.516 2.445-28.43 9.95-8.565 4.978-12.628 10.504-16.121 21.922-3.282 10.727-5.063 12.609-10.896 11.514-5.694-1.068-10.841-3.728-27.55-14.237-19.557-12.302-31.166-21.903-33.983-28.107-2.863-6.304-3.094-17.236-.518-24.536 2.745-7.78 19.743-33.034 27.261-40.5 11.772-11.692 45.95-30.675 63.183-35.094 35.473-9.095 74.911-11.467 102.772-6.182 22.515 4.27 45.857 15.407 58.806 28.055 7.257 7.089 9.393 10.335 16.443 25 14.641 30.454 18.078 43.294 19.23 71.853.607 15.008.358 20.3-1.244 26.514-3.104 12.037-10.876 26.138-22.285 40.427-15.667 19.622-25.052 35.386-31.95 53.667-5.759 15.259-6.73 23.436-7.463 62.805-.58 31.237-.996 37.417-2.602 38.75-2.274 1.888-68.545 2.707-77.778.96zm13.91-5.085c2.294-1.228 2.426-2.14 1.632-11.25l-.865-9.914h6.468c5.114 0 7.08-.612 9.393-2.925 3.874-3.874 5.233-11.958 2.8-16.663-2.27-4.39-14.055-15.412-16.479-15.412-.975 0-6.564 4.178-12.42 9.284-5.857 5.106-16.782 13.534-24.277 18.728-7.496 5.195-13.928 10.225-14.294 11.178-.365.953.406 3.494 1.715 5.647 3.594 5.91 7.433 5.205 19.685-3.61 5.716-4.112 10.991-7.477 11.723-7.477.901 0 1.055 3.165.477 9.79-.962 11.035-.372 12.17 6.787 13.033 2.403.29 4.547.617 4.764.727.217.11 1.518-.401 2.891-1.136zm.152-30.713c-2.439-1.03-1.866-3.308 1.996-7.934l3.56-4.263 2.162 3.3c3.25 4.963 2.204 9.015-2.405 9.314-2.063.133-4.454-.054-5.313-.417zm46.337 26.465c6.752-.966 13.08-2.423 14.063-3.239.983-.816 1.788-3.46 1.788-5.878v-4.394l-9.375.85c-5.157.467-9.375.557-9.375.2 0-.356 4.5-7.705 10-16.33 5.5-8.626 10-16.726 10-18.001 0-3.751-3.447-5.915-6.442-4.044-1.37.854-7.37 3.26-13.336 5.345-13.522 4.726-16.472 6.576-16.472 10.326 0 5.247 2.802 6.177 9.218 3.06 3.15-1.53 6.123-2.386 6.607-1.902.485.484-3.44 7.234-8.722 15-5.282 7.764-9.603 15.04-9.603 16.167 0 2.391 3.301 4.598 6.875 4.596 1.375 0 8.023-.791 14.774-1.756zm-77.06-32.1c11.266-6.241 31.073-22.473 33.383-27.357.604-1.277.762-3.196.352-4.265-1.952-5.086-13.086-.14-38.324 17.022-8.594 5.844-15.817 11.611-16.051 12.816-.5 2.575 4.396 8.218 7.132 8.218 1.042 0 7.12-2.895 13.509-6.434zm58.433-11.825c2.719-1.043 2.477-5.862-.597-11.887-3.678-7.21-2.912-10.386 2.616-10.851 4.41-.371 4.418-.362 6.25 6.875 1.723 6.811 2.059 7.247 5.584 7.247 3.343 0 3.744-.406 3.702-3.75-.026-2.063-.455-6.145-.954-9.071-.859-5.045-.699-5.447 3.085-7.748 2.194-1.335 4.452-2.141 5.016-1.793.564.349 1.026 3.288 1.026 6.532 0 6.537 2.648 11.455 6.167 11.455 3.96 0 4.883-2.826 4.845-14.832-.058-18.472-1.364-18.978-27.552-10.673-7.378 2.34-14.128 4.258-15 4.262-.872.004-3.695.593-6.273 1.309-3.989 1.107-4.687 1.822-4.687 4.797 0 7.522 6.958 22.972 12.307 27.324 2.24 1.823 1.947 1.77 4.465.804zm-52.883-13.108c8.517-5.564 18.65-11.724 22.516-13.689 7.913-4.02 9.317-6.218 7.029-11.006-2.256-4.723-5.617-4.66-15.096.28-9.439 4.92-9.517 3.553-.31-5.416 6.162-6.001 6.748-7.597 3.856-10.49-2.086-2.085-6.356-1.307-16.353 2.978-3.042 1.304-5.531 1.933-5.531 1.398 0-1.88 11.56-18.368 16.378-23.36 2.68-2.777 4.872-5.84 4.872-6.807 0-2.184-6.177-8.771-8.225-8.771-.828 0-4.644 3.389-8.478 7.53-14.956 16.154-26.07 41.697-20.547 47.22.825.825 3.706 1.5 6.402 1.5 5.584 0 5.806-.65-3.84 11.2-5.507 6.763-6.964 12.898-3.812 16.05 2.728 2.728 5.508 1.594 21.139-8.617zm42.283-30.52c1.607-1.607 1.495-2.871-.921-10.373-1.513-4.698-2.751-8.88-2.751-9.294 0-1.158 6.585-3.01 25-7.028 18.946-4.135 31.082-8.277 32.112-10.962 1.027-2.675-3.264-6.706-7.138-6.706-1.864 0-9.792 1.682-17.619 3.739s-19.293 4.661-25.48 5.788c-13.364 2.434-20.294 5.59-21.329 9.716-.447 1.78.495 6.14 2.359 10.922 1.706 4.378 3.781 10.127 4.612 12.776 1.42 4.524 1.748 4.768 5.418 4.034 2.148-.43 4.73-1.605 5.737-2.612zm18.618.792c1.003-.635 1.5-2.709 1.25-5.206l-.415-4.15 16.25-4.02c19.864-4.913 22.335-5.855 24.873-9.478 2.67-3.812 2.526-6.932-.39-8.493-1.808-.968-5.393-.351-14.688 2.526-6.762 2.093-17.883 4.935-24.713 6.315-12.58 2.542-16.957 4.087-16.957 5.988 0 1.979 3.845 11.947 5.701 14.78 1.88 2.87 6.047 3.667 9.09 1.738zm.21-42.743c14.167-6.69 16.71-10.948 9.94-16.645-8.089-6.807-23.713-8.748-40.21-4.996-10.093 2.296-14.73 5.883-14.73 11.394 0 5.262 3.056 8.662 9.688 10.78 8.643 2.758 10.1 3 19.062 3.159 6.658.118 9.591-.549 16.25-3.692zm-30-9.287c-1.308-1.576-.885-2.15 2.66-3.6 9.47-3.872 25.56-3.116 26.99 1.27 1.309 4.014-26.443 6.195-29.65 2.33zm82.867 1.438c4.399-1.838 13.385-11.133 22.76-23.54 7.227-9.567 9.081-13.728 10.144-22.77 1.582-13.465-5.055-16.735-19.033-9.377-21.768 11.458-49.285 28.052-49.94 30.115-1.13 3.56 4.23 13.334 11.333 20.667 6.243 6.445 6.545 6.592 13.542 6.592 3.936 0 8.974-.76 11.194-1.687zm-15.67-15.783c-6.77-5.325-5.768-6.774 10.74-15.527 8.353-4.429 16.031-8.238 17.063-8.465 4.82-1.062-1.993 15.833-8.903 22.076-3.987 3.602-5.829 4.386-10.307 4.386-3.538 0-6.556-.868-8.593-2.47zm-25.558-.598c1.261-1.261 1.562-3.08.98-5.938l-.837-4.12-12.766-1.07c-7.022-.59-12.766-1.485-12.766-1.99 0-.505 2.39-1.628 5.312-2.495 6.45-1.915 8.438-3.418 8.438-6.382 0-3.888-5.946-7.437-12.46-7.437-3.23 0-6.23-.356-6.664-.79-.435-.436 1.016-4.053 3.224-8.04l4.016-7.249-2.621-3.523c-3.898-5.239-7.435-5.26-9.152-.055-.77 2.33-3.969 8.405-7.11 13.5-6.1 9.893-6.172 12.638-.356 13.45 5.369.75 5.274 2.452-.291 5.251-7.044 3.543-9.836 6.05-9.836 8.829 0 3.872 4.933 6.118 13.715 6.244 6.432.093 32.359 2.54 36.508 3.447.466.102 1.666-.632 2.666-1.632zm25.624-28.145c23.907-12.145 45.19-24.712 46.168-27.261 1.383-3.602-3.41-5.54-11.556-4.673-5.818.619-10.281 2.323-19.898 7.595-6.819 3.739-12.613 6.583-12.875 6.32-.263-.262.676-3.9 2.085-8.083 1.41-4.183 2.563-8.482 2.563-9.552 0-2.794-5.328-4.473-9.97-3.142-5.896 1.691-24.037 11.901-31.186 17.552-6.827 5.396-7.846 8.507-4.399 13.429 2.712 3.87 7.183 3.497 13.96-1.165 6.051-4.164 6.032-3.955-.512 5.646-2.279 3.342-4.135 6.436-4.124 6.875.057 2.398 5.261 6.309 8.494 6.384.902.02 10.464-4.445 21.25-9.925zM78.03 152.838c2.493-2.492 2.606-1.192-1.785-20.535-2.063-9.085-3.75-17.565-3.75-18.845 0-3.854 3.03-1.597 11.165 8.315 8.081 9.846 10.638 11.01 14.578 6.638 4.004-4.44 2.961-16.97-3.629-43.608-3.146-12.719-6.327-26.927-7.068-31.575-1.77-11.088-4.68-17.175-8.215-17.175-3.085 0-12.832 6.644-13.924 9.492-.4 1.04.187 3.971 1.303 6.513 1.116 2.54 3.464 10.245 5.219 17.12 1.754 6.875 4.363 15.752 5.798 19.728 1.434 3.976 2.368 7.468 2.074 7.762-.294.294-3.01-2.57-6.038-6.365-6.767-8.48-16.472-15.828-20.178-15.278-1.49.222-3.764 1.821-5.053 3.554-2.333 3.138-2.321 3.203 2.642 14.647 4.126 9.512 8.826 23.927 8.826 27.07 0 2.795-7.22-2.131-17.95-12.247-7.507-7.078-14.582-11.996-17.256-11.996-3.148 0-7.286 7.106-7.28 12.5.005 3.892 1.201 5.478 10.845 14.375 5.962 5.5 17.348 14.897 25.303 20.883 15.187 11.428 20.139 13.262 24.373 9.027zm131.62-7.723c16.223-18.462 21.88-27.026 23.476-35.534.712-3.794.398-4.79-2.048-6.504-4.188-2.934-9.747-2.515-24.382 1.835-24.861 7.391-30.678 10.489-28.815 15.346.571 1.487 2.37 2.045 6.594 2.045 5.238 0 6.285.521 10.664 5.312 2.67 2.921 4.856 6.103 4.856 7.07 0 .966-1.407 3.6-3.125 5.854-1.72 2.253-3.125 4.717-3.125 5.474 0 2.655 4.059 7.54 6.265 7.54 1.225 0 5.563-3.797 9.64-8.438zm-5.072-21.146c-2.214-2.214-.56-3.472 7.917-6.023 3.12-.939 3.12-.936-.547 2.958-3.61 3.834-5.723 4.712-7.37 3.065zm-18.02 13.575c4.006-3.441 2.524-6.109-7.088-12.753-9.679-6.691-11.581-8.995-9.089-11.007.819-.66 9.082-4.983 18.364-9.606 9.28-4.623 17.562-8.961 18.403-9.64 1.176-.95.888-2.353-1.25-6.088-1.528-2.67-3.508-5.137-4.399-5.484-2.01-.78-46.11 22.174-49.865 25.956-4.334 4.365-4.91 8.96-1.429 11.418 1.603 1.132 7.52 5.424 13.15 9.538 10.748 7.854 17.635 11.428 19.752 10.248.695-.387 2.247-1.549 3.45-2.582zm84.73-5.889c4.244-2.194 4.834-4.083 5.265-16.839.253-7.48.724-9.44 2.344-9.748 1.37-.261 2.688 1.264 4.063 4.7 2.52 6.299 2.577 10.09.2 13.233-3.603 4.763-1.79 8.052 4.437 8.052 1.319 0 3.523-1.125 4.898-2.5 3.382-3.383 3.215-13.295-.387-23.008-3.42-9.22-7.128-12.162-15.657-12.422-9.56-.292-11.798 2.488-12.66 15.73-.523 8.046-1.085 10.325-2.546 10.325-1.44 0-1.875-1.597-1.875-6.875v-6.875l-5.245-.381c-4.735-.344-5.434-.016-7.188 3.375-2.546 4.924-2.458 6.562.72 13.32 2.039 4.34 4.012 6.342 8.437 8.566 7.025 3.53 10.395 3.829 15.195 1.347zm-146.532-19.438c5.975-2.798 11.707-5.527 12.739-6.065 4.76-2.486 1.351-12.6-4.247-12.6-1.617 0-5.375.86-8.353 1.911-2.978 1.05-6.063 1.661-6.857 1.356-1.464-.561-4.293-9.93-4.293-14.213 0-1.444 1.676-3.14 4.375-4.426 3.884-1.853 4.375-2.628 4.375-6.913 0-6.672-3.076-9.302-9.649-8.25-5.757.92-6.158.375-7.382-10.042l-.778-6.616 8.185-2.723c4.501-1.498 8.878-3.56 9.726-4.582 2.161-2.604 1.798-12.886-.537-15.222-1.708-1.708-2.856-1.676-11.048.306-11.067 2.678-20.568 7.278-21.573 10.445-1.081 3.408 4.796 30.993 11.997 56.307 5.79 20.35 8.39 26.413 11.326 26.413.622 0 6.019-2.289 11.994-5.086zm127.739-13.762c0-1.38-2.609-5.298-5.796-8.706-3.57-3.816-5.07-6.196-3.904-6.196 1.042 0 2.594.844 3.45 1.875 2.257 2.72 6.866 2.3 10.668-.97l3.308-2.846-2.232-4.68c-1.998-4.19-2.032-4.877-.328-6.582 1.705-1.704 2.42-1.211 6.838 4.712 4.513 6.05 5.36 6.616 9.903 6.616 4.607 0 4.993-.272 5.325-3.75.5-5.254-10.739-24.838-14.58-25.405-4.47-.661-17.943 8.128-33.77 22.026-5.212 4.578-5.445 5.07-4.586 9.65.631 3.365 2.484 6.307 6.117 9.712 9.748 9.137 19.587 11.42 19.587 4.544zM163.28 91.52c14.942-7.906 15.619-8.433 14.835-11.556-1.852-7.378-6.097-8.202-16.74-3.247-3.709 1.726-6.835 2.986-6.946 2.8-.112-.187-1.782-11.83-3.712-25.876-1.93-14.045-4.063-27.127-4.74-29.07-1.322-3.792-4.635-5.226-10.519-4.553-4.277.488-4.258.03-1.15 27.91 1.15 10.312 2.596 24.242 3.213 30.954.945 10.284 1.644 12.889 4.446 16.562 1.828 2.397 3.849 4.359 4.49 4.359.642 0 8.212-3.728 16.823-8.283zm70.478-32.64c8.331-16.098 11.16-22.689 10.324-24.062-1.525-2.507-8.95-6.24-10.914-5.486-.855.328-2.86 3.381-4.453 6.784-2.696 5.756-5.172 7.645-6.725 5.131-.36-.58.497-4.082 1.903-7.781l2.555-6.725-2.818-2.282c-1.706-1.382-4.328-2.134-6.642-1.907-3.685.362-4.178 1.188-13.566 22.727-5.81 13.33-9.453 23.263-9.025 24.61.747 2.355 8.464 5.607 10.426 4.395.62-.384 3.135-4.924 5.588-10.09 2.72-5.728 5.216-9.391 6.397-9.391 3.046 0 2.288 4.96-1.813 11.875-4.453 7.506-4.637 9.862-.972 12.429 6.458 4.523 7.456 3.5 19.735-20.226zm-48.272 9.028c7.449-3.535 9.435-10.998 4.103-15.423-2.11-1.751-4.844-.791-10.709 3.76-4.312 3.347-6.392 1.087-6.358-6.908.045-10.427 6.217-20.85 9.348-15.784.424.687 1.54 1.25 2.477 1.25 2.372 0 9.398-6.106 9.398-8.167 0-3.18-5.846-8.497-11.022-10.026-4.91-1.45-5.484-1.325-11.59 2.524-11.36 7.163-16.812 18.412-15.896 32.796.383 6.016 1.164 8.503 3.426 10.911 5.786 6.16 19.186 8.69 26.823 5.067z" fill="#2c1918"/><path d="M140.912 464.678c-11.334-.775-16.419-2.375-7.547-2.375 4.41 0 5.742-.754 10.704-6.059l5.667-6.058.743 4.646c.409 2.555 1.645 5.395 2.748 6.31 2.344 1.945 20.625 2.119 25.445.242 2.237-.871 3.966-.665 6.467.77 3.115 1.788 3.614 1.78 5.697-.08 2.04-1.82 2.47-1.835 4.027-.14 2.087 2.275 11.148 1.496 12.793-1.099.577-.912 1.1-5.032 1.162-9.157.062-4.125.516-10.032 1.009-13.125l.897-5.625 1.52 4.422c.836 2.433 2.374 8.889 3.418 14.346 1.044 5.458 2.474 10.498 3.178 11.202.871.871 2.75.428 5.904-1.393 5.127-2.961 4.8-1.477 7.365-33.577l.9-11.25.934 18.125c.948 18.391.114 25.897-3.18 28.631-1.918 1.591-70.827 2.545-89.851 1.244zm-18.953-4.34c-3.403-3.402-2.128-4.866 1.473-1.69 1.89 1.666 3.672 3.17 3.958 3.342.287.172-.376.313-1.473.313s-2.878-.884-3.958-1.965zm50.149-15.211l-7.262-.453.387-3.842c.315-3.127 1.184-4.104 4.668-5.248 8.047-2.643 8.17-13.382.174-15.139-3.628-.796-3.83-1.16-3.83-6.868v-6.027l6.143.189c3.379.104 6.59-.257 7.137-.802.546-.546 1.016-3.89 1.044-7.433.05-6.35-.011-6.455-4.324-7.443-5.895-1.352-18.39.06-20.663 2.333-1.01 1.01-1.837 2.751-1.837 3.868 0 1.452-1.257.813-4.403-2.236-3.926-3.805-5.119-4.257-11.025-4.171-8.764.126-12.448 2.738-17.14 12.152l-3.824 7.67.804-6.25c1.288-10.012 3.697-13.94 9.095-14.833 7.074-1.17 55.75-.889 80.09.462 20.789 1.154 25.205 2.114 25.115 5.462-.021.776-.612.425-1.313-.778-1.748-3.001-5.193-2.742-8.36.63-1.96 2.085-2.746 4.762-3.03 10.312l-.384 7.496-5-10c-5.565-11.13-8.823-13.03-14.029-8.18-3.255 3.033-4.096 3.181-4.096.724 0-5.058-9.662-4.723-12.42.43-1.98 3.699-4.08 25.84-3.615 38.108.225 5.94.128 10.69-.215 10.56-.344-.132-3.893-.444-7.887-.693zm-38.363-2.03c0-3.11-5.091-8.294-8.145-8.294-1.646 0-3.83 1.236-4.91 2.778-1.825 2.606-1.942 2.123-1.897-7.813.046-9.86.164-10.331 1.703-6.84.91 2.062 4.825 6.64 8.7 10.172 4.312 3.93 7.049 7.448 7.049 9.063 0 1.452-.563 2.64-1.25 2.64-.688 0-1.25-.768-1.25-1.707zm9.76-19.639c-7.69-7.532-10.545-12.308-9.3-15.554 1.187-3.091 3.562-1.613 5.182 3.224 1.196 3.571 2.13 4.368 5.51 4.7 2.727.268 4.578-.296 5.611-1.71 1.268-1.733 1.458-.691 1.067 5.85-.261 4.378-.583 8.522-.715 9.21-.132.687-3.442-1.887-7.355-5.72zm53.16-12.405c0-5.156.22-7.266.49-4.688.27 2.578.27 6.797 0 9.375-.27 2.578-.49.469-.49-4.687zM155.62 362.23c-2.75-.569-11.57-1.067-19.599-1.106-11.083-.055-15.039-.513-16.43-1.904-3.713-3.713-4.37-73.8-.875-93.42 1.636-9.184 17.135-39.442 29.95-58.466 5.8-8.611 12.617-19.179 15.149-23.482 3.92-6.665 4.835-7.546 6.169-5.938.862 1.038 2.623 1.888 3.914 1.888 3.891 0 2.668 1.702-3.595 5-4.48 2.359-6.027 3.932-6.315 6.417-.552 4.768 4.717 8.551 12.113 8.696 5.271.103 5.445.2 2.019 1.12a219.852 219.852 0 0 1-7.092 1.762c-1.837.415-5.072 2.21-7.187 3.99-3.032 2.551-3.846 4.227-3.846 7.908 0 7.805 7.92 12.893 22.818 14.66l7.807.926-7.368 1.679c-8.518 1.94-14.193 5.53-15.221 9.625-.435 1.732.8 6.776 3.116 12.73 2.11 5.424 3.839 10.777 3.842 11.896.011 3.936 3.355 5.356 8.783 3.73 6.348-1.902 7.17-5.004 3.84-14.481-1.403-3.99-2.275-7.702-1.938-8.247.337-.545 6.088-2.205 12.78-3.689 32.433-7.191 44.04-11.12 44.04-14.908 0-3.137-5.298-7.564-9.052-7.564-1.797 0-8.51 1.405-14.92 3.122-14.974 4.011-15.711 3.905-6.748-.97 4.072-2.215 7.988-4.982 8.702-6.149 2.132-3.486-.586-8.755-6.127-11.877l-4.98-2.805 4.694.167c5.852.209 6.512-.455 6.128-6.16-.426-6.328-2.082-7.817-8.787-7.9-3.181-.04-8.034-.471-10.784-.959l-5-.886 5.379-1.612c5.775-1.73 7.176-3.591 6.057-8.05-1.009-4.019-7.087-7.171-13.827-7.171h-5.756l3.858-6.835c2.76-4.891 3.605-7.647 2.97-9.688-.858-2.754-.804-2.777 1.563-.665 1.349 1.203 3.111 2.188 3.917 2.188.805 0 1.464 1.443 1.464 3.207 0 3.482 2.057 8.122 4.25 9.586 2.38 1.59 7.577 1.038 10.679-1.134 3.086-2.162 2.812-.745-.647 3.34-.873 1.032-1.967 3.398-2.432 5.258-.724 2.901-.25 3.752 3.34 5.986 2.56 1.592 5.398 2.363 7.31 1.984 8.084-1.603 66.706-34.357 68.13-38.066 1.242-3.237-2.73-5.598-10.345-6.149-6.886-.498-8.04-.135-20.824 6.539-12.28 6.41-13.458 6.8-12.718 4.195 4.57-16.08 4.2-17.588-4.292-17.471-5.39.074-17.624 5.66-28.302 12.921-2.874 1.955-5.563 3.554-5.976 3.554-.413 0 2.782-4.223 7.1-9.385 14.793-17.683 21.396-31.981 16.863-36.514-4.86-4.86-21.02-2.168-47.467 7.91-7.776 2.962-11.987 6.505-10.042 8.45.434.434.22.789-.475.789-.696 0-2.274-1.115-3.507-2.478-2.206-2.437-1.916-2.637 17.427-12.09 10.819-5.286 19.945-10.327 20.281-11.203.754-1.962-6.654-12.98-8.726-12.979-.826 0-4.596 1.696-8.377 3.768-3.782 2.072-13.001 6.898-20.489 10.723-17.35 8.865-22.555 12.34-24.333 16.24-2.625 5.762-1.755 7.733 5.447 12.34 3.78 2.419 6.875 4.576 6.875 4.793 0 .217-4.079-1.604-9.063-4.047-8.45-4.142-9.865-4.442-20.937-4.442-11.194 0-12.402.264-21.04 4.606-6.627 3.33-8.877 4.022-8.125 2.5 2.389-4.838.6-20.21-4.988-42.877-3.116-12.639-6.299-26.635-7.073-31.104-.774-4.469-2.297-10.516-3.386-13.438-1.649-4.428-2.533-5.312-5.314-5.312-3.789 0-14.773 6.51-15.888 9.416-.406 1.058.692 6.262 2.44 11.566 1.748 5.303 4.348 14.24 5.777 19.857 1.43 5.618 2.99 11.243 3.465 12.5.476 1.257-2.995-1.243-7.714-5.556-9.28-8.482-12.905-10.118-17.64-7.96-4.664 2.125-6.347 6.845-3.817 10.707 1.129 1.722 2.053 4.014 2.053 5.092 0 1.079 1.36 4.645 3.022 7.925 3.063 6.045 7.316 20.281 6.348 21.25-.29.29-5.752-4.124-12.137-9.809-12.42-11.06-17.93-14.976-21.078-14.984-3.726-.009-7.735 5.843-8.32 12.142l-.554 5.979 12.104 11.135c6.657 6.125 18.378 15.836 26.047 21.582 12.643 9.472 14.408 10.415 18.933 10.114 4.026-.267 5.302-.984 6.6-3.706 1.368-2.866 1.22-5.03-.978-14.375-4.354-18.505-4.987-21.426-4.987-22.997 0-2.197 4.503 2.129 10.193 9.792 2.803 3.775 6.207 6.884 8.042 7.344l3.182.799-3.066 3.28c-3.894 4.168-6.265 8.961-8.807 17.806-2.69 9.356-4.366 10.662-11.147 8.684-11.926-3.479-52.619-30.519-57.778-38.392-3.185-4.86-3.972-18.628-1.484-25.932 3.084-9.05 19.689-33.123 28.595-41.454C54.532 44.393 85.3 27.37 102.232 22.992c19.637-5.079 60.798-10.422 70.979-9.214l3.659.434-3.913 2.125c-12.066 6.553-18.1 16.454-18.869 30.966-.68 12.805 1.556 17.101 10.907 20.968 15.645 6.47 31.315-.576 28.27-12.71-.462-1.839-2.186-3.957-3.83-4.706-2.541-1.158-3.84-.791-8.617 2.433-3.094 2.088-5.951 3.47-6.35 3.072-1.397-1.397-.705-12.93 1.024-17.07 2.065-4.942 4.189-6.55 6.111-4.628 2.247 2.246 5.082 1.624 9.534-2.093 3.667-3.061 4.067-3.97 3.294-7.485-.952-4.335-5.908-9.031-9.531-9.031-1.242 0-2.622-.589-3.066-1.308-.546-.883 1.36-1.055 5.864-.531 10.123 1.178 26.947 4.279 30.11 5.55 2.71 1.09 2.69 1.133-.597 1.21-4.365.101-5.061 1.244-16.025 26.298-8.335 19.045-8.883 20.825-7.29 23.661 1.796 3.196 7.75 5.544 11.258 4.44 1.119-.353 3.866-4.844 6.106-9.98 2.24-5.137 4.559-9.34 5.153-9.34 1.935 0 1.15 2.995-2.62 10-4.792 8.906-4.815 11.91-.11 14.343 4.328 2.238 7.779 2.44 9.655.563.958-.957 1.593-.012 2.213 3.293.59 3.141 2.916 6.8 7.213 11.344 3.489 3.689 6.788 6.707 7.33 6.707.544 0 2.4.537 4.127 1.193 3.05 1.16 3.084 1.302 1.205 5.07-3.932 7.882.9 18.086 10.987 23.197 7.892 4 14.007 3.543 18.27-1.363 2.438-2.807 2.812-4.638 2.812-13.792 0-11.455 1.42-13.445 4.438-6.22 2.327 5.569 2.304 9.95-.063 11.915-2.253 1.869-2.454 6.422-.375 8.5 2.241 2.241 9.08 1.812 11.365-.713 1.102-1.218 2.527-3.608 3.167-5.313 1.751-4.662 3.209 13.507 2.4 29.927-.532 10.824-1.245 14.471-3.93 20.099-1.804 3.781-2.985 5.469-2.624 3.75 3.742-17.834.572-24.176-11.001-22.005-3.745.703-47.613 24.87-56.057 30.882-1.964 1.399-3.57 3.52-3.57 4.712 0 3.68 5.902 14.228 11.543 20.629 4.859 5.513 5.984 6.151 11.843 6.714 13.75 1.322 19.672-2.303 34.976-21.408 9.278-11.584 10.13-12.408 6.606-6.4-1.612 2.75-6.379 9.22-10.593 14.376-8.886 10.872-13.701 17.673-19.912 28.125-3.276 5.512-4.458 6.746-4.46 4.656-.006-5.264-4.807-5.634-18.417-1.421-6.716 2.078-17.7 4.889-24.41 6.245-20.198 4.082-20.343 4.219-16.142 15.278 3.041 8.01 5.684 10.867 10.05 10.867 4.644 0 6.923-2.775 6.014-7.32l-.713-3.565 12.745-2.874c7.01-1.581 15.79-3.915 19.512-5.186 3.722-1.271 6.998-2.081 7.28-1.8.281.282-.36 2.2-1.427 4.261-2.548 4.927-8.245 24.671-8.245 28.572 0 1.815-.533 2.73-1.31 2.25-.787-.487-1-2.888-.534-6.012.427-2.86.187-6.748-.534-8.639-1.205-3.16-1.852-3.437-8.016-3.437-4.16 0-10.699 1.38-17.219 3.634-5.782 1.998-14.169 4.329-18.637 5.179-4.47.85-8.829 2.096-9.688 2.77-3.632 2.844-.22 17.101 6.441 26.905 4.82 7.095 7.46 8.867 10.434 7.003 3.217-2.017 3.35-6.207.415-13.03-3.559-8.273-3.39-9.961 1-9.961 3.251 0 3.745.574 5.092 5.92 1.89 7.505 3.233 9.08 7.748 9.08 4.732 0 5.38-2.028 3.69-11.562-1.221-6.896-1.135-7.997.73-9.376 3.882-2.868 5.06-1.773 5.642 5.237.75 9.058 2.596 11.164 8.896 10.157 4.17-.667 4.782-.484 4.123 1.232-.425 1.11-.791 2.955-.813 4.102-.036 1.897-.19 1.888-1.7-.103-1.724-2.27-7.01-3.054-7.01-1.04 0 .632-3.797 2.401-8.438 3.932-4.64 1.53-11.39 4.076-15 5.658-5.72 2.506-6.562 3.335-6.562 6.455 0 1.969.794 4.667 1.766 5.996 1.737 2.375 1.865 2.367 7.651-.444 3.237-1.572 6.036-2.692 6.221-2.489.415.456-7.134 12.01-13.45 20.59-5.743 7.797-6.147 12.41-1.25 14.28 4.024 1.539 25.92-.731 32.5-3.369 3.733-1.497 4.062-2.08 4.062-7.213 0-3.236-.632-5.795-1.502-6.085-.826-.276-4.562-.021-8.302.566-3.74.586-7.181.905-7.646.708-.465-.196 3.559-7.107 8.942-15.357l9.787-15-.327 25.625-.327 25.625-5.625.845c-7.936 1.192-67.094.956-73.125-.292zm16.09-3.03c2.076-1.572 2.24-2.838 1.456-11.21l-.885-9.438h5.454c6.544 0 10.66-2.608 13.017-8.248 3.599-8.615.922-15.478-9.276-23.786-5.441-4.432-7.565-5.465-9.987-4.857l-3.077.772 3.291-3.912c1.81-2.15 3.292-4.666 3.292-5.588 0-6.164-4.485-7.177-13.75-3.104-7.55 3.319-3.105-.214 6.324-5.026 9.449-4.822 10.522-6.283 8.691-11.828-1.956-5.927-5.987-6.914-13.446-3.29-3.092 1.502-5.835 2.518-6.095 2.258-.26-.26 1.809-2.308 4.598-4.549 5.656-4.545 6.335-9.094 1.803-12.082-2.136-1.409-3.728-1.22-10.913 1.29l-8.412 2.94 1.41-2.682c2.644-5.032 8.809-13.528 14.317-19.73 5.99-6.743 5.992-7.844.032-13.419-4.697-4.392-8.177-2.822-16.953 7.652-14.352 17.129-24.173 42.373-18.189 46.75 1.27.929 3.906 1.689 5.856 1.689h3.546l-6.285 8.2c-6.756 8.814-8.14 14.766-4.32 18.585 2.463 2.464 4.669 2.477 9.348.058 6.723-3.477 3.821-.833-5.093 4.64-9.033 5.547-11.243 8.8-8.922 13.137.692 1.295 2.68 3.114 4.418 4.044 3.768 2.017 5.917 1.288 20.2-6.851 12.227-6.968 9.886-4.15-4.82 5.802-12.9 8.729-18.345 13.374-18.345 15.648 0 .85 1.456 3.276 3.236 5.39 4.716 5.606 8.425 5.075 19.39-2.775 5.087-3.642 9.996-7.077 10.909-7.634 1.353-.825 1.499.832.79 8.957-.977 11.196-.777 11.537 7.55 12.911 7.327 1.209 7.298 1.21 9.84-.714zm-1.083-33.137c-.928-1.5 3.168-7.417 5.171-7.472 1.627-.045 2.947 2.782 2.947 6.313 0 1.82-.886 2.398-3.677 2.398-2.022 0-4.02-.558-4.441-1.239zm-47.998-211.622c4.395-2.262 10.381-5.029 13.303-6.15 4.398-1.687 5.313-2.607 5.313-5.346 0-1.82-.608-4.444-1.352-5.832-.743-1.39-1.066-2.81-.717-3.16.349-.348 1.534 1.106 2.634 3.233 1.1 2.126 2.828 3.866 3.84 3.866 3.318 0 34.345-16.58 34.345-18.354 0-.95-.815-3.677-1.812-6.061-1.553-3.717-2.4-4.331-5.937-4.308-2.27.015-6.578 1.14-9.575 2.5-2.997 1.36-5.86 2.473-6.362 2.473-.501 0-1.607-4.922-2.457-10.938-5.23-37.01-6.507-43.432-9.074-45.625-2.714-2.318-12.832-3.084-14.08-1.065-.381.617.667 13.414 2.328 28.438 1.662 15.023 3.283 31.112 3.601 35.752l.58 8.438h-3.45c-1.896 0-5.84.844-8.762 1.875-2.923 1.031-5.74 1.875-6.26 1.875-.97 0-3.74-9.623-3.74-12.995 0-1.038 1.968-2.822 4.375-3.964 3.974-1.886 4.375-2.556 4.375-7.32 0-7.681-2.29-10.096-9.575-10.096h-6.018l-1.088-5.935c-.6-3.264-.806-6.673-.46-7.575.347-.902 4.07-2.682 8.275-3.955 4.205-1.273 8.252-3.046 8.993-3.938 1.545-1.862 1.922-11.023.622-15.096-1.282-4.015-4.617-4.524-14.141-2.16-10.216 2.538-19.805 7.164-21.53 10.388-2.052 3.834 2.112 24.539 11.97 59.52 6.027 21.388 7.937 25.626 11.553 25.626 1.261 0 5.889-1.85 10.283-4.111zm54.866 100.33c0-3.55 17.514-6.021 23.799-3.36l4.326 1.833-3.52 1.404c-4.461 1.78-24.605 1.88-24.605.123zm67.269-14.032c-1.077-.86-2.54-2.667-3.25-4.017-1.173-2.227.105-3.192 13.735-10.38 8.265-4.359 15.335-7.617 15.712-7.24 1.284 1.284-2.189 10.286-5.998 15.545-2.091 2.887-5.226 5.79-6.967 6.452-4.41 1.677-10.9 1.5-13.232-.36zm-71.367-42.347c.832-10.357-.82-15.45-7.516-23.172-2.882-3.324-4.401-5.417-3.376-4.651 1.026.766 4.58 3.438 7.898 5.937 7.372 5.554 14.494 6.268 17.646 1.768 2.978-4.253 2.37-6.69-2.714-10.881l-4.66-3.841h4.581c3.67 0 5.464.931 9.024 4.687 5.299 5.591 5.517 7.638 1.243 11.654-2.34 2.198-3.083 3.967-2.717 6.465.46 3.131.32 3.271-1.564 1.566-4.338-3.926-7.242-2.37-11.088 5.94-1.989 4.297-4.47 8.925-5.516 10.285-1.744 2.267-1.846 1.79-1.24-5.757zm32.848-35.956c0-.614.89-1.458 1.977-1.875 3.058-1.174 3.462-.92 1.773 1.116-1.725 2.078-3.75 2.488-3.75.759zm53.837-5.447c.049-.86.572-2.687 1.163-4.062.9-2.095 1.088-1.842 1.162 1.562.048 2.235-.475 4.063-1.162 4.063-.688 0-1.21-.703-1.163-1.563zm.538-9.886c-.688-1.565-2.657-3.172-4.375-3.572-2.563-.597-3.05-1.36-2.706-4.236.3-2.503-.574-4.545-3.046-7.126-3.397-3.545-3.41-3.617-.67-3.617 3.768 0 9.684-3.178 10.663-5.727.436-1.138-.058-3.777-1.099-5.863-2.301-4.613-2.375-5.922-.33-5.87.86.021 3.092 2.56 4.962 5.64 4.106 6.766 8.892 9.102 13.471 6.576 1.87-1.032 3.377-3.2 3.76-5.41.607-3.51.803-3.319 4.068 3.956 3.493 7.783 7.194 17.632 7.156 19.042-.012.43-1.195-1.051-2.628-3.29-1.434-2.239-3.956-4.348-5.604-4.688a1939.5 1939.5 0 0 1-6.248-1.297c-4.49-.94-10.785 1.365-12.951 4.74-.994 1.549-2.115 5.24-2.49 8.2-.618 4.866-.804 5.112-1.933 2.542zM236.207 56.75c5.52-10.617 10.038-20.132 10.038-21.146 0-1.014-1.547-3.067-3.438-4.562-2.655-2.1-2.016-1.94 2.813.704 13.58 7.436 20.848 14.137 27.876 25.703 4.351 7.16 3.194 7.357-1.579.269-2.38-3.535-5.052-6.683-5.937-6.996-.886-.314-4.169.71-7.296 2.273-6.399 3.2-24.312 16.253-27.946 20.363-5.523 6.248-3.98 1.561 5.469-16.608zm-13.089-17.886c3.848-9.447 4.583-12.932 3.103-14.716-1.347-1.622-.911-1.624 3.654-.013 2.851 1.006 6.154 2.45 7.34 3.209 1.914 1.225 1.86 1.319-.48.832-4.005-.832-6.687 1.294-9.29 7.365-1.299 3.031-3.004 5.51-3.79 5.51-.866 0-1.077-.86-.537-2.187z" fill="#1b1b19"/></svg>