<?xml version="1.0" encoding="utf-8"?>
<!-- Generator: Adobe Illustrator 16.0.0, SVG Export Plug-In . SVG Version: 6.00 Build 0)  -->
<!DOCTYPE svg PUBLIC "-//W3C//DTD SVG 1.1//EN" "http://www.w3.org/Graphics/SVG/1.1/DTD/svg11.dtd">
<svg version="1.1" id="Ebene_1" xmlns="http://www.w3.org/2000/svg" xmlns:xlink="http://www.w3.org/1999/xlink" x="0px" y="0px"
	 width="260px" height="162px" viewBox="-72 0 260 162" enable-background="new -72 0 260 162" xml:space="preserve">
<title>6BD6C192-C70D-4329-ABEC-2B9410651C7B</title>
<desc>Created with sketchtool.</desc>
<g id="Page-2">
	<g id="Mitmachen" transform="translate(-106.000000, -1602.000000)">
		<g id="spenden-1" transform="translate(106.000000, 1602.000000)">
			<path id="Shape" fill="#9B9B9B" d="M59.758,69.794c-1.031-0.121-4.271-0.166-5.298-0.022
				C55.578,69.772,58.068,69.992,59.758,69.794z"/>
			<path id="Shape_1_" fill="#9B9B9B" d="M71.409,69.842c-1.61-0.007-3.989-0.016-6.005-0.025c-1.478-0.005-5.648-0.077-4.95,0.061
				C65.127,69.765,68.062,70.202,71.409,69.842z"/>
			<path id="Shape_2_" fill="#9B9B9B" d="M81.469,107.391c0.895-0.012,1.617,0.033,2.219,0.055c0.213-0.581,0.365-1.071,0.406-1.639
				c-0.096,0.31-0.293,0.892-0.502,1.51C82.171,107.303,80.576,107.291,81.469,107.391z"/>
			<path id="Shape_3_" fill="#9B9B9B" d="M81.639,157.973c-0.029,0.004-0.053,0.006-0.082,0.01
				C81.562,157.984,81.596,157.98,81.639,157.973z"/>
			<path id="Shape_4_" fill="#9B9B9B" d="M70.484,159.223c-0.691-0.043-1.344-0.093-2.146-0.117
				c-0.345,0.324,2.312,0.11,2.615,0.299c-0.156-0.223,2.073,0.02,1.916-0.203C71.918,159.244,71.178,159.256,70.484,159.223z"/>
			<path id="Shape_5_" fill="#9B9B9B" d="M85.16,70.141c0.716,0.022,1.729,0.096,2.633,0.109c0.15,0,0.3,0.001,0.445,0.001
				c0.158-0.001,0.312-0.003,0.463-0.005c0.299-0.006,0.578-0.018,0.826-0.036c0.498-0.038,0.867-0.104,1.031-0.213
				c-1.146,0.019-2.662,0.043-4.271,0.068c-1.31,0.009-2.695-0.011-3.938-0.099C82.534,70.283,84.191,70.11,85.16,70.141z"/>
			<path id="Shape_6_" fill="#9B9B9B" d="M70.807,158.92c0.31-0.006,0.631-0.013,0.943-0.02c0.066-0.148-0.436-0.164-1.029-0.158
				c-0.59-0.021-1.271-0.025-1.576-0.102c-0.028,0.137,0.312,0.207,0.812,0.243C70.209,158.902,70.499,158.92,70.807,158.92z"/>
			<path id="Shape_7_" fill="#9B9B9B" d="M86.169,157.809c0.862-0.263,1.739-0.482,2.587-0.785
				C88.846,156.689,86.225,157.655,86.169,157.809z"/>
			<path id="Shape_8_" fill="#9B9B9B" d="M51.64,69.679c-2.41-0.049-3.94-0.066-5.47-0.079c-0.765-0.006-1.53-0.011-2.405-0.018
				c-0.611-0.009-1.301-0.018-2.144-0.029c-0.275,0.008-0.529,0.021-0.386,0.159c2.47,0.011,6.033,0.028,8.28,0.039
				C50.36,69.749,52.741,69.802,51.64,69.679z"/>
			<path id="Shape_9_" fill="#9B9B9B" d="M65.381,158.6c1.346,0.07,1.338,0.344,2.594,0.416c0.439-0.271-1.391-0.214-1.07-0.473
				C66.055,158.461,65.494,158.465,65.381,158.6z"/>
			<path id="Shape_10_" fill="#9B9B9B" d="M24.086,35.164c-0.063-0.283-0.765,1.083-0.962,1.625c-0.263,0.65-0.72,2.098-0.619,2.209
				C23.292,37.114,23.305,36.613,24.086,35.164z"/>
			<path id="Shape_11_" fill="#9B9B9B" d="M6.603,109.499c-0.758,0.103-3.831-0.063-5.799,0.001
				c0.204-0.619,0.325-1.076,0.296-1.234c-0.168,0.443-0.377,0.998-0.527,1.396c0.249,0.01,0.411,0.028,0.392,0.067
				C2.065,109.576,8.321,109.784,6.603,109.499z"/>
			<path id="Shape_12_" fill="#9B9B9B" d="M45.712,152.717c-0.179,0.16,0.696,0.647,1.558,1.127
				C47.56,153.713,46.686,153.232,45.712,152.717z"/>
			<path id="Shape_13_" fill="#9B9B9B" d="M66.866,159.572c-0.802-0.059-1.66-0.062-2.479-0.16
				c-0.816-0.083-1.588-0.172-2.205-0.275c0.066,0.159,0.629,0.262,1.366,0.35c0.369,0.039,0.782,0.082,1.198,0.123
				c0.417,0.041,0.836,0.052,1.221,0.086c0.77,0.052,1.619,0.128,2.367,0.134c0.75,0.021,1.408,0.053,1.811,0.133
				c-0.158-0.13-0.578-0.211-1.156-0.263C68.408,159.648,67.67,159.631,66.866,159.572z"/>
			<path id="Shape_14_" fill="#9B9B9B" d="M86.938,97.186c-0.322,0.972-0.64,1.924-0.933,2.806
				c-0.272,0.837-0.522,1.606-0.735,2.262c-0.617,1.945-0.328,1.136,0.207-0.437c0.573-1.713,1.416-4.229,1.787-5.332
				c0.592-1.797,1.209-3.567,1.666-5.031c-0.697,0.01-1.353,0.031-1.947,0.077c0.504,0,1.061,0,1.844-0.003
				C88.266,93.205,87.59,95.232,86.938,97.186z"/>
			<path id="Shape_15_" fill="#9B9B9B" d="M81.639,157.973c0.285-0.041,0.533-0.062,0.756-0.08c0.244-0.024,0.469-0.047,0.703-0.069
				c0.473-0.05,0.998-0.122,1.844-0.349C85.271,157.045,82.17,157.873,81.639,157.973z"/>
			<path id="Shape_16_" fill="#9B9B9B" d="M57.447,55.021c0.895,0.066,1.614,0.126,2.124-0.071
				C58.674,54.884,57.957,54.823,57.447,55.021z"/>
			<path id="Shape_17_" fill="#9B9B9B" d="M55.674,55.095c1.133-0.064,1.082,0.132,1.753,0.169
				c-0.091-0.424-2.282-0.343-3.161-0.255c0.412,0.015,0.375,0.129,0.334,0.244C55.294,55.279,55.31,55.146,55.674,55.095z"/>
			<path id="Shape_18_" fill="#9B9B9B" d="M40.331,49.512c0.211-0.792,0.531-1.498,0.766-2.125c0.236-0.613,0.474-1.209,0.536-1.775
				c-0.236,0.77-0.439,1.24-0.598,1.266c-0.16,0.854-0.52,1.638-0.79,2.638c-0.141,0.525-0.283,1.121-0.393,1.613
				c-0.099,0.496-0.174,0.89-0.21,1.026c0.035-0.131-0.215,0.458-0.427,1.062c-0.202,0.606-0.353,1.216-0.134,0.996
				c0.08-0.654,0.469-1.463,0.654-2.095C39.977,51.244,40.049,50.521,40.331,49.512z"/>
			<path id="Shape_19_" fill="#9B9B9B" d="M96.98,64.948c-0.447,1.489-1.207,3.656-1.638,5.297
				c-0.434,0.017-0.804,0.045-1.096,0.087c0.349-0.008,0.735-0.009,1.153-0.008C95.992,68.409,96.814,66.014,96.98,64.948z"/>
			<path id="Shape_20_" fill="#9B9B9B" d="M70.881,54.834c-1.175-0.004-2.352-0.009-3.527-0.014
				C67.508,55.175,70.207,54.885,70.881,54.834z"/>
			<path id="Shape_21_" fill="#9B9B9B" d="M63.109,54.883c0.438,0.036,0.713,0.108,0.688,0.246c1.232,0.019,2.26-0.013,2.837-0.15
				C65.299,54.868,64.484,54.721,63.109,54.883z"/>
			<path id="Shape_22_" fill="#9B9B9B" d="M39.544,54.104c0.114-0.667,0.139-1.273-0.023-0.722c0.034,0.287-0.048,0.537-0.165,0.852
				c-0.059,0.157-0.125,0.329-0.189,0.525c-0.032,0.097-0.064,0.201-0.093,0.311c-0.013,0.055-0.028,0.111-0.042,0.17l-0.02,0.089
				c-0.009,0.021,0.002,0.023,0.022,0.02h0.048c0.171-0.059,0.253-0.105,0.27-0.143c0.008-0.018,0.001-0.034-0.02-0.047
				c-0.011-0.007-0.025-0.013-0.042-0.019c-0.018-0.005,0.016-0.054,0.021-0.081C39.407,54.797,39.487,54.44,39.544,54.104z"/>
			<path id="Shape_23_" fill="#9B9B9B" d="M53.589,26.852c0.334-0.27,0.619-0.516,0.312-0.468c-0.514,0.411-0.547,0.552-1.004,0.977
				c-0.177,0.167-0.554,0.472-0.977,0.869c-0.411,0.409-0.925,0.854-1.342,1.326c-0.873,0.909-1.521,1.76-1.26,1.608
				c1.295-1.62,2.41-2.633,3.679-3.675C52.894,27.447,53.249,27.116,53.589,26.852z"/>
			<path id="Shape_24_" fill="#9B9B9B" d="M45.415,38.185c-0.044,0.085-0.477,0.618-0.604,0.844c0,0-0.063,0.336-0.242,0.661
				c-0.356,0.708-0.864,1.864-1.262,2.86c-0.317,0.701-1.173,2.234-0.927,2.628c0.316-0.209,0.649-1.413,1.085-2.164
				c0.31-0.536,0.39-0.42,0.745-1.167c0.255-0.507,0.521-1.057,0.777-1.625c0.263-0.564,0.55-1.128,0.816-1.681
				c0.564-1.086,1.139-2.076,1.682-2.676c0.06-0.184,0.132-0.38,0.213-0.585c0.089-0.199,0.188-0.408,0.292-0.622
				c0.212-0.424,0.427-0.885,0.679-1.312c0.254-0.052,0.06,0.253-0.175,0.628c-0.233,0.378-0.529,0.814-0.532,0.979
				c0.255-0.309,0.497-0.588,0.693-0.746c0.898-1.794,2.509-3.335,4.075-4.908c0.092-0.098,0.24-0.391,0.671-0.757
				c1.068-0.963,2.167-1.576,3.231-2.333c1.246-0.815,2.321-1.629,3.654-2.289c0.84-0.417,1.819-0.653,2.476-0.934
				c0.402-0.176,0.489-0.381,0.883-0.513c0.125-0.043,0.022,0.201,0.672-0.058c0.392-0.157,0.268-0.225,0.59-0.373
				c0.062,0.11,0.135,0.126,0.676-0.025c0.25-0.072,0.525-0.152,0.82-0.237c0.299-0.075,0.615-0.154,0.94-0.236
				c0.648-0.179,1.353-0.314,2.021-0.468c0.672-0.137,1.313-0.268,1.854-0.377c0.542-0.104,0.984-0.191,1.247-0.279
				c-0.506,0.038-1.243,0.14-1.353,0.057c0.839-0.136,1.384-0.297,2.025-0.442c-0.396,0.013-1.324,0.103-2.113,0.175
				c-0.783,0.089-1.438,0.128-1.295-0.03c-0.608,0.166-0.908,0.377-1.652,0.547c-0.01-0.084-0.283-0.044-0.354-0.091
				c0.377-0.208,1.254-0.365,1.653-0.562c-0.399,0.101-1.017,0.188-1.562,0.283c-0.539,0.118-1.008,0.236-1.116,0.355
				c0.364-0.066,0.819-0.057,0.36,0.082c-1.24,0.425-0.137-0.367-1.369,0.099c-0.252,0.047-0.621,0.164-1.027,0.303
				c-0.398,0.16-0.839,0.337-1.239,0.499c-0.161-0.058-0.464-0.016-1.006,0.209c-0.271,0.249-0.532,0.472-1.153,0.837
				c0.057-0.033-0.115-0.121-0.058-0.152c-0.414,0.203-2.278,1.454-3.283,1.814c0.115-0.147,0.447-0.361,0.757-0.568
				c0.309-0.204,0.604-0.376,0.623-0.495c0.057,0.077,0.567-0.159,1.086-0.418c0.52-0.25,1.032-0.558,1.049-0.706
				c-0.588,0.297-1.097,0.507-1.51,0.689c-0.414,0.186-0.753,0.307-1.029,0.374c0.092,0.073,0.012,0.188-0.188,0.336
				c-0.194,0.159-0.508,0.353-0.898,0.572L57.664,23.9c-1.064,0.683-1.898,1.218-2.625,1.684c-0.12,0.256-0.355,0.552-0.662,0.921
				c-0.308,0.367-0.728,0.756-1.181,1.238c-1.643,1.243-2.817,2.601-4.552,4.681c0.077,0.286-0.608,1.202-0.94,1.9
				c0.034,0.198,0.446-0.294,0.192,0.149c-0.846,1.081-0.082-0.178-0.321-0.248c-0.261,0.539-0.453,0.875-0.649,1.214
				c-0.2,0.337-0.433,0.659-0.745,1.183C45.932,37.064,45.617,37.822,45.415,38.185z M67.77,20.962
				c0.084,0.248-0.802,0.461-1.578,0.717c0.033-0.107-0.1-0.122-0.354-0.066C66.102,21.376,66.82,21.163,67.77,20.962z
				 M54.515,27.241c-0.299,0.122,0.028-0.121,0.525-0.487c0.514-0.345,1.195-0.812,1.619-1.146
				C57.374,25.285,54.837,26.985,54.515,27.241z M54.713,26.37c0.229-0.279,0.553-0.591,0.883-0.895
				c0.662-0.606,1.425-1.062,1.63-0.926c-0.926,0.538-1.261,0.86-1.548,1.197c-0.292,0.335-0.58,0.63-1.35,1.23
				C54.339,26.879,54.487,26.652,54.713,26.37z M52.374,28.551c0.311-0.249,0.593-0.417,0.724-0.384
				c-0.757,0.595-0.561,0.7-1.162,1.252c-0.031-0.247-0.555,0.314-0.512-0.057C51.721,29.126,52.068,28.805,52.374,28.551z
				 M50.34,31.187c0.501-0.63,0.218-0.676,0.958-1.458c0.284,0.066-0.57,0.917-0.116,0.862c-0.722,0.908-0.532,0.078-1.271,1.127
				C49.889,31.583,50.278,31.133,50.34,31.187z M50.165,31.017c-0.217,0.213-0.438,0.43-0.551,0.424
				c-0.618,0.971,0.253,0.169-0.071,0.861c-0.403,0.396-0.48,0.07-0.776,0.229C49.416,31.658,49.894,30.769,50.165,31.017z"/>
			<path id="Shape_25_" fill="#9B9B9B" d="M53.909,55.088c-0.842-0.179-2.439-0.057-3.883-0.016
				c-1.003,0.028-3.088-0.122-2.831,0.23c1.132-0.212,4.191,0.209,3.529-0.146C52.23,55.055,53.501,55.414,53.909,55.088z"/>
			<path id="Shape_26_" fill="#9B9B9B" d="M48.173,32.931c-0.834,1.35-1.571,2.085-1.527,2.756c0.43-0.895,0.705-1.272,1.312-2.036
				C47.867,33.538,48.423,32.894,48.173,32.931z"/>
			<path id="Shape_27_" fill="#9B9B9B" d="M60.01,89.975c-1.189-0.037-1.519,0.133-2.137,0.232c0.487-0.001,0.771,0.041,1.053,0.085
				C59.043,90.128,59.895,90.139,60.01,89.975z"/>
			<path id="Shape_28_" fill="#9B9B9B" d="M45.058,91.449c0.768,0.046,2.271,0.205,2.478-0.07
				C46.801,91.424,45.224,91.27,45.058,91.449z"/>
			<path id="Shape_29_" fill="#9B9B9B" d="M52.678,88.891c2.567,0.047,4.938-0.203,6.701,0.109
				c-0.064-0.152,0.412-0.178,0.381-0.322c-1.41-0.033-3.523,0.09-3.511-0.257c1.255-0.12,1.574,0.05,2.832-0.069
				c-0.936-0.354,1.192-0.194,1.103-0.562c-0.213-0.14-1.058-0.138-1.394-0.248c-3.885,0.062-7.021,0.106-8.86,0.367
				c-0.937,0.134-0.482-0.076-1.413-0.007c-1.262,0.097-2.486,0.351-3.917,0.39c0.657,0.015,1.176,0.06,1.398,0.168
				c2.18-0.258,4.619-0.001,7.417,0.03c0.658-0.098,0.52-0.397,1.779-0.155c-0.37,0.16-0.638,0.345-1.446,0.399
				C53.195,88.738,52.526,88.718,52.678,88.891z M52.369,88.324c-0.278-0.07-0.962-0.053-1.046-0.166
				c-1.011,0.043-3.808-0.074-1.406-0.088C51.044,88.086,52.627,88.003,52.369,88.324z"/>
			<path id="Shape_30_" fill="#9B9B9B" d="M44.031,91.04c1.308-0.046,3.51,0.119,4.244-0.063
				C46.966,91.021,44.765,90.857,44.031,91.04z"/>
			<path id="Shape_31_" fill="#9B9B9B" d="M49.834,89.122c-1.135-0.099-1.811,0.222-2.139,0.233
				c-0.437,0.018-0.49-0.121-1.053-0.084c-0.078,0.004-0.142,0.14-0.365,0.16c-0.627,0.058-1.457-0.106-1.773,0.072
				c0.274,0.02,0.405,0.068,0.341,0.163c1.035-0.104,1.924,0.146,2.466,0.091c0.254-0.025-0.121-0.17,0.365-0.16
				c0.327,0.008,0.601,0.367,1.055,0.086c-1.18-0.078-0.164-0.151-0.322-0.406C49.035,89.262,50.17,89.367,49.834,89.122z"/>
			<path id="Shape_32_" fill="#9B9B9B" d="M51.183,89.938c-1.191-0.035-1.518,0.135-2.139,0.233
				C49.928,90.133,51.175,90.182,51.183,89.938z"/>
			<path id="Shape_33_" fill="#9B9B9B" d="M39.315,74.666c0.068-0.493,0.262-1.112,0.009-1.338
				C39.257,73.796,39.059,74.508,39.315,74.666z"/>
			<path id="Shape_34_" fill="#9B9B9B" d="M39.239,81.218c0.044-1.115-0.108-1.482-0.016-2.787l0.323,0.032
				c-0.175,0.511-0.144,1.455-0.121,2.448c0.012,0.496,0.021,1.004,0.003,1.478c-0.017,0.473-0.035,0.906-0.127,1.262
				c-0.158-0.67-0.036-0.867,0.001-1.731c-0.688,0.491-0.111,4.599,0.286,4.854c0.002,0.093,0.006,0.182,0.008,0.268
				c0,0.057-0.001,0.109-0.001,0.161c-0.004,0.101-0.014,0.188-0.032,0.26c-0.037,0.144-0.1,0.22-0.208,0.207
				c-0.003-0.187-0.014-0.349-0.034-0.492c-0.029-0.19-0.055-0.356-0.079-0.509c-0.066-0.38-0.151-0.674-0.236-0.963
				c0.032,0.365,0.066,0.743,0.1,1.113c0.017,0.219,0.032,0.277,0.048,0.404c0.018,0.108,0.035,0.217,0.052,0.319
				c0.08,0.401,0.194,0.705,0.345,0.849c0.159-0.463,0.314-0.851,0.444-1.345c-0.018-0.057-0.039-0.289-0.059-0.43
				c-0.021-0.156-0.042-0.3-0.06-0.433c-0.041-0.266-0.076-0.494-0.111-0.726c-0.068-0.466-0.121-0.949-0.141-1.786
				c-0.054-1.27,0.292-2.643,0.292-3.787c0.014-1.204,0.004-2.725-0.331-3.158c-0.026,0.517-0.001,1.284-0.113,1.382
				c0.011-0.574-0.22-0.219-0.227-0.721c-0.006-0.803,0.243-0.363,0.268-1.014c-0.188-0.134-0.157-1.096-0.292-1.426
				c-0.116,0.962-0.135,1.796-0.064,2.781C38.904,77.9,38.759,81.889,39.239,81.218z"/>
			<path id="Shape_35_" fill="#9B9B9B" d="M39.267,69.698l0.196,0.006c0.129,0.003,0.256,0.006,0.379,0.009
				c0.484,0.006,0.863-0.02,0.869-0.166c-0.394,0.096-0.914,0.046-1.396,0.015c-0.06-0.004-0.119-0.007-0.177-0.01
				c-0.012,0.002-0.034-0.008-0.037,0.004l-0.004,0.042l-0.008,0.083c-0.009,0.108-0.015,0.216-0.014,0.323
				c0.002,0.213,0.03,0.42,0.104,0.617c0.003-0.228,0.022-0.487,0.045-0.75l0.009-0.099l0.004-0.05c0.001-0.008,0-0.018,0.003-0.023
				L39.267,69.698L39.267,69.698z"/>
			<path id="Shape_36_" fill="#9B9B9B" d="M44.082,90.393c-0.18,0.097-0.391,0.184-0.727,0.24c-0.064-0.009-0.129-0.018-0.194-0.025
				c-0.046-0.01-0.072-0.019-0.108-0.027c-0.066-0.02-0.128-0.038-0.179-0.062c-0.103-0.048-0.159-0.111-0.127-0.213
				c0.213-0.008,0.408-0.021,0.353-0.158c-0.704-0.006-1.311,0.045-1.497,0.393c0.755,0.025,1.194-0.196,1.065,0.251
				c0.427,0.069,1.14,0.021,1.491-0.049c0.399-0.07,0.706-0.162,1.324-0.181c0.046,0.229-1.407,0.197-0.028,0.323
				c0.917-0.146,0.229-0.2,1.092-0.399C45.396,90.525,44.908,90.422,44.082,90.393z"/>
			<path id="Shape_37_" fill="#9B9B9B" d="M90.418,94.152c0.529-1.752,0.766-2.844,1.387-4.781c-0.58,0.004-1.219-0.002-1.959-0.025
				c0.107-0.082,0.604-0.096,0.807-0.16c-2.094-0.092-1.932,0.196-3.715,0.153c-1.836-0.081-3.886-0.144-5.914-0.168
				c-1.016-0.013-2.022-0.016-2.992-0.007c-0.484,0.008-0.959,0.016-1.422,0.023c-0.114,0.002-0.229,0.006-0.344,0.008l-0.261,0.01
				c-0.134,0.008-0.265,0.016-0.394,0.023c0.238,0,0.379,0.004,0.574,0.012c0.234,0.008,0.405,0.02,0.528,0.033
				c0.244,0.031,0.293,0.071,0.271,0.117c-0.047,0.09-0.369,0.192-0.029,0.246c0.225,0.034,0.881,0.051,1.111,0.083
				c1.297,0.192,2.043-0.006,2.815,0.009c0.325,0.006,0.198,0.107,1.075,0.084c0.973-0.027,1.646-0.164,2.371-0.156
				c0.059,0.001-0.199,0.152-0.141,0.162c0.608,0.104,2.877-0.072,3.342,0.009c0.39-0.044,2.123-0.325,2.34-0.075
				c-0.379,0.166-2.502,0.014-2.527,0.236c0.977,0.094,2.658-0.027,3.903-0.213c-0.046,0.396-0.038,0.66,0.04,0.714
				c-0.307,0.663-0.918,2.083-1.441,3.45c-0.525,1.377-0.969,2.723-1.012,3.463C89.438,95.879,90.217,93.484,90.418,94.152z
				 M80.762,89.602c-0.787-0.045-1.889-0.153-3.197-0.123c0.193-0.252,2.949-0.131,4.711-0.149
				C82.059,89.624,81.553,89.646,80.762,89.602z"/>
			<path id="Shape_38_" fill="#9B9B9B" d="M113.879,11.455c-0.127-0.064-0.246-0.125-0.361-0.183
				c-0.233-0.111-0.449-0.214-0.664-0.317c-0.429-0.201-0.848-0.401-1.362-0.689c-0.832-0.445-1.729-0.992-2.712-1.503
				c-0.491-0.253-0.991-0.51-1.485-0.764c-0.247-0.124-0.494-0.261-0.733-0.37c-0.242-0.104-0.48-0.207-0.715-0.309
				c-0.47-0.199-0.922-0.391-1.345-0.571c-0.106-0.044-0.211-0.088-0.312-0.131c-0.102-0.041-0.215-0.09-0.271-0.106
				c-0.139-0.046-0.271-0.09-0.398-0.131c-0.506-0.163-0.902-0.266-1.131-0.279c-0.602-0.333-1.084-0.474-1.576-0.617
				c-0.492-0.13-0.989-0.261-1.647-0.435c-1.455-0.438-3.138-0.997-3.911-1.179c-0.293-0.061-0.945-0.045-1.145-0.116
				c-1.493-0.543-1.067-0.917-0.071-0.935c-1.021-0.368-1.933-0.248-2.203-0.542c1.04,0.24,0.576-0.255,1.94,0.143
				c0.07-0.179-0.562-0.383-0.215-0.552c-0.705-0.108-1.388-0.261-2.065-0.425c-0.677-0.172-1.373-0.272-2.065-0.396
				c-1.207-0.188-2.146-0.221-3.457-0.347c-1.025-0.064-2.13-0.172-3.144-0.278c-0.509-0.048-0.99-0.115-1.435-0.14
				c-0.442-0.015-0.842-0.027-1.172-0.038c-1.58-0.023-3.47-0.188-5.002-0.024c-0.266,0.023-0.734,0.158-1.158,0.186
				c-0.598,0.047-1.562-0.001-2.301,0.046c-1.088,0.1-2.025,0.344-3.07,0.379c-0.021,0.385-2.541,0.556-4.19,0.83
				c-0.418,0.143-0.946,0.299-1.56,0.454c-0.609,0.161-1.311,0.283-2.041,0.482C59.426,2.951,57.781,3.406,56.277,4
				c-0.028,0.098-0.016,0.149-0.321,0.292c-0.367,0.172-0.869,0.386-1.437,0.618c-0.562,0.248-1.187,0.522-1.808,0.796
				c-0.629,0.257-1.231,0.562-1.779,0.805c-0.548,0.241-1.026,0.452-1.371,0.604c0.681-0.561-0.26-0.122-0.188-0.45
				c-0.791,0.416-1.544,0.767-2.308,1.194c-0.379,0.22-0.767,0.446-1.178,0.685c-0.411,0.24-0.836,0.505-1.277,0.819
				c0.552-0.053-0.982,0.791-1.221,1.008c-0.229,0.211,0.092,0.263-0.509,0.66c-0.789,0.43,0.48-0.669-0.752,0.25
				c-0.799,0.609,0.503-0.196,0.169,0.277c-1.06,0.599-1.102,1.198-1.496,1.234c1.107-1.075-0.508,0.148,0.079-0.581
				c-0.357,0.306-1.235,0.972-1.914,1.536c-0.672,0.589-1.153,1.034-0.748,0.775c0.452-0.382,1.079-0.994,1.24-0.965
				c-0.891,0.706-1.204,1.132-1.734,1.619c-0.121,0.08-1.23,1.289-1.374,1.42c-0.181,0.158-0.331,0.089-0.666,0.43
				c-0.17,0.173-0.221,0.433-0.708,0.973c-0.457,0.5-0.862,0.767-1.378,1.389c-1.001,1.61-2.945,4.233-4.044,5.731
				c0.042,0.109,0.217,0.087-0.024,0.47c-0.13,0.175-0.275,0.378-0.431,0.604c-0.15,0.229-0.303,0.486-0.469,0.759
				c-0.327,0.548-0.699,1.166-1.066,1.826c-0.349,0.669-0.716,1.371-1.081,2.071c-0.362,0.7-0.678,1.413-1.007,2.071
				c-0.308,0.634-0.468,0.712-0.719,1.324c-0.145,0.348-0.135,0.59-0.47,1.455c-0.043,0.117-0.405,0.793-0.587,1.382
				c-0.724,2.217,0.57-1.502,0.498-0.582c-0.429,1.225-0.68,1.491-0.915,1.626c-0.201,0.558-0.357,0.849-0.513,1.155
				c-0.146,0.31-0.295,0.635-0.483,1.259c-0.165,0.465,0.016,0.379-0.103,0.769c-0.201,0.551-0.292,0.191-0.519,0.99
				c-0.006,1.082-0.835,2.518-1.153,4.317c-0.283,0.366-0.538,0.281-0.86,1.261c0.116,0.077,0.267,0.045,0.043,0.796
				c-0.395-0.312-0.481-0.275-0.553-1.373c-0.095,0.346-0.192,0.661-0.262,0.955c-0.069,0.271-0.134,0.52-0.194,0.754
				c-0.028,0.084-0.053,0.159-0.078,0.231c-0.05,0.15-0.074,0.261-0.095,0.484c0.123,0.137,0.214,0.275,0.234,0.424
				c-0.036-0.041-0.066-0.061-0.089-0.066c-0.013-0.004-0.021,0.001-0.035,0c-0.02-0.009-0.04-0.016-0.059-0.021
				c-0.078-0.021-0.155-0.019-0.234-0.015c0.085,0.248,0.297,0.16,0.408,0.408c-0.207-0.077-0.379-0.156-0.475-0.409
				c-0.246-0.076,0.028,0.265-0.188,0.237c-0.147,0.021-0.303,0.038-0.463,0.051c-0.813,0.014-1.628,0.027-2.443,0.041
				c-2.484,0.031-4.961,0.076-7.334,0.179c-0.328,1.052-0.644,2.102-0.94,3.141c-0.171,0.191-0.358,0.451-0.6,0.946
				c-0.418,1.247-0.844,2.516-1.277,3.807c-0.498,1.455-1.005,2.933-1.519,4.433c-1.034,2.968-2.098,6.023-3.187,9.152
				c3.451-0.012,7.048-0.026,10.681-0.04c0.721-0.078,1.46-0.157,2.213-0.237c0.381,0.067,0.657,0.102,0.886,0.114
				c0.121,0.013,0.207,0.004,0.31-0.012c0.203-0.033,0.449-0.1,1.011-0.095c0.49,0.004,0.577,0.14,1,0.163
				c0.002-0.193,0.11-0.097,0.19-0.104c0.098,0.012,0.216,0.024,0.399,0.032c0.018,0.001,0.043,0.006,0.072,0.013
				c0.005,0.007,0.149,0.016-0.099,0.025c-0.316,0.018-0.569,0.036-0.516,0.038c-0.017,0-0.03-0.002-0.046-0.003
				c0,0.024,0,0.052,0.004,0.086c0.237-0.146,0.238,0.097,0.183,0.354c-0.056,0.26-0.169,0.52-0.169,0.54
				c0,0,0.153,0.032,0.158,0.051c0.044,0.169-0.069,0.466-0.12,0.529c-0.12,0.154-0.128,0.276-0.11,0.414
				c0.011,0.069,0.023,0.14,0.035,0.214l0.008,0.057l0.002,0.032l0.002,0.085c0.002,0.114,0.002,0.23-0.001,0.347
				c-0.021,0.68-0.062,1.863-0.062,2.53c0,1.512-0.07,3.088-0.096,3.975c-0.003,0.114,0.086,0.26,0.065,0.729
				c-0.012,0.288-0.085,0.505-0.078,0.718c0.066,1.363,0.334,2.438,0.291,3.639c-0.126,0.026-0.281-0.064-0.233,0.711
				c-0.036,0.457,0.218,0.156,0.245,0.354c-0.036,0.062-0.09,0.245-0.118,0.406c-0.027,0.166-0.023,0.33,0.07,0.438
				c0-0.188-0.028-0.431,0.15-0.311c0.109,0.536-0.19,0.274-0.135,0.678c0.223,0.222,0.204,0.5,0.165,0.747l-0.028,0.186
				c-0.027,0.01-0.062-0.017-0.083-0.015c-0.045-0.006-0.062,0.013-0.035,0.082c0.023,0,0.105,0.067,0.06,0.08
				c-0.099-0.108-0.17-0.156-0.269-0.324c-0.043,0.045-0.197-0.108-0.17,0.07c0.091-0.036,0.132,0.09,0.083,0.19
				c-0.025,0.051-0.077,0.097-0.128,0.111c-0.017,0.004-0.015,0.006-0.047,0.006c-0.079,0-0.151-0.003-0.217-0.008
				c-0.131-0.01-0.232-0.029-0.285-0.062c0.008-0.067,0.253-0.078,0.508-0.086c0.04-0.009,0.064-0.015,0.063-0.071l-0.036,0.018
				l-0.019,0.009c-0.003,0.002,0,0.002-0.008,0.002l-0.042,0.004l-0.083,0.004c-0.222,0.012-0.438,0.022-0.648,0.033
				c-0.423,0.021-0.83,0.039-1.243,0.049c-0.81,0.011-1.716,0.014-2.638,0.006c-0.933-0.01-1.929-0.028-3.052-0.064
				C8.31,89.523,8.416,89.6,8.294,89.65C8.29,89.749,8.26,89.895,8.178,90.13c-0.222,0.256-0.397,0.812-0.595,1.478
				c-0.2,0.672-0.421,1.449-0.763,2.227c-0.072-0.105,0.162-0.768,0.006-0.723c-0.423,1.609-0.67,1.998-0.914,2.348
				c-0.121,0.172-0.238,0.328-0.37,0.604c-0.136,0.287-0.265,0.636-0.485,1.402c-0.023,0.442,0.178-0.061,0.376-0.556
				c0.178-0.442,0.349-0.862,0.343-0.466c-0.257,0.701-0.058,0.57-0.274,1.219c-0.282,0.621-0.848,2.508-1.104,3.01
				c-0.051,0.102-0.123-0.122-0.169-0.011c-0.67,1.681-1.262,3.552-2.25,6.14c0.03,0.102,0.198-0.076-0.014,0.51
				c-0.234,0.611-0.472,1.232-0.719,1.879c2.612,0.026,5.5-0.024,8.476,0.074c0.163-0.096,0.081-0.229,0.748-0.242
				c1.998,0.056,1.798-0.241,3.466-0.232c0.361-0.143-0.454-0.479,0.709-0.484c0.774,0.018,1.958-0.022,2.072,0.088
				c-0.947,0.061-1.274,0.109-1.382,0.18c-0.118,0.07-0.047,0.16-0.322,0.301c0.535-0.021,1.093-0.043,1.643-0.062
				c0.194-0.012,0.384-0.022,0.42-0.033c0.074-0.01,0.147-0.02,0.217-0.027c0.283-0.03,0.53-0.03,0.624,0.059
				c-0.193,0.142-0.514,0.231-0.274,0.401c0.21-0.052,0.49-0.076,0.753-0.073c0.131,0.002,0.259,0.01,0.371,0.025
				c0.056,0.008,0.108,0.018,0.155,0.027l0.066,0.018c0.012,0.018,0.002,0.062,0.003,0.093c0.22,0.067,0.303-0.534,0.495,0.035
				c-0.19,0.131-0.085,0.498-0.139,0.644c-0.044,0.109-0.226-0.179-0.122,0.244c-0.032,0.571,0.267-0.06,0.298,0.321
				c0.038,0.176,0.055,0.34,0.059,0.492c0.008,0.166-0.024,0.221,0.033,0.604c0.072,0.609,0.131,1.182,0.281,1.842
				c0.222,0.98,0.622,1.778,0.887,3.158c0.306,0.452,0.084-0.964,0.321-0.057c0.316,1.354-0.246,0.316-0.458,0.454
				c0.188,0.665,0.279,0.739,0.263,0.327c0.226,0.593,0.41,0.535,0.627,1.001c0.178,0.696,0.311,0.678,0.467,1.024
				c0.111,1.16,0.521,2.211,0.991,3.918c0.272,0.662,0.403,0.194,0.734,1.326c0.585,1.28,0.026,0.729,0.47,1.782
				c1.188,2.198,1.286,4.095,2.445,5.864c-0.08-0.436-0.43-1.41,0.034-0.82c-0.013,0.291,0.266,1.001,0.647,1.792
				c0.383,0.79,0.926,1.636,1.341,2.237c-0.096,0.141-0.371-0.291-0.479-0.188c0.175,0.687,1.775,3.268,1.584,2.59
				c-0.295-0.424-0.489-0.562-0.879-1.252c0.182,0.004-0.065-0.442,0.09-0.468c0.201,0.322,0.296,0.353,0.473,0.604
				c0.543,0.851,0.188,0.828,0.813,1.707c0.426,0.336,0.187-0.14-0.183-0.809c-0.353-0.679-0.846-1.55-1.01-1.968
				c0.825,1.259,0.953,1.854,1.977,3.199c-0.266-0.123-0.085,0.315,0.208,0.815c0.299,0.498,0.74,1.037,0.918,1.15l-0.688-0.91
				c0.692,0.648-0.087-0.689,0.802,0.391c-0.104,0.057,0.448,0.806,0.777,1.295c1.08,1.463,0.709,0.801,1.521,1.701
				c-0.092,0.131-0.053,0.351,0.255,0.765c0.355,0.172,0.7,0.362,1.503,1.259c-0.186,0.157,0.234,0.704,0.798,1.345
				c0.051-0.403-0.615-1.248-0.815-1.825c0.262,0.279,0.372,0.278,0.602,0.487c0.29,0.4,0.355,0.657,0.587,1.021
				c0.224,0.373,0.643,0.824,1.646,1.595c-0.152,0.021-0.577-0.322-0.758-0.339c0.39,0.32,0.762,0.656,1.114,0.982
				c0.367,0.309,0.717,0.604,1.034,0.868c0.321,0.265,0.616,0.492,0.881,0.658c0.273,0.153,0.513,0.248,0.713,0.259
				c-0.472-0.328-0.974-0.645-1.372-0.933c-0.4-0.285-0.696-0.535-0.727-0.757c0.597,0.423,1.759,1.511,1.626,1.062
				c0.083-0.104-0.81-0.688-0.799-0.827c0.194,0.021,0.499,0.181,1.013,0.581c1.13,0.867-0.167,0.229,0.363,0.747
				c0.534,0.372,1.165,0.835,1.773,1.193c0.6,0.37,1.131,0.716,1.399,0.965c0.398,0.067-0.819-0.822,0.187-0.265
				c0.393,0.541,0.868,0.496,2.003,1.102c0.258,0.376-1.746-0.593-0.174,0.273c1.581,0.771,0.668-0.072,1.279,0.095
				c-0.593-0.317-1.384-0.747-1.597-1.005c0.255,0.066,0.731,0.318,1.214,0.545c0.481,0.232,0.947,0.488,1.146,0.646
				c-1.319-0.289,0.67,0.774,0.723,1.045c-0.502-0.209-1.336-0.608-0.741-0.246c1.082,0.543,0.921,0.129,2.21,0.764
				c-0.181,0.128,0.298,0.428,0.993,0.675c0.695,0.249,1.564,0.56,2.161,0.772c0.354-0.027,1.25,0.112,2.22,0.326
				c0.976,0.17,2.029,0.403,2.701,0.644c0.111,0.294-1.729-0.317-1.939-0.177c0.639,0.16,1.167,0.27,1.648,0.354
				c0.48,0.08,0.919,0.112,1.375,0.168c-0.309-0.194-0.027-0.414-0.624-0.598c-0.017,0.05-0.282,0.034-0.55-0.017
				c-0.268-0.061-0.537-0.146-0.564-0.205c0.852-0.307,1.643,0.407,2.565,0.629c0.88,0.205,0.856-0.039,1.888,0.174
				c-0.104,0.091-0.617,0.094,0.344,0.201c0.316-0.211-0.326-0.334-0.279-0.521c0.513,0.063,0.822,0.058,1.131,0.05
				c0.624,0.127,0.568,0.295,1.061,0.415c0.518-0.131,1.266-0.177,2.277-0.177c0.835,0.182,0.415-0.01,1.12-0.053
				c0.228,0.047,0.549,0.086,0.924,0.119c0.188,0.013,0.388,0.026,0.593,0.041c0.211,0,0.426,0.002,0.643,0.002
				c0.869-0.006,1.759-0.043,2.302-0.109c-0.177,0.023-0.444-0.062,0.004-0.081c0.792,0.161,1.991,0.017,3.354-0.192
				c-0.019,0.105-0.476,0.172-0.367,0.289c1.182-0.106,1.312-0.311,2.609-0.412c-0.072,0.17,0.434,0.114,0.396,0.265
				c1.176-0.173,0.817-0.398,2.213-0.564c1.046-0.19,0.512,0.287,1.89-0.092c0.438-0.312-0.227-0.207,0.317-0.408
				c0.666-0.13,2.075-0.774,2.545-0.688c0.489,0.299-1.713,1.092-0.935,1.115c1.125-0.363,1.862-0.52,2.468-0.609
				c0.596-0.116,1.062-0.154,1.646-0.264c1.246-0.453,2.025-0.726,2.896-1.023c0.061-0.094-0.039-0.157,0.305-0.301
				c0.302-0.09,0.597-0.186,0.894-0.322c0.297-0.141,0.59-0.296,0.883-0.457c0.584-0.32,1.164-0.658,1.757-0.965
				c0.812-0.479,1.683-0.848,2.452-1.321c0.705-0.47,1.232-1.012,1.91-1.481c0.262-0.189,0.537-0.354,0.795-0.553
				c0.26-0.193,0.521-0.39,0.785-0.588c0.524-0.398,1.082-0.791,1.61-1.265c0.479-0.456,0.959-0.925,1.433-1.396l0.353-0.353
				l0.175-0.176c0.061-0.062,0.146-0.175,0.219-0.259c0.301-0.36,0.6-0.721,0.895-1.076c0.585-0.713,1.175-1.395,1.712-2.068
				c0.483-0.707,0.955-1.383,1.408-2.018c0.43-0.6,0.526-0.598,1.061-1.362c0.509-0.771,0.859-1.416,1.222-2.017
				c0.18-0.301,0.363-0.592,0.574-0.887c0.104-0.146,0.217-0.295,0.34-0.447c0.063-0.075,0.127-0.151,0.19-0.229
				c0.022-0.038,0.093-0.081,0.078-0.115l-0.093-0.1c-1.187-0.741-2.389-1.646-3.663-2.647c-1.271-1-2.619-2.104-3.983-3.148
				c-2.486-1.809-5.507-4.002-8.513-6.188c-0.056-0.037-0.112-0.084-0.164-0.115l-0.133-0.049c-0.089-0.033-0.181-0.066-0.273-0.102
				c-0.729,1.094-1.501,2.253-2.303,3.457c-0.204,0.303-0.41,0.607-0.617,0.915c-0.215,0.289-0.43,0.579-0.647,0.871
				c-0.217,0.288-0.437,0.579-0.656,0.872c-0.223,0.289-0.434,0.595-0.701,0.841c-0.184,0.185-0.368,0.371-0.553,0.557l-0.289,0.265
				c-0.192,0.175-0.385,0.35-0.598,0.502c-0.42,0.309-0.795,0.633-1.188,0.89c-0.385,0.265-0.723,0.511-0.988,0.735
				c-0.281,0.211-0.49,0.399-0.593,0.566c-0.237,0.141-0.492,0.291-0.757,0.448c-0.276,0.144-0.564,0.292-0.861,0.444
				c-0.587,0.326-1.208,0.582-1.806,0.869c-0.295,0.15-0.601,0.27-0.894,0.392s-0.576,0.247-0.844,0.372
				c-0.544,0.23-1.04,0.431-1.428,0.652c-1.768,0.242-3.829,0.994-6.544,1.076c-0.458,0.207-1.212,0.254-2.044,0.293
				c-0.852-0.014-1.797-0.082-2.607-0.248c-0.242-0.037-0.449-0.014-0.689,0.008c-0.237,0.013-0.512,0.029-0.883-0.002
				c0.049-0.002-0.541-0.133-0.899-0.203c-0.365-0.065-0.937-0.11-1.341-0.209c-0.403-0.096-0.655-0.194-0.413-0.288
				c1.231,0.101,2.479,0.588,3.629,0.489c-1.218-0.262-2.459-0.436-3.775-0.76c-1.317-0.312-2.743-0.699-4.266-1.393
				c-0.417-0.184-0.3,0.086-0.863-0.229c-0.112-0.213-0.419-0.375-0.753-0.55c-0.335-0.172-0.732-0.301-0.988-0.481
				c-1.36-0.824-2.763-1.951-3.949-3.129c-0.292-0.302-0.578-0.595-0.854-0.879c-0.266-0.298-0.522-0.584-0.767-0.855
				c-0.478-0.581-0.901-1.123-1.27-1.533c-0.174-0.197-0.362-0.449-0.53-0.678c-0.174-0.225-0.288-0.463-0.382-0.574
				c-0.321-0.421-0.797-0.574-1.23-1.462c-0.282-0.345-0.305,0.106-0.633-0.382c-0.608-0.903-0.763-1.512-1.139-1.943
				c0.178,0.348,0.339,0.68,0.159,0.633c-0.253-0.488-0.428-0.891-0.577-1.264c-0.149-0.373-0.231-0.745-0.363-1.134
				c-0.406-0.624-0.702-1.179-0.948-1.743c-0.131-0.277-0.228-0.571-0.31-0.882c-0.087-0.31-0.17-0.63-0.254-0.974
				c-0.107-0.004-0.218-0.037-0.385-0.568c-0.174-0.486,0.109-0.297-0.188-0.965c-0.127,0.13-0.257-0.131-0.339-0.455
				c-0.076-0.326-0.124-0.702-0.148-0.777c-0.019-0.059-0.404-0.795-0.447-0.914c-0.207-0.572-0.181-1.051-0.388-1.27
				c-0.241-0.271,0.024,1.006-0.317,0.072c-0.055-0.188-0.146-0.24-0.19-0.36c0.102-0.378,0.469,0.374,0.451-0.214
				c0.014,0.08,0.023,0.137,0.049,0.217c0.028,0.084,0.059,0.156,0.09,0.216c0.077,0.163,0.175,0.324,0.252,0.337
				c-0.138-0.342-0.197-0.581-0.208-0.732c-0.019-0.164-0.038-0.317-0.111-0.432c-0.066-0.104-0.14,0.047-0.199-0.137
				c-0.079-0.24-0.023-0.438-0.038-0.506c-0.049-0.223-0.204-0.477-0.229-0.684c-0.039-0.279-0.032-0.541-0.044-0.802
				c-0.001-0.127-0.027-0.271-0.031-0.396c0.15,0.004,0.286-0.006,0.402-0.032c-0.129,0.003-0.465-0.081-0.441-0.095
				c0.225-0.108,0.759,0.056,1.285,0.094c0.14,0.011,0.104-0.074,0.214-0.077c0.166-0.006,0.258,0.119,0.442,0.084
				c0.174-0.033,0.294-0.235,0.461-0.235c0.001,0,0.072,0.032,0.164,0.075c0.09,0.04,0.196,0.082,0.278,0.09
				c0.112,0.013,0.216,0.011,0.338,0.009c0.297-0.004,0.596-0.009,0.885,0c0.213,0,1.763,0.008,1.767,0.008
				c0.488,0.022,0.668,0.39,1.053,0.084c-0.195,0-0.396-0.066,0.006-0.08c0.95,0.197,2.277-0.148,3.172,0.094
				c-0.556,0.006-1.223-0.016-1.072,0.158c0.91-0.086,2.457-0.021,2.844-0.232c1.72,0.145,3.717,0.146,4.25-0.143
				c-0.078,0.175,0.27,0.258,1.039,0.246c1.836-0.17,5.022-0.016,7.422-0.051c-0.058,0.146,0.336,0.19,1.047,0.168
				c1.285-0.312-1.533-0.328-0.666-0.489c1.31,0.002,1.242,0.309,2.086,0.413c1.961-0.021,3.561-0.141,4.938,0.102
				c-0.212-0.301,1.229-0.197,1.819-0.316c1.174,0.177,5.032,0.191,6.321,0.099c-0.242,0.019-0.737-0.082-0.033-0.081
				c0.521,0.02,1.156,0.079,1.844,0.138c0.42-0.956,0.889-2.088,1.095-3.225c-0.214,0.585-0.534,1.192-0.305,0.405
				c0.337-0.782,0.688-1.67,1.019-2.567c0.164-0.449,0.323-0.899,0.471-1.34c0.072-0.222,0.146-0.439,0.215-0.652
				c0.07-0.227,0.14-0.448,0.205-0.663c0.57-1.888,0.85-3.289,0.521-3.424c-0.328,0.998-0.66,1.997-0.988,2.995
				c0.08,0.146,0.345-0.09,0.1,0.731c-0.083-0.43-0.4,0.455-0.749,1.509c-0.351,1.056-0.733,2.303-0.929,2.536
				c-0.127,0.023,0.117-0.668,0.365-1.364c0.246-0.696,0.494-1.397,0.359-1.347c-0.271,0.884-0.15-0.143,0.027-0.6
				c0.205-0.531,0.275-0.016,0.213,0.127c0.496-1.134,0.246-1.474,1.045-3.418c-0.102-0.201-0.419,0.756-0.62,1.102
				c0.925-3.207,1.058-2.092,1.771-4.071c0.307-1.293-0.463,0.772-0.074-0.547c0.58-1.353,1.217-2.925,1.65-4.738
				c-0.25,0.728-0.492,1.413-0.595,1.283c0.407-1.156,0.238-1.07,0.36-1.604c0.021-0.07,0.043-0.141,0.06-0.193
				c-2.317,0.027-2.674-0.193-4.922-0.18c-0.349,0.14,0.571,0.209-0.246,0.242c-2.135-0.046-2.634-0.318-5.088-0.339
				c-0.476,0.084-1.304,0.104-2.146,0.125c-0.422,0.013-0.849,0.022-1.234,0.034c-0.191,0.011-0.373,0.021-0.54,0.027
				c-0.163,0.013-0.224,0.026-0.321,0.045c0.203,0.006,0.396,0.011,0.576,0.017c0.216,0.008,0.416,0.019,0.594,0.031
				c0.355,0.026,0.627,0.065,0.782,0.118c-0.257,0.035-0.599,0.058-0.995,0.067c-0.197,0.005-0.41,0.009-0.633,0.011
				c-0.16,0-0.326,0.002-0.498,0.002c-0.648-0.004-1.363-0.021-1.963-0.014c-0.562,0.061-0.549,0.254-1.434,0.236
				c-0.068-0.152,0.412-0.176,0.379-0.322c-1.385,0.002-2.215,0.135-3.197,0.23c-1.033-0.129-2.912-0.041-4.25,0.144
				c-2.604-0.099-5.57-0.258-7.062-0.028c0.125-0.213-0.72-0.213-1.393-0.248c-1.098,0.226-2.085,0.035-3.552,0.229
				c1.42-0.312-1.882,0.013-1.386-0.329c1.236-0.269,2.671,0.095,3.878,0.097c0.57-0.336,2.218,0.092,2.844-0.23
				c-1.325,0.082-0.99-0.205-2.105-0.17c0.05,0.177-0.311,0.256-1.08,0.238c-0.008-0.148,1.832-0.268,0.739-0.402
				c-0.126,0.172-1.674,0.01-1.399-0.167c0.899-0.044,0.992-0.496,0.402-0.646c-1.539,0.053-2.858,0.014-3.889,0.064
				c-0.165,0.008,0.003,0.146-0.366,0.16c-0.284,0.01-1.594-0.182-1.419,0.074c0.739,0.176,2.26-0.141,2.814,0.174
				c-0.095,0.115-0.325,0.47-1.457,0.561c0.618,0.021,0.793,0.143,0.68,0.326c-0.355-0.001-0.425,0.064-0.713,0.078
				c-1.229,0.061-1.347-0.125-2.465-0.092c-0.302,0.334-1.746-0.117-1.785,0.235c0.85,0.224,2.426-0.077,3.538-0.064
				c-0.05,0.208-1.388,0.108-1.437,0.317c1.707,0.021,3.018-0.053,4.249-0.146c0.028,0.092-0.524,0.124-0.015,0.162
				c4.957-0.322,11.799,0.229,18.029-0.169c-0.355-0.002-0.435-0.145,0.014-0.161c0.342,0.137,1.628,0.063,1.744,0.25
				c0.938-0.302,2.316,0.065,3.549,0.096c1.016,0.019,1.865-0.065,2.992-0.071c0.826-0.004,1.608,0.088,2.426,0.088
				c2.391,0,4.932,0,7.791,0.002c-1.814,5.487-3.777,11.428-5.5,16.635c-4.844-0.026-9.098-0.049-12.779-0.068
				c-0.57,0.285,1.195,0.055,1.041,0.246c-1.398,0.049-2.691-0.422-3.531-0.014c1.028,0.08,1.303,0.127,1.75,0.17
				c-0.602,0.141-1.177-0.078-2.469-0.01c0.641-0.285-0.221-0.201-0.316-0.488c1.519-0.107,3.514-0.047,5.656-0.057
				c0.746,0.008,1.582,0.019,2.299,0.026c0.359-0.001,0.688-0.01,0.963-0.034c0.14-0.015,0.263-0.031,0.369-0.054
				c0.094-0.022,0.252-0.051,0.332-0.085c-0.408,0.003-0.968,0.008-1.608,0.014c-0.614-0.004-1.308-0.007-2.013-0.009
				c-1.412-0.015-2.871-0.049-3.854-0.116c-0.555,0.289-2.061,0.07-2.479,0.069c-4.578-0.002-9.628-0.054-13.08,0.108
				c0.134,0.043,1.706,0.127,0.693,0.164c-1.24,0.01-1.138-0.276-2.092-0.332c-0.911,0.192,0.732,0.177,0.314,0.486
				c-0.747-0.169-2.21-0.18-1.374-0.492c-1.044,0.01-2.475-0.244-2.833,0.07c1.018-0.013,1.793,0.027,2.108,0.17
				c-0.503,0.215-3.157,0.369-2.821-0.093c-1.127-0.075-0.748,0.208-1.432,0.237c-0.147-0.036-0.245-0.067-0.301-0.096
				c-0.048-0.029-0.05-0.053-0.042-0.074c0.006-0.041,0.185-0.071,0.396-0.097c0.432-0.05,1.088-0.077,1.393-0.133
				c-0.407-0.082-0.964-0.131-1.625-0.158c-0.13-0.004-0.265-0.01-0.404-0.015c-0.126-0.003-0.256-0.005-0.389-0.01
				c-0.266,0.003-0.546,0.003-0.836,0.005c-0.11,0.303,1.311,0.062,1.02,0.409c-0.787-0.096-1.29-0.047-1.694,0.037
				c-0.409,0.086-0.732,0.209-1.278,0.267c0.02-0.234-0.406-0.247-0.852-0.257c-0.44-0.01-0.896-0.018-0.962-0.237
				c0.483,0.072,0.846,0.041,1.228,0.019c0.377-0.021,0.774-0.033,1.214,0.078c-0.269,0.01-0.678-0.019-0.647,0.075
				c0.229-0.007,0.325,0.078,0.512,0.084c0.533,0.019,0.164-0.104,0.369-0.157c0.323-0.084,0.94-0.068,0.37-0.24
				c-0.324-0.239-0.285,0.186-0.938,0.076c-0.657-0.068-1.456-0.125-2.146-0.131c-0.172,0-0.336,0.002-0.489,0.008
				c-0.074,0.004-0.147,0.009-0.218,0.012c-0.016,0.004-0.039,0-0.047,0.008l0.016,0.059l0.034,0.117
				c0.092,0.309,0.199,0.592,0.322,0.828c-0.005-0.148-0.091-0.471-0.149-0.732c-0.007-0.032-0.014-0.064-0.02-0.096
				c-0.01-0.021,0.006-0.021,0.023-0.02l0.044,0.002c0.059,0.002,0.112,0.005,0.161,0.011c0.098,0.013,0.173,0.038,0.212,0.082
				c0.073,0.095,0.297,0.229,0.052,0.241c-0.054-0.072-0.14-0.124-0.252-0.161c-0.013-0.004-0.031-0.011-0.042-0.013
				c-0.003,0.006-0.006,0.013-0.009,0.02c-0.006,0.016-0.009,0.031-0.011,0.053c-0.004,0.041-0.003,0.094,0.002,0.155
				c0.021,0.248,0.107,0.638,0.176,0.987c-0.126-0.092-0.193-0.389-0.339-0.43c0.145,0.679,0.27,1.311,0.376,1.883
				c0.131,0.565,0.249,1.072,0.346,1.496c0.114,0.502,0.189,0.785,0.257,1.041c0.065,0.266,0.121,0.453,0.271,0.971
				c0.245,0.861,0.68,1.912,0.779,2.273c0.028,0.071,0.027,0.61,0.158,1.017c0.437,1.417,0.92,2.435,1.194,3.2
				c0.314,0.733,0.441,1.211,0.761,1.889c0.192,0.406,0.48,0.743,0.709,1.184c0.174,0.332,0.145,0.479,0.397,0.93
				c0.205,0.357,0.474,0.502,0.63,0.824c0.053,0.11,0.235,0.767,0.101,0.699c-0.732-1.195-0.949-1.945-1.504-2.303
				c-0.428-1.208-0.875-2.071-1.31-2.908c-0.397-0.854-0.749-1.693-1.053-2.788c-0.152-0.131-0.307-0.294-0.478-0.581
				c-0.026-0.664-0.365-1.896-0.807-3.209c-0.052-0.154-0.104-0.309-0.156-0.464c-0.049-0.142-0.1-0.284-0.135-0.417
				c-0.079-0.27-0.156-0.539-0.232-0.801c-0.151-0.525-0.291-1.025-0.386-1.438c-0.163-0.646-0.135-1.248-0.213-1.785
				c-0.069-0.453-0.157-0.91-0.253-1.367c-0.049-0.23-0.099-0.458-0.147-0.684l-0.038-0.17c0.033-0.018,0.103-0.007,0.152-0.012
				c0.108-0.004,0.215-0.006,0.321-0.009c0.847-0.021,1.657-0.034,2.377,0.042c0.342-0.049-0.159-0.312,0.358-0.322
				c1.18-0.033,1.332,0.244,2.566,0.176c0.233-0.068,0.129-0.147,0.118-0.211c-0.005-0.062,0.065-0.109,0.743-0.107
				c-0.316,0.257,0.282,0.308,0.676,0.406c1.547-0.063,1.57-0.012,2.83-0.068c1.689,0.378,3.36-0.028,5.651,0.022
				c0.063-0.095-0.043-0.229,0.372-0.241c-0.118,0.16,0.464,0.162,0.688,0.246c2.139,0.014,3.754-0.098,5.663-0.139
				c0.53,0.057,0.293,0.145,1.045,0.166c1.494,0.041,3.612-0.113,6.017-0.137c0.448-0.006,0.479,0.09,1.054,0.084
				c2.711-0.041,6.006-0.09,8.482-0.129c0.805-0.006,0.965,0.096,1.736,0.088c0.746-0.008,1.524-0.096,2.241-0.135
				c0.065-0.234,0.13-0.457,0.197-0.658c0.394-1.165,0.993-2.752,1.127-3.656c0.188-0.443,0.375-0.857,0.543-1.123
				c0.272-0.893,0.334-1.438,0.549-2.171c0.244-0.835,0.63-1.948,1.039-3.106c0.416-1.174,0.837-2.367,1.169-3.305
				c-0.017,0-0.029,0-0.042-0.001c-0.489-0.007-1.18,0.087-1.376,0.077c-0.372-0.02-0.203-0.153-1.072-0.166
				c-0.806-0.012-1.033,0.083-1.791,0.074c-0.186-0.002-0.824-0.1-1.642-0.086c-0.995,0.016-2.39,0.078-3.681,0.145
				c-1.189,0.062-2.322,0.121-2.99,0.156c-0.821-0.283-1.152,0.014-1.766-0.008c-0.141-0.006-0.543-0.141-1.047-0.166
				c-1.916-0.102-3.369,0.132-4.25,0.145c-0.565,0.008-1.123-0.089-1.76-0.089c-1.354,0.001-2.068,0.12-3.178-0.013
				c-0.977,0.043-1.492,0.195-2.492,0.232c0.207-0.049,0.857-0.382,0.033-0.404c-0.866,0.041-0.355,0.41-1.791,0.315
				c0.092-0.114,0.592-0.135,0.727-0.239c-3.169-0.06-5.149,0.1-7.771-0.031c-0.118,0.158,0.464,0.162,0.688,0.244
				c-1.399-0.184-2.766-0.115-4.591-0.019c-1.133-0.155-2.223-0.174-3.236-0.146c-0.501,0.014-1.001,0.037-1.446,0.062
				c-0.374,0.024-0.734,0.047-1.071,0.06c-1.157,0.039-2.786,0.045-4.269,0.031c-0.101-1.473-0.125-2.883-0.14-3.562
				c-0.027-1.045-0.144-1.811-0.16-3.07c-0.004-1.055-0.007-2.152-0.011-3.137c0.024-0.985,0.076-1.857,0.096-2.456
				c0.018-0.443-0.078-0.492-0.056-1.059c0.051-1.371,0.08-2.612,0.104-3.854l0.01-0.466c0.003-0.154,0.004-0.321,0.013-0.44
				c0.016-0.262,0.032-0.526,0.047-0.793c0.033-0.534,0.067-1.081,0.104-1.655c0.056-0.846,0.113-1.694,0.169-2.544l0.043-0.635
				l0.021-0.317l0.01-0.159l0.003-0.04c0.011-0.002,0.025,0,0.038-0.001l0.078,0.001l1.254,0.009
				c1.752,0.014,3.512,0.028,5.277,0.042c4.152,0.025,8.331,0.05,12.526,0.076c8.392,0.037,16.845,0.031,25.269-0.104
				c0.023-0.19-0.588-0.24-0.313-0.486c1.053,0.006,2.151,0.001,2.102,0.251c-1.213-0.067-1.692,0.038-1.438,0.317
				c1.313,0.092,1.021-0.196,2.131-0.152c0.232,0.121,0.839,0.159,1.568,0.17c0.793,0.002,1.719,0.005,2.502,0.008
				c0.062-0.095-0.08-0.23,0.404-0.241c1.032,0.078,1.956-0.052,2.485-0.135c0.532-0.084,0.729-0.12,0.426,0.145
				c0.528,0.065,1.076-0.122,1.504-0.087c0.013-0.033,0.025-0.06,0.039-0.083c0.027-0.047,0.095,0.236,0.116,0.175
				c0.343-0.98,0.77-2.333,1.22-3.817c0.457-1.535,0.953-3.197,1.425-4.775c0.477-1.616,1.094-3.706,1.582-5.363
				c-0.396,0.005-0.705,0.01-0.998,0.014c-0.648,0.011-1.312,0.138-1.851,0.156c-1.206,0.039-2.321,0.002-3.424-0.019
				c-1.099-0.021-2.177-0.026-3.166,0.076c0.438,0.208,2.021-0.067,1.989,0.088c0.267,0.245-0.953,0.141-1.666,0.156
				c-0.002,0.146-0.445,0.188-1.215,0.157c0.02,0.203,0.66,0.257-0.43,0.322c-1.25-0.021-2.723,0.018-2.82-0.254
				c0.928,0.087,1.742,0.092,2.363,0.024c0.645-0.068,1.15-0.208,1.352-0.414c-0.447-0.104-1.198-0.108-1.789-0.085
				c-0.631,0.023-1.307,0.072-1.893,0.071c-0.619,0-0.836-0.112-1.406-0.087c-0.68,0.032-1.166,0.22-1.785,0.235
				c-0.039,0-0.51-0.169-1.047-0.166c-0.912,0.005-1.021,0.249-2.125,0.072c0.332,0.053,1.451-0.015,1.418-0.076
				c-1.061-0.069-1.992,0.05-3.183,0.068c-2.11,0.033-5.026-0.139-5.317,0.221c0.924,0.227,1.244-0.054,2.127-0.072
				c-0.006,0.106,0.613,0.076,0.693,0.165c-1.035,0.182-0.685,0.355-0.045,0.566c-0.541,0.014-1.46-0.062-1.484,0.075h-1.08
				c-0.112-0.182-0.321-0.344-0.582-0.493c-0.666-0.021-0.784,0.088-1.42,0.075c0.062,0.191,0.406,0.321,0.899,0.418h-2.651
				c-0.021-0.074,0.103-0.166,0.328-0.262c-1.246-0.048-1.559,0.125-2.137,0.233c0.072-0.175-1.25-0.042-1.76-0.088
				c-0.069,0.054-0.057,0.09,0.002,0.116h-2.297c0.27-0.111,0.277-0.271-0.159-0.369c1.028,0.027,1.216-0.015,0.72-0.159
				c-0.179-0.235-0.562,0.122-1.066,0.076c0.078-0.176-0.269-0.258-1.041-0.246c0.017,0.141-0.098,0.251-0.377,0.322
				c0.527,0.016,1.306-0.023,1.406,0.086c-0.428,0.091-1.076,0.238-1.785,0.29h-0.969c-0.148-0.013-0.297-0.032-0.443-0.06
				c-0.017,0.021-0.025,0.041-0.031,0.06h-4.183c-0.02-0.023-0.029-0.049-0.024-0.078c0.275-0.017,0.698,0.001,0.713-0.078
				c-1.466,0.196-1.401-0.151-3.17-0.094c-0.096,0.138,0.123,0.206,0.458,0.249h-0.434c-0.014-0.001-0.028-0.005-0.043-0.007
				c-1.017-0.092-2.263-0.059-3.167-0.175c-0.374,0.243,0.775,0.147,1.401,0.169c-0.005,0.005-0.003,0.008-0.007,0.013h-4.258
				c-0.039-0.26,0.434-0.388,0.872-0.514c-0.774,0.023-1.745-0.008-2.641-0.021c-0.899-0.014-1.731-0.01-2.324,0.081
				c0.329,0.002,0.276,0.143-0.168,0.161c-1.409,0.113,0.328-0.361-1.044-0.248c-0.321,0.129-0.483,0.228-0.744,0.315
				c-0.13,0.044-0.286,0.084-0.502,0.125c-0.024,0.002-0.062,0.016-0.077,0.01l-0.005-0.055c-0.002-0.04-0.003-0.082-0.005-0.128
				c-0.001-0.066,0-0.145,0.003-0.231c0.754-3.698,1.679-7.121,2.784-10.258c-0.04,0.211-0.059,0.395,0.083,0.331
				c0.072-0.224,0.159-0.442,0.239-0.662c0.041,0.019,0.185-0.23,0.124-0.33c-0.163,0.308-0.253,0.343-0.285,0.222
				c0.146-0.404,0.292-0.807,0.444-1.202c0.007,0.189-0.024,0.433,0.16,0.355c0.349-1.022,0.215-0.93,0.129-1.086
				c0.475-1.187,0.975-2.332,1.503-3.43c0,0.101,0.005,0.188,0.025,0.243c0.306-0.57,0.371-0.851,0.388-1.076
				c0.119-0.235,0.235-0.474,0.357-0.705c0.193-0.191,0.462-0.643,0.694-1.112c0.133-0.269,0.26-0.539,0.354-0.768
				c0.135-0.23,0.272-0.458,0.41-0.683c-0.138,0.268-0.239,0.449,0.094-0.021c0.025-0.446,1.017-1.247,1.09-1.816
				c0.136-0.197,0.275-0.388,0.413-0.581v0.002c0.001-0.003,0.004-0.006,0.005-0.009c0.59-0.826,1.2-1.622,1.835-2.376
				c0.134-0.145,0.257-0.284,0.368-0.417c6.546-7.513,15.441-11.279,26.699-11.279c5.726,0,10.938,0.75,15.64,2.247
				c3.666,1.169,6.846,2.587,9.559,4.25c-0.477-0.293-0.772-0.431-0.506-0.209c0.631,0.335,1.169,0.749,1.604,1.09
				c0.436,0.348,0.787,0.599,1.086,0.599c-0.358-0.227-1.154-0.848-1.836-1.259c-0.047-0.031-0.09-0.058-0.137-0.087
				c0.689,0.43,1.355,0.871,1.982,1.333l4.293-12.661c-0.598-0.381-1.234-0.753-1.91-1.118c-0.188-0.318-0.438-0.657-0.098-0.819
				l1.349,0.742l1.317,0.798c0.022,0.028,0.048,0.057,0.072,0.087c0.01,0.037-0.047,0.098-0.066,0.148
				c-0.055,0.106-0.113,0.218-0.176,0.337c-0.117,0.236-0.236,0.491-0.355,0.761c-0.238,0.539-0.48,1.134-0.723,1.734
				c-0.482,1.197-0.963,2.42-1.383,3.166c0.069,0.09,0.231,0.033,0.108,0.429c-0.397,1.038-0.271,1.236-0.729,2.368
				c0.088,0.504,0.072,0.814-0.084,1.495c-0.068,0.296-0.241,0.406-0.305,0.635c-0.143,0.523,0.258,0.103,0.258,0.494
				c0,0.08-0.217,0.564-0.229,0.667c-0.051,0.465,0.172,0.335,0.068,0.795c0.147-0.404,0.293-0.78,0.379-0.603
				c-0.158,0.915,0.117,0.281,0.029,1.16c0.185-0.494,0.396-1.242,0.532-1.302c-0.142,0.428-0.062,0.503-0.27,1.033
				c0.346,0,1.221-2.032,1.165-0.65c0.412-0.943,0.675-1.625,0.718-0.84c0.722-1.594,1.265-1.549,2.008-3.35
				c0.269-0.059,0.64-1.081,0.867-0.777c0.489-1.443,1.006-2.961,1.53-4.505c0.541-1.611,1.074-3.277,1.494-4.868
				c0.02-0.071,0.035-0.14,0.054-0.207c0.006-0.032,0.021-0.067,0.021-0.096L113.879,11.455z M54.765,89.305l-0.039,0.484
				c-1.164-0.007-1.331-0.234-1.375-0.491L54.765,89.305z M52.602,89.861c1.756-0.07,1.746,0.25,2.081,0.494l-1.061-0.004
				C54.252,89.975,51.973,90.239,52.602,89.861z M80.395,90.619c-0.15-0.128-1.605-0.074-0.893-0.328
				c2.832-0.137,1.469,0.297,2.961,0.333C82.729,90.758,79.963,90.748,80.395,90.619z M84.954,109.191
				c-1.05,0.004-2.591-0.061-3.403-0.023c-0.336-0.251,1.706-0.161,3.283-0.143c0.139-0.402,0.262-0.776,0.346-1.076
				C85.318,107.949,85.188,108.473,84.954,109.191z M82.184,107.958c-0.113,0.21-1.494,0.229-2.455,0.315l-0.065-0.404
				C80.85,107.84,80.785,108.021,82.184,107.958z M79.262,108.758c1.391,0.062,3.898-0.044,5.381,0.006
				c0.211-0.576,0.383-0.938,0.478-0.895c-0.149,0.412-0.288,0.785-0.377,1.029c-2.909-0.064-3.804,0.084-7.124,0.099
				C77.459,108.811,79.213,108.91,79.262,108.758z M75.271,108.826c0.209-0.033,0.446-0.059,0.736-0.072
				c0.145-0.008,0.303-0.011,0.475-0.011c0.186,0.003,0.388,0.007,0.608,0.01c-0.036,0.005-0.079,0.011-0.129,0.017
				c-0.032,0.008-0.067,0.014-0.106,0.021c-0.076,0.016-0.164,0.029-0.256,0.047c-0.185,0.034-0.386,0.073-0.547,0.111
				c-0.328,0.078-0.507,0.156-0.102,0.203C75.619,109.369,74.977,109.008,75.271,108.826z M65.743,108.705
				c0.38,0.154,0.86,0.288,1.022,0.49C65.199,109.303,65.83,108.926,65.743,108.705z M66.893,107.577
				c0.092,0.353-2.113,0.183-3.197,0.229c-0.646,0.027-0.469,0.195-1.065,0.075C63.021,107.537,65.546,107.697,66.893,107.577z
				 M62.547,108.936c0.602,0.006,0.918-0.057,1.072-0.158c0.613,0.076,1.216,0.156,1.025,0.408c-0.705-0.028-1.104,0.014-1.07,0.158
				C62.961,109.268,62.357,109.188,62.547,108.936z M50.194,108.803c-0.691,0.199-1.525-0.105-2.478,0.07
				C47.741,108.639,49.727,108.691,50.194,108.803z M41.08,108.949c0.132,0.188,0.377,0.697,0.516,1.107
				c0.131,0.413,0.204,0.752-0.058,0.721c-0.227-0.372-0.065-1.354-0.381-0.969C40.827,109.443,41.051,109.043,41.08,108.949z
				 M41.581,111.639c-0.165-0.279-0.299-0.836-0.426-1.404c0.234,0.33,0.36,1.236,0.667,1.019
				C41.834,111.525,41.734,111.626,41.581,111.639z M95.874,58.082c-0.192,0.439-0.304,0.659-0.362,0.735l0.209-0.69
				C95.744,58.158,95.791,58.149,95.874,58.082z M87.852,67.401c-0.873,0.008-1.705,0.006-2.113-0.089
				c0.093-0.08,1.479-0.186,0.886-0.226h0.53C86.764,67.329,88.301,67.146,87.852,67.401z M75.111,67.672
				c-0.492,0.206-1.215-0.2-2.104-0.17C73.438,67.171,74.672,67.537,75.111,67.672z M36.311,81.674
				c-0.136-0.575,0.095-2.659,0.164-3.515C36.693,79.142,36.393,80.871,36.311,81.674z M36.408,73.198
				c-0.009,0.196-0.024,0.354-0.044,0.491c0.011-0.246,0.021-0.493,0.033-0.738C36.4,73.034,36.404,73.117,36.408,73.198z
				 M36.836,71.609c0.17,0.13-0.059,1.434-0.052,2.042C36.566,73.597,36.701,71.979,36.836,71.609z M37.128,81.388
				c-0.317,0.252-0.271-1.71,0.033-1.402C37.131,80.943,37.28,80.703,37.128,81.388z M59.02,67.086
				c-0.554,0.102-0.472,0.086-0.817,0H59.02z M89.52,67.086c-0.028,0.019-0.096,0.044-0.221,0.079
				c-0.494-0.001-0.771-0.049-1.129-0.079H89.52z M90.003,1.809c0.067,0.203-0.146,0.29-0.483,0.324
				c-1.258-0.195-0.528-0.45-0.992-0.67C89.201,1.573,89.291,1.7,90.003,1.809z M78.674,0.265c0.676,0.099,0.947,0.263,2.28,0.253
				c0.042,0.179-0.351,0.243-1.181,0.195c0.193,0.072,0.381,0.147,0.35,0.257c-1.53-0.05-0.982-0.247-0.711-0.434
				C79.174,0.445,78.541,0.419,78.674,0.265z M73.281,0.773c0.807,0.079,1.398,0.019,1.976-0.078
				c0.576-0.093,1.136-0.248,1.858-0.246c0.24,0.129-0.012,0.203-0.439,0.274C76.25,0.799,75.648,0.85,75.18,0.869
				C74.507,0.876,72.932,1.024,73.281,0.773z M70.287,1.231c0.461-0.159,1.355-0.346,2.23-0.336
				c-0.002,0.149-0.338,0.245-0.74,0.331c-0.404,0.088-0.879,0.19-1.162,0.302C69.791,1.54,69.825,1.393,70.287,1.231z
				 M31.497,30.24l0.267,0.185c-0.467,0.811-0.664,0.952-0.801,0.742C31.13,30.852,31.307,30.543,31.497,30.24z M20.688,55.222
				c0.497,0.047,0.874,0.129,1.133,0.247c-0.288,0.034-0.438,0.099-0.504,0.182H20.68c0.09-0.026,0.247-0.037,0.526-0.022
				C21.371,55.448,19.527,55.364,20.688,55.222z M18.577,55.6c0.41-0.061,0.798-0.067,1.104,0.05h-1.396
				C18.382,55.632,18.481,55.614,18.577,55.6z M14.839,55.521c0.242,0.039,0.443,0.084,0.644,0.13h-1.027
				C14.509,55.591,14.59,55.537,14.839,55.521z M12.775,55.65h-0.99c0.146-0.076,0.203-0.171,0.492-0.221
				C12.452,55.501,12.601,55.58,12.775,55.65z M10.127,58.595c0.273-0.498-0.459,1.8-0.838,2.792
				C8.938,62.029,9.948,59.285,10.127,58.595z M7.415,64.827c0.252-0.514,0.527-0.948,0.641-0.988
				C7.639,65.2,7.352,65.206,6.959,66.16C6.938,65.923,7.164,65.339,7.415,64.827z M16.832,67.778
				c-0.234-0.018-0.481-0.038-0.729-0.058c-0.495-0.042-0.995-0.084-1.42-0.086c-0.218-0.001-0.398,0.005-0.555,0.014
				c-0.176,0.013-0.326,0.024-0.468,0.034c-0.288,0.024-0.548,0.043-0.905,0.026c-0.829-0.042-2.166-0.137-2.137-0.333
				c-0.659-0.013-0.879,0.096-1.579,0.075c-1.277-0.118,1.123-0.008,0.907-0.159c1.03,0.038,2.277,0.091,3.541,0.102
				c0.647,0.005,1.212,0,1.778-0.024c0.56-0.023,1.091-0.065,1.57-0.131c0.291,0.071,0.929,0.052,0.986,0.167
				c0.563-0.164,1.77-0.18,3.084-0.149c0.141,0.039,0.084,0.113,0.109,0.172c0.002,0.02,0.027,0.02,0.028,0.05
				c-0.015,0.046-0.028,0.098-0.039,0.158c-0.022,0.121-0.036,0.275-0.037,0.487c-0.09,0.068-0.144-0.033-0.171-0.232
				c-0.007-0.05-0.013-0.105-0.017-0.167c-0.058-0.007-0.144,0.01-0.217,0.013c-0.154,0.011-0.315,0.019-0.478,0.023
				c-0.652,0.02-1.36-0.009-1.75-0.028c-0.48-0.025-0.529,0.079-0.902,0.076c-0.083-0.002-0.171-0.006-0.262-0.009
				C17.06,67.792,16.947,67.785,16.832,67.778z M8.959,98.811c0.227-0.541,0.507-1.108,0.684-1.608
				c0.451-1.283,0.858-2.677,1.247-3.851c0.64-0.02,1.235-0.022,1.737,0.006c-0.247,0.151-0.743,0.228-1.547,0.269
				c-0.142,0.458-0.326,0.996-0.55,1.634c-0.009,0.028,0.059,0.117-0.062,0.403c-0.033,0.077-0.072-0.072-0.187,0.272
				c-0.222,0.668-0.141,0.912-0.483,1.779c-0.295,0.745-0.768,1.473-1.109,2.307C8.577,99.822,8.735,99.346,8.959,98.811z
				 M8.169,100.729c0.082,0.01-0.095,0.441-0.178,0.722c0.217,0.039,0.515-0.685,0.735-0.738l-0.305,0.838
				C7.873,102.652,7.577,102.404,8.169,100.729z M18,108.969c0.288-0.103,1.029-0.221,1.193-0.068
				C18.708,109.168,18.594,108.945,18,108.969z M19.895,112.748c0.002-0.686,0.194-0.068,0.402-0.061
				c0.209,1.182-0.071,1.198,0.403,2.494C20.434,115.338,20.163,113.318,19.895,112.748z M20.71,105.096
				c-0.596,0.027-1.158,0.053-1.728,0.078c-0.562,0.021-1.124,0.035-1.731,0.033c-0.604-0.002-1.309-0.018-2.063-0.059
				c-0.449,0.033-0.773,0.102-0.814,0.238c-1.944-0.033-3.875-0.173-6.05-0.187c-0.359-0.002-0.894,0.028-1.465,0.062
				c0.33-1.138,0.73-2.494,1.148-2.576l-0.867,2.381h14.236C21.151,105.076,20.925,105.086,20.71,105.096z M22.221,105.252
				c-0.069-0.008-0.038-0.021,0.033-0.042c0.034-0.009,0.084-0.026,0.126-0.03c0.018,0.023,0.036,0.047,0.055,0.063
				c0.022,0.019,0.045,0.022,0.065,0.007c0.068,0.449,0.144,0.891,0.216,1.337c-0.109-0.34-0.216-0.696-0.327-0.851
				C22.318,105.432,22.35,105.189,22.221,105.252z M26.17,120.85c0.092,0.275,0.19,0.549,0.285,0.822
				c-0.002-0.002-0.004-0.002-0.006-0.004C26.33,121.355,26.243,121.09,26.17,120.85z M27.457,133.156
				c0.193-0.04,0.846,1.146,0.984,1.609C28.242,134.818,27.559,133.632,27.457,133.156z M31.768,133.573
				c-0.092-0.206-0.103-0.274-0.075-0.282c0.095,0.162,0.184,0.329,0.28,0.489C31.909,133.727,31.842,133.664,31.768,133.573z
				 M50.01,154.459c0.828,0.24,1.656,0.207,2.594,0.797C52.164,155.301,51.265,154.997,50.01,154.459z M54.862,156.783
				c-1.062-0.312-2.008-0.668-1.736-0.834c0.525,0.172,1.023,0.34,1.358,0.486C54.818,156.582,54.995,156.686,54.862,156.783z
				 M56.538,156.666c0.057-0.076,0.302-0.053,0.646,0.021c0.345,0.063,0.792,0.162,1.247,0.271
				C58.609,157.279,57.039,156.969,56.538,156.666z M61.703,157.827c-0.271-0.119-0.357-0.245-0.295-0.378
				c0.898,0.113,0.771,0.293,1.836,0.347C62.898,157.866,62.633,158.006,61.703,157.827z M61.911,136.242
				c0.188,0.084,0.386,0.191,0.603,0.287c0.221,0.084,0.459,0.164,0.709,0.215c-0.199,0.01-0.395,0.02-0.062,0.15
				c-0.793-0.027-1.109-0.312-2.24-0.785C61.213,135.977,61.538,136.07,61.911,136.242z M59.688,135.318
				c0.369,0.216,0.537,0.354,0.668,0.494c0.133,0.14,0.232,0.272,0.49,0.438c-0.115,0.058-0.574-0.183-0.537-0.254
				c-0.014-0.099-0.271-0.222-0.465-0.363C59.65,135.494,59.507,135.368,59.688,135.318z M58.428,134.592
				c-0.064,0.1-0.395-0.021-0.74-0.211c-0.333-0.21-0.683-0.48-0.812-0.641C57.379,133.729,57.661,134.297,58.428,134.592z
				 M53.057,130.057c-0.504-0.154-0.591-0.425-1.279-1.371C52.05,128.707,52.776,129.469,53.057,130.057z M51.267,132.049
				c0.253,0.21,0.509,0.546,0.974,1.067c-0.443-0.196-1.145-0.953-1.742-1.577C50.79,131.729,51.023,131.828,51.267,132.049z
				 M38.841,67.199c-0.125-0.056-0.144-0.09-0.105-0.113h0.784C39.595,67.216,38.937,67.368,38.841,67.199z M50.741,67.652
				l-1.766-0.007c-0.543,0.306,1.578,0.022,1.035,0.328c-1.092,0.053-0.684,0.054-1.766-0.007c0.07-0.064,0.361-0.079,0.365-0.16
				c-1.082-0.158-3.664,0.014-3.859-0.34c0.873-0.007,1.703-0.005,2.111,0.089c0.44-0.043-0.237-0.313,1.433-0.236
				c-0.029-0.18-1.495-0.041-2.113-0.09c0.038-0.084,0.256-0.124,0.513-0.143h1.236c0.434,0.032,0.382,0.122,0.723,0.154
				c0.301,0.025,0.479,0.041,0.611,0.051c0.21-0.003,0.374,0.026,0,0c-0.162,0.002-0.339,0.024-0.269,0.112
				C49.161,67.613,51.131,67.315,50.741,67.652z M56.372,67.918c-1.702-0.019-1.805,0.341-3.903,0.227
				c-0.099-0.188,0.081-0.311,0.384-0.403l2.474,0.01c-0.291-0.122-1.128-0.122-1.753-0.168c0.175-0.206,2.47,0.092,1.79-0.317
				c1.081-0.017,0.193,0.085,0.339,0.164c0.021,0.011,0.697,0.12,0.702,0.083c-0.003,0.026-0.181,0.068-0.359,0.103
				c-0.089,0.016-0.178,0.031-0.245,0.043c-0.067,0.01-0.112,0.016-0.114,0.013C55.75,67.762,56.608,67.755,56.372,67.918z
				 M57.777,68.005c1.083-0.054,1.282,0.087,2.114,0.089C59.872,68.219,57.258,68.262,57.777,68.005z M59.936,67.529
				c0.178-0.24-0.938-0.194-0.719-0.443h3.174c-0.324,0.128-1.738-0.003-2.426,0.039l-0.011,0.161
				c0.077,0.103,0.696,0.084,0.706,0.003C61.293,67.268,60.657,67.603,59.936,67.529z M64.512,67.709
				c-0.631-0.012-0.754,0.097-1.419,0.075c-0.44,0.363,1.964,0.096,1.374,0.492c-0.921-0.087-2.158-0.106-3.523-0.096
				c-1.118-0.117,1.386-0.043,1.426-0.156l0.031-0.405c1.931,0.074,2.259-0.232,3.901-0.227c0.095,0.271-1.741,0.081-1.095,0.481
				c0.451,0.028,1.749,0.075,3.171,0.095C67.792,68.445,64.273,68.133,64.512,67.709z M66.984,67.72
				c0.623-0.011,0.76-0.078,1.418-0.075C68.393,67.955,63.41,67.788,66.984,67.72z M71.877,68.387
				c-0.511-0.073-1.111-0.125-1.033-0.328l1.412,0.006C72.391,68.234,71.998,68.278,71.877,68.387z M77.182,68.328
				c-1.397-0.036-3.391,0.061-4.232-0.099c0.469-0.188,1.427-0.181,1.765,0.008c0.767,0.017,0.185-0.286,0.388-0.403
				c0.727-0.042,0.83,0.158,0.34,0.163C75.209,68.287,77.549,68.008,77.182,68.328z M79.742,67.206
				c1.404-0.099,0.697,0.269,2.105,0.17C82.76,67.516,79.309,67.467,79.742,67.206z M84.633,67.874
				c-0.842-0.052-1.6-0.123-2.816-0.092c-0.338-0.245,0.797-0.14,1.425-0.157c0.112-0.184-0.062-0.304-0.681-0.327
				c1.078-0.258,1.424,0.317,1.728,0.493l1.767,0.007C87.188,67.896,85.098,67.886,84.633,67.874z M92.461,67.743
				c-0.447,0.011-0.258,0.146-0.275,0.241c-0.987,0.01-1.695,0.076-2.362,0.155c-0.656,0.079-1.306,0.17-2.05,0.234
				c-1.037,0.017-1.069-0.188-2.105-0.171c0.402-0.318,1.068,0.026,2.119,0.009c0.456-0.26-1.139-0.066-0.682-0.326
				c1.095,0.096,0.896-0.124,1.486-0.157c1.242-0.095,0.314,0.263,1.58,0.167c0.544-0.026-0.004-0.142-0.421-0.163
				c0.326-0.247,1.044,0.097,1.575,0.086C91.383,67.655,94.29,67.642,92.461,67.743z M93.75,68.099
				c-0.273-0.021-0.525-0.037-0.719-0.031c-0.02-0.09,0.217-0.132,0.584-0.15c0.092-0.363,0.232-0.804,0.377-1.255
				c0.053,0.148,0.137,0.05,0.242-0.235C94.275,66.851,93.98,67.521,93.75,68.099z M94.057,64.803
				c-0.17,0.633,0.377-0.269-0.137,1.271c-0.197-0.024,0.062-0.802-0.211-0.694c0.281-0.466,0.385-1.495,0.854-2.768
				C94.741,62.733,94.344,63.867,94.057,64.803z M95.779,54.527c0.764,0.006,1.502,0.011,2.188,0.017
				c-0.444,1.381-0.872,2.619-1.269,3.602c-0.246,1.217-0.455,2.398-0.926,4.106c-0.51,0.446,0.203-1.403,0.52-2.509
				c-0.236,0.064-0.576,1.326-0.902,2.375l-0.383-0.128c0.197-0.133,0.459-0.922,0.721-1.653c0.258-0.73,0.521-1.417,0.726-1.39
				c0.168-0.572,0.106-1.42-0.126-0.689c0.078-0.29,0.23-0.824,0.27-1.128c0.039-0.308-0.043-0.363-0.41,0.214
				c0.36-1.083,0.314-1.368,0.274-1.65l0.013-0.042h-0.228c0.219-0.196-0.896-0.17-0.563-0.392c0.616-0.006,0.647,0.083,1.201,0.088
				c-0.011,0.035-0.027,0.093-0.047,0.157c-0.085,0.55,0.034,0.466,0.124,0.46c0.088-0.002,0.147,0.077-0.088,1.066
				c0.261-0.469,0.728-1.501,0.998-2.415c-0.34,0.002-0.705,0.025-1.076,0.078c0.21,0.1,0.517,0.069,0.903,0.05
				c-0.062,0.252-0.149,0.57-0.362,1.054c-0.017-0.147,0.071-0.506,0.188-0.926c-0.635,0.014-1.348,0.006-1.827,0.062
				C95.488,54.838,95.434,54.715,95.779,54.527z M92.784,54.68c1.491-0.033,1.45,0.092,1.442,0.167
				c-0.015,0.15-0.988,0.204-1.004,0.24c-0.078,0.159,1.01,0.151,0.438,0.326c-1.966,0.088-1.261-0.316-2.291-0.415
				C92.041,54.839,92.826,55.131,92.784,54.68z M91.359,55.65h-0.053l0.002-0.003C91.326,55.647,91.343,55.649,91.359,55.65z
				 M89.439,54.991c1.021-0.019,1.645,0.036,1.399,0.249c-0.31-0.016-0.371,0.03-0.418,0.08
				C89.445,55.34,89.252,55.202,89.439,54.991z M85.312,55.542c-0.002,0.042-0.037,0.077-0.084,0.109h-0.903
				C84.494,55.576,84.771,55.528,85.312,55.542z M85.023,54.73c-1.41,0.176-1.037,0.32-1.812,0.559
				C81.602,55.115,83.775,54.74,85.023,54.73z M80.566,55.65h-1.479c0.155-0.025,0.335-0.045,0.565-0.052
				C80.077,55.59,80.355,55.613,80.566,55.65z M77.945,54.863c0.309,0.064,0.791,0.091,1.408,0.087
				c0.135,0.169-0.261,0.212-0.379,0.322C77.867,55.305,77.859,55.095,77.945,54.863z M75.418,55.581
				c0.327-0.142,1.439-0.096,1.09-0.399c1.803,0.025,0.418,0.233,0.323,0.469h-0.45C76.084,55.622,75.893,55.57,75.418,55.581z
				 M43.35,55.529c-0.18,0.089,0.479,0.054,0.693,0.003c0.323-0.077-0.044-0.319,0.81-0.24c0.054,0.099-0.251,0.268-0.16,0.358
				h-1.508C43.206,55.612,43.262,55.572,43.35,55.529z M47.121,33.455c0.062-0.091,0.121-0.186,0.183-0.276
				C47.232,33.296,47.172,33.386,47.121,33.455z"/>
			<path id="Shape_39_" fill="#9B9B9B" d="M88.672,98.664c0.15,0.229,0.564-0.863,1.102-2.562
				C89.602,95.943,89.193,97.014,88.672,98.664z"/>
			<path id="Shape_40_" fill="#9B9B9B" d="M59.336,89.566c0.008,0.11-0.18,0.177-0.371,0.24c2.415,0.024,3.977-0.154,4.98-0.466
				c0.557-0.006,1.223,0.017,1.072-0.157c-0.457-0.029-2.608,0.065-2.474-0.01c-0.045,0.026,0.985-0.064,0.715-0.078
				c-1.077-0.056-1.332-0.139-2.127,0.071c1.677-0.028,0.519,0.073,0.681,0.328c0.273,0.019,0.696,0.005,0.701,0.084
				c-0.617-0.05-2.082,0.088-2.111-0.09c0.012-0.107,0.625-0.072,0.719-0.159c-1.104-0.098-0.869,0.123-1.426,0.154
				c-0.574-0.161,0.039-0.103,0.025-0.321c-1.345,0.106-3.177-0.086-3.562,0.389c0.93-0.02,1.15,0.117,1.033,0.328
				C58.662,89.955,58.607,89.668,59.336,89.566z"/>
			<path id="Shape_41_" fill="#9B9B9B" d="M67.768,90.168c1.437,0.025,2.035,0.238,3.512,0.256
				c-0.358-0.466-4.428-0.482-5.975-0.429c0.676-0.15,0.059-0.203,0.034-0.404c1.265,0.274,3.353,0.284,4.245-0.063
				c-0.555-0.01-1.227,0.007-1.047-0.166c-2.12-0.118-2.491,0.179-4.251,0.146c-0.084,0.062-0.022,0.158-0.365,0.159
				c-0.282,0.261,0.789,0.198,1.04,0.248c0.178,0.034-0.464,0.138-0.365,0.159c0.271,0.062,1.709-0.063,1.395,0.249
				c-1.163-0.01-1.749-0.145-3.174-0.094c0.215-0.168,1.029-0.258,0.387-0.403c-0.778-0.013-3.432-0.056-2.133,0.153
				c0.125-0.172,1.677-0.011,1.398,0.166c-0.723,0.08-2.566,0.013-3.203,0.312c1.94-0.166,5.859,0.206,8.129-0.047
				C66.529,90.396,67.341,90.141,67.768,90.168z"/>
			<path id="Shape_42_" fill="#9B9B9B" d="M76.4,89.555c-0.072-0.018-0.151-0.033-0.234-0.048c-0.088-0.014-0.115-0.026-0.18-0.037
				c-0.112-0.021-0.233-0.036-0.357-0.048c-0.247-0.021-0.507-0.029-0.736-0.039c-0.459-0.019-0.801-0.049-0.688-0.24
				c-1.416,0.037-2.27,0.211-0.73,0.32c-2.098,0.072-2.453-0.445-3.879-0.097c2.812-0.017,0.687,0.321,1.369,0.571
				c1.629,0.067,0.514-0.308,1.084-0.318c0.824,0.004,1.648,0.007,2.471,0.01c0.086-0.062,0.023-0.158,0.367-0.16
				c0.412,0.346-1.191,0.213-1.443,0.398c0.521-0.004,1.14,0.058,1.673,0.08c0.266,0.012,0.511,0.014,0.711-0.008
				c0.103-0.01,0.19-0.025,0.266-0.049c0.089-0.023,0.209-0.054,0.273-0.093c-0.128,0-0.24-0.001-0.341-0.001
				c-0.071-0.003-0.135-0.004-0.188-0.005c-0.107-0.005-0.179-0.012-0.225-0.021c-0.086-0.018-0.062-0.043,0.02-0.068
				C75.807,89.648,76.117,89.586,76.4,89.555z"/>
			<path id="Shape_43_" fill="#9B9B9B" d="M73.423,90.109c0.315,0.143-0.048,0.435,1.027,0.408
				C74.771,90.316,74.947,90.087,73.423,90.109z"/>
			<path id="Shape_44_" fill="#9B9B9B" d="M38.767,73.968c-0.014,0.293-0.014,0.571,0.006,0.805
				c0.026,0.307,0.066,0.505,0.119,0.485c0.007-0.597,0.038-0.853,0.06-1.228l0.07-1.062C38.886,72.842,38.796,73.388,38.767,73.968
				z"/>
			<path id="Shape_45_" fill="#9B9B9B" d="M40.387,80.623c0.024-0.266,0.018-0.683,0.097-0.685c0.05,0.82,0.086,2.403-0.057,3.104
				c0.252-0.084,0.247-1.541,0.292-2.736c-0.239-0.14-0.271-1.07-0.365-1.764C40.204,79.086,40.239,80.317,40.387,80.623z"/>
			<path id="Shape_46_" fill="#9B9B9B" d="M40.495,89.484c0.033-0.531,0.281-1.185-0.13-1.101
				C40.429,88.693,40.315,89.532,40.495,89.484z"/>
			<path id="Shape_47_" fill="#9B9B9B" d="M40.69,84.43l-0.014-1.027c-0.195,0.182-0.413,0.265-0.386,1.347
				C40.546,84.93,40.487,83.579,40.69,84.43z"/>
			<path id="Shape_48_" fill="#9B9B9B" d="M40.428,75.433c-0.101,0.836-0.044,0.734-0.129,2.066
				C40.545,78.012,40.551,75.455,40.428,75.433z"/>
			<path id="Shape_49_" fill="#9B9B9B" d="M40.638,76.841c0.112,1.236-0.074,0.842-0.129,2.062
				C40.702,79.124,40.954,76.673,40.638,76.841z"/>
			<path id="Shape_50_" fill="#9B9B9B" d="M43.143,89.822l-0.063,0.011l-0.128,0.021c-0.173,0.028-0.346,0.06-0.467,0.125
				c0.153,0.06,0.413,0.021,0.645-0.051c0.484-0.072,1.046-0.18,1.362-0.262c-0.446,0.052-0.652-0.043-0.82-0.115
				c-0.084-0.035-0.158-0.064-0.247-0.066c-0.045-0.002-0.093,0.005-0.148,0.021c-0.046,0.015-0.141,0.039-0.15,0.076l0.032,0.004
				c0.023,0.002,0.045,0.004,0.066,0.006c0.042,0.005,0.081,0.009,0.117,0.015c0.072,0.01,0.132,0.022,0.185,0.037
				c0.105,0.03,0.18,0.066,0.255,0.104c-0.14,0.027-0.313,0.05-0.502,0.066C43.233,89.814,43.188,89.818,43.143,89.822z"/>
			<path id="Shape_51_" fill="#9B9B9B" d="M106.869,130.162c-0.247-0.184-0.475-0.348-0.678-0.487
				c-0.062-0.043-0.075-0.048-0.105-0.065c-0.027-0.014-0.054-0.027-0.079-0.041c-0.052-0.026-0.1-0.049-0.144-0.065
				c0.068,0.046,0.139,0.095,0.211,0.144c0.055,0.041,0.107,0.082,0.164,0.123c0.066,0.051,0.135,0.103,0.201,0.153
				c0.272,0.211,0.559,0.435,0.852,0.66c0.581,0.456,1.189,0.935,1.771,1.392c1.164,0.909,2.229,1.725,2.873,2.105
				c-0.985-0.729-2.24-1.73-3.42-2.653C107.928,130.966,107.361,130.527,106.869,130.162z"/>
			<path id="Shape_52_" fill="#9B9B9B" d="M39.8,73.507c-0.125,0.212-0.192,0.968,0.011,1.011
				C39.868,74.056,40.039,73.737,39.8,73.507z"/>
			<path id="Shape_53_" fill="#9B9B9B" d="M47.009,89.109c0.053-0.248-1.046-0.244-2.1-0.25
				C44.559,89.175,46.768,88.926,47.009,89.109z"/>
			<path id="Shape_54_" fill="#9B9B9B" d="M41.711,89.23c0.231,0.045,0.516,0.051,0.745-0.063c-0.158-0.155-0.273-0.013-0.566-0.008
				c-0.083-0.091-0.346-0.312-0.709-0.091C41.302,89.104,41.477,89.186,41.711,89.23z"/>
			<path id="Shape_55_" fill="#9B9B9B" d="M96.857,72.285c0.649-2.02,1.308-3.985,1.937-6.066c0.226-0.746,0.456-1.618,0.677-2.464
				c0.258-0.964,0.51-1.92,0.732-2.69c0.244-0.833,0.385-0.947,0.711-2.044c0.361-1.211,0.336-1.565,0.656-2.695
				c0.668-1.604,1.27-3.674,1.875-5.839c-1.543,0.037-3.17,0.086-4.697,0.073c-1.906-0.015-3.999-0.031-6.174-0.048
				c-1.096-0.001-2.213-0.003-3.338-0.006c-0.562,0.002-1.127,0.005-1.691,0.007l-1.133,0.016c-0.678,0.015-1.393,0.129-2.131,0.153
				c-0.541,0.018-2.271,0.077-3.184,0.067c-1.505-0.014-3.08-0.079-3.873-0.178c-0.558,0.006-0.293,0.206-1.072,0.158
				c-0.799-0.23-1.502-0.022-2.812-0.174c-0.085,0.062-0.022,0.159-0.366,0.161c-1.459-0.099-3.002-0.095-4.941-0.021
				c-0.051-0.095,0.078-0.229-0.336-0.244c-0.031,0.134-1.268,0.156-1.779,0.155c-2.125-0.005-4.799-0.202-6.336-0.27
				c-0.473-0.02-0.818,0.087-1.064,0.077c-0.213-0.009-0.386-0.237-1.047-0.166c-1.489,0.419-4.326-0.229-6.014,0.137
				c-0.197-0.328-1.858-0.331-3.146-0.417c0.166,0.064-0.236,0.195-0.816,0.272c-0.124,0.078-0.33,0.103-0.422-0.042
				c0.146,0.074,0.315-0.261,0.197-0.24c-0.189,0.087-0.376,0.064-0.528,0.038c-0.158-0.027-0.283-0.056-0.516,0.02
				c-0.126-0.028,0.196-0.284-0.004-0.25c-0.056,0.026-0.057,0.009-0.066-0.001c-0.007-0.011-0.01-0.025-0.01-0.04
				c0-0.031,0.014-0.067,0.032-0.106c0.039-0.078,0.094-0.162,0.116-0.241c0.05-0.199,0.009-0.362,0.155-0.545
				c0.058-0.072,0.181-0.111,0.226-0.172l0.084-0.116l0.034-0.066l0.03-0.076l0.044-0.116l0.178-0.468
				c0.229-0.629,0.481-1.248,0.737-1.867c0.503-1.245,1.064-2.46,1.647-3.655c1.178-2.382,2.562-4.597,4.092-6.522
				c0.248-0.33,0.509-0.578,0.75-0.854c0.242-0.272,0.488-0.549,0.776-0.872c0.163-0.188,0.331-0.382,0.503-0.582
				c0.184-0.186,0.372-0.376,0.563-0.569c0.374-0.399,0.806-0.747,1.219-1.123c0.855-0.71,1.744-1.375,2.575-1.908
				c0.304-0.187,0.396-0.386,0.887-0.668c1.186-0.744,2.577-1.247,3.771-1.697c0.235-0.09,0.426-0.188,0.588-0.276
				c0.166-0.081,0.307-0.148,0.434-0.192c0.314-0.103,0.648-0.178,0.979-0.249c0.332-0.067,0.646-0.156,0.908-0.335
				c0.406-0.382-1.091-0.031-0.356-0.318c0.42,0.149,1.405-0.307,1.36-0.595c-1.213,0.32-1.488,0.207-2.045,0.201
				c-0.205-0.207,0.598-0.513-0.381-0.313c-0.144,0.244-1.447,0.557-1.006,0.768c0.318,0.085,1.346-0.607,1.441-0.218
				c-1.135,0.283-1.646,0.71-2.766,0.817c0.604-0.264,0.231-0.365,0.438-0.52c0.102-0.076,0.377-0.174,0.587-0.261
				c0.215-0.077,0.36-0.151,0.187-0.208c-1.024,0.106-0.926,0.449-1.316,0.683c-0.311,0.195-0.67,0.255-0.766,0.433
				c0.008-0.014,0.892-0.24,0.318,0.031c-0.374,0.091-0.848,0.224-1.135,0.267c0.65-0.36,1.164-0.677,1.5-0.959
				c-1.52,0.613-2.121,1.161-2.737,1.72c-0.397,0.112-0.642,0.29-0.899,0.515c-0.252,0.236-0.521,0.507-1.006,0.79
				c-0.135-0.097,0.18-0.332,0.072-0.438c-1.023,0.794-0.109,0.718-0.904,1.259l-0.184-0.266c-0.381,0.333-0.604,0.499-0.834,0.639
				c-0.228,0.143-0.451,0.276-0.774,0.611c-0.413,0.629,0.147,0.349-0.121,0.77c-0.359,0.123-0.616,0.151-1.096,0.521
				c0.161-0.284,0.503-0.588,0.755-0.805c0.25-0.219,0.383-0.392,0.088-0.474c0.771-0.379,1.067-0.938,1.564-1.351
				c0.28-0.216,0.563-0.083,0.984-0.637c0.293-0.386,0.696-0.67,1.216-1.054c0.546-0.346,1.229-0.764,2.183-1.289
				c-0.02-0.258-1.18,0.281-0.16-0.373c-0.016,0.118,0.123,0.095,0.248,0.083c0.129-0.006,0.243,0,0.178,0.156
				c2-0.904,4.427-1.829,6.485-2.289c0.468-0.103,1.039-0.108,1.513-0.204c0.364-0.062,0.864-0.276,1.209-0.336
				c0.562-0.107,1.315-0.042,1.857-0.116c1.562-0.134,3.107-0.275,4.766-0.286c0.819-0.034,1.629,0.005,2.445,0.015
				c0.811,0.047,1.624,0.087,2.426,0.192c0.082,0.011,0.448,0.147,0.938,0.203c2.209,0.282,4.297,0.597,6.266,1.098
				c0.318,0.084,0.635,0.165,0.949,0.258c0.318,0.102,0.633,0.203,0.943,0.303c0.63,0.187,1.219,0.4,1.809,0.542
				c0.57,0.044,0.018-0.103,0.139-0.293c0.678,0.286,1.123,0.447,1.265,0.346c-0.688-0.115-0.669-0.464-1.429-0.755
				c-0.104-0.04-0.459-0.032-0.947-0.274c-0.321-0.147,0.234-0.112-0.557-0.362c-0.494-0.157-0.324,0.104-0.996-0.169
				c0.217-0.051-0.207-0.514,0.467-0.268l1.25,0.43l1.229,0.467c-0.003-0.166,0.424-0.031,0.446-0.173
				c-0.938-0.369-1.673-0.659-2.324-0.869c-0.323-0.11-0.622-0.21-0.905-0.307c-0.285-0.083-0.556-0.162-0.826-0.242
				c-0.27-0.08-0.539-0.159-0.823-0.242c-0.288-0.072-0.589-0.146-0.915-0.229c-0.65-0.178-1.42-0.336-2.401-0.549
				c-0.437,0.051-0.88,0.01-1.319-0.081c-0.438-0.093-0.877-0.208-1.309-0.26c-0.41-0.054-0.679-0.017-1.329-0.086
				c-0.628-0.05-0.717-0.15-1.312-0.2c-1.219-0.089-2.479-0.122-3.768-0.103c-1.289,0.005-2.565,0.077-3.865,0.173
				c-2.062,0.168-4.053,0.371-6.066,0.911c-0.475,0.115-0.908,0.277-1.348,0.442c-0.221,0.079-0.441,0.159-0.67,0.241
				c-0.226,0.092-0.455,0.183-0.697,0.271c-1.592,0.573-3.438,1.376-5.094,2.335c-1.661,0.953-3.14,2.039-4.13,2.915
				c-0.443,0.387-0.918,0.936-1.341,1.342c-1.778,1.748-3.443,3.645-4.671,5.653c-0.351,0.583-0.715,1.188-1.082,1.797
				c-0.341,0.63-0.722,1.241-1.027,1.882c-0.076,0.327-0.153,0.661-0.231,1c-0.102-0.036-0.283,0.323-0.357,0.178
				c-0.224,0.506-0.49,1.107-0.783,1.769c-0.271,0.675-0.601,1.394-0.882,2.174c-0.147,0.387-0.297,0.781-0.447,1.177
				c-0.138,0.403-0.276,0.81-0.415,1.215l-0.172,0.505l-0.104,0.336c-0.066,0.219-0.13,0.435-0.193,0.645
				c0.17,0.096,0.178-0.046,0.188-0.227c0.011-0.181,0.026-0.416,0.186-0.434c0.037,0.163-0.059,0.538-0.175,0.818
				c-0.109,0.279-0.252,0.482-0.301,0.195c-0.125,0.645-0.336,1.393-0.513,2.129c-0.083,0.367-0.159,0.726-0.21,1.041
				c-0.013,0.028,0.014,0.023,0.037,0.021l0.066-0.003l0.132-0.008c0.089-0.007,0.175-0.015,0.26-0.021
				c0.171-0.017,0.338-0.039,0.499-0.067c-0.114,0.143,0.118,0.187,0.559,0.168c-0.136-0.124,0.062-0.238,0.287-0.293
				c0.229-0.056,0.496-0.054,0.611,0.056c-0.212,0.011-0.475-0.018-0.582,0.077c0.75,0.001,1.389,0.14,2.086,0.179
				c0.146,0.009,0.278,0.011,0.399,0.01c0.161-0.006,0.306-0.011,0.44-0.016c0.378-0.017,0.693-0.045,1.001-0.073
				c0.616-0.055,1.206-0.107,2.22-0.063c0.397-0.3-1.176-0.164-1.385-0.329c2.509-0.051,3.969,0.129,5.27,0.345
				c2.011-0.044,4.93,0.126,6.364-0.055c-0.271-0.02-0.695-0.005-0.697-0.084c1.35-0.034,2.25,0.032,2.811,0.173
				c-0.549-0.227,1.542-0.218,1.418-0.075c-0.247-0.04-1.223,0.048-1.066,0.077c0.684,0.119,3.934,0.045,4.251-0.145
				c0.702,0.325,2.462,0.113,3.88,0.098c0.668-0.008,0.771,0.088,1.406,0.086c2.354-0.007,5.4-0.011,7.061,0.029
				c1.349,0.033,2.607,0.053,3.808,0.062c1.255,0.003,2.446,0.007,3.608,0.009c3.256-0.005,6.332-0.011,9.574-0.016
				c1.184,0.003,2.221,0.247,3.213-0.072c-0.596-0.014-1.492,0.01-1.459-0.085c1.07-0.025,1.506,0.028,1.928,0.083
				c-0.2,0.5-0.399,0.991-0.639,1.794c0.031,0.796-0.383,1.455-0.924,3.288c-0.596,2.014-0.748,2.558-1.275,3.877
				c-0.207,0.708-0.033,0.563-0.184,1.153c-0.09,0.336-0.229,0.86-0.391,1.47c-0.162,0.582-0.346,1.246-0.525,1.892
				c-0.363,1.295-0.717,2.525-0.826,2.872c-0.254,0.796-0.475,1.051-0.699,1.726c-0.039-0.001-0.084-0.002-0.131-0.002
				c-0.83-0.005-1.763,0.07-2.593,0.073c-1.467,0.006-2.604-0.091-4.218-0.091c-0.382,0.001-0.794,0.003-1.223,0.005
				c-0.354,0.005-0.721,0.01-1.09,0.015c-0.737,0.014-1.481,0.029-2.142,0.042c-2.526,0.053-5.676,0.011-8.469-0.116
				c-0.558,0.032-0.322,0.253-1.427,0.156c0.715-0.183-0.082-0.09-0.332-0.244c-4.289,0.043-7.571,0.073-12.002-0.13
				c-0.61,0.133-1.963,0.516-3.196,0.229c0.672-0.033,2.118,0.119,1.778-0.155c-2.694-0.199-6.941-0.057-10.234-0.123
				c-0.467-0.001-0.334,0.141-0.72,0.159c-0.966-0.051-1.458-0.208-2.453-0.253c-1.092,0.042-2.147,0.058-3.153,0.052
				c-0.23-0.003-0.457-0.005-0.681-0.008c-0.141-0.005-0.28-0.01-0.417-0.016c-0.275-0.013-0.546-0.031-0.813-0.053
				c0.122,0.206-0.743,0.369-1.145,0.153c0.309-0.006,0.693,0.016,0.525-0.157c-0.55-0.182-0.802,0.074-1.66-0.012
				c0.407,0.133,0.332,0.241,0.12,0.291l-0.043,0.009c-0.003,0.016,0.001,0.042,0.001,0.062c0.001,0.043,0.001,0.087,0.002,0.132
				c0,0.086-0.005,0.172-0.013,0.251c-0.018,0.158-0.052,0.291-0.105,0.355c-0.19-0.087,0.108-0.931-0.186-0.88
				c-0.06,1.232-0.013,1.22-0.213,1.963c0.146,0.51,0.104,1.355,0.385,1.529c0.003-0.417,0.134-0.367,0.2-0.546
				c-0.263,0.108-0.233,0.039-0.287-0.576c0.3,0.294,0.377-0.255,0.458-0.752c0.017-0.258-0.123-0.292-0.127-0.529
				c0.037-0.246,0.065-0.499,0.088-0.761c-0.01-0.049,0.043-0.021,0.068-0.027l0.093,0.001l0.185,0.002c0.123,0,0.247,0,0.373-0.001
				c0.502-0.007,1.031-0.014,1.603-0.021c-0.046,0.115-0.173,0.134,0.059,0.242c0.248,0.01,0.486,0.021,0.718,0.031
				c0.16,0.004,0.318,0.008,0.473,0.012c0.234,0.003,0.466,0.006,0.694,0.01c0.912,0.008,1.773,0.016,2.602,0.023
				c1.657,0,3.183-0.001,4.723-0.002c3.082-0.009,6.224-0.014,10.595,0.094c0.117-0.159-0.467-0.163-0.688-0.246
				c0.354,0.001,0.427-0.064,0.714-0.078c0.934-0.021,1.149,0.116,1.034,0.328c0.841,0.053,2.57-0.091,2.817,0.093
				c-0.225,0.266-1.344,0.11-2.125,0.072c-0.047,0.099-0.12,0.191-0.719,0.159c-0.903-0.012-1.682-0.053-2.104-0.171
				c-1.249-0.048-0.894,0.283-2.14,0.234c-1.829-0.198-5.094-0.021-6.355-0.026c0.271,0.02,0.695,0.005,0.699,0.083
				c-2.663-0.139-4.229-0.044-6.722,0.135c-0.043-0.107,1.211-0.296,0.378-0.321c-0.101,0.207-0.6-0.114-1.413-0.006
				c0.387,0.118,0.365,0.198-0.372,0.24c-0.459-0.098-0.911-0.143-1.367-0.156l-0.344-0.005l-0.167,0.001l-0.07,0.003
				c-0.094,0.005-0.188,0.015-0.283,0.027c-0.386,0.047-0.742,0.119-1.277,0.025c0.024,0.351,0.605,0.178,0.626,0.49
				c-0.302,0.022-0.532,0.026-0.782,0.03c-0.063,0.001-0.126,0.001-0.192,0.003c-0.032,0.002-0.068-0.002-0.099,0.005
				c-0.002,0.045-0.004,0.091-0.006,0.139c-0.005,0.189-0.011,0.401-0.018,0.647c0.257,0.316,0.137-0.463,0.413-0.048
				c-0.142,0.031-0.181,0.23-0.162,0.411c0.019,0.184,0.098,0.347,0.186,0.374c-0.042,0.126-0.119,0.184-0.252,0.103
				c-0.077,0.444,0.256,0.449,0.182,0.852c-0.189-0.024-0.208,0.145-0.178,0.336c0.008,0.048,0.018,0.097,0.03,0.145l0.019,0.071
				l0.009,0.034l0.01,0.084c0.025,0.245,0.047,0.467,0.051,0.629c0.023,1.081-0.225,2.597,0.025,2.414
				c0.033-0.681,0.067-1.376,0.102-2.077l0.05-1.042l0.049-0.343c0.065-0.451,0.12-0.873,0.154-1.267
				c0.017-0.202-0.077-0.434-0.037-0.615c0.011-0.049,0.027-0.086,0.045-0.117c0.022-0.024,0.086,0.024,0.125,0.033
				c0.089,0.036,0.168,0.07,0.238,0.078c0.136,0.016,0.241-0.075,0.387-0.072c0.117,0.003,0.237,0.013,0.354,0.027l0.174,0.022
				l0.084,0.012l0.042,0.006l0.194,0.006c1.121,0.03,2.24,0.055,3.349,0.036c0.76-0.013,1.316-0.131,2.133-0.153
				c3.05-0.085,6.306,0.098,9.886,0.041c0.668-0.006,0.267-0.267,1.077-0.238c1.2,0.027,2.87-0.051,3.525,0.096
				c0.316-0.117,0.55-0.255,1.433-0.237c0.094,0.188-1.026,0.085-1.078,0.238c2.57-0.059,4.618,0.183,6.011-0.056
				c2.012,0.259,3.668-0.032,4.947-0.06c0.452-0.01,0.475,0.104,1.055,0.084c2.42-0.08,5.381,0.018,8.121,0.034
				c0.668,0.003,0.788-0.083,1.42-0.076c0.401,0.005,0.868,0.091,1.053,0.085c0.41-0.013,0.972-0.155,1.424-0.156l0.34,0.003
				l0.383,0.01l0.766,0.032c0.513,0.023,1.033,0.046,1.568,0.042c0.768-0.004,0.906-0.065,1.848-0.076
				C94.139,72.251,95.505,72.263,96.857,72.285z M63.771,26.942c0.375-0.093,0.727-0.267,1.09-0.346
				c-0.066,0.002,0.602-0.105,0.563-0.109c0.078,0.005-0.049,0.165,0.046,0.156c0.166-0.017,0.545-0.136,0.838-0.2
				c0.301-0.048,0.51-0.042,0.323,0.159c-0.85,0.185-1.155,0.041-1.748,0.072C64.411,26.846,63.588,27.275,63.771,26.942z
				 M62.581,28.14c-0.399,0.212-0.83,0.364-0.692,0.153c0.412-0.217,0.821-0.439,1.252-0.623
				C63.383,27.701,62.984,27.937,62.581,28.14z M61.984,27.653c0.361-0.211,0.725-0.377,1.238-0.554
				c0.025,0.157-0.839,0.444-0.687,0.579c-0.279-0.006-0.656,0.218-1.013,0.406c-0.356,0.185-0.668,0.379-0.871,0.254
				C61.221,28.055,61.615,27.855,61.984,27.653z M61.359,28.482c0.254,0.276-0.926,0.609-1.156,0.795
				c-0.479,0.374-0.452,0.594-1.066,0.926C58.88,29.932,60.834,28.625,61.359,28.482z M55.796,32.539
				c0.083-0.115,0.186-0.243,0.297-0.375c0.119-0.124,0.243-0.253,0.365-0.38c0.096,0.084,0.006,0.262-0.168,0.479
				c-0.168,0.225-0.41,0.506-0.64,0.769C55.549,32.952,55.631,32.771,55.796,32.539z M86.012,22.62
				c1.172,0.172,1.506,0.484,2.242,0.479c0.475,0.164-0.006,0.085-0.34-0.003c0.119,0.105,0.232,0.208,0.582,0.315
				c-0.247,0.079-0.738-0.136-0.605-0.238C87.119,23.072,85.818,22.923,86.012,22.62z M82.997,22.575
				c0.864,0.087,0.806,0.274,0.909,0.443c-0.643-0.082-0.454,0.165-1.321-0.007C82.225,22.719,82.393,22.668,82.997,22.575z
				 M52.984,36.092c-0.237,0.313-0.467,0.635-0.683,0.972c-0.188,0.003-0.054-0.346,0.148-0.642
				C52.663,36.135,52.933,35.898,52.984,36.092z M52.716,35.087c0.135,0.164-0.018,0.558-0.463,1.176
				c-0.136,0.061-0.261,0.13-0.466,0.403C51.822,36.338,52.189,35.774,52.716,35.087z M45.975,48.995
				c0.027-0.092,0.051-0.184,0.083-0.274C46.362,48.678,46.358,49.02,45.975,48.995z M47.109,45.48
				c0.013,0.456,0.187,0.646-0.184,1.671c-0.183,0.138-0.117-0.117-0.045-0.369c0.077-0.249,0.154-0.498-0.035-0.367
				c-0.316,0.407-0.646,1.447-0.904,1.374C46.385,46.249,46.609,47.12,47.109,45.48z M46.027,51.892
				c0.472-0.017,0.424,0.188,0.93,0.171C46.762,52.234,45.655,52.163,46.027,51.892z M48.4,52.266
				c-0.228,0.022-0.478,0.031-0.712,0.025c-0.058-0.002-0.116-0.005-0.172-0.007c-0.051-0.003-0.063-0.008-0.094-0.013
				c-0.053-0.01-0.102-0.025-0.142-0.043c0.077-0.027,0.139-0.059,0.199-0.092c0.092-0.033,0.234-0.066,0.373-0.094
				c0.29-0.055,0.674-0.087,1.354-0.049C49.224,52.126,48.856,52.222,48.4,52.266z M58.459,51.142
				c-0.336,0.141-0.68,0.279-1.787,0.235C56.64,51.149,57.557,51.147,58.459,51.142z M54.85,52.098
				c0.181-0.533,2.398,0.265,3.532,0.014c0.526-0.115-0.282-0.18,1.065-0.076C59.006,52.448,56.158,52.016,54.85,52.098z
				 M101.297,56.392c0.477-1.387,1.239-4.495,1.414-4.068c-0.615,2.007-1.23,4.018-1.848,6.031
				C100.854,58.146,101.021,56.634,101.297,56.392z M55.827,70.344c0.711-0.277,1.403,0.105,2.113,0.089
				C57.227,70.711,56.536,70.328,55.827,70.344z M43.076,71.827c-0.036,0.038-0.212,0.008-0.4-0.068
				c-0.185-0.076-0.396-0.198-0.415-0.345c0.321,0.062,0.688,0.08,0.923,0.172C43.239,71.703,42.746,71.777,43.076,71.827z
				 M43.662,72.316c0.477-0.151,2.829-0.047,2.811,0.173C45.087,72.531,44.428,72.411,43.662,72.316z M55.314,72.364
				c0.24-0.289,2.387-0.124,3.184-0.067C57.432,72.5,56.538,72.233,55.314,72.364z M64.982,70.705
				c-0.683-0.079,2.014-0.327,2.483-0.151C67.232,70.745,65.295,70.532,64.982,70.705z M89.631,72.099
				c1.157-0.163,2.598-0.156,4.243-0.07C93.65,72.304,90.947,72.145,89.631,72.099z"/>
			<path id="Shape_56_" fill="#9B9B9B" d="M41.91,90.703c-0.488-0.028-0.899,0.016-1.252,0.031
				c-0.349,0.018-0.635,0.008-0.779-0.129l0.227-0.242c0.545-0.062,0.359,0.117,0.818,0.088c0.059-0.126-0.095-0.184-0.328-0.213
				c-0.117-0.016-0.255-0.022-0.4-0.027l-0.11-0.004c-0.015-0.004-0.043,0.006-0.049-0.008l-0.001-0.059
				c-0.002-0.078-0.004-0.154-0.006-0.229c-0.017-0.368-0.041-0.9-0.061-1.337c-0.132,0.059-0.066-0.447-0.184-0.448
				c-0.005,0.34-0.125,0.718-0.209,1.119c-0.085,0.396-0.136,0.815-0.012,1.088c-0.07-0.465,0-0.714,0.208-0.749
				c-0.004,0.301-0.035,0.57-0.092,0.818c-0.116,0.309,0.013,0.312-0.026,0.445c-0.051,0.006-0.104,0.012-0.161,0.02l-0.086,0.01
				c-0.021-0.007-0.013-0.043-0.021-0.064c-0.016-0.1-0.032-0.211-0.046-0.328c-0.027-0.233-0.046-0.498-0.052-0.752
				c-0.011-0.512,0.037-0.975,0.196-1.125c-0.245,0.209-0.243-0.621-0.409-0.049c0.065,0.356,0.093,0.818,0.118,1.33
				c0.013,0.254,0.026,0.519,0.04,0.785l0.012,0.197l0.007,0.1l0.003,0.049c0.003,0.015,0.03,0.004,0.044,0.006
				c0.138-0.006,0.275-0.01,0.411-0.014c0.34-0.018,0.823-0.129,1.142-0.154C41.238,90.826,42.021,91.012,41.91,90.703z"/>
			<path id="Shape_57_" fill="#9B9B9B" d="M40.54,91.343c-0.511,0.046-1.376-0.108-1.65,0.071
				C39.568,91.396,40.126,91.648,40.54,91.343z"/>
			<path id="Shape_58_" fill="#9B9B9B" d="M40.438,73.919c-0.088,0.105-0.136,0.326-0.051,0.506
				c0.078-0.245,0.103-0.088,0.133,0.112c0.015,0.112,0.03,0.187,0.055,0.321c0.025,0.175,0.058,0.29,0.103,0.258
				c0-0.057,0.005-0.116,0.014-0.176c0.01-0.054,0.021-0.139,0.037-0.15c0.032-0.052,0.065-0.105,0.098-0.156
				c0.06-0.102,0.089-0.191-0.028-0.292c-0.005,0.084-0.077,0.163-0.08-0.017c0.101-0.271,0.092-0.524,0.096-0.759
				c0.003-0.232,0.018-0.443,0.159-0.544c-0.181-0.322-0.25-0.076-0.301-0.362c0.06-0.131-0.017-0.726,0.057-0.81
				c0.016-0.016,0.146,0.171,0.153,0.143c0.021-0.087,0.035-0.187,0.045-0.292c0.004-0.053,0.009-0.108,0.013-0.164
				c-0.007-0.04,0.022-0.032,0.046-0.031l0.072,0.001c0.193,0.002,0.404,0.009,0.641,0.062c-0.001-0.305-0.588-0.022-0.625-0.327
				c-0.092,0.004-0.181,0.006-0.271,0.005l-0.066-0.001c-0.021,0-0.05-0.009-0.044,0.026l-0.015,0.145
				c-0.023,0.19-0.046,0.375-0.069,0.567c-0.047,0.387-0.09,0.836-0.073,1.456c0.22-0.015,0.13,0.402,0.205,0.574
				C40.656,73.82,40.527,73.812,40.438,73.919z"/>
			<path id="Shape_59_" fill="#9B9B9B" d="M41.237,72.76c-0.145,0.108-0.272,0.513,0.03,0.727
				C41.238,73.261,41.407,72.865,41.237,72.76z"/>
			<path id="Shape_60_" fill="#9B9B9B" d="M42.36,70.77c-0.285,0.047-0.616,0.003-0.912-0.032c-0.293-0.035-0.542-0.062-0.577,0.019
				C41.342,70.81,42.386,71.026,42.36,70.77z"/>
		</g>
	</g>
</g>
</svg>
